<?xml version="1.0" encoding="utf-8"?><svg viewBox="0 0 2000 502.66" xmlns="http://www.w3.org/2000/svg" xmlns:xlink="http://www.w3.org/1999/xlink"><style>:root>svg{display:none}:root>svg:target{display:block}</style><svg fill="none" viewBox="0 0 40 40" id="adv-1" xmlns="http://www.w3.org/2000/svg"><g clip-path="url(#aaclip0)" stroke="#fff" stroke-width="2" stroke-miterlimit="10"><path d="M28.443 10.146s-5.64 2.53-10.413-.469c0 0-2.7-3.04-9.651.422" stroke-linecap="round"/><path d="M3.46 19.657s5.598 2.53 6.951 2.26c0 0 7.122-6.061 7.637-11.906" stroke-linecap="round"/><path d="M22.294 26.304s.451-4.96-.703-6.624c0 0-2.36-1.546-6.641-2.512M34.318 14.386L37 11.967" stroke-linecap="round"/><path d="M32.566 36.36v-2.062M5.187 36.36v-2.062M36.163 27.036c.538 2.407 1.27 7.233-1.306 7.233H3.02c0-2.776 3.016-3.707 3.016-3.707l27.192-1.417s3.403-.088 2.84-2.566c-.655-2.905-2.553-9.44-2.553-9.44H27.39" stroke-linecap="round" stroke-linejoin="round"/><path d="M21.568 5.455a1.125 1.125 0 11-2.248 0 1.125 1.125 0 012.248 0z" fill="#394553"/></g><defs><clipPath id="aaclip0"><path fill="#fff" d="M0 0h40v40H0z"/></clipPath></defs></svg><svg fill="none" viewBox="0 0 40 40" id="adv-2" xmlns="http://www.w3.org/2000/svg"><path d="M26.498 26.553s-4.092-6.78-13.552-1.919M16.722 23.183s-2.51-5.523-10.043-3.017M11.198 31.509s-1.742 1.777-3.113 4.765" stroke="#fff" stroke-width="2" stroke-miterlimit="10" stroke-linecap="round" stroke-linejoin="round"/><path d="M10.224 32.88c10.36 6.748 23.947-1.21 23.947-1.21 1.019-14.834-6.01-25.188-6.01-25.188l-.101-.12s-1.517-2.44-8.04-2.36c0 0-3.238 1.672-2.64 5.503l.913 1.246 4.836-.563s.758-2.114 1.165-2.701" stroke="#fff" stroke-width="2" stroke-miterlimit="10" stroke-linecap="round" stroke-linejoin="round"/><path d="M23.782 8.807s2.385 1.848 2.701 4.118l.03.146c.221 1.225.467 3.078.221 3.896-.291.974-1.466 2.616-1.953 4.866" stroke="#fff" stroke-width="2" stroke-miterlimit="10" stroke-linejoin="round"/></svg><svg fill="none" viewBox="0 0 40 40" id="adv-3" xmlns="http://www.w3.org/2000/svg"><path d="M19.993 20.002a4.047 4.047 0 000 8.095 4.052 4.052 0 004.053-4.048 4.052 4.052 0 00-4.053-4.047z" stroke="#fff" stroke-width="2" stroke-miterlimit="10"/><path d="M19.988 2.981c-9.394 0-17.007 7.615-17.007 17.01C2.981 29.386 10.594 37 19.988 37 29.387 37 37 29.386 37 19.99c0-9.394-7.613-17.009-17.012-17.009z" stroke="#fff" stroke-width="2" stroke-miterlimit="10"/><path d="M9.033 20.008c0-6.053 4.908-10.962 10.96-10.962 6.059 0 10.966 4.909 10.966 10.962M22.126 20.61l2.682-4.325" stroke="#fff" stroke-width="2" stroke-miterlimit="10" stroke-linecap="round" stroke-linejoin="round"/></svg><svg fill="none" viewBox="0 0 40 40" id="adv-4" xmlns="http://www.w3.org/2000/svg"><path d="M11.781 5s2.878 5.208.72 10.048C10.752 18.97 5.729 20 10.958 35.76M29.01 5s-2.879 5.208-.722 10.047c1.75 3.924 6.775 4.954 1.545 20.713M20.392 35.76v-6.275M9.516 20.402s9.76 3.744 21.758 0" stroke="#fff" stroke-width="2" stroke-miterlimit="10" stroke-linecap="round" stroke-linejoin="round"/><path d="M20.208 29.485c-.77-.104-.943-.13-1.588-.63-4.194-3.24-9.11.028-9.11.028M20.582 29.484c.77-.103.943-.13 1.588-.628 4.194-3.241 9.435.46 9.435.46M3.923 11.416H9.77M7.261 8.902l2.515 2.509M9.776 11.438l-2.515 2.51M36.867 11.422h-5.848M33.53 8.896l-2.515 2.515M31.014 11.433l2.515 2.509" stroke="#fff" stroke-width="2" stroke-miterlimit="10" stroke-linecap="round" stroke-linejoin="round"/></svg><svg fill="none" viewBox="0 0 389 54" id="animate-line" xmlns="http://www.w3.org/2000/svg"><path d="M0 27C0 11.868 11.871 0 27.971 0c9.126 0 15.581 2.819 21.071 7.566l-8.458 10.162c-3.71-3.115-7.42-4.896-12.539-4.896-7.493 0-13.28 6.305-13.28 14.39 0 8.382 5.861 14.39 14.096 14.39 3.488 0 6.159-.741 8.31-2.15v-6.306H26.933V22.625h23.89v23.365c-5.49 4.525-13.132 8.01-22.555 8.01C12.094 54 0 42.875 0 27zM58.836 1.038h24.558c7.939 0 13.43 2.077 16.916 5.564 3.042 3.04 4.601 7.046 4.601 12.313 0 7.937-4.23 13.203-10.684 15.948l12.39 18.099h-16.62l-10.46-15.726H73.23v15.726H58.836V1.038zm23.89 24.924c4.897 0 7.717-2.374 7.717-6.305 0-4.08-2.968-6.157-7.79-6.157H73.23v12.462h9.496zM133.105.668h13.875l22.109 52.294h-15.432l-3.784-9.273H129.84l-3.71 9.273h-15.136L133.104.668zm12.613 31.82l-5.787-14.76-5.861 14.76h11.648zm28.417-31.45h22.258c13.132 0 21.59 6.75 21.59 18.396 0 12.239-9.422 18.692-22.332 18.692h-7.123v14.836h-14.393V1.038zm21.219 25.814c5.12 0 8.236-2.67 8.236-6.899 0-4.45-3.116-6.824-8.31-6.824h-6.752v13.723h6.826zm28.713-25.814h22.259c13.132 0 21.59 6.75 21.59 18.396 0 12.239-9.423 18.692-22.332 18.692h-7.123v14.836h-14.394V1.038zm21.22 25.814c5.119 0 8.235-2.67 8.235-6.899 0-4.45-3.116-6.824-8.309-6.824h-6.752v13.723h6.826zm28.709-25.814h41.549v12.61h-27.155v8.827h24.558v11.942h-24.558v18.544h-14.394V1.038zm48.375 0h14.468v51.923H322.37V1.038zm36.656 12.61h-15.581V1.038H389v12.61h-15.581v39.314h-14.393V13.648z" fill="#F0F0F0"/></svg><svg fill="none" viewBox="0 0 13 8" id="arrow-down" xmlns="http://www.w3.org/2000/svg"><path d="M1 1l5.5 5L12 1"/></svg><svg fill="none" viewBox="0 0 40 40" id="certif" xmlns="http://www.w3.org/2000/svg"><path d="M11.645 17.87h11.72M11.645 21.986h8.543M11.645 26.102H18.9M13.383 6.7v3.713H9.672" stroke="#FE0202" stroke-width="2" stroke-miterlimit="10"/><path d="M17.505 32.025H7V9.437L12.428 4h15.58v15.004M25.517 31.578l-2.594 5.177-.773-3.157-2.95 1.315 1.908-3.796" stroke="#FE0202" stroke-width="2" stroke-miterlimit="10" stroke-linejoin="round"/><path d="M27.433 31.562l2.6 5.193.773-3.157 2.952 1.315-2.812-5.625" stroke="#FE0202" stroke-width="2" stroke-miterlimit="10" stroke-linecap="round" stroke-linejoin="round"/><path d="M31.55 26.382a5.075 5.075 0 01-5.07 5.081 5.076 5.076 0 01-5.072-5.08c0-2.806 2.271-5.081 5.072-5.081 2.8 0 5.07 2.275 5.07 5.08z" stroke="#FE0202" stroke-width="2" stroke-miterlimit="10" stroke-linecap="round" stroke-linejoin="round"/><path d="M26.48 24.166c1.221 0 2.212.992 2.212 2.218 0 1.224-.99 2.217-2.213 2.217a2.215 2.215 0 01-2.14-2.784" stroke="#FE0202" stroke-width="2" stroke-miterlimit="10" stroke-linecap="round" stroke-linejoin="round"/></svg><svg viewBox="0 0 30 30" id="child-icon" xmlns="http://www.w3.org/2000/svg"><path d="M24.174 9.174l-4.888 4.889v13.794c0 .514-.184.954-.553 1.323-.368.368-.809.552-1.322.552-.514 0-.955-.184-1.323-.552a1.804 1.804 0 01-.552-1.323V21.43h-1.072v6.428c0 .514-.184.954-.552 1.323-.368.368-.81.552-1.323.552-.513 0-.954-.184-1.322-.552a1.804 1.804 0 01-.553-1.323V14.063L5.826 9.174a1.55 1.55 0 01-.469-1.138c0-.447.156-.826.469-1.139a1.55 1.55 0 011.138-.468c.447 0 .826.156 1.139.468l3.817 3.817h6.16l3.817-3.817a1.55 1.55 0 011.139-.468c.446 0 .826.156 1.138.468.313.313.469.692.469 1.139 0 .446-.156.826-.469 1.138zM18.75 6.43c0 1.038-.366 1.922-1.096 2.653-.732.731-1.616 1.097-2.654 1.097-1.038 0-1.922-.366-2.653-1.097-.731-.731-1.097-1.615-1.097-2.653s.366-1.923 1.097-2.654c.73-.73 1.615-1.096 2.653-1.096s1.922.365 2.654 1.096c.73.731 1.096 1.616 1.096 2.654z"/></svg><svg fill="none" viewBox="0 0 36 36" id="close" xmlns="http://www.w3.org/2000/svg"><path d="M2 2l16 16L2 34M34.065 34l-16-16 16-16" stroke="#fff" stroke-width="3"/></svg><svg fill="none" viewBox="0 0 20 20" id="facebook" xmlns="http://www.w3.org/2000/svg"><path d="M8.675 5.882v2.416H6v2.982h2.675V18h3.165v-6.72h2.697l.323-2.98h-3.02V5.881c0-.428.34-.64.484-.772.253-.214 1.477-.248 1.477-.248H15V2.16A15.183 15.183 0 0013.115 2c-4.533 0-4.44 3.882-4.44 3.882z" stroke="#fff" stroke-miterlimit="10"/></svg><svg fill="none" viewBox="0 0 170 30" id="footer-logo" xmlns="http://www.w3.org/2000/svg"><path d="M24.914 11.04c1.086.994 2.169 1.995 3.27 2.972.133.118.426.212.552.144.154-.083.29-.349.291-.537.016-4.28.013-8.562.012-12.842 0-.459-.152-.613-.608-.613C23.76.163 19.09.164 14.418.16c-.267 0-.52.06-.554.327a.767.767 0 00.213.575c1.05.978 2.122 1.932 3.189 2.89.412.37.425.534.055.934-2.082 2.258-4.163 4.517-6.247 6.775-.243.263-.493.52-.751.793-1.159-1.073-2.28-2.113-3.413-3.164-.877.911-1.729 1.796-2.592 2.695 6.126 5.69 12.218 11.423 18.318 17.09 2.506.071 3.696-.245 4.835-1.276.945-.855 1.41-1.948 1.545-3.23l-3.613-3.362c-.89.923-1.758 1.826-2.647 2.75-1.98-1.846-3.934-3.666-5.915-5.51l7.08-7.388c.423-.437.538-.434.993-.019zM.004 24.075c.01 2.785 2.154 4.993 4.942 5.002 1.987.007 3.983.001 5.97 0 .104 0 .216.012.376 0C7.517 25.57 3.79 22.03.002 18.511c0 1.916-.006 3.74.002 5.564zM.003 5.284c.413-.42.842-.823 1.213-1.198l.239-.248c.723-.76 1.432-1.536 2.176-2.276.467-.465.986-.879 1.482-1.316l.077-.08-.097-.001c-.93 0-1.86-.007-2.79.002-1.278.01-2.29.993-2.3 2.272 0 .829-.002 1.656 0 2.485v.36z" fill="#FE0202"/><path d="M35.05 9.53c0-5.25 4.117-9.368 9.703-9.368 3.166 0 5.405.978 7.31 2.625l-2.935 3.526c-1.286-1.08-2.574-1.698-4.35-1.698-2.6 0-4.607 2.187-4.607 4.993 0 2.909 2.034 4.993 4.89 4.993 1.21 0 2.137-.257 2.883-.746v-2.188h-3.552V8.012h8.288v8.108c-1.904 1.57-4.555 2.78-7.824 2.78-5.611 0-9.807-3.861-9.807-9.37zM55.46.522h8.52c2.754 0 4.659.72 5.869 1.93 1.055 1.056 1.596 2.446 1.596 4.273 0 2.754-1.468 4.582-3.707 5.534l4.299 6.28H66.27l-3.63-5.456h-2.187v5.457H55.46V.521zm8.288 8.648c1.7 0 2.677-.823 2.677-2.187 0-1.416-1.03-2.137-2.702-2.137h-3.27V9.17h3.295zM81.225.393h4.814l7.67 18.146h-5.354l-1.313-3.217h-6.95l-1.286 3.217h-5.251L81.225.393zm4.376 11.042l-2.008-5.122-2.033 5.122h4.04zM95.46.522h7.721c4.556 0 7.49 2.342 7.49 6.383 0 4.247-3.269 6.487-7.747 6.487h-2.471v5.148h-4.994V.521zm7.361 8.957c1.776 0 2.857-.926 2.857-2.394 0-1.544-1.081-2.368-2.883-2.368h-2.342V9.48h2.368zM112.781.522h7.722c4.556 0 7.49 2.342 7.49 6.383 0 4.247-3.268 6.487-7.747 6.487h-2.471v5.148h-4.994V.521zm7.362 8.957c1.776 0 2.857-.926 2.857-2.394 0-1.544-1.081-2.368-2.883-2.368h-2.342V9.48h2.368zM130.104.522h14.414v4.376h-9.42V7.96h8.519v4.144h-8.519v6.434h-4.994V.523zM146.886.522h5.019V18.54h-5.019V.521zM159.602 4.898h-5.406V.522H170v4.376h-5.405V18.54h-4.993V4.898zM34.835 28.196l.39-.221c.186.495.664.85 1.31.85.647 0 1.186-.354 1.186-.982 0-1.407-2.646-.991-2.646-2.7 0-.858.68-1.344 1.442-1.344.594 0 1.09.283 1.363.646l-.336.274c-.203-.292-.575-.495-1.017-.495-.532 0-1.028.292-1.028.893 0 1.372 2.646.947 2.646 2.707 0 .93-.76 1.425-1.619 1.425-.788 0-1.434-.434-1.69-1.053zM46.373 25.319a1.44 1.44 0 01-1.451 1.443h-1.39v2.415h-.424v-5.31h1.815c.804 0 1.45.646 1.45 1.452zm-.424 0c0-.602-.469-1.035-1.062-1.035h-1.354v2.07h1.354c.593 0 1.062-.407 1.062-1.035zM51.018 26.522a2.727 2.727 0 015.451 0 2.727 2.727 0 01-5.452 0zm5.025 0a2.297 2.297 0 00-2.3-2.3 2.297 2.297 0 00-2.302 2.3 2.297 2.297 0 002.301 2.301 2.297 2.297 0 002.301-2.3zM65.201 29.177h-.486l-1.532-2.433h-1.15v2.433h-.425v-5.31h1.815c.805 0 1.451.646 1.451 1.452a1.41 1.41 0 01-1.256 1.407l1.583 2.451zm-1.805-2.84c.593 0 1.052-.434 1.052-1.018 0-.593-.46-1.027-1.052-1.027h-1.363v2.044h1.363zM72.828 24.292h-1.496v4.884h-.424v-4.884h-1.496v-.425h3.416v.425zM88.894 23.867v5.309h-.415v-4.46l-1.982 4.46h-.345l-1.964-4.443v4.443h-.425v-5.309h.443l2.123 4.804 2.133-4.804h.432zM96.997 27.894h-2.478l-.451 1.283h-.469l1.92-5.308h.469l1.92 5.308h-.46l-.451-1.283zm-.142-.408l-1.097-3.114-1.098 3.114h2.195zM106.836 23.867v5.309h-.372l-3.434-4.557v4.557h-.424v-5.309h.372l3.433 4.557v-4.557h.425zM114.931 27.894h-2.478l-.451 1.283h-.469l1.92-5.308h.469l1.92 5.308h-.461l-.45-1.283zm-.142-.408l-1.098-3.114-1.097 3.114h2.195zM125.664 26.399v.123a2.727 2.727 0 11-2.726-2.726c1.009 0 1.893.549 2.363 1.372l-.372.204a2.274 2.274 0 00-1.991-1.15 2.297 2.297 0 00-2.301 2.3 2.297 2.297 0 002.301 2.301 2.298 2.298 0 002.283-2.018h-2.292V26.4h2.735zM131.282 24.283v2.035h2.105v.406h-2.105v2.035h2.407v.416h-2.832v-5.308h2.832v.416h-2.407zM144.032 23.867v5.309h-.416v-4.46l-1.982 4.46h-.345l-1.964-4.443v4.443h-.425v-5.309h.443l2.124 4.804 2.132-4.804h.433zM149.845 24.283v2.035h2.105v.406h-2.105v2.035h2.406v.416h-2.831v-5.308h2.831v.416h-2.406zM161.693 23.867v5.309h-.372l-3.434-4.557v4.557h-.425v-5.309h.372l3.434 4.557v-4.557h.425zM169.886 24.292h-1.496v4.884h-.425v-4.884h-1.495v-.425h3.416v.425z" fill="#0B0B0B"/></svg><svg viewBox="0 0 502.664 502.664" id="icon" xmlns="http://www.w3.org/2000/svg"><g fill="#010002"><path d="M153.821 358.226L0 274.337v-46.463l153.821-83.414v54.574L46.636 250.523l107.185 53.431v54.272zM180.094 387.584L282.103 115.08h32.227L212.084 387.584h-31.99zM348.843 358.226v-54.272l107.164-52.999-107.164-52.59v-53.927l153.821 83.522v46.183l-153.821 84.083z"/></g></svg><svg viewBox="0 0 21 21" id="instagram" xmlns="http://www.w3.org/2000/svg"><path d="M10.424 0C7.593 0 7.238.012 6.126.063c-1.11.05-1.867.227-2.53.484A5.11 5.11 0 001.75 1.75 5.11 5.11 0 00.547 3.596c-.257.663-.434 1.42-.484 2.53C.012 7.238 0 7.593 0 10.424s.012 3.186.063 4.298c.05 1.11.227 1.867.484 2.53a5.11 5.11 0 001.203 1.846c.58.58 1.16.936 1.846 1.203.663.257 1.42.434 2.53.484 1.112.051 1.467.063 4.298.063s3.186-.012 4.298-.063c1.11-.05 1.867-.227 2.53-.484a5.11 5.11 0 001.846-1.203 5.11 5.11 0 001.203-1.846c.257-.663.434-1.42.484-2.53.051-1.112.063-1.467.063-4.298s-.012-3.186-.063-4.298c-.05-1.11-.227-1.867-.484-2.53a5.11 5.11 0 00-1.203-1.846A5.11 5.11 0 0017.252.547c-.663-.257-1.42-.434-2.53-.484C13.61.012 13.255 0 10.424 0zm0 1.878c2.783 0 3.113.01 4.212.061 1.017.046 1.568.216 1.936.359.486.189.834.415 1.198.78.365.364.591.712.78 1.198.143.368.313.92.359 1.936.05 1.099.06 1.429.06 4.212 0 2.783-.01 3.113-.06 4.212-.046 1.017-.216 1.568-.359 1.936-.189.486-.415.834-.78 1.198-.364.365-.712.591-1.198.78-.368.143-.92.313-1.936.359-1.099.05-1.428.06-4.212.06s-3.113-.01-4.212-.06c-1.017-.046-1.568-.216-1.936-.359a3.23 3.23 0 01-1.198-.78 3.229 3.229 0 01-.78-1.198c-.143-.368-.313-.92-.36-1.936-.05-1.099-.06-1.429-.06-4.212 0-2.783.01-3.113.06-4.212.047-1.017.217-1.568.36-1.936a3.23 3.23 0 01.78-1.198 3.23 3.23 0 011.198-.78c.368-.143.92-.313 1.936-.359 1.099-.05 1.429-.06 4.212-.06z"/><path d="M10.424 13.898a3.475 3.475 0 110-6.95 3.475 3.475 0 010 6.95zm0-8.828a5.353 5.353 0 100 10.706 5.353 5.353 0 000-10.706zM17.24 4.86a1.25 1.25 0 11-2.503 0 1.25 1.25 0 012.502 0z"/></svg><svg fill="none" viewBox="0 0 177 50" id="instagram-text" xmlns="http://www.w3.org/2000/svg"><path fill-rule="evenodd" clip-rule="evenodd" d="M9.65.073c.515-.14 1.047-.056 1.552.065.757.187 1.541.393 2.158.897.318.252.607.617.57 1.037v21.76c-.019 2.382.13 4.783-.308 7.128-.327 1.906-1.075 3.812-2.439 5.222-.448.505-.962.972-1.56 1.299-.505.27-1.056.514-1.644.467-.131-.14-.253-.318-.225-.523.047-.56.253-1.103.44-1.626.55-1.812.71-3.709.775-5.596.056-8.848.075-17.686.112-26.524 0-.233-.019-.458-.056-.682-.327.01-.542.29-.775.505a12.202 12.202 0 00-2.57 3.615c-.822 1.72-1.242 3.616-1.41 5.503-.15 1.233-.047 2.485.243 3.69.252.925.616 1.84 1.223 2.598.262.299.346.775.131 1.12-.317.337-.822.16-1.205.038-1.27-.458-2.364-1.326-3.205-2.382C.448 16.414.028 14.778 0 13.18c.093-1.411.476-2.794.99-4.111a16.631 16.631 0 013.26-5.288 18.438 18.438 0 013.028-2.57C8.025.737 8.8.298 9.65.073zm47.92.355c.42-.355.999-.299 1.513-.234.906.15 1.812.374 2.653.738.262.103.486.28.692.477-.085 1.98-.16 3.952-.262 5.933 1.99.093 3.98.205 5.97.317.346.019.813.112.869.523.075.608-.01 1.262-.3 1.813-.167.29-.41.635-.793.616-1.934.028-3.868.094-5.802.122-.103 2.775-.178 5.559-.28 8.343-.047 2.532-.28 5.073-.01 7.605.122.98.252 2 .729 2.887.196.383.551.71.99.766.57.056 1.14-.187 1.57-.552.682-.588 1.149-1.363 1.55-2.158.468-.915.813-1.887 1.122-2.858.112-.43.018-.879.065-1.318.028-2.326.393-4.652 1.187-6.839.598-1.588 1.448-3.148 2.793-4.232 1.458-1.224 3.607-1.625 5.382-.878 1.149.448 2.074 1.345 2.653 2.43.075-.505-.047-1.066.187-1.543.317-.523 1.009-.541 1.55-.495.73.085 1.467.262 2.103.626.392.225.785.58.794 1.065-.131 4.242-.3 8.483-.168 12.725a15.8 15.8 0 00.364 2.738c.168.644.374 1.354.916 1.793.504.393 1.242.271 1.719-.112.775-.607 1.224-1.513 1.616-2.392.103-.252.252-.504.196-.794-.29-2.54-.346-5.129.066-7.66.29-1.701.803-3.392 1.681-4.887.888-1.523 2.186-2.859 3.793-3.616.309-.13.617-.29.963-.317 1.588-.01 3.232.514 4.363 1.663.289.317.541.672.766 1.037.102-.477 0-.981.168-1.439.252-.532.943-.57 1.457-.495.86.14 1.747.327 2.514.766.476.28.476.888.448 1.373-.047 4.784-.112 9.558-.15 14.341a38.693 38.693 0 002.925-4.802c1.046-2.027 1.924-4.167 2.373-6.409-.598-.542-1.14-1.196-1.318-1.99-.158-.654-.009-1.326.169-1.952.289-.953.99-1.832 1.971-2.103.747-.205 1.597-.233 2.298.15.533.28.832.86.916 1.439.103.588.009 1.177-.103 1.756 1.28-.205 2.56-.41 3.812-.729.859-.196 1.784-.354 2.653-.074.617.177 1.065.738 1.215 1.354.158.654.205 1.364-.047 2-.336.85-.42 1.756-.607 2.644-.411 2.345-.935 4.746-.542 7.128.14 1.065.364 2.13.775 3.12.262.524.589 1.103 1.177 1.29.589.159 1.187-.14 1.635-.505.748-.672 1.234-1.607 1.467-2.578-.504-2.504-.626-5.092-.224-7.615.29-1.896.831-3.764 1.747-5.456.719-1.28 1.719-2.457 3.064-3.092 1.486-.738 3.336-.738 4.784.084.897.467 1.588 1.252 2.102 2.112.075-.514-.056-1.084.224-1.56.411-.505 1.159-.477 1.747-.393.86.15 1.813.364 2.411 1.056.392.43.196 1.046.205 1.56-.075 2.784-.187 5.568-.177 8.361.018 2.13-.066 4.298.504 6.372.168.533.383 1.093.841 1.439.514.374 1.252.299 1.747-.084.673-.514 1.131-1.252 1.523-1.99.308-.663.691-1.308.859-2.027.01-4.69.038-9.371.047-14.061-.028-.402.112-.86.505-1.028.289-.177.626-.046.934-.01.822.15 1.7.178 2.466.57.29.14.589.393.561.748-.009 2.317 0 4.634 0 6.951 0 .271 0 .533.028.804.682-2.112 1.401-4.214 2.214-6.288.318-.766.654-1.532 1.075-2.242.317-.58 1.046-.673 1.644-.636 1.261.094 2.597.636 3.26 1.766.243.411.346.888.346 1.364-.028 2.41.112 4.821.28 7.222.056.747.066 1.495.187 2.242a.295.295 0 00.14-.224c.253-1.775.692-3.522 1.196-5.25.57-1.906 1.187-3.803 1.981-5.625.205-.457.402-.971.869-1.224.672-.364 1.485-.252 2.186-.046.794.27 1.616.55 2.27 1.12.467.393.85.972.869 1.598-.196 3.728-.374 7.475-.103 11.202.075 1.028.206 2.056.458 3.055.15.56.346 1.13.701 1.607.336.449.971.692 1.513.467.477-.187.794-.626 1.028-1.055.561-1.037.719-2.215 1.037-3.336.075-.336.234-.71.589-.831.261-.16.523.037.728.187.262.242.187.635.187.953-.075 1.803-.355 3.68-1.411 5.194-.84 1.252-2.354 2.056-3.867 1.878-1.392-.066-2.682-.869-3.429-2.027-.953-1.44-1.327-3.158-1.579-4.84-.439-3.345-.327-6.736-.243-10.109a.82.82 0 00-.29.374c-.943 1.878-1.578 3.896-2.083 5.933a38.668 38.668 0 00-1.158 8.072c.009.355-.262.616-.589.691-.747.299-1.635.364-2.373.01-.757-.356-1.299-1.038-1.644-1.785-.365-.766-.505-1.616-.626-2.448-.449-3.466-.598-6.95-.776-10.436.028-.252-.261-.093-.392-.065-1.701 2.952-2.56 6.306-2.999 9.66-.271 1.953-.355 3.924-.383 5.895a1 1 0 01-.505.87c-.579.326-1.289.317-1.934.261-.766-.075-1.588-.15-2.242-.598a1.054 1.054 0 01-.476-.822c-.047-.645-.056-1.28-.112-1.925-.356.514-.645 1.075-1.066 1.542-.672.794-1.541 1.467-2.569 1.71-1.448.327-3.074-.15-4.073-1.252-.822-.888-1.261-2.056-1.476-3.233-.729 1.588-1.906 3.008-3.476 3.812-.757.411-1.607.645-2.466.729-.944.112-1.925 0-2.775-.44-1.252-.635-2.186-1.784-2.756-3.045-.663 1.495-1.813 2.924-3.447 3.363-1.617.449-3.364-.215-4.522-1.364-1.476-1.448-2.252-3.485-2.485-5.512-.131-.981-.085-1.971-.019-2.952.149-2.205.383-4.41.962-6.54a2.338 2.338 0 000-.355c-1.177-.056-2.364-.019-3.541.018-.588 2.01-1.448 3.915-2.429 5.756-1.672 3.148-3.737 6.091-6.045 8.81.029 2.616.113 5.24-.018 7.857-.131 2.074-.439 4.176-1.308 6.082-.663 1.42-1.691 2.71-3.093 3.457-1.046.579-2.233.887-3.419.962-1.476-.103-3.008-.477-4.167-1.448-.813-.663-1.364-1.626-1.579-2.653-.15-.897-.196-1.832.094-2.71.523-1.635 1.57-3.045 2.7-4.316 1.14-1.299 2.466-2.42 3.709-3.606 1-.935 2.008-1.869 3.008-2.794.019-.729-.093-1.448-.121-2.177-.467.598-.879 1.252-1.458 1.757-1.448 1.401-3.531 2.12-5.53 1.868-1.383-.243-2.523-1.205-3.355-2.298a8.797 8.797 0 01-.84-1.27c-.739 1.457-1.794 2.942-3.43 3.456-1.625.458-3.465-.205-4.53-1.485a6.121 6.121 0 01-1.299-3.018c-.682 1.467-1.728 2.803-3.12 3.644a6.605 6.605 0 01-2.98.962 4.768 4.768 0 01-3.27-.794c-1.701-1.196-2.542-3.214-3.037-5.167-.262.87-.691 1.673-1.14 2.457-.448.701-.925 1.402-1.532 1.981-.71.7-1.607 1.261-2.607 1.392a4.229 4.229 0 01-3.25-.962c-.72-.617-1.253-1.41-1.645-2.27-.729-1.56-1.01-3.289-1.15-4.999-.896 1.981-1.961 3.943-3.53 5.484-1.206 1.234-2.729 2.168-4.41 2.579-1.327.346-2.71.308-4.065.187-1.167-.122-2.354-.346-3.391-.925-.495-.299-1.009-.7-1.159-1.29-.093-.644.271-1.223.626-1.728.346-.457.739-.953 1.3-1.158.522-.168.97.252 1.382.514.635.55 1.345 1.055 2.177 1.242.812.215 1.793-.056 2.27-.775.439-.673.56-1.495.607-2.28-.01-1.485-.962-2.747-1.962-3.756-.943-.896-1.924-1.756-2.896-2.615-1.383 2.354-2.859 4.643-4.26 6.988-.841 1.504-1.84 2.924-3.12 4.082-.926.823-2.037 1.533-3.28 1.7-.84.122-1.691-.289-2.195-.943-.673-.85-.953-1.924-1.122-2.98-.252-1.887-.158-3.793-.13-5.69.028-2.41.158-4.82.242-7.23.01-.515.075-1.038.02-1.552-.16.038-.356.038-.459.187-2.307 2.597-3.746 5.83-4.867 9.09a52.197 52.197 0 00-2.074 8.764c-.374.308-.869.392-1.336.308-.56-.084-1.14 0-1.7-.121-.496-.131-.85-.57-1.047-1.028-.411-.944-.458-1.99-.448-2.999.046-5.708.084-11.407.121-17.116-.01-.27.066-.626.355-.72.589-.186 1.215-.027 1.803.104.664.177 1.374.336 1.869.84.252.234.15.617.168.925-.01 3.168-.056 6.335-.047 9.493 1.037-2.803 2.065-5.653 3.681-8.185.365-.523.71-1.055 1.15-1.513.766-.897 1.83-1.682 3.054-1.71.916-.037 1.766.393 2.57.785.747.383 1.466.925 1.775 1.728.196.477.121 1 .112 1.495-.084 2.719-.159 5.447-.252 8.166-.02 1.111-.103 2.223-.038 3.335.028.533.094 1.065.271 1.56.112.28.28.598.607.654.309.038.57-.187.795-.373.504-.458.906-1.01 1.308-1.551 1.14-1.589 2.12-3.28 3.092-4.97.57-1.047 1.168-2.084 1.7-3.15-.186-.308-.476-.56-.635-.887a4.378 4.378 0 01-.477-3.447c.3-1.121 1.01-2.12 1.925-2.822a5.696 5.696 0 012.196-.915 2.944 2.944 0 012.242.318c.458.28.691.812.71 1.336.047.98-.318 1.924-.785 2.774-.448.841-1.028 1.607-1.635 2.336 1.953 1.42 3.98 2.784 5.662 4.522.878.934 1.616 2.074 1.766 3.372.102.673.009 1.346-.094 2.01 1.84-1.598 3.26-3.794 3.634-6.223.047-3.718.038-7.437.075-11.155-1.7-.028-3.4-.038-5.1-.084-.337-.197-.403-.626-.421-.99 0-.85.243-1.748.822-2.392.093-.14.261-.094.402-.103l4.55.056c.074-1.72.111-3.447.177-5.167.103-.56.084-1.12.42-1.513zm18.554 14.35c-1 .196-1.738 1-2.205 1.86-.617 1.167-.916 2.475-1.102 3.774a27.474 27.474 0 00-.215 5.11c.093 1.308.27 2.654.878 3.84.336.645.86 1.243 1.56 1.495.458.177 1 .159 1.439-.075.897-.467 1.513-1.326 1.971-2.205.804-1.625 1.14-3.438 1.317-5.222.14-1.869.197-3.775-.252-5.596-.233-.87-.607-1.747-1.28-2.364-.55-.533-1.354-.794-2.111-.617zm21.18.066c-1.196.327-2.028 1.364-2.56 2.429-.776 1.653-1.093 3.494-1.234 5.306-.084 2.037-.112 4.13.524 6.092.317.925.86 1.878 1.784 2.298.58.28 1.29.215 1.831-.121.458-.3.86-.692 1.177-1.14.739-1.01 1.178-2.214 1.486-3.42.439-1.793.589-3.662.579-5.502-.019-1.262-.131-2.542-.523-3.747-.262-.738-.654-1.476-1.308-1.934a2.06 2.06 0 00-1.756-.261zm36.744.159c-1.046.168-1.84.98-2.317 1.877-.85 1.607-1.102 3.438-1.261 5.223-.131 2.008-.187 4.055.29 6.026.233.962.635 1.943 1.42 2.588.514.41 1.224.644 1.859.402.831-.28 1.42-1 1.887-1.71 1.065-1.766 1.467-3.85 1.663-5.877.15-1.85.196-3.737-.262-5.55-.233-.887-.616-1.784-1.326-2.4-.523-.467-1.261-.71-1.953-.58zM99.817 37.294c-1.84 1.822-3.55 3.859-4.578 6.269-.365.86-.57 1.831-.3 2.737.178.71.739 1.318 1.458 1.505.888.233 1.906.233 2.71-.272.72-.476 1.196-1.251 1.485-2.055.542-1.55.654-3.204.729-4.83.028-1.588.065-3.177.075-4.774-.58.411-1.056.944-1.58 1.42z" fill="#fff"/></svg><svg fill="none" viewBox="0 0 170 30" id="logo" xmlns="http://www.w3.org/2000/svg"><path d="M24.914 10.88c1.086.993 2.169 1.995 3.27 2.972.133.118.426.212.552.144.154-.083.29-.349.291-.537.016-4.28.013-8.562.012-12.843 0-.458-.152-.612-.608-.612C23.76.003 19.09.004 14.418 0c-.267 0-.52.06-.554.327a.767.767 0 00.213.575c1.05.978 2.122 1.932 3.189 2.89.412.37.425.533.055.934-2.082 2.258-4.163 4.517-6.247 6.774-.243.264-.493.521-.751.794-1.159-1.073-2.28-2.113-3.413-3.164-.877.91-1.729 1.796-2.592 2.695 6.126 5.69 12.218 11.423 18.318 17.09 2.506.071 3.696-.245 4.835-1.276.945-.855 1.41-1.949 1.545-3.23l-3.613-3.362-2.647 2.749c-1.98-1.846-3.934-3.665-5.915-5.51l7.08-7.387c.423-.437.538-.435.993-.019zM.004 23.914c.01 2.785 2.154 4.994 4.942 5.003 1.987.006 3.983.001 5.97 0 .104 0 .216.011.376 0C7.517 25.41 3.79 21.869.002 18.35c0 1.916-.006 3.74.002 5.563zM.003 5.124c.413-.42.842-.823 1.213-1.198.08-.082.16-.164.239-.248.723-.76 1.432-1.535 2.176-2.275.467-.466.986-.88 1.482-1.317l.077-.08-.097-.001c-.93 0-1.86-.007-2.79.002C1.025.017.013 1 .003 2.28c0 .829-.002 1.656 0 2.485v.36z" fill="#FE0202"/><path d="M35.05 9.37c0-5.25 4.117-9.369 9.703-9.369 3.166 0 5.405.979 7.31 2.626l-2.935 3.526c-1.286-1.08-2.574-1.699-4.35-1.699-2.6 0-4.607 2.188-4.607 4.994 0 2.908 2.034 4.993 4.89 4.993 1.21 0 2.137-.257 2.883-.746v-2.188h-3.552V7.852h8.288v8.108c-1.904 1.57-4.555 2.78-7.824 2.78-5.611 0-9.807-3.861-9.807-9.37zM55.46.362h8.52c2.754 0 4.659.72 5.869 1.93 1.055 1.055 1.596 2.445 1.596 4.273 0 2.754-1.468 4.581-3.707 5.534l4.299 6.28H66.27l-3.63-5.457h-2.187v5.457H55.46V.362zm8.288 8.648c1.7 0 2.677-.824 2.677-2.188 0-1.416-1.03-2.136-2.702-2.136h-3.27V9.01h3.295zM81.225.233h4.814l7.67 18.146h-5.354l-1.313-3.217h-6.95l-1.286 3.217h-5.251L81.225.233zm4.376 11.042l-2.008-5.122-2.033 5.122h4.04zM95.46.362h7.721c4.556 0 7.49 2.342 7.49 6.383 0 4.247-3.269 6.486-7.747 6.486h-2.471v5.148h-4.994V.362zm7.361 8.957c1.776 0 2.857-.927 2.857-2.394 0-1.544-1.081-2.368-2.883-2.368h-2.342V9.32h2.368zM112.781.362h7.722c4.556 0 7.49 2.342 7.49 6.383 0 4.247-3.268 6.486-7.747 6.486h-2.471v5.148h-4.994V.362zm7.362 8.957c1.776 0 2.857-.927 2.857-2.394 0-1.544-1.081-2.368-2.883-2.368h-2.342V9.32h2.368zM130.104.362h14.414v4.375h-9.42V7.8h8.519v4.144h-8.519v6.435h-4.994V.362zM146.886.362h5.019v18.017h-5.019V.362zM159.602 4.737h-5.406V.362H170v4.375h-5.405V18.38h-4.993V4.737zM34.835 28.036l.39-.221c.186.495.664.85 1.31.85.647 0 1.186-.355 1.186-.983 0-1.406-2.646-.99-2.646-2.698 0-.859.68-1.345 1.442-1.345.594 0 1.09.283 1.363.646l-.336.274c-.203-.292-.575-.496-1.017-.496-.532 0-1.028.293-1.028.893 0 1.372 2.646.948 2.646 2.708 0 .93-.76 1.425-1.619 1.425-.788 0-1.434-.434-1.69-1.053zM46.373 25.159a1.44 1.44 0 01-1.451 1.442h-1.39v2.416h-.424v-5.31h1.815c.804 0 1.45.646 1.45 1.452zm-.424 0c0-.603-.469-1.035-1.062-1.035h-1.354v2.07h1.354c.593 0 1.062-.407 1.062-1.035zM51.018 26.362a2.727 2.727 0 015.451 0 2.727 2.727 0 01-5.451 0zm5.025 0a2.297 2.297 0 00-2.3-2.301 2.297 2.297 0 00-2.302 2.301 2.297 2.297 0 002.301 2.301 2.297 2.297 0 002.301-2.301zM65.201 29.017h-.486l-1.532-2.434h-1.15v2.434h-.425v-5.31h1.815c.805 0 1.451.646 1.451 1.452a1.41 1.41 0 01-1.256 1.406l1.583 2.452zm-1.805-2.84c.593 0 1.052-.434 1.052-1.018 0-.594-.46-1.027-1.052-1.027h-1.363v2.043h1.363v.002zM72.828 24.132h-1.496v4.884h-.424v-4.884h-1.496v-.425h3.416v.425zM88.894 23.707v5.309h-.415v-4.46l-1.982 4.46h-.345l-1.964-4.443v4.443h-.425v-5.309h.443l2.123 4.804 2.133-4.804h.432zM96.997 27.734h-2.478l-.451 1.283h-.469l1.92-5.308h.469l1.92 5.308h-.46l-.451-1.283zm-.142-.408l-1.097-3.114-1.098 3.114h2.195zM106.836 23.707v5.309h-.372l-3.434-4.557v4.557h-.424v-5.309h.372l3.433 4.557v-4.557h.425zM114.931 27.734h-2.478l-.451 1.283h-.469l1.92-5.308h.469l1.92 5.308h-.461l-.45-1.283zm-.142-.408l-1.098-3.114-1.097 3.114h2.195zM125.664 26.238v.124a2.727 2.727 0 11-2.726-2.726c1.009 0 1.893.549 2.363 1.372l-.372.204a2.274 2.274 0 00-1.991-1.151 2.297 2.297 0 00-2.301 2.301 2.297 2.297 0 002.301 2.301 2.297 2.297 0 002.283-2.018h-2.292v-.407h2.735zM131.282 24.123v2.034h2.105v.407h-2.105V28.6h2.407v.416h-2.832v-5.308h2.832v.416h-2.407zM144.032 23.707v5.309h-.416v-4.46l-1.982 4.46h-.345l-1.964-4.443v4.443h-.425v-5.309h.443l2.124 4.804 2.132-4.804h.433zM149.845 24.123v2.034h2.105v.407h-2.105V28.6h2.406v.416h-2.831v-5.308h2.831v.416h-2.406zM161.693 23.707v5.309h-.372l-3.434-4.557v4.557h-.425v-5.309h.372l3.434 4.557v-4.557h.425zM169.886 24.132h-1.496v4.884h-.425v-4.884h-1.495v-.425h3.416v.425z" fill="#fff"/></svg><svg fill="none" viewBox="0 0 28 28" id="logo-icon" xmlns="http://www.w3.org/2000/svg"><path d="M23.065 10.553l-6.826 7.151 5.703 5.334 2.552-2.661 3.483 3.253c-.13 1.241-.578 2.3-1.489 3.126-1.098.997-2.246 1.303-4.662 1.235-5.882-5.486-11.756-11.035-17.662-16.543l2.5-2.61 3.291 3.064c.25-.265.49-.514.724-.77l6.024-6.557c.355-.387.343-.545-.054-.903-1.03-.929-2.063-1.853-3.076-2.799a.747.747 0 01-.205-.556c.033-.26.277-.317.534-.317 4.504.004 9.008.003 13.512.004.438 0 .585.15.585.593.001 4.145.004 8.288-.011 12.432 0 .181-.133.44-.28.519-.121.066-.405-.025-.534-.14-1.062-.946-2.104-1.914-3.152-2.877-.44-.403-.55-.405-.957.022zM.003 23.15c.01 2.695 2.077 4.834 4.764 4.842 1.917.006 3.84.001 5.757 0 .1 0 .208.01.363 0-3.64-3.395-7.233-6.822-10.885-10.228 0 1.855-.005 3.62 0 5.386zm0-18.19C.4 4.551.813 4.16 1.17 3.798l.231-.24C2.1 2.822 2.783 2.071 3.5 1.356 3.95.905 4.45.505 4.928.082l.074-.078h-.093c-.896 0-1.794-.006-2.69.002C.988.016.012.966.002 2.204c0 .803-.002 1.603 0 2.406v.348z" fill="#FE0202"/></svg><svg fill="none" viewBox="0 0 144 144" id="logo-text--rounded" xmlns="http://www.w3.org/2000/svg"><path d="M125.728 83.105l-.245 1.807-5.14-.697a7.081 7.081 0 01-.934-2.447 8.592 8.592 0 01-.065-2.77c.18-1.33.632-2.49 1.354-3.478a6.717 6.717 0 012.752-2.196c1.111-.463 2.307-.608 3.587-.434 1.28.174 2.394.632 3.342 1.374a6.53 6.53 0 012.067 2.85c.431 1.157.556 2.408.373 3.75-.143 1.055-.448 1.985-.915 2.791a5.803 5.803 0 01-1.805 1.998l-1.009-1.325c1.16-.917 1.841-2.122 2.043-3.615.137-1.004.04-1.938-.291-2.8a4.731 4.731 0 00-1.554-2.11c-.705-.556-1.54-.9-2.507-1.03-.953-.13-1.85-.021-2.69.325a4.913 4.913 0 00-2.06 1.619c-.548.743-.89 1.611-1.024 2.603-.16 1.18-.017 2.247.428 3.202l4.293.583zM114.715 94.266l4.88-1.05c.115-.337.212-.599.291-.786l1.28-3.027-3.727-1.576.74-1.75 12.249 5.18-2.02 4.778c-.671 1.587-1.579 2.675-2.722 3.264s-2.379.602-3.709.04c-.945-.4-1.652-.974-2.119-1.722-.468-.748-.671-1.617-.609-2.609l-5.341 1.166.807-1.908zm6.68-1.259c-.469 1.108-.587 2.055-.356 2.84.232.787.791 1.367 1.678 1.742.886.375 1.686.37 2.4-.016.725-.381 1.322-1.126 1.79-2.234l1.259-2.975-5.513-2.332-1.258 2.975z" fill="#FE0202"/><path d="M110.621 105.984l4.303-5.608-1.748-3.184 1.191-1.553 6.886 12.874-1.145 1.493-14.23-3.302 1.215-1.583 3.528.863zm1.611.398l6.917 1.69-3.424-6.243-3.493 4.553zM109.575 120.438c-1.355 1.064-2.675 1.576-3.961 1.539-1.286-.038-2.374-.625-3.266-1.761-.891-1.136-1.202-2.333-.933-3.59.269-1.258 1.081-2.419 2.436-3.482l2.586-2.029-2.487-3.169 1.495-1.173 8.211 10.463-4.081 3.202zm-4.659-6.029c-.946.743-1.512 1.509-1.698 2.299-.177.799.031 1.578.625 2.335.594.757 1.297 1.14 2.108 1.147.819.018 1.702-.345 2.648-1.088l2.541-1.994-3.683-4.693-2.541 1.994zM96.16 128.354c-1.578.689-2.985.854-4.22.494-1.235-.36-2.14-1.201-2.718-2.525-.578-1.323-.578-2.56-.002-3.71.577-1.149 1.654-2.068 3.233-2.757l3.013-1.315-1.61-3.692 1.741-.759 5.318 12.19-4.754 2.074zm-2.993-7.006c-1.103.481-1.844 1.081-2.222 1.798-.373.729-.367 1.535.018 2.418.385.882.97 1.429 1.752 1.64.788.223 1.734.094 2.837-.388l2.96-1.291-2.385-5.468-2.96 1.291zM84.188 130.456l-.746-4.576-6.582 1.074-.263-1.613 6.582-1.073-.866-5.307 1.875-.306 2.141 13.126-9.263 1.511-.266-1.631 7.388-1.205zM72.121 133.305l-1.9-.022.154-13.299 1.9.022-.154 13.299zM62.765 130.951l4.489.803-.291 1.627-10.83-1.937.292-1.627 4.488.803 2.051-11.465 1.852.331-2.051 11.465zM37.816 114.911l-1.502-1.035 2.943-4.271a7.077 7.077 0 012.605.272 8.594 8.594 0 012.5 1.192c1.106.762 1.937 1.688 2.493 2.779a6.714 6.714 0 01.717 3.447c-.089 1.2-.5 2.333-1.233 3.397-.733 1.063-1.644 1.851-2.734 2.361-1.1.503-2.26.689-3.476.558-1.228-.138-2.4-.592-3.516-1.361-.876-.603-1.568-1.296-2.076-2.076a5.813 5.813 0 01-.968-2.513l1.638-.302c.294 1.449 1.062 2.6 2.303 3.456.834.575 1.711.909 2.63 1.004a4.737 4.737 0 002.584-.434c.814-.378 1.497-.968 2.05-1.771.547-.793.855-1.642.925-2.548a4.91 4.91 0 00-.514-2.569c-.416-.825-1.036-1.521-1.86-2.089-.98-.676-1.997-1.03-3.051-1.064l-2.458 3.567zM32.841 100.052l-1.25 4.833c.25.254.44.457.571.612l2.132 2.502 3.08-2.624 1.233 1.447-10.126 8.623-3.363-3.949c-1.117-1.311-1.682-2.61-1.696-3.896-.014-1.286.529-2.397 1.628-3.334.781-.665 1.611-1.039 2.49-1.121.877-.082 1.746.126 2.604.627l1.355-5.297 1.342 1.577zm-1.871 6.535c-.78-.916-1.573-1.447-2.38-1.592-.805-.146-1.575.094-2.308.718-.733.624-1.087 1.341-1.062 2.152.015.819.413 1.687 1.193 2.603l2.094 2.459 4.557-3.881-2.094-2.459z" fill="#FE0202"/><path d="M24.212 91.086l3.066 6.37 3.63-.124.849 1.763-14.596.34-.816-1.694 9.364-11.213.865 1.798-2.362 2.76zm-1.08 1.259l-4.629 5.411 7.117-.24-2.489-5.171zM11.795 83.59c-.329-1.691-.184-3.1.436-4.227.619-1.128 1.637-1.83 3.055-2.105 1.417-.276 2.624-.008 3.621.805.997.812 1.66 2.064 1.99 3.755l.628 3.226 3.953-.77.363 1.865-13.054 2.542-.992-5.091zm7.49-1.4c-.23-1.182-.654-2.035-1.273-2.56-.63-.522-1.418-.691-2.363-.507-.945.184-1.606.635-1.982 1.354-.389.72-.468 1.671-.238 2.853l.617 3.17 5.856-1.14-.617-3.17zM10.83 67.995c.105-1.72.6-3.047 1.483-3.982.882-.935 2.044-1.358 3.486-1.27 1.44.09 2.542.653 3.303 1.69.76 1.037 1.088 2.415.982 4.134l-.203 3.28 4.02.25-.117 1.896-13.275-.82.32-5.178zm7.6.527c.074-1.201-.122-2.133-.588-2.797-.48-.664-1.2-1.025-2.16-1.085-.961-.06-1.714.212-2.259.812-.557.6-.873 1.501-.947 2.702l-.2 3.224 5.955.368.2-3.224zM14.387 56.282l4.415 1.414 2.035-6.351 1.556.499-2.035 6.35 5.12 1.641-.579 1.81-12.666-4.058 2.864-8.939 1.574.505-2.284 7.129zM17.15 44.58l.881-1.684 11.786 6.165-.881 1.683-11.785-6.164zM23.54 37.189l-2.75 3.638-1.318-.997 6.633-8.776 1.319.996-2.75 3.638 9.292 7.022-1.134 1.501-9.292-7.022zM48.888 22.253l1.6-.875 2.489 4.55a7.08 7.08 0 01-1.416 2.204 8.595 8.595 0 01-2.19 1.696c-1.179.644-2.38.97-3.604.974a6.714 6.714 0 01-3.4-.912c-1.033-.62-1.858-1.496-2.478-2.63-.62-1.133-.913-2.302-.877-3.505a6.53 6.53 0 011.067-3.355c.676-1.034 1.608-1.876 2.798-2.526.933-.51 1.863-.817 2.789-.919.93-.12 1.824-.03 2.68.267l-.469 1.599c-1.426-.39-2.8-.223-4.122.5-.89.486-1.583 1.118-2.082 1.896a4.737 4.737 0 00-.775 2.503c-.03.897.19 1.773.658 2.629.462.845 1.081 1.502 1.858 1.972.77.46 1.612.692 2.525.698.924 0 1.825-.24 2.703-.72 1.045-.571 1.82-1.32 2.324-2.245l-2.078-3.801zM64.454 24.44l-3.739-3.308c-.339.107-.607.184-.804.231l-3.197.763.939 3.937-1.848.44-3.087-12.936 5.045-1.204c1.676-.4 3.09-.314 4.242.258 1.152.571 1.895 1.56 2.23 2.964.239.998.195 1.907-.13 2.727-.325.82-.906 1.498-1.74 2.036l4.103 3.611-2.014.481zm-4.973-4.634c1.17-.28 2.003-.745 2.498-1.397.496-.652.632-1.447.409-2.383-.224-.937-.702-1.578-1.436-1.923-.737-.359-1.69-.398-2.86-.119l-3.142.75 1.389 5.821 3.142-.75z" fill="#FE0202"/><path d="M76.547 20.766l-7.066-.163-1.54 3.29-1.956-.046 6.33-13.157 1.88.044 5.732 13.436-1.994-.046-1.386-3.358zm-.63-1.535L73.2 12.65l-3.019 6.45 5.737.132zM89.12 13.124c1.655.476 2.844 1.245 3.566 2.31.722 1.064.884 2.29.485 3.678s-1.187 2.34-2.363 2.86c-1.177.518-2.594.539-4.25.063l-3.159-.907-1.112 3.87-1.826-.524 3.673-12.783 4.985 1.433zm-2.16 7.307c1.157.332 2.11.342 2.858.03.752-.324 1.261-.949 1.527-1.874.266-.925.164-1.719-.304-2.38-.466-.675-1.276-1.178-2.433-1.51l-3.105-.892-1.647 5.734 3.104.892zM103.197 19.222c1.483.876 2.441 1.92 2.873 3.131.432 1.212.281 2.44-.454 3.682-.734 1.244-1.736 1.968-3.006 2.175-1.269.206-2.645-.129-4.129-1.005l-2.83-1.672-2.048 3.468-1.636-.966 6.764-11.451 4.466 2.638zm-3.924 6.53c1.036.613 1.956.862 2.759.748.809-.125 1.459-.602 1.948-1.43.49-.83.591-1.623.303-2.382-.281-.769-.94-1.46-1.976-2.072l-2.78-1.643-3.035 5.137 2.781 1.643zM111.946 27.621l-3.255 3.302 4.75 4.682-1.147 1.163-4.75-4.681-3.774 3.83-1.353-1.334 9.336-9.473 6.685 6.589-1.161 1.177-5.331-5.255zM121.221 35.44l1.106 1.544-10.812 7.745-1.106-1.545 10.812-7.744zM124.969 44.514l-2.008-4.094 1.484-.728 4.844 9.877-1.484.728-2.008-4.094-10.457 5.129-.829-1.69 10.458-5.128z" fill="#FE0202"/></svg><svg viewBox="0 0 30 30" id="man-icon" xmlns="http://www.w3.org/2000/svg"><g clip-path="url(#arclip0)"><path d="M23.571 11.786v6.964c0 .447-.156.826-.468 1.138a1.55 1.55 0 01-1.139.47 1.55 1.55 0 01-1.138-.47 1.55 1.55 0 01-.469-1.138v-5.893h-1.071v15.268c0 .513-.184.954-.553 1.323-.368.368-.809.552-1.322.552-.514 0-.955-.184-1.323-.552a1.805 1.805 0 01-.552-1.323v-7.768h-1.072v7.768c0 .513-.184.954-.552 1.323-.369.368-.81.552-1.323.552-.513 0-.954-.184-1.322-.552a1.804 1.804 0 01-.553-1.323V12.857H9.643v5.893c0 .447-.157.826-.469 1.138a1.55 1.55 0 01-1.138.47 1.55 1.55 0 01-1.139-.47 1.55 1.55 0 01-.469-1.138v-6.964c0-.893.313-1.652.938-2.277.625-.625 1.384-.938 2.277-.938h10.714c.893 0 1.652.313 2.277.938.625.625.937 1.384.937 2.277zm-4.821-7.5c0 1.038-.366 1.922-1.097 2.653-.73.731-1.615 1.097-2.653 1.097s-1.922-.366-2.654-1.097c-.73-.73-1.096-1.615-1.096-2.653s.365-1.923 1.096-2.654C13.078.902 13.962.536 15 .536c1.038 0 1.922.365 2.653 1.096.731.731 1.097 1.616 1.097 2.654z"/></g><defs><clipPath id="arclip0"><path fill="#fff" d="M0 0h30v30H0z"/></clipPath></defs></svg><svg viewBox="0 0 182 30" fill="none" id="partner-1" xmlns="http://www.w3.org/2000/svg"><g clip-path="url(#asclip0)" fill="#0B0B0B"><path d="M118.812 2.97c.297 0 .594-.297.594-.594 0-.594-.297-.594-.891-.594h-.891v2.673h.297V2.97h.891l.594 1.188h.297l-.891-1.188zm-.297-.297h-.594v-.89h.891c.297 0 .594 0 .594.593 0 .297-.297.297-.891.297z"/><path d="M118.515.594c-1.188 0-2.079.891-2.079 2.08 0 1.187.891 2.078 2.079 2.078 1.188 0 2.376-.89 2.376-2.079 0-1.188-1.188-2.08-2.376-2.08zm0 4.158c-1.188 0-2.079-.89-2.079-2.079 0-1.188.891-2.08 2.079-2.08 1.188 0 2.079.892 2.079 2.08 0 1.188-.891 2.08-2.079 2.08zM54.06 29.406V7.723h-4.456v21.683h4.455zM54.06 6.238V.89h-4.456v5.347h4.455zM17.228 7.723v2.079c-1.783-1.188-3.862-2.08-6.238-2.08C4.752 7.723 0 12.773 0 18.713c0 5.941 4.752 10.99 10.99 10.99 2.376 0 4.753-.89 6.535-2.078v2.079h4.752V7.723h-5.05zM10.99 24.95c-3.564 0-6.535-2.97-6.535-6.534 0-3.565 2.97-6.535 6.535-6.535s6.535 2.97 6.535 6.535c0 3.564-2.97 6.534-6.535 6.534zM117.327 14.554c-.297-1.782-1.782-2.97-3.862-2.97-1.188 0-3.861.297-3.861 2.08 0 2.376 3.861 2.376 5.049 2.673 6.238.594 8.317 3.267 8.317 6.534 0 2.377-1.188 4.159-2.97 5.644-1.485 1.188-4.455 1.485-6.535 1.485-4.158 0-8.316-2.376-8.911-7.426h4.753c.297 2.376 2.673 3.267 4.158 3.267 2.674 0 4.456-1.188 4.456-2.376 0-2.079-1.782-2.376-4.753-2.673-1.485-.297-4.455-.594-5.643-1.782-1.188-1.188-2.376-2.376-2.376-4.456 0-3.861 2.97-6.831 8.613-6.831 4.753 0 8.614 2.673 8.614 7.128l-5.049-.297zM41.287.891v8.911c-1.782-1.188-4.158-2.08-6.534-2.08-5.941 0-10.99 4.753-10.99 10.991 0 5.94 4.752 10.99 10.99 10.99 2.376 0 4.752-.891 6.534-2.08v2.08h4.753V.891h-4.753zm-6.534 24.06c-3.565 0-6.535-2.97-6.535-6.535 0-3.564 2.97-6.535 6.535-6.535 3.564 0 6.534 2.97 6.534 6.535 0 3.564-2.97 6.535-6.534 6.535zM97.723 7.723v2.079c-1.782-1.188-4.159-2.08-6.535-2.08-5.94 0-10.99 4.753-10.99 10.99 0 5.941 4.753 10.99 10.99 10.99 2.376 0 4.753-.89 6.535-2.078v2.079h4.752V7.723h-4.752zM91.485 24.95c-3.564 0-6.534-2.97-6.534-6.534 0-3.565 2.97-6.535 6.534-6.535 3.564 0 6.535 2.97 6.535 6.535 0 3.564-2.97 6.534-6.535 6.534zM73.663.891v8.911c-1.782-1.188-4.158-2.08-6.534-2.08-5.941 0-10.99 4.753-10.99 10.991 0 5.94 4.752 10.99 10.99 10.99 2.376 0 4.752-.891 6.534-2.08v2.08h4.753V.891h-4.753zm-6.534 24.06c-3.565 0-6.535-2.97-6.535-6.535 0-3.564 2.97-6.535 6.535-6.535 3.564 0 6.534 2.97 6.534 6.535 0 3.564-2.97 6.535-6.534 6.535zM179.703 2.97c.297 0 .594-.297.594-.594 0-.594-.297-.594-.891-.594h-.891v2.673h.297V2.97h.891l.594 1.188h.297l-.891-1.188zm-.297-.297h-.594v-.89h.594c.297 0 .594 0 .594.593.297.297-.297.297-.594.297z"/><path d="M179.406.594c-1.188 0-2.079.891-2.079 2.08 0 1.187.891 2.078 2.079 2.078 1.188 0 2.079-.89 2.079-2.079.297-1.188-.891-2.08-2.079-2.08zm0 4.158c-1.188 0-2.079-.89-2.079-2.079 0-1.188.891-2.08 2.079-2.08 1.188 0 2.079.892 2.079 2.08 0 1.188-.891 2.08-2.079 2.08zM146.436 16.337c-3.565-4.456-8.911-7.723-15.743-8.317.297 2.97 1.188 5.643 2.376 8.317h13.367zM141.98 26.139c2.971 1.782 6.238 2.673 9.505 2.97 0-.891-.297-2.08-.297-2.97h-9.208zM133.961 17.822c.594.89.891 1.485 1.485 2.376h13.663c-.297-.891-.891-1.485-1.485-2.376h-13.663zM156.535 26.139c-.297.89-.297 2.079-.297 2.97 3.267-.297 6.534-1.188 9.505-2.97h-9.208zM168.416 24.357a9.04 9.04 0 002.376-2.377h-33.861l2.376 2.377h29.109zM173.762 17.822c-.594.89-.891 1.485-1.485 2.376h-13.663c.297-.891.891-1.485 1.485-2.376h13.663zM174.653 16.337c1.189-2.377 2.08-5.05 2.377-8.317-6.832.594-12.179 3.861-15.743 8.317h13.366zM151.782 26.139c.595 1.188 1.486 2.079 2.08 2.97.891-.891 1.485-2.08 2.079-2.97h-4.159z"/><path d="M149.406 20.198c-.297-.891-.297-1.485-.594-2.376h10.099c0 .89-.297 1.485-.297 2.376h-9.208zM158.911 16.337c.297-5.05-1.188-10.693-5.347-16.337a24.726 24.726 0 00-5.049 16.337h10.396z"/></g><defs><clipPath id="asclip0"><path fill="#fff" d="M0 0h181.782v30H0z"/></clipPath></defs></svg><svg fill="none" viewBox="0 0 61 30" id="partner-2" xmlns="http://www.w3.org/2000/svg"><g clip-path="url(#atclip0)" fill="#0B0B0B"><path d="M32.53.104c-.182.03-.396.764-.763 1.13-.275.275-.641.245-.825.58-.06.123-.06.337-.122.55-.153.428-.703.459-.703.917 0 .489.459.58.856.917.305.275.336.458.703.61.335.123.794-.244 1.222-.122.366.092.702.184.763.55.061.336 0 .856-.427.795-.153-.03-.764-.214-1.528-.153-.916.092-1.986.397-2.077 1.436-.062.58.672 1.252 1.344 1.13.489-.092.244-.641.52-.916.335-.336 2.26 1.222 4.063 1.222.763 0 1.313-.184 1.863-.764.061-.03.122-.153.183-.153.062 0 .214.092.245.122 1.436 1.161 2.535 3.483 7.851 3.514.734 0 1.589.366 2.292 1.008.61.58.977 1.466 1.344 2.383.52 1.344 1.497 2.688 2.933 4.155.091.091 1.283 1.008 1.375 1.07 0 0 .091.213.06.335-.03.886-.152 3.452 1.742 3.544.458.03.336-.305.336-.52 0-.458-.091-.885.153-1.344.336-.641-.672-.916-.642-2.26.031-1.009-.824-.856-1.252-1.62-.245-.458-.459-.672-.459-1.222.092-3.085-.641-5.102-1.038-5.59-.306-.367-.55-.52-.275-.703 1.588-1.039 1.955-2.047 1.955-2.047.856-1.986 1.62-3.819 2.658-4.613.214-.153.764-.58 1.1-.733.978-.459 1.497-.734 1.772-1.009.458-.427.794-1.344.366-1.924-.55-.672-1.466-.153-1.863.091-2.933 1.742-3.36 4.797-4.369 6.569-.825 1.405-2.139 2.444-3.3 2.536-.885.06-1.832-.123-2.78-.52-2.29-1.008-3.574-2.322-3.849-2.536-.611-.488-5.407-5.193-9.318-5.377 0 0-.489-.977-.611-.977-.275-.03-.58.58-.794.641-.184 0-.52-.733-.703-.702zM15.392 28.241a.678.678 0 01-.672-.672V15.44h-4.003v13.382c0 .641.52 1.191 1.192 1.191h6.996c.642 0 1.192-.55 1.192-1.191V15.44h-4.003V27.57c-.03.367-.336.672-.702.672zM28.804 15.44h-6.05c-.702 0-1.313.58-1.313 1.314v13.26h4.002v-12.16c0-.367.306-.672.672-.672.367 0 .672.275.672.672v12.19h4.003v-12.19c0-.367.305-.672.672-.672.366 0 .672.305.672.672v12.16h4.002v-13.26c0-.733-.58-1.314-1.314-1.314h-6.018zM8.03 26.347H3.995v3.666H-.006V15.44H8.06c.733 0 1.283.58 1.283 1.314v8.28c0 .733-.58 1.313-1.314 1.313zM5.37 17.854c0-.397-.336-.703-.672-.703h-.703v7.393h.672a.659.659 0 00.673-.672v-6.018"/><path d="M42.857 30.013v-3.666h-1.375v3.666H37.48V16.754c0-.733.58-1.314 1.314-1.314h6.752c.733 0 1.313.58 1.313 1.314v13.26h-4.002zm0-5.469v-6.72c0-.367-.305-.642-.672-.642a.678.678 0 00-.672.672v6.69h1.344z"/></g><defs><clipPath id="atclip0"><path fill="#fff" d="M0 0h60.348v30H0z"/></clipPath></defs></svg><svg fill="none" viewBox="0 0 145 30" id="partner-3" xmlns="http://www.w3.org/2000/svg"><g clip-path="url(#auclip0)" fill="#0B0B0B"><path d="M125.005 0h1.24c.116.216.058.476.058.721-.216 3.317-.418 6.65-.62 9.966-.043.419.014.895-.217 1.27-1.788 3.072-3.548 6.158-5.336 9.23-.346.433-.894.65-1.327.981-2.409 1.63-4.817 3.245-7.226 4.86-.447.275-.851.621-1.341.837-.202-.389-.491-.735-.621-1.153 5.106-8.914 10.299-17.784 15.39-26.712zM127.457 0h1.413c.851 1.644 1.832 3.202 2.741 4.817 2.812 4.875 5.625 9.765 8.437 14.64 1.399 2.38 2.726 4.817 4.168 7.168v.26c-.288.317-.461.706-.692 1.067-3.086-2.063-6.159-4.14-9.245-6.202-.245-.173-.548-.317-.692-.591-1.789-3.116-3.577-6.231-5.38-9.332-.116-.216-.101-.49-.116-.736-.187-3.692-.447-7.384-.634-11.091zM121.298 23.61c1.443-.072 2.885.03 4.313-.057 2.163-.015 4.341 0 6.505 0 .302-.015.576.144.836.274 3.317 1.687 6.649 3.36 9.952 5.062-.014.404-.389.736-.534 1.125h-30.879c-.217-.375-.549-.735-.606-1.154 1.644-.88 3.317-1.701 4.99-2.538 1.817-.894 3.591-1.875 5.423-2.712zM0 7.615c2.885-.014 5.77 0 8.654 0 1.255-.014 2.524.044 3.75.318 1.572.331 3.144 1.067 4.14 2.38 1.11 1.442 1.355 3.374 1.124 5.134-.216 1.587-1.096 3.087-2.437 3.966-1.414.981-3.173 1.198-4.846 1.082 2.437 2.712 4.86 5.423 7.298 8.135.245.26.476.534.692.822-1.803.029-3.591 0-5.394.014-2.567-2.826-5.12-5.682-7.673-8.524-.332-.36-.635-.764-1.024-1.081-.058 3.187-.03 6.375-.015 9.562-1.413.087-2.841.015-4.269.043V7.616zm4.27 3.78c-.015 1.99-.015 3.98 0 5.985 1.845.014 3.692 0 5.552.014.952-.029 1.947-.115 2.798-.591.606-.332.995-.98 1.11-1.659.174-.894.059-1.904-.59-2.582-.823-.836-2.034-1.081-3.16-1.153-1.918-.03-3.821 0-5.71-.015zM54.404 7.63c1.428-.043 2.841-.029 4.269-.015 0 1.789-.014 3.577 0 5.366a5.848 5.848 0 012.351-.938c2.178-.36 4.558-.028 6.346 1.327 1.673 1.24 2.625 3.303 2.654 5.366v4.326c.014 1.76-.649 3.563-1.89 4.818-1.34 1.37-3.259 1.99-5.134 2.106h-1.659c-1.529-.116-3-.693-4.24-1.587-.923.303-1.659 1.255-2.697 1.024.014-7.255.014-14.524 0-21.793zm6.678 8.163c-1.284.245-2.308 1.37-2.395 2.683-.057 1.529 0 3.072-.028 4.601-.015 1.154.634 2.308 1.702 2.784 1.182.562 2.639.533 3.822-.03.98-.49 1.586-1.543 1.615-2.624.014-1.442 0-2.885 0-4.327 0-1.01-.447-2.077-1.327-2.625-.995-.62-2.264-.75-3.39-.462zM89.971 7.615h4.24c.015 3.91.015 7.818 0 11.726 1.126-1.139 2.106-2.394 3.188-3.577 1.14-1.283 2.264-2.581 3.404-3.865 1.731-.029 3.461.029 5.192-.029.029.217-.173.36-.288.505-2.409 2.712-4.774 5.452-7.183 8.15 1.99 2.264 4.038 4.485 6.058 6.735.62.735 1.341 1.399 1.918 2.178-1.702.028-3.389 0-5.091.014-.332.043-.476-.317-.678-.505-2.164-2.394-4.313-4.817-6.505-7.182.014 2.552 0 5.12 0 7.673-1.413.014-2.827.014-4.24 0-.03-7.27-.03-14.553-.015-21.823zM20.856 13.918c1.5-1.456 3.649-2.033 5.697-2.019 1.904-.043 3.865.404 5.408 1.558 1.255.923 2.092 2.35 2.38 3.865.245 1.183.144 2.394.159 3.591-.015.419.058.837-.058 1.24a744.949 744.949 0 00-11.365 0c-.058 1.14.13 2.424.98 3.26.78.722 1.89.852 2.914.952 1.01-.014 2.135-.1 2.942-.778.375-.303.49-.78.635-1.212a58.525 58.525 0 013.894 0c-.115 1.37-.606 2.755-1.615 3.721-1.125 1.14-2.74 1.673-4.298 1.803-1.096-.029-2.178 0-3.274-.014-1.673-.231-3.318-.938-4.5-2.164-1.24-1.255-1.904-3.029-1.86-4.788v-4.327c.042-1.731.691-3.49 1.96-4.688zm3 2.582c-.65.663-.794 1.644-.78 2.538h7.256c.028-.735-.073-1.514-.49-2.134-.534-.88-1.573-1.313-2.568-1.4-1.197-.114-2.553.073-3.418.996zM38.712 13.76c1.543-1.37 3.677-1.904 5.711-1.86 2.077-.03 4.284.576 5.798 2.062 1.4 1.327 2.034 3.317 1.962 5.22-.044.996.072 1.991-.058 2.986-3.764-.057-7.529.015-11.279-.028-.187 1.052.029 2.25.721 3.086.765.894 2.034 1.067 3.145 1.14 1.125-.03 2.466-.13 3.187-1.111.23-.26.173-.678.404-.909 1.27-.014 2.538-.014 3.793 0-.086 1.457-.663 2.928-1.774 3.923-1.14 1.039-2.683 1.5-4.197 1.645a57.161 57.161 0 00-3.144-.03c-2.048-.216-4.068-1.269-5.25-3-.78-1.11-1.169-2.451-1.183-3.807V18.75c.043-1.86.736-3.75 2.164-4.99zm2.855 2.711c-.649.678-.85 1.659-.779 2.567 2.41 0 4.818.015 7.226-.014.015-.822-.1-1.702-.649-2.337-.62-.807-1.658-1.153-2.653-1.197-1.111-.072-2.351.13-3.145.981zM78.332 12c2.192-.274 4.572-.072 6.476 1.14 1.384.865 2.365 2.307 2.74 3.88.332 1.269.202 2.596.23 3.894-.028 1.254.102 2.538-.187 3.764-.331 1.601-1.283 3.087-2.668 3.98-1.024.679-2.221 1.082-3.433 1.212-.951-.014-1.903-.029-2.855.015-1.962-.188-3.952-1.068-5.15-2.683-.692-.909-1.081-2.005-1.24-3.13-.144-.952-.072-1.918-.086-2.884.028-1.515-.13-3.072.331-4.544.433-1.47 1.414-2.783 2.74-3.577.924-.576 2.006-.908 3.102-1.067zm.332 3.808c-.664.187-1.313.562-1.703 1.14-.432.605-.576 1.355-.576 2.09v3.75c0 .794.187 1.63.692 2.25.52.65 1.327.996 2.12 1.14 1.168.173 2.48-.014 3.39-.837.706-.634.966-1.615.966-2.538 0-1.298.014-2.596 0-3.894-.014-.938-.36-1.918-1.125-2.495-1.067-.823-2.524-.938-3.764-.606z"/></g><defs><clipPath id="auclip0"><path fill="#fff" d="M0 0h144.231v30H0z"/></clipPath></defs></svg><svg fill="none" viewBox="0 0 166 30" id="partner-4" xmlns="http://www.w3.org/2000/svg"><g clip-path="url(#avclip0)"><path d="M8.86 17.745a2.082 2.082 0 010 2.918l-.664.663c-.796.796-2.095.796-2.918 0L.61 16.684a2.081 2.081 0 010-2.917l.663-.664a2.082 2.082 0 012.918 0l4.668 4.642zm-.478-8.86c-.796-.795-2.096-.795-2.918 0l-.69.664a2.081 2.081 0 000 2.918l4.669 4.668c.796.796 2.095.796 2.918 0l.663-.69a2.082 2.082 0 000-2.917L8.382 8.886zm12.414 4.112a2.082 2.082 0 00-2.918 0l-.663.69c-.796.796-.796 2.096 0 2.918l4.668 4.642c.796.795 2.096.795 2.918 0l.663-.663a2.081 2.081 0 000-2.918l-4.668-4.669zm4.19-4.19c-.795-.796-2.095-.796-2.917 0l-.663.689c-.796.796-.796 2.095 0 2.918l4.668 4.668c.796.796 2.096.796 2.918 0l.69-.69c.795-.795.795-2.095 0-2.917l-4.695-4.669zM17.242 4.19c.796-.796.796-2.096 0-2.918L16.578.61a2.082 2.082 0 00-2.918 0L9.018 5.252c-.795.796-.795 2.095 0 2.918l.664.69a2.082 2.082 0 002.917 0l4.642-4.669zm4.191 4.19c.796-.795.796-2.095 0-2.917l-.69-.69c-.795-.795-2.095-.795-2.917 0L13.21 9.444a2.081 2.081 0 000 2.918l.69.69c.795.795 2.095.795 2.917 0l4.615-4.67zm-4.164 12.176c.796-.796.796-2.095 0-2.918l-.69-.663c-.796-.796-2.095-.796-2.918 0l-4.642 4.642a2.082 2.082 0 000 2.918l.69.69a2.081 2.081 0 002.918 0l4.642-4.669zm4.19 4.191c.797-.796.797-2.096 0-2.918l-.689-.663c-.796-.796-2.095-.796-2.918 0L13.21 25.81c-.796.796-.796 2.095 0 2.918l.69.69c.795.795 2.095.795 2.917 0l4.642-4.669zm33.873-4.111c.133.185.77 1.14.77 1.14-.345 1.486-1.247 3.369-1.247 3.369l-.133.053c-3.448 1.353-8.753 2.493-14.482.186-3.422-1.38-5.862-4.059-6.844-7.56a12.31 12.31 0 011.91-10.61c2.467-3.342 6.446-5.173 11.83-5.464 2.043-.106 6.234.45 8.488 1.724l.186.106s.08 5.65.027 5.915l-.054.265-1.67.053-.08-.504c-.292-1.644-1.035-6.047-7.162-5.73-2.626.134-4.748 1.46-6.34 3.529-1.936 2.52-2.52 6.047-1.644 9.894.822 3.74 3.687 6.154 5.862 6.976.928.345 3.82 1.008 6.021 0 1.857-.822 3.687-2.228 4.563-3.342zm20.85 6.02V7.11c0-.637 0-1.671-.664-2.388-.106-.106-.981-.795-.981-.795V3.05l5.252-1.06.477.291s-.026 20.69 0 20.955c.08 2.016 1.433 2.149 1.433 2.149v1.246H76.18v.027zm23.315-1.299c-.955-.212-1.432-1.008-1.432-2.334V10.637l-.478-.292-5.278 1.06v.876s.901.716 1.008.796c.663.716.663 1.75.663 2.387v7.4c-1.724 1.3-3.316 1.778-4.403 1.274-.876-.425-1.38-1.459-1.406-2.918V10.663l-.478-.292-5.278 1.061v.876s.902.716 1.008.795c.69.717.663 1.778.663 2.414v6.234c.053 1.22.106 1.618.239 2.148.318 1.353 1.114 2.308 2.28 2.732 1.858.69 4.51.027 7.348-1.857V26.5h5.783V25.41l-.24-.053zm26.18 0c-.902-.212-1.379-1.008-1.406-2.334v-7.586c0-1.751-.901-5.04-4.35-5.04-2.546 0-4.297 1.512-5.119 2.334-.557-1.167-1.618-2.334-3.714-2.334-1.618 0-3.13.61-4.562 1.83v-1.591l-.477-.292-5.279 1.06v.876s.902.716 1.008.796c.663.716.663 1.75.663 2.387v11.088h5.73v-1.088l-.292-.08c-.902-.212-1.353-.98-1.379-2.334v-8.859c1.008-.849 2.016-1.035 3.103-.928.875.08 1.777.69 1.777 3.82v9.469h5.73v-1.088l-.292-.08c-.928-.212-1.379-.98-1.406-2.334v-7.586a8.32 8.32 0 00-.106-1.247c1.034-.875 2.042-1.06 3.13-.98.875.079 1.777.689 1.804 3.819v9.47h5.729v-1.088l-.292-.08zm-51.379-6.87c0-2.44-.796-4.51-2.281-5.995-1.539-1.538-3.767-2.36-6.393-2.36-4.96 0-8.674 3.607-8.674 8.382 0 5.066 3.422 8.355 8.674 8.355 2.52 0 4.722-.822 6.313-2.44 1.512-1.539 2.361-3.634 2.361-5.942zm-8.674 6.578c-3.21 0-4.111-2.52-4.111-6.604 0-2.998.902-6.605 4.111-6.605 3.21 0 4.112 3.607 4.112 6.605 0 4.084-.902 6.604-4.112 6.604zM145.12 5.28c0-1.168.955-2.123 2.149-2.123 1.167 0 2.148.955 2.148 2.123a2.134 2.134 0 01-2.148 2.122 2.134 2.134 0 01-2.149-2.122zm.292 21.22V15.305c0-.663 0-1.644-.637-2.334-.106-.106-1.007-.796-1.007-.796V11.3l5.278-1.061.477.291v12.44c.027 1.354.478 2.123 1.38 2.335l.292.08v1.087l-5.783.027zm-3.024-12.308c-1.114-1.99-2.573-3.236-4.376-3.66-2.467-.61-4.961.477-6.499 1.405V2.334l-.478-.292-5.252 1.061v.876s.902.716 1.008.796c.664.69.637 1.67.637 2.334V25.41l.186.106c2.997 1.539 6.976 1.777 9.867.584 3.236-1.353 4.615-3.634 5.199-5.332.928-2.573.504-5.146-.292-6.578zm-4.376 8.647c-.902 1.539-2.786 2.44-4.245 2.043-1.458-.398-2.254-1.963-2.228-4.377v-6.71l.16-.08c.875-.451 2.546-1.3 4.748-.186 1.193.61 2.069 1.724 2.493 3.183.557 1.963.212 4.19-.928 6.127zm27.4 1.936l-.292-.053c-.238-.053-.663-.61-.663-1.591v-7.374c0-2.122-.689-3.793-1.936-4.695-1.141-.822-2.706-.955-4.509-.371-2.149.69-5.412 3.554-5.942 4.19l-.106.133.053.186c.053.186.292.557.451.716l.106.08h3.581v-1.008c0-1.46.955-2.175 1.777-2.308.822-.16 1.379-.08 1.751.239.557.45.822 1.485.822 3.05v.928l-7.56 3.343-.159.053-.053.159c-.69 2.122-.557 3.74.451 4.828 1.565 1.724 5.385 1.962 10.928.716.425-.106 1.3-.213 1.3-.213v-1.008zm-4.907-6.047v5.676c-1.247.876-2.493.955-3.369.239-.955-.796-1.167-2.308-.53-3.714l3.899-2.201z" fill="#0B0B0B"/></g><defs><clipPath id="avclip0"><path fill="#fff" d="M0 0h165.411v30H0z"/></clipPath></defs></svg><svg fill="none" viewBox="0 0 97 30" id="partner-5" xmlns="http://www.w3.org/2000/svg"><g clip-path="url(#awclip0)" fill-rule="evenodd" clip-rule="evenodd" fill="#0B0B0B"><path d="M40.19 25.759c0 2.327-2.017 4.19-4.5 4.19s-4.5-1.863-4.5-4.19V4.552c0-2.328 2.017-4.19 4.5-4.19s4.5 1.862 4.5 4.19v21.207zM4.5 8.845c-2.483 0-4.5-1.862-4.5-4.19C0 2.328 2.017.465 4.5.465h19.293c2.483 0 4.5 1.863 4.5 4.19 0 2.328-2.017 4.19-4.5 4.19H4.5zM22.5 19.707c2.483 0 4.5-1.862 4.5-4.19 0-2.327-2.017-4.19-4.5-4.19H4.604c-2.483 0-4.5 1.863-4.5 4.19V25.81c0 2.328 2.017 4.19 4.5 4.19 2.482 0 4.5-1.862 4.5-4.19v-6.155l13.396.052zM89.638 30c3.93 0 7.138-3.052 7.138-6.724 0-1.397-.466-2.69-1.242-3.724L83.948 1.914C83.172.776 81.776 0 80.172 0c-1.603 0-3.051.828-3.827 2.017L63.827 20.845H52.241V4.655c0-2.327-2.017-4.19-4.5-4.19s-4.5 1.863-4.5 4.19V25.76c0 2.327 2.017 4.19 4.5 4.19h16.5c2.017 0 4.086-1.035 5.535-3.208L80.12 11.224l6.93 10.345h-9.724c-2.482 0-4.5 1.862-4.5 4.19 0 2.327 2.018 4.19 4.5 4.19l12.31.051z"/></g><defs><clipPath id="awclip0"><path fill="#fff" d="M0 0h96.776v30H0z"/></clipPath></defs></svg><svg fill="none" viewBox="0 0 13 21" id="play" xmlns="http://www.w3.org/2000/svg"><path d="M13 10.5L0 .5v20l13-10z" fill="#fff"/></svg><svg fill="none" viewBox="0 0 40 40" id="price" xmlns="http://www.w3.org/2000/svg"><path d="M14.41 27.766H9V9.52L13.54 5h12.664v10.823" stroke="#FE0202" stroke-width="2" stroke-miterlimit="10" stroke-linejoin="round"/><path d="M14.28 7.185v3.087h-3.104" stroke="#FE0202" stroke-width="2" stroke-miterlimit="10"/><path d="M19.952 21.23v-1.158M26.25 18.877V17.82M26.25 22.78v-1.895" stroke="#FE0202" stroke-width="2" stroke-miterlimit="10" stroke-linecap="round" stroke-linejoin="round"/><path d="M19.952 23.166v4.59H17.02c-.36 0-.53.28-.6.446-.147.355-.097.8.118 1.015l5.928 5.898c.414.41 1.087.41 1.497-.001l5.9-5.897c.229-.229.3-.668.159-1.005-.124-.294-.381-.457-.723-.457l-3.05.002v-3.116" stroke="#FE0202" stroke-width="2" stroke-linecap="round"/><path d="M23.215 25.593v-5.218M23.215 18.366v-2.6M23.215 13.757v-.826" stroke="#FE0202" stroke-width="2" stroke-miterlimit="10" stroke-linecap="round" stroke-linejoin="round"/></svg><svg viewBox="0 0 40 40" id="reviews-instagram" xmlns="http://www.w3.org/2000/svg"><path d="M19.728 3.304c-4.46 0-5.02.019-6.771.099-1.748.08-2.943.357-3.987.763a8.05 8.05 0 00-2.91 1.895A8.05 8.05 0 004.167 8.97c-.406 1.044-.683 2.238-.763 3.986-.08 1.752-.099 2.312-.099 6.772 0 4.46.019 5.02.099 6.771.08 1.749.357 2.943.763 3.987a8.051 8.051 0 001.895 2.91A8.05 8.05 0 008.97 35.29c1.044.406 2.239.683 3.987.763 1.751.08 2.31.099 6.771.099 4.46 0 5.02-.019 6.772-.099 1.748-.08 2.942-.357 3.986-.763a8.05 8.05 0 002.91-1.895 8.053 8.053 0 001.894-2.909c.406-1.044.684-2.238.763-3.986.08-1.752.1-2.312.1-6.772 0-4.46-.02-5.02-.1-6.772-.08-1.748-.357-2.942-.763-3.986a8.052 8.052 0 00-1.894-2.91 8.051 8.051 0 00-2.91-1.894c-1.044-.406-2.238-.683-3.986-.763-1.752-.08-2.311-.099-6.772-.099zm0 2.96c4.386 0 4.905.016 6.637.095 1.601.073 2.47.34 3.05.566a5.089 5.089 0 011.888 1.228c.575.575.93 1.122 1.229 1.888.225.58.492 1.449.565 3.05.08 1.732.096 2.252.096 6.637s-.017 4.905-.096 6.637c-.073 1.601-.34 2.47-.565 3.05a5.087 5.087 0 01-1.229 1.888 5.09 5.09 0 01-1.888 1.228c-.58.225-1.449.493-3.05.566-1.732.079-2.251.096-6.637.096-4.386 0-4.905-.017-6.637-.096-1.6-.073-2.47-.34-3.05-.566a5.09 5.09 0 01-1.888-1.228 5.087 5.087 0 01-1.228-1.889c-.225-.578-.493-1.448-.566-3.05-.079-1.731-.096-2.25-.096-6.636 0-4.385.017-4.905.096-6.637.073-1.601.34-2.47.566-3.05a5.089 5.089 0 011.228-1.888 5.09 5.09 0 011.889-1.229c.579-.224 1.448-.492 3.05-.565 1.731-.079 2.25-.096 6.636-.096z"/><path d="M19.73 25.2a5.475 5.475 0 110-10.949 5.475 5.475 0 010 10.95zm0-13.908a8.434 8.434 0 100 16.868 8.434 8.434 0 000-16.868zM30.466 10.96a1.97 1.97 0 11-3.942 0 1.97 1.97 0 013.942 0z"/></svg><svg viewBox="0 0 40 40" id="reviews-whatsapp" xmlns="http://www.w3.org/2000/svg"><path fill-rule="evenodd" clip-rule="evenodd" d="M3.007 20.003c0-9.386 7.61-16.996 16.997-16.996C29.39 3.007 37 10.617 37 19.997c0 9.386-7.61 16.996-16.996 16.996-3.183 0-6.162-.875-8.708-2.4l-7.701 2.134 2.19-7.414a16.907 16.907 0 01-2.778-9.31zm25.978 4.155c.203.091.335.287.357.51.02.26.027.567-.021.924v.02c-.14.938-.686 1.77-1.462 2.323a4.68 4.68 0 01-1.092.588c-.944.356-1.769.35-2.217.307a14.49 14.49 0 01-4.539-1.322c-1.951-.937-3.182-2.063-4.176-2.98-.88-.804-2.182-2.02-3.378-3.986a16.514 16.514 0 01-1.497-3.162c-.342-.979-.398-2.042-.112-3.035.01-.035.021-.068.032-.101l.031-.102c.26-.783.65-1.378.98-1.776.272-.336.706-.735 1.3-.819.21-.028.497-.028.819-.02.112 0 .217 0 .315.006.286.014.56.12.769.308 0 0 .056.049.105.098.287.294 1.028 2.203 1.399 3.19.217.594.259 1.244.063 1.846 0 0-.007.007-.007.014-.315.972-1.021 1.497-1.28 1.671.517.945 1.44 2.393 3.014 3.742a13.212 13.212 0 003.581 2.204.509.509 0 00.58-.14l1.861-2.099a.387.387 0 01.455-.097l2.06.944 2.06.944z"/></svg><svg viewBox="0 0 40 40" id="reviews-youtube" xmlns="http://www.w3.org/2000/svg"><path fill-rule="evenodd" clip-rule="evenodd" d="M34.065 7.752a4.508 4.508 0 013.183 3.183C38 13.742 38 19.6 38 19.6s0 5.858-.752 8.665a4.508 4.508 0 01-3.183 3.183C31.257 32.2 20 32.2 20 32.2s-11.258 0-14.065-.752a4.509 4.509 0 01-3.183-3.183C2 25.458 2 19.6 2 19.6s0-5.858.752-8.665a4.508 4.508 0 013.183-3.183C8.742 7 20 7 20 7s11.257 0 14.065.752zM25.749 19.6l-9.352 5.4v-10.8l9.352 5.4z"/></svg><svg fill="none" viewBox="0 0 19 12" id="scroll-top" xmlns="http://www.w3.org/2000/svg"><path d="M1 11l8.5-9 8.5 9" stroke="#AFAFAF" stroke-width="2"/></svg><svg fill="none" viewBox="0 0 30 30" id="search" xmlns="http://www.w3.org/2000/svg"><path d="M25.7 23.05l-4.76-4.76a9.31 9.31 0 001.56-5.165c0-5.17-4.206-9.375-9.375-9.375-5.17 0-9.375 4.206-9.375 9.375 0 5.17 4.206 9.375 9.375 9.375a9.31 9.31 0 005.165-1.56l4.76 4.76a1.875 1.875 0 102.65-2.65zM6.564 13.124a6.57 6.57 0 016.562-6.563 6.57 6.57 0 016.563 6.563 6.57 6.57 0 01-6.563 6.563 6.57 6.57 0 01-6.563-6.563z" fill="#fff"/></svg><svg fill="none" viewBox="0 0 40 40" id="size-grid" xmlns="http://www.w3.org/2000/svg"><path d="M14.563 22.866h8.063M5.86 22.866h6.08M14.242 21.171v3.462" stroke="#FE0202" stroke-width="2" stroke-miterlimit="10" stroke-linecap="round"/><path d="M17.952 13.27a3.71 3.71 0 11-7.42-.002 3.71 3.71 0 017.42.001zM35 6.117h-8.21v27.092H35V6.117z" stroke="#FE0202" stroke-width="2" stroke-miterlimit="10"/><path d="M12.677 9.823v-3.8h3.131v3.8M26.936 9.506h2.743M26.936 12.892H31.5M26.936 19.663H31.5M26.936 16.277h2.743M26.936 23.049h2.743M26.936 29.82h2.743M26.936 26.433H31.5" stroke="#FE0202" stroke-width="2" stroke-miterlimit="10" stroke-linejoin="round"/><path d="M19.96 25.297l3.32 8.077M16.318 16.434l2.615 6.372M8.525 25.297l-3.32 8.077M12.166 16.434L9.55 22.806" stroke="#FE0202" stroke-width="2" stroke-miterlimit="10" stroke-linecap="round"/></svg><svg fill="none" viewBox="0 0 40 40" id="teaser-1" xmlns="http://www.w3.org/2000/svg"><path d="M24.437 20.123h7.71M16.113 20.123h5.379M24.13 18.501v3.313" stroke="#fff" stroke-width="2" stroke-miterlimit="10" stroke-linecap="round"/><path d="M24.13 14.488a3.55 3.55 0 003.547-3.551 3.55 3.55 0 00-3.547-3.551 3.55 3.55 0 00-3.547 3.551 3.55 3.55 0 003.547 3.551z" stroke="#fff" stroke-width="2" stroke-miterlimit="10"/><path d="M22.632 7.638V4h2.995v3.638" stroke="#fff" stroke-width="2" stroke-miterlimit="10" stroke-linejoin="round"/><path d="M29.706 22.668l3.066 7.515M26.114 13.966l2.503 6.1M18.554 22.669l-3.067 7.514M22.145 13.966l-2.502 6.1" stroke="#fff" stroke-width="2" stroke-miterlimit="10" stroke-linecap="round"/><path d="M17.729 11h-4.435M5.48 29.857c1.019-1.752 2.89-2.955 5.05-2.955V6.06H8.865C5.641 6.06 3 8.705 3 11.934v18.154c0 3.23 2.64 5.872 5.866 5.872H37V11h-6.408" stroke="#fff" stroke-width="2" stroke-miterlimit="10" stroke-linecap="round" stroke-linejoin="round"/></svg><svg fill="none" viewBox="0 0 40 40" id="teaser-2" xmlns="http://www.w3.org/2000/svg"><path d="M9.32 14.825v2.05M10.246 28.855H7.304V23.78h20.941M28.27 28.855H17.474M28.245 26.641V15.712h5.021c1.867 2.151 2.687 5.349 2.687 5.349l2.136.747s.661.227.661 1.144v4.88c0 1.11-.82 1.023-.82 1.023h-2.45" stroke="#fff" stroke-width="2" stroke-miterlimit="10" stroke-linejoin="round"/><path d="M31.756 18.148s1.11 2.06 1.332 3.289h-2.084" stroke="#fff" stroke-width="2" stroke-miterlimit="10" stroke-linecap="round" stroke-linejoin="round"/><path d="M35.408 29.168a2.466 2.466 0 01-2.465 2.465 2.466 2.466 0 01-2.464-2.465 2.466 2.466 0 012.464-2.464 2.466 2.466 0 012.465 2.464zM15.324 29.168a2.466 2.466 0 01-2.464 2.465 2.466 2.466 0 01-2.465-2.465 2.466 2.466 0 012.465-2.464 2.466 2.466 0 012.464 2.464z" stroke="#fff" stroke-width="2" stroke-miterlimit="10" stroke-linejoin="round"/><path d="M11.89 18.635H4.97M5.876 21.2H1.974M6.6 10.995H1M9.32 14.815H4.246" stroke="#fff" stroke-width="2" stroke-miterlimit="10" stroke-linecap="round" stroke-linejoin="round"/><path d="M9.15 18.678v4.89M25.496 23.569V8H9.151v4.727" stroke="#fff" stroke-width="2" stroke-miterlimit="10"/><path d="M19.029 8.077v3.902h-3.41V8.077" stroke="#fff" stroke-width="2" stroke-miterlimit="10"/></svg><svg viewBox="0 0 20 20" id="telegram" xmlns="http://www.w3.org/2000/svg"><path d="M19.606 1.548A1.324 1.324 0 0018.496 1c-.185 0-.462.091-.647.091L1.295 7.853C.185 8.31 0 8.949 0 9.406c0 .274.185.914 1.11 1.28l4.254 1.37h.185c.092 0 .277 0 .37-.091l5.456-3.655L7.4 12.056a.694.694 0 00-.185.457l-.278 4.568c0 .183.093.366.185.548.093.183.277.275.555.275.74 0 1.11-.366 1.387-.64l1.665-1.645 3.792 2.924s.092 0 .092.091c.37.183.74.366 1.017.366.37 0 1.203-.183 1.572-1.553l2.775-13.98c.092-1.005-.092-1.645-.37-1.919zm-3.884 15.533c-.093.366-.185.366-.185.366s-.093 0-.37-.092l-4.254-3.289a.711.711 0 00-.463-.183.71.71 0 00-.462.183l-1.665 1.645.37-2.833 7.676-7.31c.463-.456.37-.913.278-1.005-.093-.365-.463-.548-.833-.548-.277 0-.555.092-.832.274l-9.526 6.305-3.884-1.28c.093-.09.185-.09.278-.09l16.461-6.67h.278c0 .09.092.273 0 .639L15.722 17.08z"/></svg><svg fill="none" viewBox="0 0 2557 204" id="text-line" xmlns="http://www.w3.org/2000/svg"><path d="M2.188 26.954C3.073 11.848 15.618.694 31.69 1.635c9.11.534 15.39 3.725 20.593 8.785l-9.038 9.65c-3.52-3.327-7.12-5.32-12.23-5.62-7.482-.438-13.628 5.518-14.1 13.59-.49 8.367 5.01 14.707 13.231 15.189 3.481.204 6.191-.38 8.422-1.662l.368-6.294-10.221-.599.616-10.514 23.85 1.396-1.367 23.326c-5.745 4.196-13.578 7.23-22.984 6.678C12.683 54.615 1.26 42.8 2.188 26.954zM62.442 4.476l24.516 1.436c7.925.464 13.285 2.859 16.562 6.543 2.859 3.214 4.18 7.303 3.872 12.56-.464 7.924-4.993 12.934-11.598 15.297l11.311 18.792-16.59-.971-9.525-16.31-6.296-.37-.919 15.7-14.369-.842 3.036-51.835zm22.392 26.278c4.889.286 7.842-1.919 8.072-5.844.238-4.072-2.603-6.319-7.417-6.601l-9.407-.55-.728 12.44 9.48.555zm51.771-22.306l13.85.811 19.015 53.497-15.406-.902-3.235-9.477-19.999-1.171-4.245 9.039-15.11-.885 25.13-50.912zm10.731 32.505l-4.915-15.075-6.714 14.394 11.629.68zm30.206-29.736l22.22 1.301c13.11.768 21.159 8.001 20.478 19.627-.715 12.218-10.499 18.11-23.387 17.354l-7.11-.416-.867 14.81-14.369-.842 3.035-51.834zm19.674 27.01c5.111.299 8.378-2.185 8.625-6.405.26-4.443-2.712-6.995-7.897-7.299l-6.74-.394-.802 13.699 6.814.399zm30.173-24.09l22.221 1.3c13.109.768 21.158 8.001 20.478 19.627-.716 12.218-10.5 18.11-23.387 17.355l-7.111-.417-.867 14.81-14.369-.841 3.035-51.835zm19.674 27.009c5.111.3 8.378-2.184 8.625-6.405.26-4.443-2.712-6.995-7.896-7.299l-6.74-.394-.803 13.699 6.814.399zm30.17-24.09l41.478 2.428-.738 12.589-27.108-1.588-.516 8.812 24.516 1.436-.698 11.922-24.516-1.436-1.085 18.512-14.369-.841 3.036-51.835zm48.292 2.828l14.443.845-3.036 51.835-14.443-.846 3.036-51.835zm35.855 14.73l-15.554-.91.738-12.588 45.477 2.663-.737 12.588-15.554-.91-2.299 39.245-14.369-.841 2.298-39.246zM435.446 52.327c.885-15.106 13.429-26.26 29.502-25.319 9.11.534 15.389 3.725 20.593 8.785l-9.038 9.65c-3.521-3.326-7.121-5.32-12.231-5.62-7.481-.438-13.627 5.518-14.099 13.59-.491 8.367 5.01 14.707 13.231 15.189 3.481.204 6.191-.38 8.421-1.662l.369-6.294-10.221-.599.615-10.514 23.85 1.396-1.366 23.326c-5.745 4.196-13.578 7.23-22.985 6.678-16.146-.945-27.569-12.76-26.641-28.606zm60.253-22.477l24.517 1.435c7.925.464 13.284 2.859 16.562 6.543 2.859 3.214 4.18 7.303 3.872 12.56-.464 7.924-4.994 12.934-11.598 15.297l11.311 18.792-16.591-.972-9.524-16.31-6.296-.368-.919 15.698-14.369-.841 3.035-51.834zm22.393 26.277c4.888.286 7.842-1.919 8.071-5.843.239-4.073-2.602-6.32-7.417-6.602l-9.406-.55-.729 12.44 9.481.555zm51.77-22.306l13.851.811 19.015 53.497-15.406-.902-3.236-9.477-19.998-1.171-4.245 9.039-15.11-.885 25.129-50.912zm10.731 32.505l-4.914-15.074-6.714 14.393 11.628.68zM610.8 36.59l22.22 1.301c13.11.768 21.159 8.001 20.478 19.627-.715 12.218-10.499 18.11-23.387 17.355l-7.11-.417-.868 14.81-14.369-.842L610.8 36.59zm19.674 27.01c5.111.299 8.377-2.184 8.625-6.405.26-4.443-2.712-6.995-7.897-7.299l-6.74-.394-.802 13.699 6.814.399zm30.173-24.09l22.22 1.3c13.11.768 21.159 8.001 20.478 19.627-.715 12.218-10.499 18.11-23.387 17.355l-7.11-.417-.867 14.81-14.37-.841 3.036-51.835zm19.674 27.009c5.111.3 8.378-2.184 8.625-6.405.26-4.443-2.712-6.995-7.897-7.298l-6.74-.395-.802 13.699 6.814.399zm30.17-24.09l41.477 2.428-.737 12.589-27.109-1.588-.516 8.812 24.517 1.436-.699 11.922-24.516-1.436-1.084 18.512-14.369-.841 3.036-51.835zm48.291 2.828l14.444.845-3.036 51.835-14.443-.846 3.035-51.834zm35.856 14.73l-15.554-.91.737-12.588 45.478 2.663-.738 12.588-15.554-.91-2.298 39.245-14.369-.841 2.298-39.246zM868.704 77.7c.884-15.106 13.429-26.26 29.502-25.319 9.11.534 15.389 3.725 20.592 8.785l-9.037 9.65c-3.522-3.326-7.121-5.32-12.232-5.62-7.48-.438-13.626 5.518-14.099 13.59-.49 8.367 5.01 14.707 13.232 15.189 3.481.204 6.191-.38 8.421-1.662l.368-6.294-10.221-.599.616-10.514 23.85 1.396-1.366 23.326c-5.746 4.196-13.579 7.229-22.985 6.678-16.147-.945-27.569-12.76-26.641-28.606zm60.253-22.478l24.516 1.436c7.925.464 13.285 2.859 16.562 6.543 2.859 3.214 4.18 7.303 3.873 12.561-.465 7.923-4.994 12.933-11.599 15.296l11.312 18.792-16.591-.971-9.525-16.31-6.295-.37-.92 15.699-14.369-.841 3.036-51.835zM951.349 81.5c4.889.286 7.842-1.919 8.072-5.843.239-4.073-2.603-6.32-7.417-6.602l-9.407-.55-.728 12.44 9.48.555zm51.771-22.306l13.85.811 19.02 53.498-15.41-.903-3.24-9.477-19.994-1.171-4.246 9.039-15.109-.885 25.129-50.912zm10.73 32.505l-4.91-15.074-6.72 14.393 11.63.68zm30.21-29.736l22.22 1.301c13.11.768 21.16 8.001 20.48 19.627-.72 12.218-10.5 18.109-23.39 17.355l-7.11-.417-.87 14.81-14.37-.842 3.04-51.834zm19.67 27.01c5.11.3 8.38-2.184 8.63-6.405.26-4.443-2.72-6.995-7.9-7.299l-6.74-.394-.8 13.699 6.81.399zm30.17-24.09l22.22 1.3c13.11.768 21.16 8.001 20.48 19.627-.71 12.218-10.5 18.11-23.38 17.355l-7.11-.417-.87 14.81-14.37-.841 3.03-51.835zm19.68 27.009c5.11.3 8.38-2.184 8.62-6.405.26-4.443-2.71-6.995-7.89-7.298l-6.74-.395-.81 13.699 6.82.399zm30.17-24.09l41.48 2.428-.74 12.589-27.11-1.588-.52 8.812 24.52 1.436-.7 11.922-24.51-1.436-1.09 18.512-14.37-.841 3.04-51.835zm48.29 2.828l14.44.845-3.03 51.835-14.45-.846 3.04-51.834zm35.86 14.73l-15.56-.91.74-12.588 45.48 2.663-.74 12.588-15.56-.91-2.29 39.245-14.37-.841 2.3-39.246zM1301.96 103.073c.89-15.106 13.43-26.26 29.5-25.319 9.11.534 15.39 3.725 20.6 8.785l-9.04 9.65c-3.52-3.326-7.12-5.32-12.23-5.62-7.48-.438-13.63 5.518-14.1 13.589-.49 8.368 5.01 14.708 13.23 15.19 3.48.204 6.19-.381 8.42-1.662l.37-6.294-10.22-.598.61-10.515 23.85 1.396-1.36 23.326c-5.75 4.196-13.58 7.229-22.99 6.678-16.14-.945-27.57-12.76-26.64-28.606zm60.25-22.477l24.52 1.435c7.93.464 13.29 2.859 16.56 6.543 2.86 3.214 4.18 7.303 3.88 12.561-.47 7.923-5 12.933-11.6 15.296l11.31 18.792-16.59-.971-9.53-16.31-6.29-.369-.92 15.698-14.37-.841 3.03-51.835zm22.4 26.277c4.89.286 7.84-1.919 8.07-5.843.24-4.073-2.6-6.32-7.42-6.602l-9.4-.55-.73 12.439 9.48.556zm51.77-22.306l13.85.811 19.01 53.497-15.4-.902-3.24-9.477-20-1.171-4.24 9.039-15.11-.885 25.13-50.912zm10.73 32.505l-4.92-15.074-6.71 14.393 11.63.681zm30.21-29.736l22.22 1.302c13.11.767 21.15 8 20.47 19.626-.71 12.218-10.5 18.109-23.38 17.355l-7.11-.417-.87 14.81-14.37-.842 3.04-51.834zm19.67 27.01c5.11.299 8.38-2.185 8.62-6.405.26-4.443-2.71-6.995-7.89-7.299l-6.74-.394-.8 13.699 6.81.399zm30.17-24.09l22.22 1.3c13.11.769 21.16 8.001 20.48 19.627-.71 12.218-10.5 18.11-23.39 17.355l-7.11-.417-.86 14.81-14.37-.841 3.03-51.835zm19.68 27.009c5.11.299 8.37-2.184 8.62-6.405.26-4.443-2.71-6.995-7.9-7.298l-6.74-.395-.8 13.699 6.82.399zm30.17-24.09l41.47 2.428-.73 12.589-27.11-1.588-.52 8.812 24.52 1.436-.7 11.922-24.52-1.436-1.08 18.512-14.37-.841 3.04-51.835zm48.29 2.828l14.44.845-3.03 51.835-14.45-.846 3.04-51.834zm35.85 14.731l-15.55-.911.74-12.588 45.47 2.663-.73 12.588-15.56-.911-2.3 39.246-14.36-.841 2.29-39.246zM1735.22 128.446c.88-15.106 13.43-26.26 29.5-25.319 9.11.534 15.39 3.725 20.59 8.785l-9.03 9.651c-3.53-3.327-7.12-5.321-12.24-5.621-7.48-.438-13.62 5.518-14.09 13.589-.49 8.368 5.01 14.708 13.23 15.19 3.48.204 6.19-.381 8.42-1.662l.37-6.294-10.22-.598.61-10.515 23.85 1.396-1.36 23.326c-5.75 4.196-13.58 7.229-22.99 6.678-16.15-.945-27.57-12.76-26.64-28.606zm60.25-22.477l24.52 1.435c7.92.464 13.28 2.859 16.56 6.543 2.86 3.214 4.18 7.304 3.87 12.561-.46 7.923-4.99 12.933-11.6 15.296l11.32 18.792-16.6-.971-9.52-16.31-6.29-.369-.92 15.698-14.37-.841 3.03-51.834zm22.39 26.277c4.89.286 7.85-1.919 8.08-5.843.23-4.073-2.61-6.32-7.42-6.602l-9.41-.551-.73 12.44 9.48.556zm51.78-22.306l13.85.811 19.01 53.498-15.41-.903-3.23-9.477-20-1.171-4.24 9.039-15.11-.885 25.13-50.912zm10.73 32.505l-4.92-15.074-6.71 14.393 11.63.681zm30.2-29.736l22.22 1.302c13.11.767 21.16 8 20.48 19.626-.71 12.218-10.5 18.109-23.39 17.355l-7.11-.417-.86 14.81-14.37-.842 3.03-51.834zm19.68 27.01c5.11.299 8.37-2.184 8.62-6.405.26-4.443-2.71-6.995-7.89-7.299l-6.75-.394-.8 13.699 6.82.399zm30.17-24.091l22.22 1.302c13.11.768 21.16 8 20.48 19.626-.72 12.218-10.5 18.11-23.39 17.355l-7.11-.417-.87 14.81-14.37-.841 3.04-51.835zm19.67 27.01c5.11.299 8.38-2.184 8.63-6.405.26-4.443-2.71-6.995-7.9-7.298l-6.74-.395-.8 13.699 6.81.399zm30.17-24.091l41.48 2.43-.74 12.588-27.1-1.588-.52 8.812 24.52 1.436-.7 11.922-24.52-1.436-1.08 18.512-14.37-.841 3.03-51.835zm48.3 2.829l14.44.845-3.04 51.835-14.44-.846 3.04-51.834zm35.85 14.731l-15.55-.911.73-12.588 45.48 2.663-.74 12.588-15.55-.911-2.3 39.246-14.37-.841 2.3-39.246zM2168.48 153.819c.88-15.106 13.43-26.26 29.5-25.319 9.11.534 15.39 3.725 20.59 8.785l-9.04 9.651c-3.52-3.327-7.12-5.321-12.23-5.621-7.48-.438-13.62 5.518-14.1 13.589-.49 8.368 5.01 14.708 13.23 15.19 3.49.204 6.2-.38 8.43-1.662l.36-6.294-10.22-.598.62-10.515 23.85 1.396-1.37 23.326c-5.74 4.196-13.58 7.229-22.98 6.678-16.15-.945-27.57-12.76-26.64-28.606zm60.25-22.477l24.52 1.435c7.92.464 13.28 2.859 16.56 6.543 2.86 3.214 4.18 7.304 3.87 12.561-.46 7.923-4.99 12.934-11.6 15.296l11.31 18.792-16.59-.971-9.52-16.31-6.3-.369-.92 15.698-14.37-.841 3.04-51.834zm22.39 26.277c4.89.286 7.84-1.919 8.07-5.843.24-4.073-2.6-6.32-7.41-6.602l-9.41-.551-.73 12.441 9.48.555zm51.77-22.306l13.85.811 19.02 53.498-15.41-.903-3.23-9.477-20-1.171-4.25 9.039-15.11-.885 25.13-50.912zm10.73 32.505l-4.91-15.074-6.71 14.393 11.62.681zm30.21-29.736l22.22 1.302c13.11.767 21.16 8 20.48 19.626-.72 12.218-10.5 18.109-23.39 17.355l-7.11-.417-.87 14.81-14.37-.841 3.04-51.835zm19.67 27.01c5.12.299 8.38-2.184 8.63-6.405.26-4.443-2.71-6.995-7.9-7.299l-6.74-.394-.8 13.699 6.81.399zm30.18-24.091l22.22 1.302c13.11.768 21.16 8 20.48 19.626-.72 12.218-10.5 18.11-23.39 17.355l-7.11-.417-.87 14.81-14.37-.841 3.04-51.835zm19.67 27.01c5.11.299 8.38-2.184 8.63-6.405.26-4.443-2.72-6.995-7.9-7.298l-6.74-.395-.8 13.699 6.81.399zm30.17-24.09l41.48 2.429-.74 12.588-27.11-1.588-.51 8.812 24.51 1.436-.7 11.922-24.51-1.436-1.09 18.512-14.36-.841 3.03-51.834zm48.29 2.828l14.45.845-3.04 51.835-14.44-.846 3.03-51.834zm35.86 14.731l-15.56-.911.74-12.588 45.48 2.663-.74 12.588-15.55-.911-2.3 39.246-14.37-.841 2.3-39.246z" fill="#F0F0F0"/></svg><svg fill="none" viewBox="0 0 20 20" id="vk" xmlns="http://www.w3.org/2000/svg"><path d="M15.606 10.992l2.741-4.41a.23.23 0 00-.196-.354h-3.037a.799.799 0 00-.679.378l-2.305 3.707h-.421V6.17a.17.17 0 00-.17-.17h-3.69a.126.126 0 00-.105.19l.606.992V10.4c-1.057-.05-2.432-2.598-3.137-4.096a.16.16 0 00-.15-.093H2.17a.17.17 0 00-.16.225c.994 2.75 3.22 6.405 5.547 8.116.412.296.908.453 1.416.448h2.741v-1.966l.428-.366 2.206 2.22a.349.349 0 00.248.103h2.859a.895.895 0 00.635-1.518l-2.484-2.482z" stroke="#fff" stroke-miterlimit="10"/></svg><svg viewBox="0 0 20 20" id="whatsapp" xmlns="http://www.w3.org/2000/svg"><path fill-rule="evenodd" clip-rule="evenodd" d="M16.293 2.785A9.434 9.434 0 009.576 0C4.342 0 .082 4.26.08 9.495c-.001 1.674.436 3.308 1.267 4.748L0 19.163l5.034-1.32a9.487 9.487 0 004.538 1.156h.004c5.233 0 9.494-4.26 9.496-9.496a9.439 9.439 0 00-2.779-6.718zm-6.717 14.61h-.004a7.881 7.881 0 01-4.017-1.1l-.288-.171-2.987.783.797-2.912-.187-.299a7.874 7.874 0 01-1.207-4.2c.002-4.352 3.542-7.892 7.896-7.892 2.108 0 4.09.823 5.58 2.314a7.845 7.845 0 012.31 5.584c-.003 4.352-3.543 7.893-7.893 7.893z"/><path fill-rule="evenodd" clip-rule="evenodd" d="M13.905 11.483c-.237-.118-1.404-.692-1.621-.771-.218-.08-.376-.12-.534.118-.158.238-.613.772-.752.93-.138.159-.276.179-.514.06-.237-.119-1.001-.37-1.908-1.178-.705-.629-1.181-1.406-1.32-1.643-.138-.238-.014-.366.104-.485.107-.106.238-.277.356-.415.119-.139.159-.238.238-.396.079-.158.04-.297-.02-.416-.06-.118-.534-1.286-.732-1.762-.192-.462-.388-.4-.534-.407a9.483 9.483 0 00-.454-.008.872.872 0 00-.633.297c-.218.237-.83.811-.83 1.98 0 1.167.85 2.295.968 2.454.119.158 1.673 2.555 4.054 3.582.566.245 1.008.39 1.352.5.569.18 1.086.155 1.495.094.456-.068 1.404-.574 1.601-1.128.198-.554.198-1.03.139-1.128-.06-.1-.218-.159-.455-.277z"/></svg><svg fill="none" viewBox="0 0 40 40" id="whatsapp-btn" xmlns="http://www.w3.org/2000/svg"><path fill-rule="evenodd" clip-rule="evenodd" d="M29.095 9.947A13.373 13.373 0 0019.573 6c-7.419 0-13.457 6.038-13.46 13.46a13.435 13.435 0 001.797 6.729L6 33.163l7.136-1.871a13.45 13.45 0 006.432 1.638h.005c7.419 0 13.458-6.038 13.46-13.46a13.38 13.38 0 00-3.938-9.523zm-9.522 20.71h-.004c-2.008-.001-3.977-.54-5.694-1.56l-.409-.242-4.234 1.11 1.13-4.128-.266-.423a11.161 11.161 0 01-1.71-5.954c.002-6.168 5.02-11.187 11.192-11.187 2.988.001 5.797 1.167 7.91 3.281a11.12 11.12 0 013.273 7.915c-.003 6.169-5.021 11.188-11.188 11.188z" fill="#FE0202"/><path fill-rule="evenodd" clip-rule="evenodd" d="M25.71 22.278c-.337-.169-1.99-.982-2.298-1.095-.309-.112-.533-.168-.757.169-.224.336-.869 1.094-1.065 1.319-.196.224-.392.252-.729.084-.336-.169-1.42-.524-2.704-1.67-1-.892-1.675-1.993-1.871-2.33-.197-.336-.021-.518.147-.686.151-.15.337-.393.505-.59.168-.195.224-.336.336-.56.112-.225.056-.421-.028-.59-.084-.168-.757-1.823-1.037-2.497-.273-.655-.55-.567-.757-.577-.196-.01-.42-.012-.644-.012-.224 0-.589.084-.897.421-.308.337-1.177 1.15-1.177 2.806 0 1.655 1.205 3.255 1.373 3.479.168.224 2.372 3.621 5.745 5.078.803.347 1.43.554 1.918.709.805.256 1.539.22 2.118.133.646-.097 1.99-.814 2.27-1.6.28-.785.28-1.458.196-1.598-.084-.14-.308-.225-.644-.393z" fill="#FE0202"/></svg><svg viewBox="0 0 30 30" id="woman-icon" xmlns="http://www.w3.org/2000/svg"><g clip-path="url(#bmclip0)"><path d="M25.714 17.679c0 .446-.156.826-.468 1.138a1.55 1.55 0 01-1.139.469c-.57 0-1.015-.24-1.34-.72l-3.8-5.709h-.753v2.21l4.135 6.88c.1.168.15.352.15.553 0 .29-.105.541-.317.753a1.03 1.03 0 01-.753.318h-3.215v4.554c0 .513-.184.954-.552 1.323-.368.368-.81.552-1.323.552h-2.678c-.514 0-.955-.184-1.323-.552a1.804 1.804 0 01-.552-1.323v-4.554H8.57a1.03 1.03 0 01-.753-.318A1.03 1.03 0 017.5 22.5c0-.2.05-.385.15-.552l4.136-6.881v-2.21h-.754l-3.8 5.709c-.324.48-.77.72-1.34.72a1.55 1.55 0 01-1.138-.469 1.55 1.55 0 01-.468-1.138c0-.324.089-.62.268-.888l4.285-6.428c.815-1.194 1.797-1.792 2.947-1.792h6.428c1.15 0 2.132.598 2.947 1.792l4.285 6.428c.179.268.268.564.268.888zM18.75 4.286c0 1.038-.366 1.922-1.097 2.653-.73.731-1.615 1.097-2.653 1.097s-1.922-.366-2.653-1.097c-.732-.73-1.097-1.615-1.097-2.653s.365-1.923 1.097-2.654C13.077.902 13.962.536 15 .536s1.922.365 2.653 1.096c.731.731 1.097 1.616 1.097 2.654z"/></g><defs><clipPath id="bmclip0"><path fill="#fff" d="M0 0h30v30H0z"/></clipPath></defs></svg></svg>