<svg width="20" height="20" viewBox="0 0 20 20" fill="none" xmlns="http://www.w3.org/2000/svg">
<path d="M17.1725 7.5435C17.9169 8.22435 18.6586 8.9105 19.4127 9.57988C19.5044 9.66102 19.7055 9.7254 19.7919 9.67866C19.8968 9.62221 19.9903 9.43965 19.9912 9.31089C20.0018 6.37759 20 3.4434 19.9991 0.510092C19.9991 0.196124 19.8951 0.0902923 19.5829 0.0902923C16.3815 0.0894103 13.1809 0.0902923 9.97951 0.0876465C9.79695 0.0876465 9.62321 0.128215 9.60028 0.311657C9.5844 0.437774 9.65143 0.61857 9.7458 0.705881C10.4655 1.37615 11.2001 2.02966 11.9312 2.6867C12.2134 2.93981 12.2223 3.05182 11.9691 3.3261C10.5422 4.87389 9.1161 6.42168 7.68825 7.96859C7.52156 8.14939 7.35047 8.32577 7.1732 8.51274C6.37946 7.77721 5.6113 7.06461 4.83432 6.34407C4.23372 6.96848 3.64988 7.57525 3.05811 8.19084C7.2561 12.0907 11.4312 16.0189 15.6115 19.902C17.3286 19.9514 18.1444 19.7344 18.9249 19.028C19.5723 18.4424 19.8907 17.6928 19.9833 16.8144C19.1622 16.0506 18.3429 15.2877 17.5077 14.5108C16.8983 15.1431 16.303 15.7622 15.6935 16.3946C14.3363 15.1299 12.9975 13.8828 11.6402 12.619L16.4917 7.55673C16.7818 7.25687 16.8603 7.25864 17.1725 7.5435Z" fill="#FE0202"/>
<path d="M0.102214 16.4759C0.109269 18.3844 1.57857 19.8978 3.48883 19.904C4.85054 19.9084 6.21841 19.9049 7.58012 19.904C7.65155 19.904 7.72828 19.9119 7.83764 19.904C5.25093 17.5007 2.69686 15.0745 0.101332 12.6633C0.101332 13.9765 0.0969222 15.2262 0.102214 16.4759Z" fill="#FE0202"/>
<path d="M0.102346 3.59921C0.385447 3.3117 0.67913 3.03477 0.933126 2.77813C0.987806 2.72168 1.04249 2.66524 1.09717 2.60792C1.59281 2.08669 2.07876 1.55577 2.58851 1.04866C2.90865 0.7294 3.26407 0.4463 3.60362 0.146443L3.65653 0.0917632L3.59039 0.0908813C2.95275 0.0908813 2.31511 0.0864716 1.67836 0.0926452C0.802601 0.0997006 0.109402 0.772615 0.102346 1.64926C0.102346 2.21722 0.100583 2.7843 0.102346 3.35227C0.102346 3.414 0.102346 3.4969 0.102346 3.59921Z" fill="#FE0202"/>
</svg>
