<svg width="106" height="19" viewBox="0 0 106 19" fill="none" xmlns="http://www.w3.org/2000/svg">
<path d="M15.4164 6.89247C16.0885 7.50725 16.7582 8.12681 17.4391 8.73123C17.5219 8.8045 17.7035 8.86263 17.7815 8.82043C17.8763 8.76946 17.9607 8.60462 17.9615 8.48835C17.971 5.8397 17.9694 3.19025 17.9686 0.541606C17.9686 0.258107 17.8747 0.162545 17.5928 0.162545C14.702 0.161749 11.8121 0.162545 8.92136 0.160156C8.75651 0.160156 8.59963 0.196788 8.57893 0.362428C8.5646 0.476306 8.62512 0.639557 8.71033 0.718395C9.36014 1.32362 10.0235 1.91371 10.6837 2.50699C10.9385 2.73554 10.9465 2.83668 10.7179 3.08434C9.42943 4.48193 8.14174 5.87952 6.85245 7.27631C6.70194 7.43956 6.54745 7.59883 6.38738 7.76765C5.67067 7.1035 4.97705 6.46005 4.27547 5.80944C3.73316 6.37325 3.20598 6.92114 2.67163 7.47699C6.46224 10.9984 10.2321 14.5454 14.0068 18.0517C15.5573 18.0963 16.2939 17.9004 16.9987 17.2625C17.5832 16.7337 17.8707 16.0568 17.9543 15.2637C17.2129 14.574 16.4731 13.8852 15.719 13.1836C15.1687 13.7546 14.6312 14.3136 14.0809 14.8846C12.8553 13.7426 11.6465 12.6166 10.4209 11.4754L14.8016 6.90442C15.0636 6.63366 15.1345 6.63525 15.4164 6.89247Z" fill="#FE0202"/>
<path d="M0.00235171 14.9577C0.00872248 16.681 1.33544 18.0476 3.06032 18.0531C4.28988 18.0571 5.52501 18.0539 6.75457 18.0531C6.81908 18.0531 6.88836 18.0603 6.98711 18.0531C4.65142 15.8831 2.3452 13.6923 0.00155536 11.5151C0.00155536 12.7009 -0.00242637 13.8293 0.00235171 14.9577Z" fill="#FE0202"/>
<path d="M0.00192857 3.33087C0.257556 3.07126 0.522739 2.8212 0.752087 2.58947C0.80146 2.5385 0.850834 2.48753 0.900207 2.43577C1.34775 1.96513 1.78654 1.48573 2.24683 1.02783C2.5359 0.739554 2.85683 0.483927 3.16342 0.213169L3.21121 0.163795L3.15148 0.162999C2.57572 0.162999 1.99996 0.159017 1.425 0.164592C0.634228 0.170962 0.00829934 0.778575 0.00192857 1.57014C0.00192857 2.08299 0.000335874 2.59504 0.00192857 3.10789C0.00192857 3.16363 0.00192857 3.23849 0.00192857 3.33087Z" fill="#FE0202"/>
<path d="M21.6877 5.95854C21.6877 2.70944 24.2361 0.161133 27.6922 0.161133C29.6512 0.161133 31.0369 0.766356 32.2154 1.78568L30.3998 3.96767C29.6034 3.29874 28.8071 2.91649 27.7081 2.91649C26.0995 2.91649 24.8572 4.27028 24.8572 6.00632C24.8572 7.80606 26.1154 9.09614 27.8833 9.09614C28.6319 9.09614 29.2053 8.93687 29.6671 8.63426V7.28047H27.4692V5.01885H32.5977V10.0358C31.4191 11.0074 29.7786 11.7559 27.7559 11.7559C24.2838 11.7559 21.6877 9.3669 21.6877 5.95854Z" fill="#0B0B0B"/>
<path d="M34.3176 0.383789H39.5894C41.2936 0.383789 42.4722 0.829743 43.2208 1.57831C43.8738 2.23131 44.2083 3.09137 44.2083 4.22218C44.2083 5.92636 43.3004 7.05717 41.9148 7.64647L44.5746 11.5326H41.0069L38.7612 8.15613H37.4075V11.5326H34.3176V0.383789ZM39.4461 5.73524C40.4973 5.73524 41.1025 5.22558 41.1025 4.38145C41.1025 3.50547 40.4654 3.05951 39.4302 3.05951H37.4075V5.73524H39.4461Z" fill="#0B0B0B"/>
<path d="M50.2604 0.304199H53.2387L57.9849 11.5327H54.6721L53.8599 9.54182H49.5596L48.7633 11.5327H45.5142L50.2604 0.304199ZM52.968 7.13685L51.7257 3.96739L50.4674 7.13685H52.968Z" fill="#0B0B0B"/>
<path d="M59.0681 0.383789H63.8462C66.6653 0.383789 68.4809 1.83314 68.4809 4.33367C68.4809 6.96161 66.4582 8.34725 63.6869 8.34725H62.1579V11.5326H59.0681V0.383789ZM63.6232 5.92636C64.7222 5.92636 65.3911 5.35299 65.3911 4.44516C65.3911 3.48954 64.7222 2.97988 63.6073 2.97988H62.1579V5.92636H63.6232Z" fill="#0B0B0B"/>
<path d="M69.7869 0.383789H74.5649C77.384 0.383789 79.1997 1.83314 79.1997 4.33367C79.1997 6.96161 77.177 8.34725 74.4057 8.34725H72.8767V11.5326H69.7869V0.383789ZM74.342 5.92636C75.4409 5.92636 76.1099 5.35299 76.1099 4.44516C76.1099 3.48954 75.4409 2.97988 74.326 2.97988H72.8767V5.92636H74.342Z" fill="#0B0B0B"/>
<path d="M80.5059 0.383789H89.4249V3.09137H83.5957V4.98667H88.8675V7.55091H83.5957V11.5326H80.5059V0.383789Z" fill="#0B0B0B"/>
<path d="M90.8901 0.383789H93.9959V11.5326H90.8901V0.383789Z" fill="#0B0B0B"/>
<path d="M98.7582 3.09137H95.4136V0.383789H105.193V3.09137H101.848V11.5326H98.7582V3.09137Z" fill="#0B0B0B"/>
<path d="M21.5552 17.5082L21.7965 17.3713C21.9111 17.6778 22.2074 17.8968 22.6072 17.8968C23.0069 17.8968 23.3406 17.6778 23.3406 17.2892C23.3406 16.4188 21.7033 16.676 21.7033 15.6193C21.7033 15.0881 22.1246 14.7871 22.596 14.7871C22.9631 14.7871 23.2697 14.9623 23.4393 15.1869L23.2315 15.3565C23.1057 15.1757 22.8755 15.0499 22.6016 15.0499C22.2727 15.0499 21.9661 15.2307 21.9661 15.6026C21.9661 16.4515 23.6034 16.1887 23.6034 17.2781C23.6034 17.853 23.1327 18.1596 22.6016 18.1596C22.1134 18.1596 21.7136 17.8913 21.5552 17.5082Z" fill="#0B0B0B"/>
<path d="M28.6946 15.7279C28.6946 16.2264 28.2949 16.6206 27.7964 16.6206H26.9371V18.1153H26.6743V14.8296H27.7972C28.2949 14.8296 28.6946 15.2294 28.6946 15.7279ZM28.4319 15.7279C28.4319 15.3552 28.142 15.0876 27.7749 15.0876H26.9371V16.3689H27.7749C28.142 16.3681 28.4319 16.1165 28.4319 15.7279Z" fill="#0B0B0B"/>
<path d="M31.5684 16.4723C31.5684 15.5414 32.3241 14.7856 33.255 14.7856C34.1859 14.7856 34.9417 15.5414 34.9417 16.4723C34.9417 17.4032 34.1859 18.159 33.255 18.159C32.3241 18.159 31.5684 17.4032 31.5684 16.4723ZM34.6781 16.4723C34.6781 15.6839 34.0426 15.0484 33.2542 15.0484C32.4658 15.0484 31.8304 15.6839 31.8304 16.4723C31.8304 17.2607 32.4658 17.8962 33.2542 17.8962C34.0426 17.8962 34.6781 17.2607 34.6781 16.4723Z" fill="#0B0B0B"/>
<path d="M40.3455 18.1153H40.0445L39.0968 16.6094H38.3849V18.1153H38.1221V14.8296H39.2449C39.7434 14.8296 40.1432 15.2294 40.1432 15.7279C40.1432 16.1826 39.804 16.5489 39.366 16.5983L40.3455 18.1153ZM39.2282 16.3578C39.5953 16.3578 39.8796 16.0894 39.8796 15.7279C39.8796 15.3608 39.5945 15.0924 39.2282 15.0924H38.3849V16.357H39.2282V16.3578Z" fill="#0B0B0B"/>
<path d="M45.0644 15.0924H44.1391V18.1145H43.8763V15.0924H42.9509V14.8296H45.0644V15.0924Z" fill="#0B0B0B"/>
<path d="M55.0061 14.8296V18.1145H54.7489V15.3552L53.5225 18.1145H53.3091L52.0938 15.3655V18.1145H51.8311V14.8296H52.105L53.419 17.8024L54.7385 14.8296H55.0061Z" fill="#0B0B0B"/>
<path d="M60.0196 17.3215H58.4866L58.2071 18.1155H57.9172L59.1054 14.8306H59.3953L60.5834 18.1155H60.2983L60.0196 17.3215ZM59.932 17.0691L59.2527 15.1419L58.5734 17.0691H59.932Z" fill="#0B0B0B"/>
<path d="M66.1078 14.8296V18.1145H65.8777L63.753 15.2947V18.1145H63.4902V14.8296H63.7204L65.845 17.6495V14.8296H66.1078Z" fill="#0B0B0B"/>
<path d="M71.117 17.3215H69.584L69.3045 18.1155H69.0146L70.2028 14.8306H70.4927L71.6808 18.1155H71.3957L71.117 17.3215ZM71.0294 17.0691L70.3501 15.1419L69.6708 17.0691H71.0294Z" fill="#0B0B0B"/>
<path d="M77.7581 16.3959V16.4723C77.7581 17.4032 77.0024 18.159 76.0714 18.159C75.1349 18.159 74.3848 17.4032 74.3848 16.4723C74.3848 15.5414 75.1349 14.7856 76.0714 14.7856C76.6958 14.7856 77.2429 15.1249 77.5335 15.6346L77.3034 15.7604C77.0621 15.3335 76.6026 15.0484 76.0714 15.0484C75.283 15.0484 74.6476 15.6839 74.6476 16.4723C74.6476 17.2607 75.283 17.8962 76.0714 17.8962C76.7993 17.8962 77.3965 17.3539 77.4841 16.6475H76.0659V16.3959H77.7581Z" fill="#0B0B0B"/>
<path d="M81.2347 15.0868V16.3458H82.5375V16.5975H81.2347V17.8565H82.7239V18.1137H80.9719V14.8296H82.7239V15.0868H81.2347Z" fill="#0B0B0B"/>
<path d="M89.1238 14.8296V18.1145H88.8665V15.3552L87.6402 18.1145H87.4267L86.2115 15.3655V18.1145H85.9487V14.8296H86.2227L87.5366 17.8024L88.8562 14.8296H89.1238Z" fill="#0B0B0B"/>
<path d="M92.721 15.0868V16.3458H94.0239V16.5975H92.721V17.8565H94.2102V18.1137H92.4583V14.8296H94.2102V15.0868H92.721Z" fill="#0B0B0B"/>
<path d="M100.052 14.8296V18.1145H99.822L97.6974 15.2947V18.1145H97.4346V14.8296H97.6647L99.7894 17.6495V14.8296H100.052Z" fill="#0B0B0B"/>
<path d="M105.122 15.0924H104.196V18.1145H103.934V15.0924H103.008V14.8296H105.122V15.0924Z" fill="#0B0B0B"/>
</svg>
