<svg width="40" height="40" viewBox="0 0 40 40" fill="none" xmlns="http://www.w3.org/2000/svg">
<path d="M19.9934 20.0023C17.7563 20.0023 15.947 21.8177 15.947 24.0494C15.947 26.2868 17.7563 28.0965 19.9934 28.0965C22.2305 28.0965 24.0456 26.2811 24.0456 24.0494C24.0398 21.8119 22.2305 20.0023 19.9934 20.0023Z" stroke="white" stroke-width="2" stroke-miterlimit="10"/>
<path d="M19.9877 2.98132C10.5942 2.98132 2.9812 10.5956 2.9812 19.9906C2.9812 29.3856 10.5942 36.9998 19.9877 36.9998C29.3869 36.9998 36.9999 29.3856 36.9999 19.9906C36.9999 10.5956 29.3869 2.98132 19.9877 2.98132Z" stroke="white" stroke-width="2" stroke-miterlimit="10"/>
<path d="M9.03345 20.0079C9.03345 13.9547 13.9412 9.04614 19.9934 9.04614C26.0515 9.04614 30.9592 13.9547 30.9592 20.0079" stroke="white" stroke-width="2" stroke-miterlimit="10" stroke-linecap="round" stroke-linejoin="round"/>
<path d="M22.1262 20.6091L24.8084 16.2845" stroke="white" stroke-width="2" stroke-miterlimit="10" stroke-linecap="round" stroke-linejoin="round"/>
</svg>
