<svg width="40" height="40" viewBox="0 0 40 40" fill="none" xmlns="http://www.w3.org/2000/svg">
<path d="M26.4983 26.5526C26.4983 26.5526 22.4059 19.7739 12.9458 24.6345" stroke="white" stroke-width="2" stroke-miterlimit="10" stroke-linecap="round" stroke-linejoin="round"/>
<path d="M16.7218 23.1835C16.7218 23.1835 14.2112 17.6601 6.6792 20.1657" stroke="white" stroke-width="2" stroke-miterlimit="10" stroke-linecap="round" stroke-linejoin="round"/>
<path d="M11.1984 31.5088C11.1984 31.5088 9.45602 33.2863 8.08521 36.274" stroke="white" stroke-width="2" stroke-miterlimit="10" stroke-linecap="round" stroke-linejoin="round"/>
<path d="M10.2241 32.8795C20.5831 39.6281 34.1707 31.6693 34.1707 31.6693C35.19 16.8364 28.1602 6.48247 28.1602 6.48247L28.0598 6.36195C28.0598 6.36195 26.5434 3.9216 20.0207 4.00194C20.0207 4.00194 16.7819 5.67404 17.3795 9.50529L18.2934 10.7506L23.1289 10.1882C23.1289 10.1882 23.8871 8.07422 24.2938 7.48673" stroke="white" stroke-width="2" stroke-miterlimit="10" stroke-linecap="round" stroke-linejoin="round"/>
<path d="M23.7817 8.8075C23.7817 8.8075 26.1669 10.6553 26.4832 12.925L26.5133 13.0706C26.7343 14.2958 26.9803 16.1486 26.7343 16.9671C26.443 17.9412 25.268 19.5832 24.781 21.8328" stroke="white" stroke-width="2" stroke-miterlimit="10" stroke-linejoin="round"/>
</svg>
