<svg width="40" height="40" viewBox="0 0 40 40" fill="none" xmlns="http://www.w3.org/2000/svg">
<g clip-path="url(#clip0)">
<path d="M28.4434 10.1457C28.4434 10.1457 22.8035 12.6757 18.0303 9.67714C18.0303 9.67714 15.3304 6.63756 8.37866 10.0988" stroke="white" stroke-width="2" stroke-miterlimit="10" stroke-linecap="round"/>
<path d="M3.45923 19.6568C3.45923 19.6568 9.05814 22.1869 10.411 21.9175C10.411 21.9175 17.5326 15.8559 18.048 10.011" stroke="white" stroke-width="2" stroke-miterlimit="10" stroke-linecap="round"/>
<path d="M22.2941 26.304C22.2941 26.304 22.7451 21.3435 21.5913 19.6802C21.5913 19.6802 19.2311 18.1341 14.95 17.1677" stroke="white" stroke-width="2" stroke-miterlimit="10" stroke-linecap="round"/>
<path d="M34.3176 14.3859L36.9999 11.9672" stroke="white" stroke-width="2" stroke-miterlimit="10" stroke-linecap="round"/>
<path d="M32.5664 36.3597V34.2982" stroke="white" stroke-width="2" stroke-miterlimit="10" stroke-linecap="round" stroke-linejoin="round"/>
<path d="M5.18701 36.3599V34.2983" stroke="white" stroke-width="2" stroke-miterlimit="10" stroke-linecap="round" stroke-linejoin="round"/>
<path d="M36.1625 27.0362C36.7013 29.4433 37.4334 34.2691 34.8565 34.2691H3.02002C3.02002 31.4931 6.03617 30.5619 6.03617 30.5619L33.2284 29.1446C33.2284 29.1446 36.6311 29.0567 36.0688 26.5794C35.4129 23.6745 33.5153 17.1385 33.5153 17.1385H27.3893" stroke="white" stroke-width="2" stroke-miterlimit="10" stroke-linecap="round" stroke-linejoin="round"/>
<path d="M21.568 5.45455C21.568 6.07535 21.0702 6.57901 20.4436 6.57901C19.8228 6.57901 19.3191 6.07535 19.3191 5.45455C19.3191 4.82789 19.8228 4.33008 20.4436 4.33008C21.0702 4.33008 21.568 4.83375 21.568 5.45455Z" fill="#394553" stroke="white" stroke-width="2" stroke-miterlimit="10"/>
</g>
<defs>
<clipPath id="clip0">
<rect width="40" height="40" fill="white"/>
</clipPath>
</defs>
</svg>
