<svg width="40" height="40" viewBox="0 0 40 40" fill="none" xmlns="http://www.w3.org/2000/svg">
<path d="M11.781 5.00012C11.781 5.00012 14.6587 10.2081 12.5018 15.0476C10.7514 18.9711 5.72764 20.0008 10.9573 35.7602" stroke="white" stroke-width="2" stroke-miterlimit="10" stroke-linecap="round" stroke-linejoin="round"/>
<path d="M29.0092 5C29.0092 5 26.1315 10.208 28.2884 15.0474C30.0388 18.971 35.0626 20.0007 29.8329 35.7601" stroke="white" stroke-width="2" stroke-miterlimit="10" stroke-linecap="round" stroke-linejoin="round"/>
<path d="M20.3921 35.7602V29.4846" stroke="white" stroke-width="2" stroke-miterlimit="10" stroke-linecap="round" stroke-linejoin="round"/>
<path d="M9.51562 20.4017C9.51562 20.4017 19.2758 24.1465 31.2742 20.4017" stroke="white" stroke-width="2" stroke-miterlimit="10" stroke-linecap="round" stroke-linejoin="round"/>
<path d="M20.208 29.4845C19.4385 29.3815 19.265 29.3544 18.6201 28.8558C14.4256 25.6151 9.51025 28.8829 9.51025 28.8829" stroke="white" stroke-width="2" stroke-miterlimit="10" stroke-linecap="round" stroke-linejoin="round"/>
<path d="M20.5818 29.4844C21.3513 29.3815 21.5247 29.3544 22.1696 28.8558C26.3642 25.615 31.6047 29.3164 31.6047 29.3164" stroke="white" stroke-width="2" stroke-miterlimit="10" stroke-linecap="round" stroke-linejoin="round"/>
<path d="M3.92285 11.4163H9.77031" stroke="white" stroke-width="2" stroke-miterlimit="10" stroke-linecap="round" stroke-linejoin="round"/>
<path d="M7.26123 8.90186L9.7758 11.411" stroke="white" stroke-width="2" stroke-miterlimit="10" stroke-linecap="round" stroke-linejoin="round"/>
<path d="M9.7758 11.438L7.26123 13.9471" stroke="white" stroke-width="2" stroke-miterlimit="10" stroke-linecap="round" stroke-linejoin="round"/>
<path d="M36.8667 11.4218H31.0193" stroke="white" stroke-width="2" stroke-miterlimit="10" stroke-linecap="round" stroke-linejoin="round"/>
<path d="M33.5292 8.89648L31.0146 11.4111" stroke="white" stroke-width="2" stroke-miterlimit="10" stroke-linecap="round" stroke-linejoin="round"/>
<path d="M31.0139 11.4326L33.5285 13.9418" stroke="white" stroke-width="2" stroke-miterlimit="10" stroke-linecap="round" stroke-linejoin="round"/>
</svg>
