<svg width="389" height="54" viewBox="0 0 389 54" fill="none" xmlns="http://www.w3.org/2000/svg">
<path d="M-6.32445e-09 26.9999C-2.77998e-09 11.8681 11.8711 -6.10324e-05 27.9712 -6.10286e-05C37.0971 -6.10265e-05 43.552 2.81862 49.0423 7.56587L40.5842 17.728C36.8745 14.6126 33.1648 12.8324 28.0454 12.8324C20.5518 12.8324 14.7646 19.1373 14.7646 27.2225C14.7646 35.6043 20.626 41.6126 28.8615 41.6126C32.3487 41.6126 35.0196 40.8708 37.1713 39.4615L37.1713 33.1565L26.9325 33.1565L26.9325 22.6236L50.823 22.6236L50.823 45.9889C45.3326 50.5137 37.6906 53.9999 28.268 53.9999C12.0936 53.9999 -1.00427e-08 42.8736 -6.32445e-09 26.9999ZM58.836 1.0384L83.3942 1.0384C91.333 1.0384 96.8234 3.11532 100.31 6.60159C103.352 9.64279 104.911 13.6483 104.911 18.9148C104.911 26.8516 100.681 32.1181 94.2266 34.8626L106.617 52.9615L89.9975 52.9615L79.5361 37.2362L73.2296 37.2362L73.2296 52.9615L58.836 52.9615L58.836 1.0384ZM82.7265 25.9615C87.6233 25.9615 90.4427 23.5878 90.4427 19.6565C90.4427 15.5769 87.4749 13.4999 82.6523 13.4999L73.2296 13.4999L73.2296 25.9615L82.7265 25.9615ZM133.104 0.667521L146.979 0.667521L169.088 52.9615L153.656 52.9615L149.872 43.6895L129.84 43.6895L126.13 52.9615L110.994 52.9615L133.104 0.667521ZM145.717 32.4889L139.93 17.728L134.069 32.4889L145.717 32.4889ZM174.134 1.0384L196.392 1.0384C209.524 1.0384 217.982 7.7884 217.982 19.434C217.982 31.673 208.56 38.1263 195.65 38.1263L188.527 38.1263L188.527 52.9615L174.134 52.9615L174.134 1.0384ZM195.353 26.8516C200.473 26.8516 203.589 24.1813 203.589 19.9532C203.589 15.5027 200.473 13.1291 195.279 13.1291L188.527 13.1291L188.527 26.8516L195.353 26.8516ZM224.066 1.0384L246.325 1.0384C259.457 1.0384 267.915 7.7884 267.915 19.434C267.915 31.673 258.492 38.1263 245.583 38.1263L238.46 38.1263L238.46 52.9615L224.066 52.9615L224.066 1.0384ZM245.286 26.8516C250.405 26.8516 253.521 24.1813 253.521 19.9532C253.521 15.5027 250.405 13.1291 245.212 13.1291L238.46 13.1291L238.46 26.8516L245.286 26.8516ZM273.995 1.0384L315.544 1.0384L315.544 13.6483L288.389 13.6483L288.389 22.4752L312.947 22.4752L312.947 34.4175L288.389 34.4175L288.389 52.9615L273.995 52.9615L273.995 1.0384ZM322.37 1.0384L336.838 1.0384L336.838 52.9615L322.37 52.9615L322.37 1.0384ZM359.026 13.6483L343.445 13.6483L343.445 1.0384L389 1.0384L389 13.6483L373.419 13.6483L373.419 52.9615L359.026 52.9615L359.026 13.6483Z" fill="#F0F0F0"/>
</svg>
