<svg width="40" height="40" viewBox="0 0 40 40" fill="none" xmlns="http://www.w3.org/2000/svg">
<path d="M11.6445 17.8702H23.3652" stroke="#FE0202" stroke-width="2" stroke-miterlimit="10"/>
<path d="M11.6445 21.9856H20.1878" stroke="#FE0202" stroke-width="2" stroke-miterlimit="10"/>
<path d="M11.6445 26.1024H18.8998" stroke="#FE0202" stroke-width="2" stroke-miterlimit="10"/>
<path d="M13.3833 6.69934V10.4129H9.67188" stroke="#FE0202" stroke-width="2" stroke-miterlimit="10"/>
<path d="M17.5046 32.025H7V9.43724L12.4281 4H28.008V19.0038" stroke="#FE0202" stroke-width="2" stroke-miterlimit="10" stroke-linejoin="round"/>
<path d="M25.5174 31.5782L22.9226 36.7553L22.15 33.598L19.2 34.9134L21.1078 31.1165" stroke="#FE0202" stroke-width="2" stroke-miterlimit="10" stroke-linejoin="round"/>
<path d="M27.4329 31.5618L30.0339 36.7551L30.8065 33.5978L33.7577 34.9132L30.9456 29.2881" stroke="#FE0202" stroke-width="2" stroke-miterlimit="10" stroke-linecap="round" stroke-linejoin="round"/>
<path d="M31.5491 26.3821C31.5491 29.1884 29.2798 31.4634 26.48 31.4634C23.679 31.4634 21.4084 29.1897 21.4084 26.3821C21.4084 23.577 23.679 21.302 26.48 21.302C29.2798 21.302 31.5491 23.577 31.5491 26.3821Z" stroke="#FE0202" stroke-width="2" stroke-miterlimit="10" stroke-linecap="round" stroke-linejoin="round"/>
<path d="M26.4791 24.166C27.7013 24.166 28.6925 25.1579 28.6925 26.3837C28.6925 27.6083 27.7026 28.6014 26.4791 28.6014C25.2556 28.6014 24.2656 27.6083 24.2656 26.3837C24.2656 26.1871 24.2905 25.9979 24.3389 25.8175" stroke="#FE0202" stroke-width="2" stroke-miterlimit="10" stroke-linecap="round" stroke-linejoin="round"/>
</svg>
