<svg width="30" height="30" viewBox="0 0 30 30" xmlns="http://www.w3.org/2000/svg">
<path d="M24.1741 9.17413L19.2857 14.0625V27.8572C19.2857 28.3706 19.1016 28.8114 18.7333 29.1797C18.365 29.548 17.9241 29.7322 17.4107 29.7322C16.8974 29.7322 16.4565 29.548 16.0882 29.1797C15.7199 28.8114 15.5357 28.3706 15.5357 27.8572V21.4286H14.4643V27.8572C14.4643 28.3706 14.2802 28.8114 13.9119 29.1797C13.5436 29.548 13.1027 29.7322 12.5893 29.7322C12.0759 29.7322 11.6351 29.548 11.2668 29.1797C10.8985 28.8114 10.7143 28.3706 10.7143 27.8572V14.0625L5.82593 9.17413C5.51343 8.86163 5.35718 8.48216 5.35718 8.03573C5.35718 7.5893 5.51343 7.20984 5.82593 6.89734C6.13843 6.58484 6.51789 6.42859 6.96432 6.42859C7.41075 6.42859 7.79021 6.58484 8.10271 6.89734L11.9197 10.7143H18.0804L21.8974 6.89734C22.2099 6.58484 22.5893 6.42859 23.0357 6.42859C23.4822 6.42859 23.8616 6.58484 24.1741 6.89734C24.4866 7.20984 24.6429 7.5893 24.6429 8.03573C24.6429 8.48216 24.4866 8.86163 24.1741 9.17413ZM18.75 6.42859C18.75 7.46654 18.3845 8.35102 17.6535 9.08205C16.9225 9.81308 16.038 10.1786 15 10.1786C13.9621 10.1786 13.0776 9.81308 12.3466 9.08205C11.6155 8.35102 11.25 7.46654 11.25 6.42859C11.25 5.39064 11.6155 4.50616 12.3466 3.77513C13.0776 3.0441 13.9621 2.67859 15 2.67859C16.038 2.67859 16.9225 3.0441 17.6535 3.77513C18.3845 4.50616 18.75 5.39064 18.75 6.42859Z"/>
</svg>
