<svg width="170" height="30" viewBox="0 0 170 30" fill="none" xmlns="http://www.w3.org/2000/svg">
<path d="M24.9142 11.0401C26.0004 12.0337 27.0827 13.0349 28.1831 14.0117C28.3169 14.1301 28.6103 14.2241 28.7365 14.1559C28.8896 14.0735 29.026 13.8071 29.0273 13.6192C29.0428 9.33878 29.0402 5.05705 29.0389 0.776611C29.0389 0.318453 28.887 0.164017 28.4314 0.164017C23.7598 0.16273 19.0894 0.164017 14.4177 0.160156C14.1513 0.160156 13.8978 0.219357 13.8643 0.487045C13.8412 0.67108 13.939 0.934908 14.0767 1.06232C15.1268 2.04041 16.1989 2.99405 17.2658 3.95284C17.6776 4.32219 17.6905 4.48564 17.3211 4.88588C15.2388 7.1445 13.1578 9.40312 11.0742 11.6605C10.8309 11.9243 10.5813 12.1817 10.3226 12.4545C9.16433 11.3812 8.04338 10.3413 6.90957 9.28987C6.03315 10.201 5.18118 11.0865 4.31763 11.9848C10.4436 17.6757 16.536 23.4079 22.6363 29.0743C25.142 29.1464 26.3324 28.8298 27.4714 27.799C28.416 26.9444 28.8806 25.8505 29.0157 24.5687C27.8176 23.4542 26.622 22.341 25.4032 21.2071C24.5139 22.1299 23.6452 23.0333 22.7559 23.9561C20.7753 22.1106 18.8217 20.2908 16.8411 18.4466L23.9206 11.0594C24.3441 10.6219 24.4586 10.6245 24.9142 11.0401Z" fill="#FE0202"/>
<path d="M0.00380056 24.0748C0.0140963 26.8598 2.15818 29.0682 4.94574 29.0772C6.93281 29.0836 8.92889 29.0785 10.916 29.0772C11.0202 29.0772 11.1322 29.0888 11.2918 29.0772C7.51709 25.5702 3.79005 22.0298 0.0025136 18.5112C0.0025136 20.4275 -0.00392121 22.2511 0.00380056 24.0748Z" fill="#FE0202"/>
<path d="M0.00334123 5.28436C0.416456 4.86481 0.845015 4.46071 1.21566 4.0862C1.29545 4.00383 1.37524 3.92147 1.45504 3.83782C2.17831 3.07722 2.88742 2.30247 3.63129 1.56247C4.09846 1.09659 4.6171 0.68347 5.11258 0.245903L5.1898 0.166111L5.09328 0.164824C4.1628 0.164824 3.23233 0.158389 2.30314 0.167398C1.02519 0.177694 0.0136369 1.15965 0.00334123 2.43889C0.00334123 3.26769 0.000767307 4.09521 0.00334123 4.92401C0.00334123 5.0141 0.00334123 5.13507 0.00334123 5.28436Z" fill="#FE0202"/>
<path d="M35.0491 9.53071C35.0491 4.2799 39.1674 0.161621 44.7528 0.161621C47.9187 0.161621 50.158 1.13971 52.0627 2.78703L49.1284 6.3133C47.8415 5.23225 46.5545 4.61451 44.7785 4.61451C42.1788 4.61451 40.1712 6.80235 40.1712 9.60793C40.1712 12.5165 42.2046 14.6013 45.0616 14.6013C46.2714 14.6013 47.198 14.344 47.9444 13.8549V11.6671H44.3924V8.01209H52.6805V16.12C50.7758 17.6901 48.1246 18.8998 44.8557 18.8998C39.2446 18.8998 35.0491 15.0389 35.0491 9.53071Z" fill="#0B0B0B"/>
<path d="M55.4604 0.521973H63.9801C66.7342 0.521973 68.6389 1.24267 69.8487 2.45242C70.904 3.50773 71.4445 4.89765 71.4445 6.72513C71.4445 9.47923 69.9774 11.3067 67.7381 12.2591L72.0365 18.5395H66.2709L62.6417 13.0827H60.4539V18.5395H55.4604V0.521973ZM63.7485 9.17036C65.4473 9.17036 66.4254 8.34671 66.4254 6.98253C66.4254 5.56687 65.3958 4.84617 63.7228 4.84617H60.4539V9.17036H63.7485Z" fill="#0B0B0B"/>
<path d="M81.2252 0.393066H86.0385L93.7088 18.5392H88.355L87.0423 15.3218H80.0927L78.8057 18.5392H73.5549L81.2252 0.393066ZM85.6009 11.4352L83.5932 6.31309L81.5598 11.4352H85.6009Z" fill="#0B0B0B"/>
<path d="M95.4592 0.521973H103.181C107.737 0.521973 110.671 2.86425 110.671 6.90531C110.671 11.1523 107.402 13.3916 102.924 13.3916H100.453V18.5395H95.4592V0.521973ZM102.821 9.47923C104.597 9.47923 105.678 8.55262 105.678 7.08548C105.678 5.54113 104.597 4.71747 102.795 4.71747H100.453V9.47923H102.821Z" fill="#0B0B0B"/>
<path d="M112.781 0.521973H120.503C125.059 0.521973 127.993 2.86425 127.993 6.90531C127.993 11.1523 124.725 13.3916 120.246 13.3916H117.775V18.5395H112.781V0.521973ZM120.143 9.47923C121.919 9.47923 123 8.55262 123 7.08548C123 5.54113 121.919 4.71747 120.117 4.71747H117.775V9.47923H120.143Z" fill="#0B0B0B"/>
<path d="M130.104 0.521973H144.518V4.89765H135.098V7.96062H143.617V12.1046H135.098V18.5395H130.104V0.521973Z" fill="#0B0B0B"/>
<path d="M146.886 0.521973H151.905V18.5395H146.886V0.521973Z" fill="#0B0B0B"/>
<path d="M159.602 4.89765H154.196V0.521973H170V4.89765H164.595V18.5395H159.602V4.89765Z" fill="#0B0B0B"/>
<path d="M34.8354 28.1964L35.2254 27.975C35.4107 28.4705 35.8895 28.8244 36.5355 28.8244C37.1816 28.8244 37.7208 28.4705 37.7208 27.8425C37.7208 26.4358 35.0748 26.8515 35.0748 25.1437C35.0748 24.2853 35.7556 23.7988 36.5175 23.7988C37.1108 23.7988 37.6063 24.082 37.8804 24.4449L37.5445 24.719C37.3412 24.4269 36.9692 24.2235 36.5265 24.2235C35.995 24.2235 35.4995 24.5157 35.4995 25.1167C35.4995 26.4886 38.1455 26.0639 38.1455 27.8244C38.1455 28.7536 37.3849 29.2491 36.5265 29.2491C35.7376 29.2491 35.0916 28.8154 34.8354 28.1964Z" fill="#0B0B0B"/>
<path d="M46.3732 25.3189C46.3732 26.1245 45.7271 26.7616 44.9215 26.7616H43.5329V29.1772H43.1082V23.8672H44.9228C45.7271 23.8672 46.3732 24.5132 46.3732 25.3189ZM45.9485 25.3189C45.9485 24.7166 45.48 24.2842 44.8867 24.2842H43.5329V26.3549H44.8867C45.48 26.3536 45.9485 25.9469 45.9485 25.3189Z" fill="#0B0B0B"/>
<path d="M51.0176 26.5222C51.0176 25.0177 52.2389 23.7964 53.7434 23.7964C55.2478 23.7964 56.4692 25.0177 56.4692 26.5222C56.4692 28.0266 55.2478 29.248 53.7434 29.248C52.2389 29.248 51.0176 28.0266 51.0176 26.5222ZM56.0432 26.5222C56.0432 25.2481 55.0162 24.2211 53.7421 24.2211C52.468 24.2211 51.441 25.2481 51.441 26.5222C51.441 27.7963 52.468 28.8233 53.7421 28.8233C55.0162 28.8233 56.0432 27.7963 56.0432 26.5222Z" fill="#0B0B0B"/>
<path d="M65.2014 29.1772H64.7149L63.1834 26.7436H62.0329V29.1772H61.6082V23.8672H63.4228C64.2284 23.8672 64.8745 24.5132 64.8745 25.3189C64.8745 26.0537 64.3262 26.6457 63.6184 26.7255L65.2014 29.1772ZM63.3957 26.3369C63.989 26.3369 64.4485 25.9032 64.4485 25.3189C64.4485 24.7256 63.9878 24.2919 63.3957 24.2919H62.0329V26.3356H63.3957V26.3369Z" fill="#0B0B0B"/>
<path d="M72.828 24.2919H71.3325V29.1759H70.9078V24.2919H69.4124V23.8672H72.828V24.2919Z" fill="#0B0B0B"/>
<path d="M88.8943 23.8672V29.1759H88.4786V24.7166L86.4967 29.1759H86.1518L84.1879 24.7333V29.1759H83.7632V23.8672H84.2059L86.3294 28.6714L88.4619 23.8672H88.8943Z" fill="#0B0B0B"/>
<path d="M96.9969 27.8943H94.5195L94.0678 29.1774H93.5994L95.5195 23.8687H95.988L97.9081 29.1774H97.4474L96.9969 27.8943ZM96.8554 27.4863L95.7576 24.3719L94.6598 27.4863H96.8554Z" fill="#0B0B0B"/>
<path d="M106.836 23.8672V29.1759H106.464L103.03 24.6188V29.1759H102.606V23.8672H102.978L106.411 28.4243V23.8672H106.836Z" fill="#0B0B0B"/>
<path d="M114.931 27.8943H112.453L112.002 29.1774H111.533L113.453 23.8687H113.922L115.842 29.1774H115.381L114.931 27.8943ZM114.789 27.4863L113.691 24.3719L112.594 27.4863H114.789Z" fill="#0B0B0B"/>
<path d="M125.664 26.3986V26.5222C125.664 28.0266 124.443 29.248 122.938 29.248C121.425 29.248 120.212 28.0266 120.212 26.5222C120.212 25.0177 121.425 23.7964 122.938 23.7964C123.947 23.7964 124.831 24.3446 125.301 25.1683L124.929 25.3716C124.539 24.6818 123.797 24.2211 122.938 24.2211C121.664 24.2211 120.637 25.2481 120.637 26.5222C120.637 27.7963 121.664 28.8233 122.938 28.8233C124.114 28.8233 125.08 27.9468 125.221 26.8053H122.929V26.3986H125.664Z" fill="#0B0B0B"/>
<path d="M131.282 24.2829V26.3176H133.387V26.7242H131.282V28.7589H133.689V29.1746H130.857V23.8672H133.689V24.2829H131.282Z" fill="#0B0B0B"/>
<path d="M144.032 23.8672V29.1759H143.616V24.7166L141.634 29.1759H141.289L139.325 24.7333V29.1759H138.9V23.8672H139.343L141.467 28.6714L143.599 23.8672H144.032Z" fill="#0B0B0B"/>
<path d="M149.845 24.2829V26.3176H151.95V26.7242H149.845V28.7589H152.251V29.1746H149.42V23.8672H152.251V24.2829H149.845Z" fill="#0B0B0B"/>
<path d="M161.693 23.8672V29.1759H161.321L157.887 24.6188V29.1759H157.462V23.8672H157.834L161.268 28.4243V23.8672H161.693Z" fill="#0B0B0B"/>
<path d="M169.886 24.2919H168.39V29.1759H167.965V24.2919H166.47V23.8672H169.886V24.2919Z" fill="#0B0B0B"/>
</svg>
