<svg width="177" height="50" viewBox="0 0 177 50" fill="none" xmlns="http://www.w3.org/2000/svg">
<path fill-rule="evenodd" clip-rule="evenodd" d="M9.65095 0.0729313C10.1648 -0.0672083 10.6973 0.0168755 11.2018 0.13833C11.9586 0.325183 12.7434 0.530721 13.36 1.03522C13.6776 1.28747 13.9672 1.65184 13.9299 2.07226C13.9299 9.32215 13.9299 16.5814 13.9299 23.8313C13.9112 26.2136 14.0607 28.6147 13.6216 30.9597C13.2946 32.8656 12.5472 34.7715 11.1831 36.1822C10.7347 36.6867 10.2208 37.1539 9.62292 37.4809C9.11842 37.7518 8.5672 37.9947 7.97861 37.948C7.84782 37.8079 7.72636 37.6303 7.75439 37.4248C7.8011 36.8643 8.00664 36.3224 8.1935 35.7992C8.74471 33.9867 8.90354 32.0902 8.96894 30.2029C9.02499 21.3555 9.04368 12.5173 9.08105 3.67919C9.08105 3.44562 9.06236 3.2214 9.02499 2.99718C8.698 3.00652 8.48312 3.2868 8.24955 3.50168C7.18449 4.53871 6.30628 5.7626 5.68033 7.11728C4.85817 8.83633 4.43775 10.7329 4.26959 12.6201C4.1201 13.8533 4.22287 15.1052 4.5125 16.3104C4.76475 17.2354 5.12911 18.1509 5.73638 18.9077C5.99797 19.2067 6.08206 19.6831 5.86718 20.0288C5.54953 20.3651 5.04503 20.1876 4.66198 20.0662C3.39138 19.6084 2.29829 18.7395 1.45745 17.6838C0.448447 16.4132 0.0280279 14.7782 0 13.1807C0.0934264 11.7699 0.476475 10.3872 0.99032 9.06989C1.73773 7.12663 2.84016 5.31415 4.2509 3.78196C5.16648 2.81967 6.18483 1.9508 7.27792 1.21273C8.02533 0.736259 8.80077 0.297155 9.65095 0.0729313ZM57.5693 0.427952C57.9898 0.0729313 58.569 0.128987 59.0829 0.194386C59.9891 0.343868 60.8953 0.568091 61.7362 0.932454C61.9978 1.03522 62.222 1.21273 62.4275 1.40893C62.3434 3.38957 62.2687 5.36087 62.1659 7.34151C64.1559 7.43493 66.1459 7.54704 68.1359 7.65915C68.4816 7.67784 68.9487 7.77127 69.0047 8.18234C69.0795 8.78961 68.9954 9.4436 68.7058 9.99481C68.5376 10.2844 68.2947 10.6301 67.9117 10.6114C65.9777 10.6395 64.0438 10.7049 62.1099 10.7329C62.0071 13.5076 61.9324 16.2918 61.8296 19.0759C61.7829 21.6077 61.5493 24.1489 61.8202 26.6808C61.9417 27.6617 62.0725 28.6801 62.549 29.5676C62.7452 29.9507 63.1002 30.2777 63.5393 30.3337C64.1092 30.3898 64.6791 30.1469 65.1089 29.7825C65.7909 29.1939 66.258 28.4185 66.6597 27.6244C67.1269 26.7088 67.4725 25.7372 67.7809 24.7655C67.893 24.3358 67.7995 23.8873 67.8463 23.4482C67.8743 21.1219 68.2386 18.7956 69.0328 16.6094C69.6307 15.0212 70.4809 13.4609 71.8262 12.3772C73.2837 11.1533 75.4325 10.7516 77.2076 11.499C78.3567 11.9474 79.2816 12.8443 79.8609 13.9281C79.9356 13.4236 79.8142 12.863 80.0477 12.3865C80.3654 11.8633 81.0567 11.8447 81.5986 11.8914C82.3273 11.9755 83.0654 12.153 83.7007 12.5173C84.0931 12.7416 84.4855 13.0966 84.4948 13.5824C84.364 17.8239 84.1959 22.0655 84.3267 26.3071C84.364 27.232 84.4948 28.1476 84.691 29.0445C84.8592 29.6891 85.0647 30.3991 85.6066 30.8382C86.1111 31.2306 86.8492 31.1092 87.3257 30.7261C88.1011 30.1189 88.5495 29.2126 88.9419 28.3344C89.0447 28.0822 89.1942 27.8299 89.1381 27.5403C88.8485 24.9991 88.7925 22.4112 89.2035 19.8793C89.4931 18.179 90.007 16.4879 90.8852 14.9931C91.7728 13.4703 93.0714 12.1343 94.6783 11.3775C94.9866 11.2467 95.2949 11.0879 95.6406 11.0599C97.2289 11.0505 98.8732 11.5737 100.004 12.7229C100.293 13.0405 100.545 13.3955 100.77 13.7599C100.872 13.2834 100.77 12.7789 100.938 12.3211C101.19 11.7886 101.881 11.7512 102.395 11.826C103.255 11.9661 104.142 12.153 104.909 12.5921C105.385 12.8723 105.385 13.4796 105.357 13.9654C105.31 18.7489 105.245 23.523 105.207 28.3064C106.291 26.7742 107.282 25.1766 108.132 23.5043C109.178 21.4769 110.056 19.3375 110.505 17.0952C109.907 16.5533 109.365 15.8994 109.187 15.1052C109.029 14.4513 109.178 13.7786 109.356 13.1526C109.645 12.1997 110.346 11.3215 111.327 11.0505C112.074 10.845 112.924 10.817 113.625 11.2C114.158 11.4803 114.457 12.0595 114.541 12.6388C114.644 13.2274 114.55 13.816 114.438 14.3952C115.718 14.1897 116.998 13.9841 118.25 13.6665C119.109 13.4703 120.034 13.3115 120.903 13.5917C121.52 13.7692 121.968 14.3298 122.118 14.9464C122.276 15.6004 122.323 16.3104 122.071 16.9457C121.735 17.7959 121.651 18.7022 121.464 19.5897C121.053 21.9347 120.529 24.3358 120.922 26.7181C121.062 27.7832 121.286 28.8483 121.697 29.8386C121.959 30.3618 122.286 30.941 122.874 31.1279C123.463 31.2867 124.061 30.9877 124.509 30.6234C125.257 29.9507 125.743 29.0164 125.976 28.0448C125.472 25.541 125.35 22.9531 125.752 20.4305C126.042 18.534 126.583 16.6655 127.499 14.9744C128.218 13.6945 129.218 12.5173 130.563 11.882C132.049 11.144 133.899 11.144 135.347 11.9661C136.244 12.4332 136.935 13.218 137.449 14.0775C137.524 13.5637 137.393 12.9938 137.673 12.5173C138.084 12.0128 138.832 12.0409 139.42 12.1249C140.28 12.2744 141.233 12.4893 141.831 13.1807C142.223 13.6104 142.027 14.227 142.036 14.7409C141.961 17.525 141.849 20.3091 141.859 23.1025C141.877 25.2327 141.793 27.4002 142.363 29.4742C142.531 30.0067 142.746 30.5673 143.204 30.913C143.718 31.2867 144.456 31.212 144.951 30.8289C145.624 30.3151 146.082 29.577 146.474 28.8389C146.782 28.1756 147.165 27.531 147.333 26.8116C147.343 22.1216 147.371 17.4409 147.38 12.7509C147.352 12.3492 147.492 11.8914 147.885 11.7232C148.174 11.5457 148.511 11.6765 148.819 11.7139C149.641 11.8633 150.519 11.8914 151.285 12.2838C151.575 12.4239 151.874 12.6762 151.846 13.0312C151.837 15.3481 151.846 17.6651 151.846 19.9821C151.846 20.253 151.846 20.5146 151.874 20.7856C152.556 18.6741 153.275 16.572 154.088 14.498C154.406 13.7319 154.742 12.9658 155.163 12.2557C155.48 11.6765 156.209 11.5831 156.807 11.6204C158.068 11.7139 159.404 12.2557 160.067 13.3862C160.31 13.7973 160.413 14.2737 160.413 14.7502C160.385 17.1606 160.525 19.571 160.693 21.9721C160.749 22.7195 160.759 23.4669 160.88 24.2143C160.964 24.1583 161.011 24.0835 161.02 23.9901C161.273 22.215 161.712 20.4679 162.216 18.7395C162.786 16.8336 163.403 14.9371 164.197 13.1153C164.402 12.6575 164.599 12.1436 165.066 11.8914C165.738 11.527 166.551 11.6391 167.252 11.8447C168.046 12.1156 168.868 12.3959 169.522 12.9658C169.989 13.3582 170.372 13.9374 170.391 14.5634C170.195 18.2911 170.017 22.0375 170.288 25.7652C170.363 26.7929 170.494 27.8206 170.746 28.8202C170.896 29.3808 171.092 29.9507 171.447 30.4272C171.783 30.8756 172.418 31.1185 172.96 30.8943C173.437 30.7074 173.754 30.2683 173.988 29.8386C174.549 28.8015 174.707 27.6244 175.025 26.5033C175.1 26.1669 175.259 25.7932 175.614 25.6718C175.875 25.5129 176.137 25.7091 176.342 25.8586C176.604 26.1015 176.529 26.4939 176.529 26.8116C176.454 28.6147 176.174 30.4926 175.118 32.0061C174.278 33.258 172.764 34.0615 171.251 33.8839C169.859 33.8185 168.569 33.0151 167.822 31.8566C166.869 30.4178 166.495 28.6988 166.243 27.0171C165.804 23.6724 165.916 20.2811 166 16.9084C165.86 17.0018 165.776 17.1326 165.71 17.2821C164.767 19.1599 164.132 21.178 163.627 23.2147C162.964 25.8586 162.562 28.568 162.469 31.2867C162.478 31.6417 162.207 31.9033 161.88 31.978C161.133 32.277 160.245 32.3424 159.507 31.9874C158.75 31.6324 158.208 30.9504 157.863 30.2029C157.498 29.4368 157.358 28.5867 157.237 27.7552C156.788 24.2891 156.639 20.8043 156.461 17.3194C156.489 17.0672 156.2 17.226 156.069 17.254C154.368 20.2063 153.509 23.5603 153.07 26.9143C152.799 28.8669 152.715 30.8382 152.687 32.8095C152.687 33.1646 152.491 33.5102 152.182 33.6784C151.603 34.0054 150.893 33.9961 150.248 33.94C149.482 33.8653 148.66 33.7905 148.006 33.3421C147.726 33.1646 147.548 32.8469 147.53 32.5199C147.483 31.8753 147.474 31.24 147.418 30.5953C147.062 31.1092 146.773 31.6697 146.352 32.1369C145.68 32.931 144.811 33.6037 143.783 33.8466C142.335 34.1736 140.709 33.6971 139.71 32.5947C138.888 31.7071 138.449 30.5393 138.234 29.3621C137.505 30.9504 136.328 32.3704 134.758 33.1739C134.001 33.585 133.151 33.8185 132.292 33.9026C131.348 34.0147 130.367 33.9026 129.517 33.4635C128.265 32.8282 127.331 31.6791 126.761 30.4178C126.098 31.9126 124.948 33.3421 123.314 33.7812C121.697 34.2296 119.95 33.5663 118.792 32.4172C117.316 30.969 116.54 28.9323 116.307 26.905C116.176 25.924 116.222 24.9337 116.288 23.9527C116.437 21.7479 116.671 19.543 117.25 17.4129C117.259 17.2914 117.259 17.1793 117.25 17.0578C116.073 17.0018 114.886 17.0392 113.709 17.0765C113.121 19.0852 112.261 20.9911 111.28 22.8316C109.608 25.9801 107.543 28.923 105.235 31.6417C105.264 34.2576 105.348 36.8829 105.217 39.4989C105.086 41.5729 104.778 43.675 103.909 45.5809C103.246 47.001 102.218 48.2903 100.816 49.0377C99.7701 49.617 98.5835 49.9253 97.397 50C95.9209 49.8972 94.3887 49.5235 93.2302 48.5519C92.4174 47.8886 91.8662 46.9263 91.6513 45.8986C91.5018 45.0017 91.4551 44.0674 91.7447 43.1892C92.2679 41.5543 93.3143 40.1435 94.4447 38.8729C95.5845 37.5743 96.9112 36.4532 98.1538 35.2667C99.1534 34.3324 100.162 33.3981 101.162 32.4732C101.181 31.7445 101.069 31.0251 101.041 30.2964C100.574 30.8943 100.162 31.5483 99.5832 32.0528C98.1351 33.4542 96.0517 34.1736 94.0524 33.9213C92.6696 33.6784 91.5298 32.7161 90.6983 31.623C90.3807 31.2213 90.1004 30.8009 89.8575 30.3524C89.1194 31.8099 88.0637 33.2954 86.4288 33.8092C84.8031 34.267 82.9626 33.6037 81.8976 32.3237C81.1969 31.4642 80.7484 30.3991 80.599 29.3061C79.9169 30.7728 78.8706 32.1088 77.4785 32.9497C76.5816 33.5102 75.5539 33.8279 74.4982 33.912C73.3584 34.0521 72.1719 33.7718 71.2283 33.1178C69.5279 31.922 68.6871 29.904 68.1919 27.9514C67.9303 28.8202 67.5006 29.6237 67.0521 30.4085C66.6037 31.1092 66.1272 31.8099 65.5199 32.3891C64.8099 33.0898 63.913 33.6504 62.9133 33.7812C61.7548 33.9307 60.5497 33.5756 59.6621 32.8189C58.9427 32.2023 58.4102 31.4081 58.0178 30.5486C57.2891 28.9884 57.0088 27.26 56.8686 25.5503C55.9718 27.531 54.9067 29.4929 53.3371 31.0344C52.1319 32.2677 50.6091 33.2019 48.9274 33.613C47.6007 33.9587 46.218 33.9213 44.8634 33.7999C43.6955 33.6784 42.509 33.4542 41.472 32.8749C40.9768 32.576 40.463 32.1742 40.3135 31.5857C40.2201 30.941 40.5844 30.3618 40.9394 29.8573C41.2851 29.3995 41.6775 28.9043 42.2381 28.6988C42.7613 28.5306 43.2097 28.951 43.6208 29.2126C44.2561 29.7638 44.9661 30.2683 45.7976 30.4552C46.6104 30.6701 47.5914 30.3991 48.0679 29.6798C48.507 29.0071 48.6284 28.1849 48.6752 27.4002C48.6658 25.9147 47.7129 24.6534 46.7132 23.6444C45.7696 22.7475 44.7886 21.888 43.817 21.0285C42.4343 23.3828 40.9581 25.6718 39.5567 28.0168C38.7159 29.5209 37.7162 30.941 36.4363 32.0995C35.5114 32.9217 34.3996 33.6317 33.157 33.7999C32.3162 33.9213 31.466 33.5102 30.9615 32.8563C30.2888 32.0061 30.0086 30.9317 29.8404 29.876C29.5881 27.9887 29.6816 26.0828 29.7096 24.1863C29.7376 21.7759 29.8684 19.3655 29.9525 16.9551C29.9618 16.4412 30.0272 15.918 29.9712 15.4042C29.8124 15.4416 29.6162 15.4416 29.5134 15.5911C27.2058 18.1883 25.767 21.4209 24.6459 24.6814C23.7023 27.531 23.0109 30.4739 22.5718 33.4448C22.1981 33.7531 21.703 33.8372 21.2358 33.7531C20.6753 33.6691 20.096 33.7531 19.5355 33.6317C19.0403 33.5009 18.6853 33.0618 18.4891 32.604C18.078 31.6604 18.0313 30.614 18.0406 29.605C18.0874 23.8967 18.1247 18.1977 18.1621 12.4893C18.1528 12.2184 18.2275 11.8633 18.5171 11.7699C19.1057 11.5831 19.7317 11.7419 20.3202 11.8727C20.9836 12.0502 21.6936 12.209 22.1888 12.7135C22.441 12.9471 22.3383 13.3301 22.3569 13.6384C22.3476 16.8056 22.3009 19.9728 22.3102 23.1306C23.3473 20.3278 24.3749 17.4783 25.9912 14.9464C26.3556 14.4232 26.7013 13.8907 27.1404 13.4329C27.9065 12.536 28.9715 11.7512 30.1954 11.7232C31.111 11.6858 31.9612 12.1156 32.7646 12.508C33.5121 12.891 34.2314 13.4329 34.5397 14.2364C34.7359 14.7128 34.6612 15.236 34.6519 15.7312C34.5678 18.4499 34.493 21.178 34.3996 23.8967C34.3809 25.0084 34.2968 26.1202 34.3622 27.232C34.3903 27.7645 34.4557 28.297 34.6332 28.7922C34.7453 29.0725 34.9134 29.3901 35.2404 29.4462C35.5487 29.4836 35.8103 29.2593 36.0346 29.0725C36.5391 28.6147 36.9408 28.0635 37.3425 27.5216C38.4823 25.9334 39.4633 24.2423 40.4349 22.5513C41.0048 21.5049 41.6028 20.4679 42.1353 19.4029C41.9485 19.0945 41.6588 18.8423 41.5 18.5153C40.8741 17.497 40.6965 16.217 41.0235 15.0679C41.3225 13.9468 42.0325 12.9471 42.9481 12.2464C43.6021 11.7886 44.3589 11.4803 45.1436 11.3308C45.891 11.1346 46.7225 11.2467 47.3859 11.6485C47.8437 11.9287 48.0772 12.4613 48.0959 12.9845C48.1426 13.9654 47.7783 14.909 47.3111 15.7592C46.8627 16.6001 46.2834 17.3662 45.6762 18.0949C47.6288 19.515 49.6561 20.879 51.3378 22.6167C52.216 23.551 52.9541 24.6908 53.1036 25.9894C53.2063 26.6621 53.1129 27.3348 53.0101 27.9981C54.8506 26.4005 56.2707 24.205 56.6444 21.7759C56.6911 18.0575 56.6818 14.3391 56.7192 10.6208C55.0188 10.5927 53.3184 10.5834 51.6181 10.5367C51.2817 10.3405 51.2164 9.91073 51.1977 9.54637C51.1977 8.69619 51.4406 7.79929 52.0198 7.15465C52.1132 7.01451 52.2814 7.06123 52.4216 7.05188C53.9351 7.07057 55.4579 7.08925 56.9714 7.10794C57.0462 5.38889 57.0835 3.66051 57.1489 1.94146C57.2517 1.3809 57.233 0.820342 57.5693 0.427952ZM76.1238 14.7782C75.1242 14.9744 74.3861 15.7779 73.919 16.6374C73.3024 17.8053 73.0034 19.1132 72.8165 20.4119C72.583 22.1029 72.5176 23.8126 72.6017 25.5223C72.6951 26.8303 72.8726 28.1756 73.4799 29.3621C73.8162 30.0068 74.3394 30.6047 75.0401 30.8569C75.4979 31.0344 76.0397 31.0158 76.4789 30.7822C77.3757 30.3151 77.9924 29.4555 78.4501 28.5773C79.2536 26.9517 79.59 25.1392 79.7675 23.3548C79.9076 21.4863 79.9637 19.5804 79.5152 17.7585C79.2816 16.8897 78.9079 16.0115 78.2353 15.3949C77.6841 14.8623 76.8806 14.6007 76.1238 14.7782ZM97.3036 14.8436C96.1077 15.1706 95.2762 16.2077 94.7437 17.2727C93.9683 18.9264 93.6506 20.7669 93.5105 22.5794C93.4264 24.616 93.3984 26.7088 94.0337 28.6708C94.3513 29.5957 94.8932 30.5486 95.8181 30.969C96.3974 31.2493 97.1074 31.1839 97.6493 30.8476C98.1071 30.5486 98.5088 30.1562 98.8264 29.7078C99.5645 28.6988 100.004 27.4936 100.312 26.2884C100.751 24.4946 100.901 22.6261 100.891 20.7856C100.872 19.5243 100.76 18.2444 100.368 17.0392C100.106 16.3011 99.714 15.563 99.06 15.1052C98.5462 14.7502 97.8828 14.6661 97.3036 14.8436ZM134.048 15.0025C133.002 15.1706 132.208 15.9834 131.731 16.8803C130.881 18.4873 130.629 20.3184 130.47 22.1029C130.339 24.1115 130.283 26.1576 130.76 28.1289C130.993 29.0912 131.395 30.0721 132.18 30.7168C132.694 31.1279 133.404 31.3614 134.039 31.1185C134.87 30.8382 135.459 30.1189 135.926 29.4088C136.991 27.6431 137.393 25.5597 137.589 23.5323C137.739 21.6825 137.785 19.7952 137.327 17.9828C137.094 17.0952 136.711 16.1983 136.001 15.5817C135.478 15.1146 134.74 14.8717 134.048 15.0025ZM99.8168 37.294C97.9763 39.1158 96.2666 41.1525 95.2389 43.5629C94.8745 44.4224 94.669 45.3941 94.9399 46.3003C95.1174 47.0104 95.678 47.6176 96.3974 47.8045C97.2849 48.038 98.3033 48.038 99.1067 47.5335C99.8261 47.0571 100.303 46.2816 100.592 45.4782C101.134 43.9273 101.246 42.2736 101.321 40.648C101.349 39.0598 101.386 37.4715 101.396 35.8739C100.816 36.285 100.34 36.8175 99.8168 37.294Z" fill="white"/>
</svg>
