<svg width="21" height="21" viewBox="0 0 21 21" xmlns="http://www.w3.org/2000/svg">
<path d="M10.424 0C7.593 0 7.23801 0.0119996 6.12619 0.0627291C5.01668 0.113376 4.25892 0.289564 3.59584 0.547266C2.91037 0.813658 2.32905 1.17009 1.74955 1.74959C1.17005 2.32909 0.813617 2.91041 0.547225 3.59588C0.289522 4.25892 0.113334 5.01668 0.0626878 6.12619C0.0119583 7.23801 0 7.593 0 10.424C0 13.255 0.0119583 13.6099 0.0626878 14.7218C0.113334 15.8313 0.289522 16.589 0.547225 17.2521C0.813617 17.9376 1.17005 18.5189 1.74955 19.0984C2.32905 19.6779 2.91037 20.0343 3.59584 20.3007C4.25892 20.5584 5.01668 20.7346 6.12619 20.7852C7.23801 20.836 7.593 20.848 10.424 20.848C13.255 20.848 13.6099 20.836 14.7218 20.7852C15.8313 20.7346 16.589 20.5584 17.2521 20.3007C17.9376 20.0343 18.5189 19.6779 19.0984 19.0984C19.6779 18.5189 20.0343 17.9376 20.3007 17.2521C20.5584 16.589 20.7346 15.8313 20.7852 14.7218C20.836 13.6099 20.848 13.255 20.848 10.424C20.848 7.593 20.836 7.23801 20.7852 6.12619C20.7346 5.01668 20.5584 4.25892 20.3007 3.59588C20.0343 2.91041 19.6779 2.32909 19.0984 1.74959C18.5189 1.17009 17.9376 0.813658 17.2521 0.547266C16.589 0.289564 15.8313 0.113376 14.7218 0.0627291C13.6099 0.0119996 13.255 0 10.424 0ZM10.424 1.87823C13.2073 1.87823 13.537 1.88883 14.6362 1.93898C15.6525 1.98536 16.2044 2.15518 16.5717 2.29789C17.0583 2.48699 17.4056 2.71291 17.7703 3.07766C18.1351 3.44241 18.361 3.78969 18.5501 4.27622C18.6928 4.64353 18.8626 5.19547 18.909 6.2118C18.9591 7.31096 18.9698 7.64067 18.9698 10.424C18.9698 13.2073 18.9591 13.537 18.909 14.6362C18.8626 15.6525 18.6928 16.2044 18.5501 16.5717C18.361 17.0583 18.1351 17.4056 17.7703 17.7703C17.4056 18.1351 17.0583 18.361 16.5717 18.5501C16.2044 18.6928 15.6525 18.8626 14.6362 18.909C13.5372 18.9591 13.2075 18.9698 10.424 18.9698C7.64046 18.9698 7.31084 18.9591 6.2118 18.909C5.19547 18.8626 4.64353 18.6928 4.27622 18.5501C3.78965 18.361 3.44241 18.1351 3.07762 17.7703C2.71287 17.4056 2.48695 17.0583 2.29789 16.5717C2.15513 16.2044 1.98532 15.6525 1.93893 14.6362C1.88878 13.537 1.87819 13.2073 1.87819 10.424C1.87819 7.64067 1.88878 7.31096 1.93893 6.2118C1.98532 5.19547 2.15513 4.64353 2.29789 4.27622C2.48695 3.78969 2.71287 3.44241 3.07762 3.07766C3.44241 2.71291 3.78965 2.48699 4.27622 2.29789C4.64353 2.15518 5.19547 1.98536 6.2118 1.93898C7.31096 1.88883 7.64067 1.87823 10.424 1.87823Z" />
<path d="M10.4244 13.8976C8.50537 13.8976 6.94972 12.3419 6.94972 10.4229C6.94972 8.50391 8.50537 6.94826 10.4244 6.94826C12.3434 6.94826 13.899 8.50391 13.899 10.4229C13.899 12.3419 12.3434 13.8976 10.4244 13.8976ZM10.4244 5.07007C7.46807 5.07007 5.07153 7.4666 5.07153 10.4229C5.07153 13.3792 7.46807 15.7758 10.4244 15.7758C13.3807 15.7758 15.7772 13.3792 15.7772 10.4229C15.7772 7.4666 13.3807 5.07007 10.4244 5.07007Z" />
<path d="M17.2391 4.8595C17.2391 5.55035 16.679 6.11036 15.9882 6.11036C15.2974 6.11036 14.7373 5.55035 14.7373 4.8595C14.7373 4.16865 15.2974 3.60864 15.9882 3.60864C16.679 3.60864 17.2391 4.16865 17.2391 4.8595Z" />
</svg>
