<svg width="28" height="28" viewBox="0 0 28 28" fill="none" xmlns="http://www.w3.org/2000/svg">
<path d="M23.0652 10.5532L16.2392 17.7045C18.1484 19.4896 20.0321 21.2512 21.942 23.0378C22.7993 22.1441 23.637 21.2702 24.4936 20.3766C25.6686 21.4743 26.8217 22.5515 27.9769 23.6301C27.8465 24.8711 27.3986 25.93 26.488 26.7564C25.3903 27.7531 24.2416 28.0595 21.8262 27.9908C15.9442 22.5054 10.0702 16.9564 4.16424 11.4476C4.99755 10.5781 5.8192 9.72028 6.66417 8.83835C7.75752 9.85557 8.83849 10.8626 9.95516 11.9017C10.2043 11.637 10.4447 11.3876 10.6792 11.1324C12.6874 8.94731 14.695 6.76076 16.7025 4.57494C17.058 4.18809 17.0456 4.03013 16.6486 3.6718C15.6193 2.74306 14.5857 1.81944 13.5732 0.873158C13.4406 0.74957 13.3467 0.494351 13.3685 0.316648C13.4006 0.0570405 13.6453 0 13.9024 0C18.4063 0.00438773 22.9101 0.00292515 27.4139 0.00438773C27.8524 0.00438773 27.9988 0.15357 27.9988 0.597462C28.0002 4.74167 28.0031 8.88515 27.9879 13.0286C27.9871 13.21 27.8553 13.4681 27.7081 13.5478C27.5865 13.6137 27.3031 13.523 27.1742 13.4082C26.1122 12.4619 25.0698 11.4937 24.0216 10.5313C23.5824 10.1283 23.4724 10.1261 23.0652 10.5532ZM0.00279327 23.1489C0.0122627 25.8445 2.08024 27.9827 4.76737 27.9908C6.68383 27.9966 8.60758 27.9922 10.524 27.9908C10.6246 27.9908 10.7324 28.0018 10.8868 27.9908C7.24763 24.5961 3.65362 21.1686 0.00206485 17.763C0.00206485 19.6183 -0.00303407 21.3836 0.00279327 23.1489ZM0.00206485 4.95813C0.400509 4.55154 0.81425 4.16103 1.17045 3.79831C1.24766 3.7186 1.32487 3.63816 1.40135 3.55845C2.09918 2.82277 2.78316 2.07247 3.49992 1.35654C3.95009 0.905335 4.45051 0.504589 4.92835 0.0819043L5.00192 0.00438773L4.90941 0.00365644C4.01273 0.00365644 3.11532 -0.00219386 2.21864 0.0058503C0.987613 0.0160883 0.0122627 0.966031 0.00206485 2.2041C0.00206485 3.00706 -0.0001204 3.80709 0.00206485 4.61004C0.00206485 4.69706 0.00206485 4.81407 0.00206485 4.95813Z" fill="#FE0202"/>
</svg>
