<svg width="170" height="30" viewBox="0 0 170 30" fill="none" xmlns="http://www.w3.org/2000/svg">
<path d="M24.9142 10.88C26.0004 11.8735 27.0827 12.8748 28.1831 13.8516C28.3169 13.97 28.6103 14.0639 28.7365 13.9957C28.8896 13.9134 29.026 13.647 29.0273 13.4591C29.0428 9.17862 29.0402 4.89689 29.0389 0.616455C29.0389 0.158296 28.887 0.00386089 28.4314 0.00386089C23.7598 0.00257393 19.0894 0.00386089 14.4177 0C14.1513 0 13.8978 0.0592003 13.8643 0.326889C13.8412 0.510924 13.939 0.774752 14.0767 0.902161C15.1268 1.88025 16.1989 2.83389 17.2658 3.79268C17.6776 4.16204 17.6905 4.32548 17.3211 4.72573C15.2388 6.98435 13.1578 9.24297 11.0742 11.5003C10.8309 11.7641 10.5813 12.0215 10.3226 12.2944C9.16433 11.221 8.04338 10.1812 6.90957 9.12971C6.03315 10.0409 5.18118 10.9263 4.31763 11.8246C10.4436 17.5156 16.536 23.2477 22.6363 28.9142C25.142 28.9863 26.3324 28.6697 27.4714 27.6388C28.416 26.7843 28.8806 25.6903 29.0157 24.4085C27.8176 23.294 26.622 22.1808 25.4032 21.047C24.5139 21.9697 23.6452 22.8732 22.7559 23.7959C20.7753 21.9504 18.8217 20.1307 16.8411 18.2865L23.9206 10.8993C24.3441 10.4617 24.4586 10.4643 24.9142 10.88Z" fill="#FE0202"/>
<path d="M0.00380056 23.9144C0.0140963 26.6994 2.15818 28.9078 4.94574 28.9168C6.93281 28.9232 8.92889 28.9181 10.916 28.9168C11.0202 28.9168 11.1322 28.9284 11.2918 28.9168C7.51709 25.4098 3.79005 21.8694 0.0025136 18.3508C0.0025136 20.2671 -0.00392121 22.0907 0.00380056 23.9144Z" fill="#FE0202"/>
<path d="M0.00334123 5.12445C0.416456 4.7049 0.845015 4.30079 1.21566 3.92629C1.29545 3.84392 1.37524 3.76156 1.45504 3.6779C2.17831 2.91731 2.88742 2.14256 3.63129 1.40255C4.09846 0.936673 4.6171 0.523558 5.11258 0.0859908L5.1898 0.00619909L5.09328 0.00491213C4.1628 0.00491213 3.23233 -0.00152269 2.30314 0.00748605C1.02519 0.0177818 0.0136369 0.999734 0.00334123 2.27898C0.00334123 3.10778 0.000767307 3.9353 0.00334123 4.7641C0.00334123 4.85419 0.00334123 4.97516 0.00334123 5.12445Z" fill="#FE0202"/>
<path d="M35.0491 9.37055C35.0491 4.11975 39.1674 0.00146484 44.7528 0.00146484C47.9187 0.00146484 50.158 0.979557 52.0627 2.62687L49.1284 6.15315C47.8415 5.0721 46.5545 4.45436 44.7785 4.45436C42.1788 4.45436 40.1712 6.64219 40.1712 9.44777C40.1712 12.3563 42.2046 14.4412 45.0616 14.4412C46.2714 14.4412 47.198 14.1838 47.9444 13.6947V11.5069H44.3924V7.85194H52.6805V15.9598C50.7758 17.5299 48.1246 18.7396 44.8557 18.7396C39.2446 18.7396 35.0491 14.8788 35.0491 9.37055Z" fill="white"/>
<path d="M55.4604 0.361572H63.9801C66.7342 0.361572 68.6389 1.08227 69.8487 2.29202C70.904 3.34733 71.4445 4.73725 71.4445 6.56473C71.4445 9.31883 69.9774 11.1463 67.7381 12.0987L72.0365 18.3791H66.2709L62.6417 12.9223H60.4539V18.3791H55.4604V0.361572ZM63.7485 9.00996C65.4473 9.00996 66.4254 8.18631 66.4254 6.82213C66.4254 5.40647 65.3958 4.68577 63.7228 4.68577H60.4539V9.00996H63.7485Z" fill="white"/>
<path d="M81.2252 0.23291H86.0385L93.7088 18.3791H88.355L87.0423 15.1617H80.0927L78.8057 18.3791H73.5549L81.2252 0.23291ZM85.6009 11.275L83.5932 6.15294L81.5598 11.275H85.6009Z" fill="white"/>
<path d="M95.4592 0.361572H103.181C107.737 0.361572 110.671 2.70384 110.671 6.74491C110.671 10.9919 107.402 13.2312 102.924 13.2312H100.453V18.3791H95.4592V0.361572ZM102.821 9.31883C104.597 9.31883 105.678 8.39222 105.678 6.92508C105.678 5.38073 104.597 4.55707 102.795 4.55707H100.453V9.31883H102.821Z" fill="white"/>
<path d="M112.781 0.361572H120.503C125.059 0.361572 127.993 2.70384 127.993 6.74491C127.993 10.9919 124.725 13.2312 120.246 13.2312H117.775V18.3791H112.781V0.361572ZM120.143 9.31883C121.919 9.31883 123 8.39222 123 6.92508C123 5.38073 121.919 4.55707 120.117 4.55707H117.775V9.31883H120.143Z" fill="white"/>
<path d="M130.104 0.361572H144.518V4.73725H135.098V7.80022H143.617V11.9442H135.098V18.3791H130.104V0.361572Z" fill="white"/>
<path d="M146.886 0.361572H151.905V18.3791H146.886V0.361572Z" fill="white"/>
<path d="M159.602 4.73725H154.196V0.361572H170V4.73725H164.595V18.3791H159.602V4.73725Z" fill="white"/>
<path d="M34.8354 28.0362L35.2254 27.8149C35.4107 28.3103 35.8895 28.6643 36.5355 28.6643C37.1816 28.6643 37.7208 28.3103 37.7208 27.6823C37.7208 26.2757 35.0748 26.6913 35.0748 24.9835C35.0748 24.1251 35.7556 23.6387 36.5175 23.6387C37.1108 23.6387 37.6063 23.9218 37.8804 24.2847L37.5445 24.5588C37.3412 24.2667 36.9692 24.0634 36.5265 24.0634C35.995 24.0634 35.4995 24.3555 35.4995 24.9565C35.4995 26.3284 38.1455 25.9037 38.1455 27.6643C38.1455 28.5935 37.3849 29.089 36.5265 29.089C35.7376 29.089 35.0916 28.6553 34.8354 28.0362Z" fill="white"/>
<path d="M46.3732 25.1587C46.3732 25.9644 45.7271 26.6014 44.9215 26.6014H43.5329V29.017H43.1082V23.707H44.9228C45.7271 23.707 46.3732 24.3531 46.3732 25.1587ZM45.9485 25.1587C45.9485 24.5564 45.48 24.124 44.8867 24.124H43.5329V26.1947H44.8867C45.48 26.1934 45.9485 25.7868 45.9485 25.1587Z" fill="white"/>
<path d="M51.0176 26.362C51.0176 24.8576 52.2389 23.6362 53.7434 23.6362C55.2478 23.6362 56.4692 24.8576 56.4692 26.362C56.4692 27.8665 55.2478 29.0878 53.7434 29.0878C52.2389 29.0878 51.0176 27.8665 51.0176 26.362ZM56.0432 26.362C56.0432 25.0879 55.0162 24.0609 53.7421 24.0609C52.468 24.0609 51.441 25.0879 51.441 26.362C51.441 27.6361 52.468 28.6631 53.7421 28.6631C55.0162 28.6631 56.0432 27.6361 56.0432 26.362Z" fill="white"/>
<path d="M65.2014 29.017H64.7149L63.1834 26.5834H62.0329V29.017H61.6082V23.707H63.4228C64.2284 23.707 64.8745 24.3531 64.8745 25.1587C64.8745 25.8936 64.3262 26.4856 63.6184 26.5654L65.2014 29.017ZM63.3957 26.1767C63.989 26.1767 64.4485 25.743 64.4485 25.1587C64.4485 24.5654 63.9878 24.1317 63.3957 24.1317H62.0329V26.1754H63.3957V26.1767Z" fill="white"/>
<path d="M72.828 24.1317H71.3325V29.0158H70.9078V24.1317H69.4124V23.707H72.828V24.1317Z" fill="white"/>
<path d="M88.8943 23.707V29.0158H88.4786V24.5564L86.4967 29.0158H86.1518L84.1879 24.5732V29.0158H83.7632V23.707H84.2059L86.3294 28.5113L88.4619 23.707H88.8943Z" fill="white"/>
<path d="M96.9969 27.7341H94.5195L94.0678 29.0172H93.5994L95.5195 23.7085H95.988L97.9081 29.0172H97.4474L96.9969 27.7341ZM96.8554 27.3261L95.7576 24.2117L94.6598 27.3261H96.8554Z" fill="white"/>
<path d="M106.836 23.707V29.0158H106.464L103.03 24.4586V29.0158H102.606V23.707H102.978L106.411 28.2642V23.707H106.836Z" fill="white"/>
<path d="M114.931 27.7341H112.453L112.002 29.0172H111.533L113.453 23.7085H113.922L115.842 29.0172H115.381L114.931 27.7341ZM114.789 27.3261L113.691 24.2117L112.594 27.3261H114.789Z" fill="white"/>
<path d="M125.664 26.2385V26.362C125.664 27.8665 124.443 29.0878 122.938 29.0878C121.425 29.0878 120.212 27.8665 120.212 26.362C120.212 24.8576 121.425 23.6362 122.938 23.6362C123.947 23.6362 124.831 24.1845 125.301 25.0081L124.929 25.2115C124.539 24.5217 123.797 24.0609 122.938 24.0609C121.664 24.0609 120.637 25.0879 120.637 26.362C120.637 27.6361 121.664 28.6631 122.938 28.6631C124.114 28.6631 125.08 27.7867 125.221 26.6452H122.929V26.2385H125.664Z" fill="white"/>
<path d="M131.282 24.1227V26.1574H133.387V26.5641H131.282V28.5988H133.689V29.0145H130.857V23.707H133.689V24.1227H131.282Z" fill="white"/>
<path d="M144.032 23.707V29.0158H143.616V24.5564L141.634 29.0158H141.289L139.325 24.5732V29.0158H138.9V23.707H139.343L141.467 28.5113L143.599 23.707H144.032Z" fill="white"/>
<path d="M149.845 24.1227V26.1574H151.95V26.5641H149.845V28.5988H152.251V29.0145H149.42V23.707H152.251V24.1227H149.845Z" fill="white"/>
<path d="M161.693 23.707V29.0158H161.321L157.887 24.4586V29.0158H157.462V23.707H157.834L161.268 28.2642V23.707H161.693Z" fill="white"/>
<path d="M169.886 24.1317H168.39V29.0158H167.965V24.1317H166.47V23.707H169.886V24.1317Z" fill="white"/>
</svg>
