<svg width="144" height="144" viewBox="0 0 144 144" fill="none" xmlns="http://www.w3.org/2000/svg">
<path d="M125.728 83.1047L125.483 84.9122L120.343 84.2149C119.892 83.489 119.58 82.6734 119.409 81.7682C119.238 80.8629 119.216 79.9396 119.344 78.9983C119.524 77.6678 119.976 76.5083 120.698 75.5197C121.433 74.5328 122.35 73.8009 123.45 73.3237C124.561 72.8609 125.757 72.7163 127.037 72.89C128.317 73.0637 129.431 73.5216 130.379 74.2637C131.324 75.0183 132.014 75.9683 132.446 77.1135C132.877 78.2713 133.002 79.5217 132.819 80.8647C132.676 81.9191 132.371 82.8491 131.904 83.655C131.448 84.4751 130.846 85.1412 130.099 85.6535L129.09 84.3278C130.25 83.4114 130.931 82.2064 131.133 80.7127C131.27 79.7086 131.173 78.775 130.842 77.9121C130.523 77.0635 130.005 76.3604 129.288 75.803C128.583 75.2473 127.748 74.9039 126.781 74.7727C125.828 74.6433 124.931 74.7518 124.091 75.0981C123.264 75.4461 122.578 75.9856 122.031 76.7168C121.483 77.4605 121.141 78.3281 121.007 79.3197C120.847 80.4996 120.99 81.5671 121.435 82.5224L125.728 83.1047Z" fill="#FE0202"/>
<path d="M114.715 94.2663L119.595 93.2152C119.71 92.8787 119.807 92.6171 119.886 92.4304L121.166 89.4031L117.439 87.8266L118.179 86.0767L130.428 91.2577L128.408 96.035C127.737 97.6216 126.829 98.7095 125.686 99.2987C124.543 99.8879 123.307 99.9013 121.977 99.3387C121.032 98.9391 120.325 98.3653 119.858 97.6174C119.39 96.8695 119.187 95.9997 119.249 95.0082L113.908 96.1737L114.715 94.2663ZM121.395 93.0071C120.926 94.1154 120.808 95.0623 121.039 95.8479C121.271 96.6335 121.83 97.2138 122.717 97.5888C123.603 97.9638 124.403 97.9584 125.117 97.5725C125.842 97.1915 126.439 96.4468 126.907 95.3385L128.166 92.3637L122.653 90.0322L121.395 93.0071Z" fill="#FE0202"/>
<path d="M110.621 105.984L114.924 100.376L113.176 97.1916L114.367 95.6389L121.253 108.513L120.108 110.006L105.878 106.704L107.093 105.121L110.621 105.984ZM112.232 106.382L119.149 108.072L115.725 101.829L112.232 106.382Z" fill="#FE0202"/>
<path d="M109.575 120.438C108.22 121.502 106.9 122.014 105.614 121.977C104.328 121.939 103.24 121.352 102.348 120.216C101.457 119.08 101.146 117.883 101.415 116.626C101.684 115.368 102.496 114.207 103.851 113.144L106.437 111.115L103.95 107.946L105.445 106.773L113.656 117.236L109.575 120.438ZM104.916 114.409C103.97 115.152 103.404 115.918 103.218 116.708C103.041 117.507 103.249 118.286 103.843 119.043C104.437 119.8 105.14 120.183 105.951 120.19C106.77 120.208 107.653 119.845 108.599 119.102L111.14 117.108L107.457 112.415L104.916 114.409Z" fill="#FE0202"/>
<path d="M96.1607 128.354C94.5817 129.043 93.1749 129.208 91.9401 128.848C90.7053 128.488 89.7992 127.647 89.2218 126.323C88.6445 125 88.644 123.763 89.2204 122.613C89.7968 121.464 90.8744 120.545 92.4534 119.856L95.4662 118.541L93.8557 114.849L95.5972 114.09L100.915 126.28L96.1607 128.354ZM93.1666 121.348C92.0636 121.829 91.3232 122.429 90.9453 123.146C90.5724 123.875 90.5784 124.681 90.9634 125.564C91.3483 126.446 91.9323 126.993 92.7154 127.204C93.5035 127.427 94.4491 127.298 95.552 126.816L98.5126 125.525L96.1272 120.057L93.1666 121.348Z" fill="#FE0202"/>
<path d="M84.188 130.456L83.4417 125.88L76.8597 126.954L76.5967 125.341L83.1787 124.268L82.3131 118.961L84.1883 118.655L86.3294 131.781L77.0658 133.292L76.7997 131.661L84.188 130.456Z" fill="#FE0202"/>
<path d="M72.1214 133.305L70.2215 133.283L70.3755 119.984L72.2754 120.006L72.1214 133.305Z" fill="#FE0202"/>
<path d="M62.765 130.951L67.2538 131.754L66.9627 133.381L56.1336 131.444L56.4247 129.817L60.9134 130.62L62.9642 119.155L64.8158 119.486L62.765 130.951Z" fill="#FE0202"/>
<path d="M37.8162 114.911L36.3142 113.876L39.2571 109.605C40.1086 109.53 40.9768 109.621 41.8618 109.877C42.7468 110.133 43.5804 110.53 44.3627 111.069C45.4683 111.831 46.2992 112.757 46.8552 113.848C47.404 114.949 47.6429 116.098 47.5719 117.295C47.4833 118.495 47.0724 119.628 46.3394 120.692C45.6064 121.755 44.6949 122.543 43.6049 123.053C42.5045 123.556 41.3457 123.742 40.1285 123.611C38.9009 123.473 37.729 123.019 36.613 122.25C35.7368 121.647 35.0447 120.954 34.5366 120.174C34.011 119.396 33.6882 118.558 33.5685 117.661L35.2069 117.359C35.5009 118.808 36.2686 119.959 37.5098 120.815C38.3443 121.39 39.221 121.724 40.1401 121.819C41.0416 121.917 41.9029 121.773 42.7239 121.385C43.5378 121.007 44.2214 120.417 44.7748 119.614C45.321 118.821 45.6291 117.972 45.6992 117.066C45.7621 116.171 45.5907 115.315 45.1851 114.497C44.7691 113.672 44.1491 112.976 43.3251 112.408C42.3446 111.732 41.3276 111.378 40.274 111.344L37.8162 114.911Z" fill="#FE0202"/>
<path d="M32.8414 100.052L31.5915 104.885C31.8407 105.139 32.031 105.342 32.1624 105.497L34.2936 107.999L37.3747 105.375L38.6066 106.822L28.4809 115.445L25.1178 111.496C24.0009 110.185 23.4356 108.886 23.4218 107.6C23.4081 106.314 23.9509 105.203 25.0502 104.266C25.8314 103.601 26.661 103.227 27.5392 103.145C28.4174 103.063 29.2857 103.271 30.1442 103.772L31.4986 98.4754L32.8414 100.052ZM30.9698 106.587C30.1896 105.671 29.3965 105.14 28.5905 104.995C27.7845 104.849 27.015 105.089 26.2821 105.713C25.5492 106.337 25.1952 107.054 25.2201 107.865C25.2353 108.684 25.633 109.552 26.4132 110.468L28.5074 112.927L33.064 109.046L30.9698 106.587Z" fill="#FE0202"/>
<path d="M24.2125 91.0864L27.2776 97.4552L30.9082 97.3315L31.7569 99.0949L17.1606 99.4355L16.3449 97.7406L25.7089 86.5285L26.5741 88.3262L24.2125 91.0864ZM23.1313 92.3448L18.5031 97.7562L25.6196 97.5151L23.1313 92.3448Z" fill="#FE0202"/>
<path d="M11.7954 83.5896C11.4662 81.8987 11.6112 80.4897 12.2306 79.3626C12.8499 78.2354 13.8683 77.5339 15.2856 77.2579C16.703 76.9819 17.9102 77.2502 18.9072 78.0626C19.9042 78.8751 20.5673 80.1267 20.8965 81.8176L21.5247 85.0441L25.4784 84.2743L25.8415 86.1392L12.7867 88.681L11.7954 83.5896ZM19.2848 82.1895C19.0549 81.0083 18.6307 80.1554 18.0123 79.6305C17.3815 79.1081 16.5937 78.9389 15.6487 79.1229C14.7038 79.3069 14.0432 79.7581 13.6669 80.4766C13.2782 81.1975 13.1988 82.1485 13.4288 83.3297L14.0461 86.5001L19.9021 85.36L19.2848 82.1895Z" fill="#FE0202"/>
<path d="M10.8292 67.9952C10.9355 66.2758 11.43 64.9484 12.3127 64.0131C13.1954 63.0778 14.3574 62.6547 15.7986 62.7437C17.2399 62.8328 18.3409 63.3958 19.1017 64.4327C19.8625 65.4696 20.1898 66.8478 20.0835 68.5672L19.8807 71.8479L23.9011 72.0964L23.7839 73.9928L10.5092 73.1723L10.8292 67.9952ZM18.4302 68.5221C18.5044 67.321 18.3082 66.3888 17.8416 65.7254C17.3623 65.0613 16.6422 64.6995 15.6814 64.6401C14.7206 64.5807 13.9678 64.8515 13.423 65.4523C12.8656 66.0524 12.5498 66.953 12.4755 68.154L12.2763 71.3779L18.2309 71.7459L18.4302 68.5221Z" fill="#FE0202"/>
<path d="M14.3873 56.2816L18.8022 57.696L20.8369 51.345L22.393 51.8436L20.3583 58.1946L25.4789 59.8351L24.8993 61.6445L12.2334 57.5867L15.0971 48.6482L16.6712 49.1525L14.3873 56.2816Z" fill="#FE0202"/>
<path d="M17.1507 44.5799L18.0314 42.8963L29.8166 49.0606L28.936 50.7442L17.1507 44.5799Z" fill="#FE0202"/>
<path d="M23.5401 37.1889L20.7908 40.8269L19.4721 39.8303L26.1047 31.0536L27.4235 32.0502L24.6742 35.6882L33.9663 42.7103L32.8322 44.211L23.5401 37.1889Z" fill="#FE0202"/>
<path d="M48.8876 22.253L50.488 21.3779L52.9766 25.9289C52.66 26.7228 52.1882 27.4572 51.5611 28.1321C50.934 28.8071 50.2037 29.3724 49.3702 29.8282C48.1922 30.4724 46.9911 30.7972 45.7668 30.8025C44.5366 30.7967 43.403 30.4926 42.3662 29.8902C41.3344 29.2706 40.5086 28.394 39.8887 27.2604C39.2688 26.1268 38.9765 24.9585 39.0116 23.7555C39.0578 22.5464 39.4135 21.428 40.0786 20.4002C40.7548 19.3663 41.6875 18.5243 42.8766 17.874C43.8102 17.3635 44.7399 17.0572 45.6658 16.9552C46.5967 16.8359 47.4899 16.9249 48.3455 17.2222L47.8771 18.821C46.4513 18.4313 45.0772 18.598 43.7546 19.3212C42.8655 19.8074 42.1717 20.4394 41.6732 21.2173C41.1796 21.9781 40.9212 22.8123 40.8979 23.7202C40.8685 24.6169 41.0878 25.4931 41.5557 26.3488C42.0176 27.1935 42.637 27.8509 43.4139 28.3212C44.1847 28.7803 45.0265 29.013 45.9393 29.0191C46.8633 29.0191 47.7643 28.7791 48.6423 28.299C49.6869 27.7277 50.4615 26.9793 50.966 26.0538L48.8876 22.253Z" fill="#FE0202"/>
<path d="M64.454 24.44L60.7152 21.1325C60.3761 21.2395 60.108 21.3165 59.9108 21.3635L56.7136 22.1264L57.6529 26.0629L55.8048 26.5039L52.7178 13.5671L57.7632 12.3632C59.4388 11.9634 60.8527 12.0492 62.0048 12.6207C63.1569 13.1923 63.9005 14.1803 64.2357 15.5849C64.4738 16.5829 64.4303 17.4918 64.105 18.3117C63.7798 19.1316 63.1995 19.8104 62.3642 20.3483L66.4684 23.9593L64.454 24.44ZM59.4806 19.8058C60.651 19.5265 61.484 19.0608 61.9795 18.4087C62.475 17.7565 62.611 16.9623 62.3876 16.0259C62.1641 15.0895 61.6856 14.4484 60.952 14.1026C60.2154 13.7444 59.2619 13.705 58.0914 13.9843L54.9496 14.734L56.3388 20.5555L59.4806 19.8058Z" fill="#FE0202"/>
<path d="M76.5472 20.7662L69.4811 20.6025L67.9415 23.8927L65.985 23.8474L72.3144 10.6904L74.1949 10.734L79.9273 24.1703L77.9328 24.1241L76.5472 20.7662ZM75.9176 19.2312L73.2003 12.6495L70.1811 19.0983L75.9176 19.2312Z" fill="#FE0202"/>
<path d="M89.1192 13.1238C90.7749 13.5995 91.9638 14.3695 92.686 15.4336C93.4082 16.4978 93.5699 17.7238 93.1712 19.1117C92.7724 20.4995 91.9845 21.4527 90.8076 21.9711C89.6306 22.4896 88.2143 22.511 86.5586 22.0352L83.3994 21.1275L82.2871 24.9988L80.461 24.4741L84.1339 11.6913L89.1192 13.1238ZM86.9603 20.4308C88.1169 20.7631 89.0695 20.7732 89.8181 20.4611C90.5702 20.1369 91.0792 19.5122 91.345 18.587C91.6109 17.6617 91.5094 16.8682 91.0406 16.2063C90.5754 15.5323 89.7645 15.0291 88.6079 14.6968L85.5035 13.8048L83.8559 19.5388L86.9603 20.4308Z" fill="#FE0202"/>
<path d="M103.197 19.2221C104.68 20.0982 105.638 21.142 106.07 22.3534C106.502 23.5648 106.351 24.7922 105.616 26.0354C104.882 27.2787 103.88 28.0035 102.61 28.2099C101.341 28.4163 99.9645 28.0813 98.4813 27.2052L95.6512 25.5333L93.6025 29.0014L91.9666 28.035L98.7313 16.5838L103.197 19.2221ZM99.273 25.7529C100.309 26.365 101.229 26.614 102.032 26.4998C102.841 26.3748 103.491 25.8979 103.98 25.0691C104.47 24.2402 104.571 23.4466 104.283 22.6882C104.002 21.919 103.343 21.2283 102.307 20.6163L99.5264 18.9734L96.492 24.1101L99.273 25.7529Z" fill="#FE0202"/>
<path d="M111.946 27.6214L108.691 30.9233L113.441 35.6046L112.294 36.7684L107.544 32.087L103.77 35.9167L102.417 34.583L111.753 25.1104L118.438 31.6989L117.277 32.8762L111.946 27.6214Z" fill="#FE0202"/>
<path d="M121.221 35.4395L122.327 36.9841L111.515 44.729L110.409 43.1844L121.221 35.4395Z" fill="#FE0202"/>
<path d="M124.969 44.5141L122.961 40.42L124.445 39.6921L129.289 49.5691L127.805 50.297L125.797 46.2029L115.34 51.3316L114.511 49.6428L124.969 44.5141Z" fill="#FE0202"/>
</svg>
