<svg width="30" height="30" viewBox="0 0 30 30" xmlns="http://www.w3.org/2000/svg">
<g clip-path="url(#clip0)">
<path d="M23.5713 11.7858V18.7501C23.5713 19.1965 23.4151 19.5759 23.1026 19.8884C22.7901 20.2009 22.4106 20.3572 21.9642 20.3572C21.5178 20.3572 21.1383 20.2009 20.8258 19.8884C20.5133 19.5759 20.357 19.1965 20.357 18.7501V12.8572H19.2856V28.1251C19.2856 28.6384 19.1015 29.0793 18.7332 29.4476C18.3649 29.8159 17.924 30.0001 17.4106 30.0001C16.8972 30.0001 16.4564 29.8159 16.0881 29.4476C15.7198 29.0793 15.5356 28.6384 15.5356 28.1251V20.3572H14.4642V28.1251C14.4642 28.6384 14.28 29.0793 13.9117 29.4476C13.5434 29.8159 13.1026 30.0001 12.5892 30.0001C12.0758 30.0001 11.6349 29.8159 11.2666 29.4476C10.8983 29.0793 10.7142 28.6384 10.7142 28.1251V12.8572H9.64275V18.7501C9.64275 19.1965 9.4865 19.5759 9.174 19.8884C8.8615 20.2009 8.48204 20.3572 8.03561 20.3572C7.58918 20.3572 7.20972 20.2009 6.89722 19.8884C6.58472 19.5759 6.42847 19.1965 6.42847 18.7501V11.7858C6.42847 10.8929 6.74097 10.134 7.36597 9.50898C7.99097 8.88398 8.7499 8.57148 9.64275 8.57148H20.357C21.2499 8.57148 22.0088 8.88398 22.6338 9.50898C23.2588 10.134 23.5713 10.8929 23.5713 11.7858ZM18.7499 4.28577C18.7499 5.32371 18.3844 6.2082 17.6534 6.93923C16.9223 7.67025 16.0378 8.03577 14.9999 8.03577C13.9619 8.03577 13.0775 7.67025 12.3464 6.93923C11.6154 6.2082 11.2499 5.32371 11.2499 4.28577C11.2499 3.24782 11.6154 2.36333 12.3464 1.63231C13.0775 0.90128 13.9619 0.535767 14.9999 0.535767C16.0378 0.535767 16.9223 0.90128 17.6534 1.63231C18.3844 2.36333 18.7499 3.24782 18.7499 4.28577Z" />
</g>
<defs>
<clipPath id="clip0">
<rect width="30" height="30" fill="white"/>
</clipPath>
</defs>
</svg>
