<svg width="61" height="30" viewBox="0 0 61 30" fill="none" xmlns="http://www.w3.org/2000/svg">
<g clip-path="url(#clip0)">
<path d="M32.5309 0.103725C32.3476 0.134277 32.1338 0.8675 31.7671 1.23411C31.4922 1.50907 31.1256 1.47852 30.9423 1.81458C30.8812 1.93678 30.8812 2.15064 30.8201 2.3645C30.6673 2.79221 30.1174 2.82277 30.1174 3.28103C30.1174 3.76985 30.5756 3.8615 30.9728 4.19756C31.2783 4.47252 31.3089 4.65582 31.6755 4.80858C32.0115 4.93078 32.4698 4.56417 32.8975 4.68638C33.2641 4.77803 33.6002 4.86968 33.6613 5.23629C33.7224 5.57235 33.6613 6.09172 33.2336 6.03062C33.0808 6.00007 32.4698 5.81676 31.706 5.87786C30.7895 5.96952 29.7202 6.27503 29.6286 7.31376C29.5675 7.89423 30.3007 8.56635 30.9728 8.44415C31.4616 8.3525 31.2172 7.80258 31.4922 7.52762C31.8282 7.19156 33.7529 8.74966 35.5555 8.74966C36.3192 8.74966 36.8692 8.56635 37.4191 7.98588C37.4802 7.95533 37.5413 7.83313 37.6024 7.83313C37.6635 7.83313 37.8162 7.92478 37.8468 7.95533C39.2827 9.11627 40.3825 11.4381 45.6984 11.4687C46.4316 11.4687 47.287 11.8353 47.9897 12.4769C48.6007 13.0574 48.9674 13.9433 49.334 14.8599C49.8533 16.2041 50.831 17.5483 52.2669 19.0148C52.3585 19.1064 53.55 20.023 53.6417 20.0841C53.6417 20.0841 53.7333 20.2979 53.7028 20.4201C53.6722 21.3061 53.55 23.8724 55.4442 23.9641C55.9024 23.9946 55.7802 23.6585 55.7802 23.4447C55.7802 22.9864 55.6886 22.5587 55.933 22.1004C56.269 21.4589 55.2609 21.1839 55.2914 19.8397C55.322 18.8315 54.4665 18.9842 54.0388 18.2205C53.7944 17.7622 53.5805 17.5483 53.5805 16.9984C53.6722 13.9128 52.939 11.8964 52.5418 11.4076C52.2363 11.041 51.9919 10.8882 52.2669 10.7049C53.8555 9.66619 54.2221 8.65801 54.2221 8.65801C55.0776 6.67219 55.8413 4.83913 56.8801 4.04481C57.0939 3.89205 57.6438 3.46434 57.9799 3.31158C58.9575 2.85332 59.4769 2.57836 59.7519 2.3034C60.2101 1.87568 60.5462 0.959154 60.1185 0.378685C59.5686 -0.293438 58.652 0.225929 58.2548 0.470337C55.322 2.21174 54.8942 5.26684 53.8861 7.0388C53.0612 8.44415 51.7475 9.48288 50.5866 9.57454C49.7006 9.63564 48.7535 9.45233 47.8064 9.05517C45.5151 8.04699 44.2319 6.73329 43.957 6.51944C43.346 6.03062 38.5495 1.32577 34.6389 1.14246C34.6389 1.14246 34.1501 0.164827 34.0279 0.164827C33.7529 0.134275 33.4474 0.745295 33.2336 0.806396C33.0503 0.806396 32.7142 0.0731754 32.5309 0.103725Z" fill="#0B0B0B"/>
<path d="M15.3918 28.2412C15.0252 28.2412 14.7197 27.9357 14.7197 27.569V15.4403H10.7175V28.8216C10.7175 29.4632 11.2369 30.0131 11.909 30.0131H18.9052C19.5468 30.0131 20.0967 29.4632 20.0967 28.8216V15.4403H16.0945V27.569C16.0639 27.9357 15.7584 28.2412 15.3918 28.2412Z" fill="#0B0B0B"/>
<path d="M28.8037 15.4403H22.7546C22.052 15.4403 21.4409 16.0208 21.4409 16.754V30.0132H25.4431V17.8539C25.4431 17.4872 25.7486 17.1817 26.1152 17.1817C26.4819 17.1817 26.7873 17.4567 26.7873 17.8539V30.0437H30.7895V17.8539C30.7895 17.4872 31.0951 17.1817 31.4617 17.1817C31.8283 17.1817 32.1338 17.4872 32.1338 17.8539V30.0132H36.136V16.754C36.136 16.0208 35.5555 15.4403 34.8223 15.4403H28.8037Z" fill="#0B0B0B"/>
<path d="M8.02905 26.347H3.99631V30.0131H-0.00585938V15.4403H8.05959C8.79282 15.4403 9.34274 16.0208 9.34274 16.754V25.0333C9.34274 25.7665 8.76227 26.347 8.02905 26.347ZM5.37111 17.8538C5.37111 17.4567 5.03504 17.1512 4.69898 17.1512H3.99631V24.5445H4.66844C5.03505 24.5445 5.34057 24.2695 5.34057 23.8724V17.8538" fill="#0B0B0B"/>
<path d="M42.8572 30.0131V26.347H41.4824V30.0131H37.4802V16.754C37.4802 16.0208 38.0607 15.4403 38.7939 15.4403H45.5457C46.2789 15.4403 46.8594 16.0208 46.8594 16.754V30.0131H42.8572ZM42.8572 24.5445V17.8233C42.8572 17.4567 42.5517 17.1817 42.1851 17.1817C41.8185 17.1817 41.513 17.4872 41.513 17.8538V24.5445H42.8572Z" fill="#0B0B0B"/>
</g>
<defs>
<clipPath id="clip0">
<rect width="60.3484" height="30" fill="white"/>
</clipPath>
</defs>
</svg>
