<svg width="182" height="30" viewBox="0 0 182 30" fill="none" xmlns="http://www.w3.org/2000/svg">
<g clip-path="url(#clip0)">
<path d="M118.812 2.97022C119.109 2.97022 119.406 2.67319 119.406 2.37616C119.406 1.7821 119.109 1.7821 118.515 1.7821H117.624V4.45537H117.921V2.97022H118.812L119.406 4.15834H119.703L118.812 2.97022ZM118.515 2.67319H117.921V1.7821H118.812C119.109 1.7821 119.406 1.7821 119.406 2.37616C119.406 2.67319 119.109 2.67319 118.515 2.67319Z" fill="#0B0B0B"/>
<path d="M118.515 0.593933C117.327 0.593933 116.436 1.48502 116.436 2.67314C116.436 3.86126 117.327 4.75235 118.515 4.75235C119.703 4.75235 120.891 3.86126 120.891 2.67314C120.891 1.48502 119.703 0.593933 118.515 0.593933ZM118.515 4.75235C117.327 4.75235 116.436 3.86126 116.436 2.67314C116.436 1.48502 117.327 0.593933 118.515 0.593933C119.703 0.593933 120.594 1.48502 120.594 2.67314C120.594 3.86126 119.703 4.75235 118.515 4.75235Z" fill="#0B0B0B"/>
<path d="M54.0592 29.4059V7.72272H49.6038V29.4059H54.0592Z" fill="#0B0B0B"/>
<path d="M54.0592 6.23771V0.891174H49.6038V6.23771H54.0592Z" fill="#0B0B0B"/>
<path d="M17.2277 7.72272V9.80192C15.4455 8.61381 13.3663 7.72272 10.9901 7.72272C4.75248 7.72272 0 12.7722 0 18.7128C0 24.6534 4.75248 29.7029 10.9901 29.7029C13.3663 29.7029 15.7426 28.8118 17.5248 27.6237V29.7029H22.2772V7.72272H17.2277ZM10.9901 24.9504C7.42574 24.9504 4.45545 21.9801 4.45545 18.4158C4.45545 14.8514 7.42574 11.8811 10.9901 11.8811C14.5545 11.8811 17.5248 14.8514 17.5248 18.4158C17.5248 21.9801 14.5545 24.9504 10.9901 24.9504Z" fill="#0B0B0B"/>
<path d="M117.327 14.5544C117.03 12.7722 115.545 11.5841 113.465 11.5841C112.277 11.5841 109.604 11.8811 109.604 13.6633C109.604 16.0395 113.465 16.0395 114.653 16.3366C120.891 16.9306 122.97 19.6039 122.97 22.8712C122.97 25.2475 121.782 27.0296 120 28.5148C118.515 29.7029 115.545 29.9999 113.465 29.9999C109.307 29.9999 105.149 27.6237 104.554 22.5742H109.307C109.604 24.9504 111.98 25.8415 113.465 25.8415C116.139 25.8415 117.921 24.6534 117.921 23.4653C117.921 21.3861 116.139 21.0891 113.168 20.792C111.683 20.495 108.713 20.198 107.525 19.0098C106.337 17.8217 105.149 16.6336 105.149 14.5544C105.149 10.693 108.119 7.72272 113.762 7.72272C118.515 7.72272 122.376 10.396 122.376 14.8514L117.327 14.5544Z" fill="#0B0B0B"/>
<path d="M41.2872 0.891174V9.80206C39.505 8.61395 37.1288 7.72286 34.7526 7.72286C28.812 7.72286 23.7625 12.4753 23.7625 18.713C23.7625 24.6535 28.5149 29.7031 34.7526 29.7031C37.1288 29.7031 39.505 28.812 41.2872 27.6238V29.7031H46.0397V0.891174H41.2872ZM34.7526 24.9506C31.1882 24.9506 28.2179 21.9803 28.2179 18.4159C28.2179 14.8516 31.1882 11.8813 34.7526 11.8813C38.3169 11.8813 41.2872 14.8516 41.2872 18.4159C41.2872 21.9803 38.3169 24.9506 34.7526 24.9506Z" fill="#0B0B0B"/>
<path d="M97.7227 7.72272V9.80192C95.9406 8.61381 93.5643 7.72272 91.1881 7.72272C85.2475 7.72272 80.198 12.4752 80.198 18.7128C80.198 24.6534 84.9505 29.7029 91.1881 29.7029C93.5643 29.7029 95.9406 28.8118 97.7227 27.6237V29.7029H102.475V7.72272H97.7227ZM91.4851 24.9504C87.9208 24.9504 84.9505 21.9801 84.9505 18.4158C84.9505 14.8514 87.9208 11.8811 91.4851 11.8811C95.0495 11.8811 98.0198 14.8514 98.0198 18.4158C98.0198 21.9801 95.0495 24.9504 91.4851 24.9504Z" fill="#0B0B0B"/>
<path d="M73.6632 0.891174V9.80206C71.881 8.61395 69.5048 7.72286 67.1285 7.72286C61.1879 7.72286 56.1384 12.4753 56.1384 18.713C56.1384 24.6535 60.8909 29.7031 67.1285 29.7031C69.5048 29.7031 71.881 28.812 73.6632 27.6238V29.7031H78.4157V0.891174H73.6632ZM67.1285 24.9506C63.5642 24.9506 60.5939 21.9803 60.5939 18.4159C60.5939 14.8516 63.5642 11.8813 67.1285 11.8813C70.6929 11.8813 73.6632 14.8516 73.6632 18.4159C73.6632 21.9803 70.6929 24.9506 67.1285 24.9506Z" fill="#0B0B0B"/>
<path d="M179.703 2.97022C180 2.97022 180.297 2.67319 180.297 2.37616C180.297 1.7821 180 1.7821 179.406 1.7821H178.515V4.45537H178.812V2.97022H179.703L180.297 4.15834H180.594L179.703 2.97022ZM179.406 2.67319H178.812V1.7821H179.406C179.703 1.7821 180 1.7821 180 2.37616C180.297 2.67319 179.703 2.67319 179.406 2.67319Z" fill="#0B0B0B"/>
<path d="M179.406 0.593933C178.218 0.593933 177.327 1.48502 177.327 2.67314C177.327 3.86126 178.218 4.75235 179.406 4.75235C180.594 4.75235 181.485 3.86126 181.485 2.67314C181.782 1.48502 180.594 0.593933 179.406 0.593933ZM179.406 4.75235C178.218 4.75235 177.327 3.86126 177.327 2.67314C177.327 1.48502 178.218 0.593933 179.406 0.593933C180.594 0.593933 181.485 1.48502 181.485 2.67314C181.485 3.86126 180.594 4.75235 179.406 4.75235Z" fill="#0B0B0B"/>
<path d="M146.436 16.3365C142.871 11.8811 137.525 8.61377 130.693 8.01971C130.99 10.99 131.881 13.6633 133.069 16.3365H146.436Z" fill="#0B0B0B"/>
<path d="M141.98 26.1387C144.951 27.9209 148.218 28.812 151.485 29.109C151.485 28.2179 151.188 27.0298 151.188 26.1387H141.98Z" fill="#0B0B0B"/>
<path d="M133.961 17.8218C134.555 18.7129 134.852 19.3069 135.446 20.198H149.109C148.812 19.3069 148.218 18.7129 147.624 17.8218H133.961Z" fill="#0B0B0B"/>
<path d="M156.535 26.1387C156.238 27.0298 156.238 28.2179 156.238 29.109C159.505 28.812 162.772 27.9209 165.743 26.1387H156.535Z" fill="#0B0B0B"/>
<path d="M168.416 24.3565C169.307 23.7624 170.198 22.8713 170.792 21.9802H136.931C137.822 22.8713 138.416 23.4654 139.307 24.3565H168.416Z" fill="#0B0B0B"/>
<path d="M173.762 17.8218C173.168 18.7129 172.871 19.3069 172.277 20.198H158.614C158.911 19.3069 159.505 18.7129 160.099 17.8218H173.762Z" fill="#0B0B0B"/>
<path d="M174.653 16.3365C175.842 13.9603 176.733 11.287 177.03 8.01971C170.198 8.61377 164.851 11.8811 161.287 16.3365H174.653Z" fill="#0B0B0B"/>
<path d="M151.782 26.1387C152.377 27.3269 153.268 28.2179 153.862 29.109C154.753 28.2179 155.347 27.0298 155.941 26.1387H151.782Z" fill="#0B0B0B"/>
<path d="M149.406 20.198C149.109 19.3069 149.109 18.7129 148.812 17.8218H158.911C158.911 18.7129 158.614 19.3069 158.614 20.198H149.406Z" fill="#0B0B0B"/>
<path d="M158.911 16.3366C159.208 11.2871 157.723 5.64356 153.564 0C149.703 5.0495 148.218 10.9901 148.515 16.3366H158.911Z" fill="#0B0B0B"/>
</g>
<defs>
<clipPath id="clip0">
<rect width="181.782" height="30" fill="white"/>
</clipPath>
</defs>
</svg>
