<svg width="145" height="30" viewBox="0 0 145 30" fill="none" xmlns="http://www.w3.org/2000/svg">
<g clip-path="url(#clip0)">
<path d="M125.005 0H126.245C126.361 0.216346 126.303 0.475962 126.303 0.721154C126.087 4.03846 125.885 7.37019 125.683 10.6875C125.64 11.1058 125.697 11.5817 125.466 11.9567C123.678 15.0288 121.918 18.1154 120.13 21.1875C119.784 21.6202 119.236 21.8365 118.803 22.1683C116.394 23.7981 113.986 25.4135 111.577 27.0288C111.13 27.3029 110.726 27.649 110.236 27.8654C110.034 27.476 109.745 27.1298 109.615 26.7115C114.721 17.7981 119.914 8.92789 125.005 0Z" fill="#0B0B0B"/>
<path d="M127.457 0H128.87C129.721 1.64423 130.702 3.20192 131.611 4.81731C134.423 9.69231 137.236 14.5817 140.048 19.4567C141.447 21.8365 142.774 24.274 144.216 26.625V26.8846C143.928 27.2019 143.755 27.5913 143.524 27.9519C140.438 25.8894 137.365 23.8125 134.279 21.75C134.034 21.5769 133.731 21.4327 133.587 21.1587C131.798 18.0433 130.01 14.9279 128.207 11.8269C128.091 11.6106 128.106 11.3365 128.091 11.0913C127.904 7.39904 127.644 3.70673 127.457 0Z" fill="#0B0B0B"/>
<path d="M121.298 23.6105C122.741 23.5384 124.183 23.6394 125.611 23.5529C127.774 23.5384 129.952 23.5529 132.116 23.5529C132.418 23.5384 132.692 23.6971 132.952 23.8269C136.269 25.5144 139.601 27.1875 142.904 28.8894C142.89 29.2932 142.515 29.625 142.37 30.0144H111.491C111.274 29.6394 110.942 29.2788 110.885 28.8605C112.529 27.9807 114.202 27.1586 115.875 26.3221C117.692 25.4279 119.466 24.4471 121.298 23.6105Z" fill="#0B0B0B"/>
<path d="M0 7.61542C2.88462 7.601 5.76923 7.61542 8.65385 7.61542C9.90866 7.601 11.1779 7.65869 12.4039 7.93273C13.976 8.26446 15.5481 9.00003 16.5433 10.3125C17.6539 11.7548 17.899 13.6875 17.6683 15.4471C17.4519 17.0337 16.5721 18.5337 15.2308 19.4135C13.8173 20.3943 12.0577 20.6106 10.3846 20.4952C12.8221 23.2068 15.2452 25.9183 17.6827 28.6298C17.9279 28.8895 18.1587 29.1635 18.375 29.452C16.5721 29.4808 14.7837 29.452 12.9808 29.4664C10.4135 26.6395 7.86058 23.7837 5.30769 20.9423C4.97596 20.5818 4.67308 20.1779 4.28366 19.8606C4.22596 23.0481 4.25481 26.2356 4.26923 29.4231C2.85577 29.5096 1.42789 29.4375 0 29.4664V7.61542H0ZM4.26923 11.3943C4.25481 13.3846 4.25481 15.375 4.26923 17.3798C6.11539 17.3943 7.96154 17.3798 9.82212 17.3943C10.774 17.3654 11.7692 17.2789 12.6202 16.8029C13.226 16.4712 13.6154 15.8222 13.7308 15.1443C13.9039 14.25 13.7885 13.2404 13.1394 12.5625C12.3173 11.726 11.1058 11.4808 9.98077 11.4087C8.0625 11.3798 6.15866 11.4087 4.26923 11.3943Z" fill="#0B0B0B"/>
<path d="M54.4038 7.62986C55.8317 7.58659 57.2452 7.60101 58.673 7.61544C58.673 9.4039 58.6586 11.1924 58.673 12.9808C59.3798 12.5049 60.1875 12.1731 61.024 12.0433C63.2019 11.6827 65.5817 12.0145 67.3702 13.3702C69.0432 14.6106 69.9952 16.6731 70.024 18.7356C70.024 20.1779 70.024 21.6202 70.024 23.0625C70.0384 24.8222 69.375 26.625 68.1346 27.8799C66.7932 29.25 64.875 29.8702 63 29.9856H61.3413C59.8125 29.8702 58.3413 29.2933 57.1009 28.3991C56.1778 28.702 55.4423 29.6539 54.4038 29.4231C54.4182 22.1683 54.4182 14.8991 54.4038 7.62986ZM61.0817 15.7933C59.798 16.0385 58.774 17.1635 58.6875 18.476C58.6298 20.0049 58.6875 21.5481 58.6586 23.077C58.6442 24.2308 59.2932 25.3847 60.3605 25.8606C61.5432 26.4231 63 26.3943 64.1827 25.8318C65.1634 25.3414 65.7692 24.2885 65.798 23.2068C65.8125 21.7645 65.798 20.3222 65.798 18.8799C65.798 17.8702 65.3509 16.8029 64.4711 16.2549C63.4759 15.6347 62.2067 15.5049 61.0817 15.7933Z" fill="#0B0B0B"/>
<path d="M89.9711 7.61548C91.3846 7.61548 92.7981 7.61548 94.2115 7.61548C94.226 11.5241 94.226 15.4328 94.2115 19.3414C95.3365 18.202 96.3173 16.9472 97.399 15.7645C98.5385 14.4809 99.6635 13.1828 100.803 11.8991C102.534 11.8703 104.264 11.928 105.995 11.8703C106.024 12.0866 105.822 12.2309 105.707 12.3751C103.298 15.0866 100.933 17.827 98.524 20.5241C100.514 22.7886 102.562 25.0097 104.582 27.2597C105.202 27.9953 105.923 28.6587 106.5 29.4376C104.798 29.4664 103.111 29.4376 101.409 29.452C101.077 29.4953 100.933 29.1347 100.731 28.9472C98.5673 26.553 96.4183 24.1299 94.226 21.7645C94.2404 24.3174 94.226 26.8847 94.226 29.4376C92.8125 29.452 91.399 29.452 89.9856 29.4376C89.9567 22.1684 89.9567 14.8847 89.9711 7.61548Z" fill="#0B0B0B"/>
<path d="M20.8556 13.9183C22.3556 12.4616 24.5047 11.8847 26.5527 11.8991C28.4566 11.8558 30.4181 12.3029 31.9614 13.4568C33.2162 14.3799 34.0527 15.8077 34.3412 17.3222C34.5864 18.5049 34.4854 19.7164 34.4999 20.9135C34.4854 21.3318 34.5576 21.75 34.4422 22.1539C30.6489 22.125 26.8556 22.125 23.0768 22.1539C23.0191 23.2933 23.2066 24.577 24.0575 25.4135C24.8364 26.1347 25.947 26.2645 26.971 26.3654C27.9806 26.351 29.1056 26.2645 29.9133 25.5866C30.2883 25.2837 30.4037 24.8077 30.5479 24.375C31.846 24.3318 33.1441 24.3318 34.4422 24.375C34.3268 25.7452 33.8364 27.1299 32.8268 28.0962C31.7018 29.2356 30.0864 29.7693 28.5287 29.8991C27.4325 29.8702 26.3508 29.8991 25.2547 29.8847C23.5816 29.6539 21.9374 28.9472 20.7547 27.7212C19.5143 26.4664 18.8508 24.6924 18.8941 22.9327C18.8941 21.4904 18.8941 20.0481 18.8941 18.6058C18.9373 16.875 19.5864 15.1154 20.8556 13.9183ZM23.8556 16.5C23.2066 17.1635 23.0624 18.1443 23.0768 19.0385C25.4999 19.0385 27.9085 19.0385 30.3316 19.0385C30.3604 18.3029 30.2595 17.5241 29.8412 16.9039C29.3075 16.0241 28.2691 15.5914 27.2739 15.5049C26.0768 15.3895 24.721 15.577 23.8556 16.5Z" fill="#0B0B0B"/>
<path d="M38.7116 13.7597C40.2548 12.3895 42.3894 11.8558 44.4231 11.8991C46.5 11.8702 48.7067 12.476 50.2212 13.9616C51.6202 15.2885 52.2548 17.2789 52.1827 19.1827C52.1394 20.1779 52.2548 21.1731 52.125 22.1683C48.3606 22.1106 44.5962 22.1827 40.8462 22.1395C40.6587 23.1924 40.875 24.3895 41.5673 25.226C42.3317 26.1202 43.601 26.2933 44.7116 26.3654C45.8366 26.3366 47.1779 26.2356 47.8991 25.2549C48.1298 24.9952 48.0721 24.577 48.3029 24.3462C49.5721 24.3318 50.8414 24.3318 52.0962 24.3462C52.0096 25.8029 51.4327 27.2741 50.3221 28.2693C49.1827 29.3077 47.6394 29.7693 46.125 29.9135C45.0721 29.8702 44.0192 29.8702 42.9808 29.8847C40.9327 29.6683 38.9135 28.6154 37.7308 26.8847C36.9519 25.7741 36.5625 24.4327 36.5481 23.077C36.5481 21.6347 36.5481 20.1924 36.5481 18.75C36.5914 16.8895 37.2837 15 38.7116 13.7597ZM41.5673 16.4712C40.9183 17.1491 40.7164 18.1299 40.7885 19.0385C43.1971 19.0385 45.6058 19.0529 48.0144 19.0241C48.0289 18.202 47.9135 17.3222 47.3654 16.6875C46.7452 15.8799 45.7067 15.5337 44.7116 15.4904C43.601 15.4183 42.3606 15.6202 41.5673 16.4712Z" fill="#0B0B0B"/>
<path d="M78.3317 12.0001C80.524 11.7261 82.9039 11.928 84.8077 13.1395C86.1923 14.0049 87.1731 15.4472 87.5481 17.0193C87.8798 18.2886 87.75 19.6155 87.7789 20.9136C87.75 22.1684 87.8798 23.452 87.5914 24.678C87.2596 26.279 86.3077 27.7645 84.9231 28.6588C83.899 29.3367 82.7019 29.7405 81.4904 29.8703C80.5385 29.8559 79.5865 29.8415 78.6346 29.8847C76.6731 29.6972 74.6827 28.8174 73.4856 27.202C72.7933 26.2934 72.4038 25.1972 72.2452 24.0722C72.101 23.1203 72.1731 22.154 72.1586 21.1876C72.1875 19.6732 72.0288 18.1155 72.4904 16.6443C72.9231 15.1732 73.9038 13.8607 75.2308 13.0674C76.1538 12.4905 77.2356 12.1588 78.3317 12.0001ZM78.6635 15.8078C78 15.9953 77.351 16.3703 76.9615 16.9472C76.5288 17.553 76.3846 18.303 76.3846 19.0386C76.3846 20.279 76.3846 21.5338 76.3846 22.7886C76.3846 23.5818 76.5721 24.4184 77.0769 25.0386C77.5962 25.6876 78.4038 26.0338 79.1971 26.178C80.3654 26.3511 81.6779 26.1636 82.5865 25.3415C83.2933 24.7068 83.5529 23.7261 83.5529 22.803C83.5529 21.5049 83.5673 20.2068 83.5529 18.9088C83.5385 17.9713 83.1923 16.9905 82.4279 16.4136C81.3606 15.5915 79.9039 15.4761 78.6635 15.8078Z" fill="#0B0B0B"/>
</g>
<defs>
<clipPath id="clip0">
<rect width="144.231" height="30" fill="white"/>
</clipPath>
</defs>
</svg>
