<svg width="97" height="30" viewBox="0 0 97 30" fill="none" xmlns="http://www.w3.org/2000/svg">
<g clip-path="url(#clip0)">
<path fill-rule="evenodd" clip-rule="evenodd" d="M40.1897 25.7587C40.1897 28.0863 38.1725 29.9483 35.6897 29.9483C33.2069 29.9483 31.1897 28.0863 31.1897 25.7587V4.55178C31.1897 2.22419 33.2069 0.362122 35.6897 0.362122C38.1725 0.362122 40.1897 2.22419 40.1897 4.55178V25.7587Z" fill="#0B0B0B"/>
<path fill-rule="evenodd" clip-rule="evenodd" d="M4.5 8.84483C2.01724 8.84483 0 6.98276 0 4.65517C0 2.32758 2.01724 0.465515 4.5 0.465515H23.7931C26.2759 0.465515 28.2931 2.32758 28.2931 4.65517C28.2931 6.98276 26.2759 8.84483 23.7931 8.84483H4.5Z" fill="#0B0B0B"/>
<path fill-rule="evenodd" clip-rule="evenodd" d="M22.5001 19.7069C24.9828 19.7069 27.0001 17.8448 27.0001 15.5172C27.0001 13.1896 24.9828 11.3276 22.5001 11.3276H4.60352C2.12076 11.3276 0.103516 13.1896 0.103516 15.5172V25.8103C0.103516 28.1379 2.12076 30 4.60352 30C7.08627 30 9.10351 28.1379 9.10351 25.8103V19.6552L22.5001 19.7069Z" fill="#0B0B0B"/>
<path fill-rule="evenodd" clip-rule="evenodd" d="M89.6378 30C93.5688 30 96.7757 26.9483 96.7757 23.2759C96.7757 21.8793 96.3102 20.5862 95.5343 19.5517L83.9481 1.91379C83.1723 0.775862 81.7757 0 80.1722 0C78.5688 0 77.1205 0.827586 76.3447 2.01724L63.8274 20.8448H52.2412V4.65517C52.2412 2.32759 50.224 0.465517 47.7412 0.465517C45.2585 0.465517 43.2412 2.32759 43.2412 4.65517V25.7586C43.2412 28.0862 45.2585 29.9483 47.7412 29.9483H64.2412C66.2585 29.9483 68.3274 28.9138 69.7757 26.7414L80.1205 11.2241L87.0516 21.569H77.3274C74.8447 21.569 72.8274 23.431 72.8274 25.7586C72.8274 28.0862 74.8447 29.9483 77.3274 29.9483L89.6378 30Z" fill="#0B0B0B"/>
</g>
<defs>
<clipPath id="clip0">
<rect width="96.7759" height="30" fill="white"/>
</clipPath>
</defs>
</svg>
