<svg width="166" height="30" viewBox="0 0 166 30" fill="none" xmlns="http://www.w3.org/2000/svg">
<g clip-path="url(#clip0)">
<path d="M8.85934 17.7453C9.65509 18.5411 9.65509 19.8674 8.85934 20.6631L8.19621 21.3262C7.40045 22.122 6.10072 22.122 5.27844 21.3262L0.610001 16.6843C-0.185755 15.8886 -0.185755 14.5623 0.610001 13.7666L1.27313 13.1034C2.06889 12.3077 3.39515 12.3077 4.1909 13.1034L8.85934 17.7453ZM8.38188 8.88592C7.58613 8.09017 6.28639 8.09017 5.46411 8.88592L4.77446 9.54905C3.9787 10.3448 3.9787 11.6711 4.77446 12.4668L9.44289 17.1353C10.2386 17.931 11.5384 17.931 12.3607 17.1353L13.0238 16.4456C13.8195 15.6498 13.8195 14.3236 13.0238 13.5278L8.38188 8.88592ZM20.7957 12.9973C19.9999 12.2016 18.6737 12.2016 17.8779 12.9973L17.2148 13.687C16.419 14.4827 16.419 15.7825 17.2148 16.6048L21.8832 21.2467C22.679 22.0424 23.9787 22.0424 24.801 21.2467L25.4641 20.5835C26.2599 19.7878 26.2599 18.4615 25.4641 17.6658L20.7957 12.9973ZM24.9867 8.80635C24.1909 8.01059 22.8912 8.01059 22.0689 8.80635L21.4058 9.496C20.61 10.2918 20.61 11.5915 21.4058 12.4138L26.0742 17.0822C26.8699 17.878 28.1697 17.878 28.992 17.0822L29.6816 16.3926C30.4774 15.5968 30.4774 14.2971 29.6816 13.4748L24.9867 8.80635ZM17.2413 4.19096C18.0371 3.39521 18.0371 2.09547 17.2413 1.27319L16.5782 0.610062C15.7824 -0.185694 14.4562 -0.185694 13.6604 0.610062L9.01849 5.25197C8.22273 6.04773 8.22273 7.34746 9.01849 8.16974L9.68162 8.8594C10.4774 9.65515 11.8036 9.65515 12.5994 8.8594L17.2413 4.19096ZM21.4323 8.38194C22.228 7.58619 22.228 6.28645 21.4323 5.46417L20.7426 4.77452C19.9469 3.97876 18.6471 3.97876 17.8249 4.77452L13.2095 9.44295C12.4137 10.2387 12.4137 11.565 13.2095 12.3607L13.8991 13.0504C14.6949 13.8461 15.9946 13.8461 16.8169 13.0504L21.4323 8.38194ZM17.2678 20.557C18.0636 19.7613 18.0636 18.4615 17.2678 17.6392L16.5782 16.9761C15.7824 16.1804 14.4827 16.1804 13.6604 16.9761L9.01849 21.618C8.22273 22.4138 8.22273 23.74 9.01849 24.5358L9.70814 25.2254C10.5039 26.0212 11.8302 26.0212 12.6259 25.2254L17.2678 20.557ZM21.4588 24.748C22.2546 23.9522 22.2546 22.6525 21.4588 21.8302L20.7692 21.1671C19.9734 20.3713 18.6737 20.3713 17.8514 21.1671L13.2095 25.809C12.4137 26.6048 12.4137 27.9045 13.2095 28.7268L13.8991 29.4164C14.6949 30.2122 15.9946 30.2122 16.8169 29.4164L21.4588 24.748ZM55.3315 20.6366C55.4641 20.8223 56.1007 21.7772 56.1007 21.7772C55.7559 23.2626 54.854 25.1459 54.854 25.1459L54.7214 25.1989C51.2731 26.5517 45.9681 27.6923 40.2386 25.3846C36.8169 24.0053 34.3766 21.3262 33.3951 17.8249C32.3607 14.2175 33.0768 10.2387 35.305 7.21484C37.7718 3.87266 41.7506 2.04242 47.1352 1.75065C49.1776 1.64454 53.3686 2.20157 55.6233 3.47478L55.8089 3.58088C55.8089 3.58088 55.8885 9.23075 55.8355 9.496L55.7824 9.76125L54.1113 9.81431L54.0317 9.31033C53.74 7.66576 52.9973 3.26258 46.8699 3.58088C44.244 3.71351 42.1219 5.03977 40.5304 7.10873C38.5941 9.62863 38.0105 13.1565 38.8859 17.0026C39.7081 20.7427 42.5729 23.1565 44.7479 23.9788C45.6763 24.3236 48.5676 24.9867 50.7691 23.9788C52.6259 23.1565 54.4562 21.7506 55.3315 20.6366ZM76.1803 26.6578V7.10873C76.1803 6.47213 76.1803 5.43765 75.5172 4.72147C75.4111 4.61537 74.5357 3.92571 74.5357 3.92571V3.05038L79.7877 1.98937L80.2652 2.28115C80.2652 2.28115 80.2387 22.9708 80.2652 23.2361C80.3448 25.252 81.6975 25.3846 81.6975 25.3846V26.6313H76.1803V26.6578ZM99.4959 25.3581C98.541 25.1459 98.0636 24.3501 98.0636 23.0239V10.6366L97.5861 10.3448L92.3076 11.4058V12.2811C92.3076 12.2811 93.2095 12.9973 93.3156 13.0769C93.9787 13.7931 93.9787 14.8276 93.9787 15.4642V22.8647C92.2546 24.1644 90.6631 24.6419 89.5755 24.1379C88.7002 23.7135 88.1962 22.679 88.1697 21.2201V10.6631L87.6922 10.3713L82.4137 11.4323V12.3077C82.4137 12.3077 83.3156 13.0239 83.4217 13.1034C84.1113 13.8196 84.0848 14.8806 84.0848 15.5172V21.7506C84.1379 22.9708 84.1909 23.3687 84.3235 23.8992C84.6418 25.252 85.4376 26.2069 86.6047 26.6313C88.4615 27.3209 91.114 26.6578 93.9522 24.7745V26.4987H99.7347V25.4111L99.4959 25.3581ZM125.676 25.3581C124.774 25.1459 124.297 24.3501 124.27 23.0239V15.4376C124.27 13.687 123.369 10.3979 119.92 10.3979C117.374 10.3979 115.623 11.9098 114.801 12.7321C114.244 11.565 113.183 10.3979 111.087 10.3979C109.469 10.3979 107.957 11.0079 106.525 12.2281V10.6366L106.048 10.3448L100.769 11.4058V12.2811C100.769 12.2811 101.671 12.9973 101.777 13.0769C102.44 13.7931 102.44 14.8276 102.44 15.4642V26.5517H108.17V25.4642L107.878 25.3846C106.976 25.1724 106.525 24.4032 106.499 23.0504C106.499 23.0504 106.499 15.4111 106.499 14.191C107.507 13.3422 108.515 13.1565 109.602 13.2626C110.477 13.3422 111.379 13.9522 111.379 17.0822V26.5517H117.109V25.4642L116.817 25.3846C115.889 25.1724 115.438 24.4032 115.411 23.0504V15.4642C115.411 15.252 115.385 14.6419 115.305 14.2175C116.339 13.3422 117.347 13.1565 118.435 13.2361C119.31 13.3156 120.212 13.9257 120.239 17.0557V26.5252H125.968V25.4376L125.676 25.3581ZM74.297 18.488C74.297 16.0477 73.5013 13.9788 72.0158 12.4933C70.4774 10.9549 68.2493 10.1326 65.6233 10.1326C60.663 10.1326 56.9495 13.74 56.9495 18.5146C56.9495 23.5809 60.3713 26.87 65.6233 26.87C68.1432 26.87 70.3448 26.0477 71.9363 24.4297C73.4482 22.8912 74.297 20.7957 74.297 18.488ZM65.6233 25.0663C62.4137 25.0663 61.5119 22.5464 61.5119 18.4615C61.5119 15.4642 62.4137 11.8567 65.6233 11.8567C68.8328 11.8567 69.7347 15.4642 69.7347 18.4615C69.7347 22.5464 68.8328 25.0663 65.6233 25.0663ZM145.119 5.2785C145.119 4.11139 146.074 3.15648 147.268 3.15648C148.435 3.15648 149.416 4.11139 149.416 5.2785C149.416 6.4456 148.461 7.40051 147.268 7.40051C146.074 7.40051 145.119 6.4456 145.119 5.2785ZM145.411 26.4987V15.305C145.411 14.6419 145.411 13.6605 144.774 12.9708C144.668 12.8647 143.767 12.175 143.767 12.175V11.2997L149.045 10.2387L149.522 10.5305C149.522 10.5305 149.522 22.9973 149.522 22.9708C149.549 24.3236 150 25.0928 150.902 25.305L151.194 25.3846V26.4721L145.411 26.4987ZM142.387 14.191C141.273 12.2016 139.814 10.9549 138.011 10.5305C135.544 9.92041 133.05 11.0079 131.512 11.9363V2.3342L131.034 2.04242L125.782 3.10343V3.97876C125.782 3.97876 126.684 4.69494 126.79 4.77452C127.454 5.46417 127.427 6.4456 127.427 7.10873V25.1989V25.4111L127.613 25.5172C130.61 27.0557 134.589 27.2944 137.48 26.1008C140.716 24.748 142.095 22.4668 142.679 20.7692C143.607 18.1963 143.183 15.6233 142.387 14.191ZM138.011 22.8382C137.109 24.3766 135.225 25.2785 133.766 24.8806C132.308 24.4827 131.512 22.9178 131.538 20.504C131.538 20.504 131.538 14.9867 131.538 13.7931C131.591 13.7666 131.644 13.74 131.698 13.7135C132.573 13.2626 134.244 12.4138 136.446 13.5278C137.639 14.1379 138.515 15.252 138.939 16.7109C139.496 18.6737 139.151 20.9018 138.011 22.8382ZM165.411 24.7745L165.119 24.7215C164.881 24.6684 164.456 24.1114 164.456 23.13V15.7559C164.456 13.6339 163.767 11.9628 162.52 11.061C161.379 10.2387 159.814 10.1061 158.011 10.6896C155.862 11.3793 152.599 14.244 152.069 14.8806L151.963 15.0132L152.016 15.1989C152.069 15.3846 152.308 15.7559 152.467 15.9151L152.573 15.9947H156.154C156.154 15.9947 156.154 15.1459 156.154 14.9867C156.154 13.5278 157.109 12.8117 157.931 12.679C158.753 12.5199 159.31 12.5995 159.682 12.9178C160.239 13.3687 160.504 14.4032 160.504 15.9682V16.8965L152.944 20.2387L152.785 20.2918L152.732 20.4509C152.042 22.5729 152.175 24.191 153.183 25.2785C154.748 27.0026 158.568 27.2414 164.111 25.9947C164.536 25.8886 165.411 25.7825 165.411 25.7825C165.411 25.809 165.411 24.7745 165.411 24.7745ZM160.504 18.7268V24.4032C159.257 25.2785 158.011 25.3581 157.135 24.6419C156.18 23.8461 155.968 22.3342 156.605 20.9284L160.504 18.7268Z" fill="#0B0B0B"/>
</g>
<defs>
<clipPath id="clip0">
<rect width="165.411" height="30" fill="white"/>
</clipPath>
</defs>
</svg>
