<svg width="15" height="14" viewBox="0 0 15 14" xmlns="http://www.w3.org/2000/svg">
<path fill-rule="evenodd" clip-rule="evenodd" d="M3.75 0.644531C3.51562 0.0585937 3.32031 0.0390625 2.94922 0.0195312C2.83203 0.0195312 2.67578 0 2.53906 0C2.07031 0 1.5625 0.136719 1.26953 0.449219C0.898438 0.820312 0 1.69922 0 3.49609C0 5.29297 1.30859 7.03125 1.48438 7.26562C1.66016 7.5 4.04297 11.25 7.71484 12.7539C10.5859 13.9453 11.4453 13.8281 12.0898 13.6914C13.0469 13.4766 14.2383 12.7734 14.5508 11.9336C14.8438 11.0742 14.8438 10.3516 14.7656 10.1953C14.668 10.0391 14.4336 9.96094 14.0625 9.76562C13.6914 9.58984 11.9141 8.69141 11.5625 8.57422C11.2305 8.45703 10.918 8.49609 10.6641 8.84766C10.3125 9.33594 9.96094 9.84375 9.6875 10.1367C9.47266 10.3711 9.10156 10.4102 8.80859 10.2734C8.39844 10.0977 7.26562 9.70703 5.87891 8.45703C4.80469 7.5 4.0625 6.28906 3.84766 5.9375C3.63281 5.56641 3.82812 5.35156 4.00391 5.15625C4.17969 4.92187 4.35547 4.76562 4.55078 4.55078C4.72656 4.33594 4.84375 4.21875 4.96094 3.98437C5.07812 3.75 5 3.49609 4.90234 3.30078C4.78516 3.16406 4.0625 1.36719 3.75 0.644531Z"/>
</svg>
