<svg width="40" height="40" viewBox="0 0 40 40" fill="none" xmlns="http://www.w3.org/2000/svg">
<path d="M14.4099 27.7662H9V9.51887L13.5398 5H26.2036V15.8231" stroke="#FE0202" stroke-width="2" stroke-miterlimit="10" stroke-linejoin="round"/>
<path d="M14.28 7.18457V10.272H11.176" stroke="#FE0202" stroke-width="2" stroke-miterlimit="10"/>
<path d="M19.9519 21.2295V20.072" stroke="#FE0202" stroke-width="2" stroke-miterlimit="10" stroke-linecap="round" stroke-linejoin="round"/>
<path d="M26.2493 18.8771V17.8186" stroke="#FE0202" stroke-width="2" stroke-miterlimit="10" stroke-linecap="round" stroke-linejoin="round"/>
<path d="M26.2493 22.7803V20.8848" stroke="#FE0202" stroke-width="2" stroke-miterlimit="10" stroke-linecap="round" stroke-linejoin="round"/>
<path d="M19.9519 23.1655V27.7562H17.0205C16.6601 27.7562 16.4895 28.0362 16.4194 28.202C16.2732 28.5568 16.323 29.0027 16.5382 29.217L22.466 35.1148C22.8803 35.5252 23.5535 35.5252 23.9627 35.1138L29.8631 29.217C30.0915 28.9885 30.1626 28.5487 30.0215 28.2121C29.8976 27.9179 29.6407 27.7552 29.2995 27.7552L26.2493 27.7572V24.6415" stroke="#FE0202" stroke-width="2" stroke-linecap="round"/>
<path d="M23.2153 25.5927V20.3752" stroke="#FE0202" stroke-width="2" stroke-miterlimit="10" stroke-linecap="round" stroke-linejoin="round"/>
<path d="M23.2153 18.3655V15.7664" stroke="#FE0202" stroke-width="2" stroke-miterlimit="10" stroke-linecap="round" stroke-linejoin="round"/>
<path d="M23.2153 13.7566V12.9307" stroke="#FE0202" stroke-width="2" stroke-miterlimit="10" stroke-linecap="round" stroke-linejoin="round"/>
</svg>
