<svg width="40" height="40" viewBox="0 0 40 40" xmlns="http://www.w3.org/2000/svg">
<path d="M19.7282 3.30396C15.2677 3.30396 14.7084 3.32286 12.9566 3.40279C11.2085 3.48259 10.0145 3.76019 8.96978 4.16623C7.88976 4.58595 6.97384 5.14754 6.06078 6.0606C5.14772 6.97366 4.58613 7.88958 4.1664 8.9696C3.76037 10.0143 3.48277 11.2082 3.40297 12.9563C3.32304 14.7081 3.3042 15.2675 3.3042 19.728C3.3042 24.1884 3.32304 24.7477 3.40297 26.4995C3.48277 28.2477 3.76037 29.4416 4.1664 30.4863C4.58613 31.5663 5.14772 32.4822 6.06078 33.3953C6.97384 34.3084 7.88976 34.87 8.96978 35.2897C10.0145 35.6957 11.2085 35.9733 12.9566 36.0531C14.7084 36.133 15.2677 36.1519 19.7282 36.1519C24.1887 36.1519 24.748 36.133 26.4998 36.0531C28.2479 35.9733 29.4418 35.6957 30.4865 35.2897C31.5665 34.87 32.4825 34.3084 33.3956 33.3953C34.3086 32.4822 34.8702 31.5663 35.29 30.4863C35.6959 29.4416 35.9736 28.2477 36.0533 26.4995C36.1333 24.7477 36.1522 24.1884 36.1522 19.728C36.1522 15.2675 36.1333 14.7081 36.0533 12.9563C35.9736 11.2082 35.6959 10.0143 35.29 8.9696C34.8702 7.88958 34.3086 6.97366 33.3956 6.0606C32.4825 5.14754 31.5665 4.58595 30.4865 4.16623C29.4418 3.76019 28.2479 3.48259 26.4998 3.40279C24.748 3.32286 24.1887 3.30396 19.7282 3.30396ZM19.7282 6.26329C24.1136 6.26329 24.633 6.27998 26.3649 6.359C27.9662 6.43208 28.8358 6.69964 29.4146 6.9245C30.1812 7.22244 30.7283 7.57841 31.303 8.1531C31.8778 8.7278 32.2337 9.27498 32.5316 10.0415C32.7565 10.6203 33.0241 11.4899 33.0971 13.0912C33.1761 14.8231 33.1929 15.3426 33.1929 19.728C33.1929 24.1133 33.1761 24.6328 33.0971 26.3646C33.0241 27.966 32.7565 28.8356 32.5316 29.4143C32.2337 30.181 31.8778 30.7281 31.303 31.3028C30.7283 31.8775 30.1812 32.2334 29.4146 32.5314C28.8358 32.7563 27.9662 33.0239 26.3649 33.0969C24.6333 33.1759 24.1139 33.1926 19.7282 33.1926C15.3425 33.1926 14.8231 33.1759 13.0915 33.0969C11.4902 33.0239 10.6205 32.7563 10.0418 32.5314C9.27516 32.2334 8.72804 31.8775 8.15328 31.3028C7.57858 30.7281 7.22262 30.181 6.92474 29.4143C6.69982 28.8356 6.43226 27.966 6.35918 26.3646C6.28016 24.6328 6.26347 24.1133 6.26347 19.728C6.26347 15.3426 6.28016 14.8231 6.35918 13.0912C6.43226 11.4899 6.69982 10.6203 6.92474 10.0415C7.22262 9.27498 7.57858 8.7278 8.15328 8.1531C8.72804 7.57841 9.27516 7.22244 10.0418 6.9245C10.6205 6.69964 11.4902 6.43208 13.0915 6.359C14.8233 6.27998 15.3428 6.26329 19.7282 6.26329Z" />
<path d="M19.7294 25.2006C16.7058 25.2006 14.2547 22.7495 14.2547 19.726C14.2547 16.7023 16.7058 14.2513 19.7294 14.2513C22.7529 14.2513 25.204 16.7023 25.204 19.726C25.204 22.7495 22.7529 25.2006 19.7294 25.2006ZM19.7294 11.292C15.0714 11.292 11.2954 15.068 11.2954 19.726C11.2954 24.3839 15.0714 28.1599 19.7294 28.1599C24.3873 28.1599 28.1633 24.3839 28.1633 19.726C28.1633 15.068 24.3873 11.292 19.7294 11.292Z" />
<path d="M30.4659 10.9606C30.4659 12.0491 29.5835 12.9314 28.495 12.9314C27.4066 12.9314 26.5242 12.0491 26.5242 10.9606C26.5242 9.8721 27.4066 8.98975 28.495 8.98975C29.5835 8.98975 30.4659 9.8721 30.4659 10.9606Z" />
</svg>
