<svg width="40" height="40" viewBox="0 0 40 40" xmlns="http://www.w3.org/2000/svg">
<path fill-rule="evenodd" clip-rule="evenodd" d="M3.00732 20.0034C3.00732 10.6169 10.6172 3.00708 20.0036 3.00708C29.3901 3.00708 36.9999 10.6169 36.9999 19.9964C36.9999 29.3828 29.3901 36.9927 20.0036 36.9927C16.8212 36.9927 13.8416 36.1184 11.2956 34.5936L3.59485 36.7269L5.78409 29.3129C4.0285 26.641 3.00732 23.4376 3.00732 20.0034ZM28.9847 24.1581C29.1876 24.249 29.3205 24.4449 29.3415 24.6687C29.3624 24.9275 29.3694 25.2352 29.3205 25.5919V25.6129C29.1806 26.5502 28.635 27.3825 27.8587 27.935C27.5649 28.1519 27.2012 28.3547 26.7675 28.5226C25.8233 28.8793 24.998 28.8723 24.5503 28.8303C23.4522 28.6974 21.8155 28.3757 20.011 27.5084C18.0596 26.5711 16.8286 25.445 15.8354 24.5288C14.9541 23.7244 13.6531 22.5074 12.4571 20.542C11.7506 19.3879 11.282 18.2968 10.9603 17.3805C10.6176 16.4013 10.5616 15.3382 10.8484 14.345C10.8589 14.31 10.8694 14.2768 10.8798 14.2436C10.8903 14.2103 10.9008 14.1771 10.9113 14.1422C11.1701 13.3588 11.5618 12.7643 11.8905 12.3656C12.1633 12.0299 12.597 11.6312 13.1915 11.5472C13.4013 11.5193 13.6881 11.5193 14.0098 11.5263C14.1217 11.5263 14.2266 11.5263 14.3246 11.5333C14.6113 11.5472 14.8841 11.6522 15.0939 11.841C15.0939 11.841 15.1499 11.89 15.1989 11.9389C15.4856 12.2327 16.227 14.1422 16.5977 15.1284C16.8146 15.7229 16.8565 16.3734 16.6607 16.9749C16.6607 16.9749 16.6537 16.9819 16.6537 16.9889C16.3389 17.9611 15.6325 18.4857 15.3737 18.6605C15.8913 19.6048 16.8146 21.0526 18.3883 22.4025C19.7032 23.5356 21.0042 24.207 21.9694 24.6057C22.1722 24.6897 22.4031 24.6337 22.5499 24.4658L24.4104 22.3675C24.5223 22.2346 24.7112 22.1997 24.8651 22.2696C25.5505 22.5844 26.2377 22.8991 26.9249 23.2138C27.6121 23.5286 28.2993 23.8433 28.9847 24.1581Z" />
</svg>
