<svg width="40" height="40" viewBox="0 0 40 40"  xmlns="http://www.w3.org/2000/svg">
<path fill-rule="evenodd" clip-rule="evenodd" d="M34.065 7.75241C35.6139 8.16634 36.8336 9.38606 37.2476 10.935C38 13.7425 38 19.6001 38 19.6001C38 19.6001 38 25.4577 37.2476 28.2648C36.8336 29.8138 35.6139 31.0338 34.065 31.4477C31.2572 32.1999 19.9999 32.1999 19.9999 32.1999C19.9999 32.1999 8.74248 32.1999 5.93469 31.4477C4.38605 31.0338 3.16606 29.8138 2.75206 28.2648C2 25.4577 2 19.6001 2 19.6001C2 19.6001 2 13.7425 2.75206 10.935C3.16606 9.38606 4.38605 8.16634 5.93469 7.75241C8.74248 7 19.9999 7 19.9999 7C19.9999 7 31.2572 7 34.065 7.75241ZM25.7493 19.5985L16.3965 24.9986V14.1985L25.7493 19.5985Z"/>
</svg>
