<svg width="40" height="40" viewBox="0 0 40 40" fill="none" xmlns="http://www.w3.org/2000/svg">
<path d="M14.5632 22.866H22.626" stroke="#FE0202" stroke-width="2" stroke-miterlimit="10" stroke-linecap="round"/>
<path d="M5.86011 22.866H11.9392" stroke="#FE0202" stroke-width="2" stroke-miterlimit="10" stroke-linecap="round"/>
<path d="M14.2424 21.1711V24.6325" stroke="#FE0202" stroke-width="2" stroke-miterlimit="10" stroke-linecap="round"/>
<path d="M17.9518 13.2693C17.9518 15.3169 16.2914 16.9786 14.2425 16.9786C12.1948 16.9786 10.5332 15.3169 10.5332 13.2693C10.5332 11.2216 12.1948 9.56 14.2425 9.56C16.2914 9.56 17.9518 11.2204 17.9518 13.2693Z" stroke="#FE0202" stroke-width="2" stroke-miterlimit="10"/>
<path d="M35.0001 6.11661H26.7903V33.209H35.0001V6.11661Z" stroke="#FE0202" stroke-width="2" stroke-miterlimit="10"/>
<path d="M12.6768 9.82339V6.02335H15.8083V9.82339" stroke="#FE0202" stroke-width="2" stroke-miterlimit="10" stroke-linejoin="round"/>
<path d="M26.9363 9.50641H29.6793" stroke="#FE0202" stroke-width="2" stroke-miterlimit="10" stroke-linejoin="round"/>
<path d="M26.936 12.8922H31.5004" stroke="#FE0202" stroke-width="2" stroke-miterlimit="10" stroke-linejoin="round"/>
<path d="M26.936 19.6628H31.5004" stroke="#FE0202" stroke-width="2" stroke-miterlimit="10" stroke-linejoin="round"/>
<path d="M26.936 16.2769H29.679" stroke="#FE0202" stroke-width="2" stroke-miterlimit="10" stroke-linejoin="round"/>
<path d="M26.936 23.0486H29.679" stroke="#FE0202" stroke-width="2" stroke-miterlimit="10" stroke-linejoin="round"/>
<path d="M26.936 29.8192H29.679" stroke="#FE0202" stroke-width="2" stroke-miterlimit="10" stroke-linejoin="round"/>
<path d="M26.936 26.4333H31.5004" stroke="#FE0202" stroke-width="2" stroke-miterlimit="10" stroke-linejoin="round"/>
<path d="M19.9595 25.297L23.2802 33.3738" stroke="#FE0202" stroke-width="2" stroke-miterlimit="10" stroke-linecap="round"/>
<path d="M16.3179 16.4341L18.933 22.8059" stroke="#FE0202" stroke-width="2" stroke-miterlimit="10" stroke-linecap="round"/>
<path d="M8.52507 25.297L5.20435 33.3739" stroke="#FE0202" stroke-width="2" stroke-miterlimit="10" stroke-linecap="round"/>
<path d="M12.1665 16.4341L9.55005 22.8059" stroke="#FE0202" stroke-width="2" stroke-miterlimit="10" stroke-linecap="round"/>
</svg>
