<svg width="40" height="40" viewBox="0 0 40 40" fill="none" xmlns="http://www.w3.org/2000/svg">
<path d="M24.4368 20.1226H32.1466" stroke="white" stroke-width="2" stroke-miterlimit="10" stroke-linecap="round"/>
<path d="M16.113 20.1226H21.4919" stroke="white" stroke-width="2" stroke-miterlimit="10" stroke-linecap="round"/>
<path d="M24.1301 18.501V21.8144" stroke="white" stroke-width="2" stroke-miterlimit="10" stroke-linecap="round"/>
<path d="M24.13 14.4883C26.0892 14.4883 27.6774 12.8983 27.6774 10.937C27.6774 8.97569 26.0892 7.38574 24.13 7.38574C22.1708 7.38574 20.5825 8.97569 20.5825 10.937C20.5825 12.8983 22.1708 14.4883 24.13 14.4883Z" stroke="white" stroke-width="2" stroke-miterlimit="10"/>
<path d="M22.6323 7.63824V4H25.6272V7.63824" stroke="white" stroke-width="2" stroke-miterlimit="10" stroke-linejoin="round"/>
<path d="M29.7056 22.6682L32.7724 30.1825" stroke="white" stroke-width="2" stroke-miterlimit="10" stroke-linecap="round"/>
<path d="M26.1145 13.9663L28.6166 20.0658" stroke="white" stroke-width="2" stroke-miterlimit="10" stroke-linecap="round"/>
<path d="M18.5539 22.6687L15.4871 30.183" stroke="white" stroke-width="2" stroke-miterlimit="10" stroke-linecap="round"/>
<path d="M22.1449 13.9663L19.6428 20.0658" stroke="white" stroke-width="2" stroke-miterlimit="10" stroke-linecap="round"/>
<path d="M17.7288 11.0005H13.2935" stroke="white" stroke-width="2" stroke-miterlimit="10" stroke-linecap="round" stroke-linejoin="round"/>
<path d="M5.48035 29.8565C6.49856 28.1047 8.36935 26.9019 10.5293 26.9019V6.06055H8.86623C5.64055 6.06055 3 8.7053 3 11.9345V30.0876C3 33.3181 5.64055 35.9601 8.86623 35.9601H37V11.0008H30.5921" stroke="white" stroke-width="2" stroke-miterlimit="10" stroke-linecap="round" stroke-linejoin="round"/>
</svg>
