<svg width="40" height="40" viewBox="0 0 40 40" fill="none" xmlns="http://www.w3.org/2000/svg">
<path d="M9.31958 14.8245V16.8743" stroke="white" stroke-width="2" stroke-miterlimit="10" stroke-linejoin="round"/>
<path d="M10.2458 28.8549H7.30371V23.781H28.2454" stroke="white" stroke-width="2" stroke-miterlimit="10" stroke-linejoin="round"/>
<path d="M28.2693 28.8547H17.4753" stroke="white" stroke-width="2" stroke-miterlimit="10" stroke-linejoin="round"/>
<path d="M28.2454 26.6412V15.7122H33.2662C35.1327 17.8632 35.9526 21.0609 35.9526 21.0609L38.0892 21.8085C38.0892 21.8085 38.75 22.0352 38.75 22.9516C38.75 23.622 38.75 26.1541 38.75 27.8325C38.75 28.9418 37.93 28.855 37.93 28.855H35.4799" stroke="white" stroke-width="2" stroke-miterlimit="10" stroke-linejoin="round"/>
<path d="M31.7565 18.1477C31.7565 18.1477 32.8658 20.2071 33.0877 21.437H31.0042" stroke="white" stroke-width="2" stroke-miterlimit="10" stroke-linecap="round" stroke-linejoin="round"/>
<path d="M35.4077 29.1682C35.4077 30.5283 34.3032 31.6328 32.9431 31.6328C31.583 31.6328 30.4785 30.5283 30.4785 29.1682C30.4785 27.8081 31.583 26.7036 32.9431 26.7036C34.308 26.7084 35.4077 27.8081 35.4077 29.1682Z" stroke="white" stroke-width="2" stroke-miterlimit="10" stroke-linejoin="round"/>
<path d="M15.3244 29.1682C15.3244 30.5283 14.2199 31.6328 12.8598 31.6328C11.4997 31.6328 10.3953 30.5283 10.3953 29.1682C10.3953 27.8081 11.4997 26.7036 12.8598 26.7036C14.2248 26.7084 15.3244 27.8081 15.3244 29.1682Z" stroke="white" stroke-width="2" stroke-miterlimit="10" stroke-linejoin="round"/>
<path d="M11.8906 18.635H4.96948" stroke="white" stroke-width="2" stroke-miterlimit="10" stroke-linecap="round" stroke-linejoin="round"/>
<path d="M5.87621 21.2007H1.97437" stroke="white" stroke-width="2" stroke-miterlimit="10" stroke-linecap="round" stroke-linejoin="round"/>
<path d="M6.59956 10.9951H1" stroke="white" stroke-width="2" stroke-miterlimit="10" stroke-linecap="round" stroke-linejoin="round"/>
<path d="M9.3197 14.8149H4.24585" stroke="white" stroke-width="2" stroke-miterlimit="10" stroke-linecap="round" stroke-linejoin="round"/>
<path d="M9.15088 18.6782V23.5688" stroke="white" stroke-width="2" stroke-miterlimit="10"/>
<path d="M25.4964 23.5688V8H9.15112V12.7266" stroke="white" stroke-width="2" stroke-miterlimit="10"/>
<path d="M19.0285 8.07715V11.979H15.6187V8.07715" stroke="white" stroke-width="2" stroke-miterlimit="10"/>
</svg>
