<svg width="20" height="20" viewBox="0 0 20 20" xmlns="http://www.w3.org/2000/svg">
<path d="M19.606 1.54822C19.3286 1.18274 18.9587 1 18.4962 1C18.3113 1 18.0338 1.09137 17.8489 1.09137L1.29474 7.85279C0.184962 8.30964 0 8.94924 0 9.40609C0 9.6802 0.184962 10.3198 1.10977 10.6853L5.36391 12.0558C5.45639 12.0558 5.54887 12.0558 5.54887 12.0558C5.64135 12.0558 5.82632 12.0558 5.9188 11.9645L11.3752 8.30964L7.3985 12.0558C7.30602 12.1472 7.21354 12.3299 7.21354 12.5127L6.93609 17.0812C6.93609 17.264 7.02857 17.4467 7.12105 17.6294C7.21353 17.8122 7.3985 17.9036 7.67594 17.9036C8.41579 17.9036 8.78572 17.5381 9.06316 17.264L10.7278 15.6193L14.5196 18.5431C14.5196 18.5431 14.612 18.5431 14.612 18.6345C14.982 18.8173 15.3519 19 15.6293 19C15.9993 19 16.8316 18.8173 17.2015 17.4467L19.9759 3.46701C20.0684 2.46193 19.8835 1.82234 19.606 1.54822ZM15.7218 17.0812C15.6293 17.4467 15.5368 17.4467 15.5368 17.4467C15.5368 17.4467 15.4444 17.4467 15.1669 17.3553L10.9128 14.066C10.8203 13.9746 10.6353 13.8832 10.4504 13.8832C10.2654 13.8832 10.0805 13.9746 9.98797 14.066L8.32331 15.7107L8.69323 12.8782L16.3692 5.56853C16.8316 5.11167 16.7391 4.65482 16.6466 4.56345C16.5541 4.19797 16.1842 4.01523 15.8143 4.01523C15.5368 4.01523 15.2594 4.1066 14.982 4.28934L5.45639 10.5939L1.57218 9.31472C1.66466 9.22335 1.75714 9.22335 1.84962 9.22335L18.3113 2.5533C18.4038 2.5533 18.4038 2.5533 18.4962 2.5533C18.5887 2.5533 18.5887 2.5533 18.5887 2.5533C18.5887 2.64467 18.6812 2.82741 18.5887 3.19289L15.7218 17.0812Z" />
</svg>
