<svg width="23" height="21" viewBox="0 0 23 21" xmlns="http://www.w3.org/2000/svg">
<path d="M16.5135 19.7757L16.5135 19.7756C16.4936 19.7637 16.4744 19.7505 16.4562 19.7361L16.4561 19.736L12.2113 16.3889L10.3225 18.3329C10.3223 18.3331 10.322 18.3333 10.3218 18.3336C10.0593 18.6144 9.70918 18.9873 9.00531 18.9873C8.85021 18.9873 8.70372 18.9183 8.60034 18.7995M16.5135 19.7757L8.67578 18.7338M16.5135 19.7757C16.8668 19.9876 17.2086 20.1 17.5282 20.1C17.742 20.1 18.0411 20.0485 18.3228 19.8238C18.6047 19.599 18.8577 19.2098 18.9961 18.5566L18.9961 18.5566L18.9966 18.5538L18.9976 18.5492L18.9977 18.5487L22.0306 3.2442L16.5135 19.7757ZM8.60034 18.7995L8.67578 18.7338M8.60034 18.7995C8.60036 18.7995 8.60038 18.7995 8.60039 18.7995L8.67578 18.7338M8.60034 18.7995C8.49718 18.6811 8.44571 18.5235 8.45617 18.3647L8.55595 18.3713C8.54717 18.5047 8.59055 18.636 8.67578 18.7338M2.0104 11.053C1.55251 10.9 1.27557 10.6836 1.1124 10.459C0.949428 10.2347 0.905834 10.0104 0.900605 9.85131C0.893588 9.63784 0.946194 9.38079 1.13832 9.12093C1.32943 8.86243 1.65397 8.60733 2.18029 8.38704L2.18079 8.38684L20.0131 1.03582L20.014 1.03546L20.014 1.03546C20.2377 0.945721 20.4587 0.9 20.6745 0.9C21.1116 0.9 21.4976 1.08913 21.7573 1.43257C21.9929 1.74411 22.2176 2.30687 22.0306 3.24407L2.0104 11.053ZM2.0104 11.053L2.01033 11.053L2.04208 10.9581L2.0104 11.053ZM9.62151 17.4298L11.7799 15.2084C11.9732 15.0094 12.2755 14.9874 12.4931 15.1589L12.4931 15.1589L17.0854 18.7799C17.3154 18.9131 17.4577 18.9359 17.5282 18.9359H17.5303C17.5625 18.936 17.615 18.936 17.6794 18.8747C17.7514 18.8062 17.8471 18.6519 17.9209 18.3058C17.9209 18.3055 17.921 18.3053 17.9211 18.305L20.9532 3.00453L20.9532 3.0044C20.9934 2.803 21.0061 2.62437 20.9944 2.47816L9.62151 17.4298ZM9.62151 17.4298L9.87123 13.6416L18.2713 5.5197C18.2714 5.51966 18.2714 5.51961 18.2715 5.51956C18.468 5.33202 18.5532 5.14189 18.5798 4.97584C18.6061 4.81143 18.5739 4.67795 18.5472 4.60289L9.62151 17.4298ZM15.3333 6.92181L15.7447 6.52406L15.2701 6.8438L14.8588 7.24155L15.3333 6.92181ZM7.03107 12.5156L6.97518 12.4327L7.03106 12.5156C7.03106 12.5156 7.03106 12.5156 7.03107 12.5156ZM20.6745 2.06407C20.7825 2.06407 20.8519 2.0996 20.8973 2.15954L18.5472 4.60286C18.44 4.30169 18.1555 4.1211 17.8194 4.1211C17.558 4.1211 17.2759 4.22429 17.0223 4.40359C17.0219 4.40381 17.0216 4.40403 17.0213 4.40426L6.65615 11.3878L2.3426 9.94322L2.34254 9.9432C2.1876 9.89142 2.09365 9.83726 2.04105 9.79866C2.0627 9.77617 2.09313 9.74836 2.13491 9.7165C2.22692 9.64633 2.36968 9.55982 2.58324 9.47041C2.58334 9.47037 2.58343 9.47033 2.58353 9.47029L20.4086 2.12225C20.4087 2.12219 20.4089 2.12213 20.409 2.12207C20.508 2.08244 20.5971 2.06407 20.6745 2.06407Z" />
</svg>
