<svg width="2557" height="204" viewBox="0 0 2557 204" fill="none" xmlns="http://www.w3.org/2000/svg">
<path d="M2.18846 26.9538C3.07312 11.8478 15.6177 0.694021 31.6903 1.63529C40.8006 2.16881 47.0797 5.36005 52.2831 10.4202L43.2453 20.0704C39.7241 16.7434 36.1248 14.7494 31.0142 14.4501C23.5334 14.012 17.3875 19.9678 16.9148 28.0392C16.4248 36.4067 21.9249 42.7473 30.1463 43.2288C33.6275 43.4327 36.3373 42.8483 38.5676 41.5672L38.9362 35.273L28.7149 34.6744L29.3307 24.1595L53.1804 25.5562L51.8144 48.8816C46.0689 53.0776 38.2361 56.1111 28.8296 55.5603C12.6829 54.6147 1.26044 42.8003 2.18846 26.9538ZM62.4416 4.47643L86.9579 5.91218C94.883 6.37631 100.243 8.77066 103.52 12.4548C106.379 15.6687 107.7 19.7584 107.392 25.0159C106.928 32.9391 102.399 37.9494 95.7942 40.3118L107.105 59.1041L90.5142 58.1325L80.9901 41.8225L74.6944 41.4538L73.775 57.1522L59.406 56.3107L62.4416 4.47643ZM84.8342 30.7536C89.7226 31.0399 92.6759 28.8351 92.9058 24.9105C93.1443 20.8378 90.303 18.591 85.4886 18.309L76.0821 17.7581L75.3536 30.1984L84.8342 30.7536ZM136.605 8.44815L150.455 9.25928L169.47 62.7564L154.064 61.8542L150.829 52.3768L130.83 51.2057L126.585 60.2449L111.475 59.36L136.605 8.44815ZM147.336 40.9525L142.421 25.8785L135.707 40.2715L147.336 40.9525ZM177.542 11.2171L199.762 12.5184C212.872 13.2862 220.921 20.5191 220.24 32.1448C219.525 44.3629 209.741 50.2542 196.853 49.4995L189.743 49.0831L188.876 63.8929L174.507 63.0514L177.542 11.2171ZM197.216 38.2267C202.327 38.526 205.594 36.0424 205.841 31.8216C206.101 27.3787 203.129 24.8269 197.944 24.5233L191.204 24.1286L190.402 37.8276L197.216 38.2267ZM227.389 14.1363L249.61 15.4376C262.719 16.2054 270.768 23.4383 270.088 35.064C269.372 47.2821 259.588 53.1735 246.701 52.4187L239.59 52.0023L238.723 66.8121L224.354 65.9706L227.389 14.1363ZM247.063 41.1459C252.174 41.4452 255.441 38.9616 255.688 34.7408C255.948 30.2979 252.976 27.7462 247.792 27.4425L241.052 27.0478L240.249 40.7469L247.063 41.1459ZM277.233 17.0553L318.711 19.4844L317.973 32.0727L290.865 30.4852L290.349 39.297L314.865 40.7327L314.167 52.6546L289.651 51.2189L288.566 69.7311L274.197 68.8896L277.233 17.0553ZM325.525 19.8835L339.968 20.7293L336.932 72.5636L322.489 71.7177L325.525 19.8835ZM361.38 34.6148L345.826 33.7039L346.564 21.1156L392.041 23.7789L391.304 36.3672L375.75 35.4563L373.451 74.7022L359.082 73.8607L361.38 34.6148Z" fill="#F0F0F0"/>
<path d="M435.446 52.3269C436.331 37.2209 448.875 26.0671 464.948 27.0083C474.058 27.5419 480.337 30.7331 485.541 35.7932L476.503 45.4434C472.982 42.1165 469.382 40.1224 464.272 39.8231C456.791 39.385 450.645 45.3409 450.173 53.4122C449.682 61.7797 455.183 68.1204 463.404 68.6018C466.885 68.8057 469.595 68.2214 471.825 66.9402L472.194 60.6461L461.973 60.0475L462.588 49.5325L486.438 50.9293L485.072 74.2547C479.327 78.4507 471.494 81.4842 462.087 80.9333C445.941 79.9877 434.518 68.1733 435.446 52.3269ZM495.699 29.8495L520.216 31.2852C528.141 31.7494 533.5 34.1437 536.778 37.8279C539.637 41.0417 540.958 45.1315 540.65 50.3889C540.186 58.3122 535.656 63.3224 529.052 65.6848L540.363 84.4772L523.772 83.5055L514.248 67.1956L507.952 66.8269L507.033 82.5252L492.664 81.6837L495.699 29.8495ZM518.092 56.1266C522.98 56.4129 525.934 54.2082 526.163 50.2836C526.402 46.2109 523.561 43.964 518.746 43.6821L509.34 43.1312L508.611 55.5714L518.092 56.1266ZM569.862 33.8212L583.713 34.6323L602.728 88.1295L587.322 87.2272L584.086 77.7499L564.088 76.5787L559.843 85.618L544.733 84.7331L569.862 33.8212ZM580.593 66.3256L575.679 51.2515L568.965 65.6446L580.593 66.3256ZM610.8 36.5901L633.02 37.8914C646.13 38.6592 654.179 45.8921 653.498 57.5178C652.783 69.7359 642.999 75.6273 630.111 74.8725L623.001 74.4561L622.133 89.2659L607.764 88.4244L610.8 36.5901ZM630.474 63.5997C635.585 63.899 638.851 61.4155 639.099 57.1947C639.359 52.7517 636.387 50.2 631.202 49.8964L624.462 49.5016L623.66 63.2007L630.474 63.5997ZM660.647 39.5094L682.867 40.8107C695.977 41.5784 704.026 48.8114 703.345 60.4371C702.63 72.6551 692.846 78.5465 679.958 77.7918L672.848 77.3753L671.981 92.1851L657.611 91.3436L660.647 39.5094ZM680.321 66.519C685.432 66.8183 688.699 64.3347 688.946 60.1139C689.206 55.671 686.234 53.1192 681.049 52.8156L674.309 52.4209L673.507 66.1199L680.321 66.519ZM710.491 42.4284L751.968 44.8575L751.231 57.4458L724.122 55.8582L723.606 64.67L748.123 66.1058L747.424 78.0277L722.908 76.5919L721.824 95.1041L707.455 94.2626L710.491 42.4284ZM758.782 45.2565L773.226 46.1024L770.19 97.9366L755.747 97.0908L758.782 45.2565ZM794.638 59.9878L779.084 59.0769L779.821 46.4886L825.299 49.1519L824.561 61.7402L809.007 60.8293L806.709 100.075L792.34 99.2338L794.638 59.9878Z" fill="#F0F0F0"/>
<path d="M868.704 77.6999C869.588 62.5939 882.133 51.4401 898.206 52.3814C907.316 52.9149 913.595 56.1061 918.798 61.1663L909.761 70.8165C906.239 67.4895 902.64 65.4955 897.529 65.1962C890.049 64.7581 883.903 70.7139 883.43 78.7852C882.94 87.1528 888.44 93.4934 896.662 93.9749C900.143 94.1788 902.853 93.5944 905.083 92.3133L905.451 86.0191L895.23 85.4205L895.846 74.9056L919.696 76.3023L918.33 99.6277C912.584 103.824 904.751 106.857 895.345 106.306C879.198 105.361 867.776 93.5464 868.704 77.6999ZM928.957 55.2225L953.473 56.6583C961.398 57.1224 966.758 59.5168 970.035 63.2009C972.894 66.4148 974.215 70.5045 973.908 75.762C973.443 83.6852 968.914 88.6954 962.309 91.0579L973.621 109.85L957.03 108.879L947.505 92.5686L941.21 92.1999L940.29 107.898L925.921 107.057L928.957 55.2225ZM951.349 81.4997C956.238 81.786 959.191 79.5812 959.421 75.6566C959.66 71.5839 956.818 69.3371 952.004 69.0551L942.597 68.5042L941.869 80.9445L951.349 81.4997ZM1003.12 59.1942L1016.97 60.0054L1035.99 113.503L1020.58 112.6L1017.34 103.123L997.346 101.952L993.1 110.991L977.991 110.106L1003.12 59.1942ZM1013.85 91.6986L1008.94 76.6246L1002.22 91.0176L1013.85 91.6986ZM1044.06 61.9632L1066.28 63.2645C1079.39 64.0322 1087.44 71.2652 1086.76 82.8909C1086.04 95.1089 1076.26 101 1063.37 100.246L1056.26 99.8292L1055.39 114.639L1041.02 113.797L1044.06 61.9632ZM1063.73 88.9728C1068.84 89.2721 1072.11 86.7885 1072.36 82.5677C1072.62 78.1248 1069.64 75.573 1064.46 75.2694L1057.72 74.8747L1056.92 88.5737L1063.73 88.9728ZM1093.9 64.8824L1116.12 66.1837C1129.23 66.9515 1137.28 74.1844 1136.6 85.8101C1135.89 98.0282 1126.1 103.92 1113.22 103.165L1106.11 102.748L1105.24 117.558L1090.87 116.717L1093.9 64.8824ZM1113.58 91.892C1118.69 92.1913 1121.96 89.7077 1122.2 85.4869C1122.46 81.044 1119.49 78.4923 1114.31 78.1886L1107.57 77.7939L1106.76 91.493L1113.58 91.892ZM1143.75 67.8014L1185.23 70.2305L1184.49 82.8188L1157.38 81.2312L1156.86 90.0431L1181.38 91.4788L1180.68 103.401L1156.17 101.965L1155.08 120.477L1140.71 119.636L1143.75 67.8014ZM1192.04 70.6296L1206.48 71.4754L1203.45 123.31L1189 122.464L1192.04 70.6296ZM1227.9 85.3609L1212.34 84.45L1213.08 71.8617L1258.56 74.525L1257.82 87.1133L1242.26 86.2024L1239.97 125.448L1225.6 124.607L1227.9 85.3609Z" fill="#F0F0F0"/>
<path d="M1301.96 103.073C1302.85 87.9669 1315.39 76.8131 1331.46 77.7544C1340.57 78.2879 1346.85 81.4791 1352.06 86.5392L1343.02 96.1895C1339.5 92.8625 1335.9 90.8685 1330.79 90.5692C1323.31 90.1311 1317.16 96.0869 1316.69 104.158C1316.2 112.526 1321.7 118.866 1329.92 119.348C1333.4 119.552 1336.11 118.967 1338.34 117.686L1338.71 111.392L1328.49 110.794L1329.1 100.279L1352.95 101.675L1351.59 125.001C1345.84 129.197 1338.01 132.23 1328.6 131.679C1312.46 130.734 1301.03 118.919 1301.96 103.073ZM1362.21 80.5955L1386.73 82.0313C1394.66 82.4954 1400.02 84.8897 1403.29 88.5739C1406.15 91.7878 1407.47 95.8775 1407.17 101.135C1406.7 109.058 1402.17 114.068 1395.57 116.431L1406.88 135.223L1390.29 134.252L1380.76 117.942L1374.47 117.573L1373.55 133.271L1359.18 132.43L1362.21 80.5955ZM1384.61 106.873C1389.5 107.159 1392.45 104.954 1392.68 101.03C1392.92 96.9569 1390.08 94.7101 1385.26 94.4281L1375.86 93.8772L1375.13 106.317L1384.61 106.873ZM1436.38 84.5672L1450.23 85.3784L1469.24 138.875L1453.84 137.973L1450.6 128.496L1430.6 127.325L1426.36 136.364L1411.25 135.479L1436.38 84.5672ZM1447.11 117.072L1442.19 101.998L1435.48 116.391L1447.11 117.072ZM1477.32 87.3362L1499.54 88.6375C1512.65 89.4052 1520.69 96.6382 1520.01 108.264C1519.3 120.482 1509.51 126.373 1496.63 125.619L1489.52 125.202L1488.65 140.012L1474.28 139.17L1477.32 87.3362ZM1496.99 114.346C1502.1 114.645 1505.37 112.161 1505.61 107.941C1505.87 103.498 1502.9 100.946 1497.72 100.642L1490.98 100.248L1490.18 113.947L1496.99 114.346ZM1527.16 90.2554L1549.38 91.5567C1562.49 92.3245 1570.54 99.5574 1569.86 111.183C1569.15 123.401 1559.36 129.293 1546.47 128.538L1539.36 128.121L1538.5 142.931L1524.13 142.09L1527.16 90.2554ZM1546.84 117.265C1551.95 117.564 1555.21 115.081 1555.46 110.86C1555.72 106.417 1552.75 103.865 1547.56 103.562L1540.82 103.167L1540.02 116.866L1546.84 117.265ZM1577.01 93.1744L1618.48 95.6035L1617.75 108.192L1590.64 106.604L1590.12 115.416L1614.64 116.852L1613.94 128.774L1589.42 127.338L1588.34 145.85L1573.97 145.009L1577.01 93.1744ZM1625.3 96.0025L1639.74 96.8484L1636.71 148.683L1622.26 147.837L1625.3 96.0025ZM1661.15 110.734L1645.6 109.823L1646.34 97.2347L1691.81 99.898L1691.08 112.486L1675.52 111.575L1673.22 150.821L1658.86 149.98L1661.15 110.734Z" fill="#F0F0F0"/>
<path d="M1735.22 128.446C1736.1 113.34 1748.65 102.186 1764.72 103.127C1773.83 103.661 1780.11 106.852 1785.31 111.912L1776.28 121.563C1772.75 118.236 1769.16 116.242 1764.04 115.942C1756.56 115.504 1750.42 121.46 1749.95 129.531C1749.46 137.899 1754.96 144.239 1763.18 144.721C1766.66 144.925 1769.37 144.34 1771.6 143.059L1771.97 136.765L1761.75 136.167L1762.36 125.652L1786.21 127.048L1784.85 150.374C1779.1 154.57 1771.27 157.603 1761.86 157.052C1745.71 156.107 1734.29 144.292 1735.22 128.446ZM1795.47 105.969L1819.99 107.404C1827.91 107.868 1833.27 110.263 1836.55 113.947C1839.41 117.161 1840.73 121.251 1840.42 126.508C1839.96 134.431 1835.43 139.441 1828.82 141.804L1840.14 160.596L1823.54 159.625L1814.02 143.315L1807.73 142.946L1806.81 158.644L1792.44 157.803L1795.47 105.969ZM1817.86 132.246C1822.75 132.532 1825.71 130.327 1825.94 126.403C1826.17 122.33 1823.33 120.083 1818.52 119.801L1809.11 119.25L1808.38 131.69L1817.86 132.246ZM1869.64 109.94L1883.49 110.751L1902.5 164.249L1887.09 163.346L1883.86 153.869L1863.86 152.698L1859.62 161.737L1844.51 160.852L1869.64 109.94ZM1880.37 142.445L1875.45 127.371L1868.74 141.764L1880.37 142.445ZM1910.57 112.709L1932.79 114.011C1945.9 114.778 1953.95 122.011 1953.27 133.637C1952.56 145.855 1942.77 151.746 1929.88 150.992L1922.77 150.575L1921.91 165.385L1907.54 164.543L1910.57 112.709ZM1930.25 139.719C1935.36 140.018 1938.62 137.535 1938.87 133.314C1939.13 128.871 1936.16 126.319 1930.98 126.015L1924.23 125.621L1923.43 139.32L1930.25 139.719ZM1960.42 115.628L1982.64 116.93C1995.75 117.698 2003.8 124.93 2003.12 136.556C2002.4 148.774 1992.62 154.666 1979.73 153.911L1972.62 153.494L1971.75 168.304L1957.38 167.463L1960.42 115.628ZM1980.09 142.638C1985.2 142.937 1988.47 140.454 1988.72 136.233C1988.98 131.79 1986.01 129.238 1980.82 128.935L1974.08 128.54L1973.28 142.239L1980.09 142.638ZM2010.26 118.547L2051.74 120.977L2051 133.565L2023.9 131.977L2023.38 140.789L2047.9 142.225L2047.2 154.147L2022.68 152.711L2021.6 171.223L2007.23 170.382L2010.26 118.547ZM2058.56 121.376L2073 122.221L2069.96 174.056L2055.52 173.21L2058.56 121.376ZM2094.41 136.107L2078.86 135.196L2079.59 122.608L2125.07 125.271L2124.33 137.859L2108.78 136.948L2106.48 176.194L2092.11 175.353L2094.41 136.107Z" fill="#F0F0F0"/>
<path d="M2168.48 153.819C2169.36 138.713 2181.91 127.559 2197.98 128.5C2207.09 129.034 2213.37 132.225 2218.57 137.285L2209.53 146.936C2206.01 143.609 2202.41 141.615 2197.3 141.315C2189.82 140.877 2183.68 146.833 2183.2 154.904C2182.71 163.272 2188.21 169.612 2196.43 170.094C2199.92 170.298 2202.63 169.714 2204.86 168.432L2205.22 162.138L2195 161.54L2195.62 151.025L2219.47 152.421L2218.1 175.747C2212.36 179.943 2204.52 182.976 2195.12 182.425C2178.97 181.48 2167.55 169.665 2168.48 153.819ZM2228.73 131.342L2253.25 132.777C2261.17 133.241 2266.53 135.636 2269.81 139.32C2272.67 142.534 2273.99 146.624 2273.68 151.881C2273.22 159.804 2268.69 164.815 2262.08 167.177L2273.39 185.969L2256.8 184.998L2247.28 168.688L2240.98 168.319L2240.06 184.017L2225.69 183.176L2228.73 131.342ZM2251.12 157.619C2256.01 157.905 2258.96 155.7 2259.19 151.776C2259.43 147.703 2256.59 145.456 2251.78 145.174L2242.37 144.623L2241.64 157.064L2251.12 157.619ZM2302.89 135.313L2316.74 136.124L2335.76 189.622L2320.35 188.719L2317.12 179.242L2297.12 178.071L2292.87 187.11L2277.76 186.225L2302.89 135.313ZM2313.62 167.818L2308.71 152.744L2302 167.137L2313.62 167.818ZM2343.83 138.082L2366.05 139.384C2379.16 140.151 2387.21 147.384 2386.53 159.01C2385.81 171.228 2376.03 177.119 2363.14 176.365L2356.03 175.948L2355.16 190.758L2340.79 189.917L2343.83 138.082ZM2363.5 165.092C2368.62 165.391 2371.88 162.908 2372.13 158.687C2372.39 154.244 2369.42 151.692 2364.23 151.388L2357.49 150.994L2356.69 164.693L2363.5 165.092ZM2393.68 141.001L2415.9 142.303C2429.01 143.071 2437.06 150.303 2436.38 161.929C2435.66 174.147 2425.88 180.039 2412.99 179.284L2405.88 178.867L2405.01 193.677L2390.64 192.836L2393.68 141.001ZM2413.35 168.011C2418.46 168.31 2421.73 165.827 2421.98 161.606C2422.24 157.163 2419.26 154.611 2414.08 154.308L2407.34 153.913L2406.54 167.612L2413.35 168.011ZM2443.52 143.921L2485 146.35L2484.26 158.938L2457.15 157.35L2456.64 166.162L2481.15 167.598L2480.45 179.52L2455.94 178.084L2454.85 196.596L2440.49 195.755L2443.52 143.921ZM2491.81 146.749L2506.26 147.594L2503.22 199.429L2488.78 198.583L2491.81 146.749ZM2527.67 161.48L2512.11 160.569L2512.85 147.981L2558.33 150.644L2557.59 163.232L2542.04 162.321L2539.74 201.567L2525.37 200.726L2527.67 161.48Z" fill="#F0F0F0"/>
</svg>
