<svg width="20" height="20" viewBox="0 0 20 20" fill="none" xmlns="http://www.w3.org/2000/svg">
<path d="M15.6057 10.9915L18.3472 6.58224C18.3692 6.54724 18.3814 6.507 18.3825 6.46569C18.3837 6.42439 18.3737 6.38354 18.3537 6.34739C18.3337 6.31124 18.3043 6.28112 18.2687 6.26016C18.2331 6.2392 18.1925 6.22817 18.1512 6.22822H15.1142C14.9783 6.22818 14.8446 6.26283 14.7258 6.32887C14.6071 6.39492 14.5071 6.49018 14.4354 6.60565L12.1298 10.3127H11.7085V6.1697C11.7085 6.12469 11.6906 6.08153 11.6588 6.0497C11.627 6.01788 11.5838 6 11.5388 6H7.84934C7.82734 6.00048 7.80586 6.00672 7.78703 6.01809C7.7682 6.02947 7.75269 6.04558 7.74203 6.06483C7.73137 6.08407 7.72594 6.10577 7.72629 6.12777C7.72664 6.14976 7.73275 6.17128 7.74401 6.19018L8.34965 7.18204V10.4005C7.29343 10.3507 5.91828 7.80232 5.21316 6.30429C5.20008 6.27586 5.179 6.25187 5.1525 6.23524C5.126 6.21861 5.09522 6.21007 5.06394 6.21066H2.17029C2.14317 6.21057 2.11644 6.21697 2.09231 6.22933C2.06818 6.2417 2.04737 6.25966 2.03161 6.28172C2.01585 6.30378 2.00561 6.3293 2.00174 6.35613C1.99787 6.38296 2.00048 6.41033 2.00936 6.43595C3.00415 9.18624 5.23071 12.8406 7.55675 14.5522C7.96919 14.8482 8.46524 15.005 8.97286 14.9999H11.7144V13.0337L12.1415 12.668L14.3476 14.8887C14.3802 14.9214 14.419 14.9473 14.4617 14.9649C14.5044 14.9825 14.5501 14.9914 14.5963 14.9911H17.4549C17.6301 14.9896 17.801 14.9366 17.9464 14.8389C18.0919 14.7411 18.2054 14.6029 18.273 14.4412C18.3406 14.2795 18.3593 14.1016 18.3267 13.9294C18.2941 13.7572 18.2117 13.5984 18.0898 13.4726L15.6057 10.9915Z" stroke="white" stroke-miterlimit="10"/>
</svg>
