<svg width="20" height="20" viewBox="0 0 20 20" xmlns="http://www.w3.org/2000/svg">
<path fill-rule="evenodd" clip-rule="evenodd" d="M16.293 2.78486C14.5001 0.989947 12.1159 0.00104075 9.57564 0C4.34163 0 0.0816796 4.2596 0.0796366 9.49523C0.0789042 11.1689 0.516174 12.8025 1.34719 14.2426L0 19.1633L5.03396 17.8428C6.42093 18.5993 7.98256 18.9981 9.57186 18.9986H9.57572C9.57603 18.9986 9.57549 18.9986 9.5758 18.9986C14.8093 18.9986 19.0695 14.7386 19.0717 9.50283C19.0726 6.96548 18.0858 4.57969 16.293 2.78486ZM9.57568 17.3949H9.57248C8.15629 17.3943 6.76719 17.0138 5.55537 16.2947L5.2672 16.1237L2.27998 16.9073L3.07735 13.9948L2.88966 13.6961C2.09962 12.4395 1.68235 10.9871 1.68297 9.49577C1.68467 5.14412 5.22538 1.6038 9.57888 1.6038C11.687 1.60445 13.6687 2.42653 15.1588 3.91839C16.649 5.41025 17.4692 7.39326 17.4683 9.50217C17.4665 13.8542 13.9259 17.3949 9.57568 17.3949Z" />
<path fill-rule="evenodd" clip-rule="evenodd" d="M13.9049 11.4835C13.6676 11.3647 12.5011 10.7908 12.2836 10.7116C12.0661 10.6324 11.9079 10.5928 11.7498 10.8303C11.5916 11.0678 11.1369 11.6023 10.9985 11.7607C10.8601 11.919 10.7216 11.9389 10.4844 11.82C10.2472 11.7012 9.48263 11.4507 8.57637 10.6424C7.87097 10.0132 7.3948 9.23625 7.25635 8.99865C7.11796 8.76116 7.24162 8.63277 7.36042 8.51443C7.46716 8.40808 7.59771 8.23732 7.71636 8.09875C7.83497 7.96025 7.87451 7.86118 7.95361 7.70295C8.03271 7.54457 7.9932 7.40599 7.93384 7.28727C7.87451 7.16851 7.40001 6.00063 7.2023 5.52547C7.00965 5.06288 6.81407 5.12555 6.6684 5.11819C6.53021 5.11129 6.37182 5.10986 6.21367 5.10986C6.05551 5.10986 5.79841 5.16926 5.58097 5.40675C5.36349 5.64431 4.75049 6.21838 4.75049 7.38614C4.75049 8.55406 5.6007 9.68231 5.71935 9.84062C5.83796 9.99904 7.39245 12.3955 9.77261 13.4233C10.3387 13.6678 10.7807 13.8138 11.1252 13.9231C11.6936 14.1037 12.2109 14.0782 12.6197 14.0171C13.0756 13.949 14.0235 13.4432 14.2212 12.889C14.419 12.3347 14.419 11.8596 14.3596 11.7606C14.3003 11.6617 14.1421 11.6023 13.9049 11.4835Z" />
</svg>
