<svg width="40" height="40" viewBox="0 0 40 40" fill="none" xmlns="http://www.w3.org/2000/svg">
<path fill-rule="evenodd" clip-rule="evenodd" d="M29.0948 9.94746C26.5535 7.40322 23.1739 6.00148 19.5732 6C12.1541 6 6.11578 12.0379 6.11288 19.4592C6.11184 21.8316 6.73166 24.1472 7.90961 26.1885L6 33.1634L13.1355 31.2917C15.1015 32.364 17.3151 32.9292 19.5679 32.93H19.5733C19.5738 32.93 19.573 32.93 19.5734 32.93C26.9917 32.93 33.0305 26.8915 33.0336 19.47C33.0349 15.8734 31.6361 12.4916 29.0948 9.94746ZM19.5733 30.6568H19.5687C17.5613 30.656 15.5923 30.1166 13.8746 29.0973L13.4661 28.8549L9.23181 29.9656L10.3621 25.8372L10.096 25.4139C8.97615 23.6327 8.38469 21.5739 8.38557 19.46C8.38797 13.2917 13.4068 8.27334 19.5778 8.27334C22.566 8.27427 25.375 9.43954 27.4873 11.5542C29.5995 13.6689 30.7621 16.4798 30.7609 19.4691C30.7584 25.6379 25.7397 30.6568 19.5733 30.6568Z" fill="#FE0202"/>
<path fill-rule="evenodd" clip-rule="evenodd" d="M25.7098 22.2776C25.3735 22.1093 23.7199 21.2958 23.4116 21.1834C23.1034 21.0712 22.8791 21.0151 22.6549 21.3518C22.4308 21.6884 21.7862 22.446 21.59 22.6705C21.3938 22.8949 21.1976 22.9231 20.8613 22.7546C20.525 22.5863 19.4413 22.2312 18.1567 21.0854C17.1568 20.1935 16.4819 19.0922 16.2856 18.7554C16.0895 18.4188 16.2648 18.2368 16.4332 18.069C16.5844 17.9183 16.7695 17.6763 16.9377 17.4798C17.1058 17.2835 17.1619 17.1431 17.274 16.9188C17.3861 16.6943 17.3301 16.4979 17.246 16.3296C17.1619 16.1612 16.4893 14.5058 16.209 13.8323C15.9359 13.1766 15.6587 13.2654 15.4522 13.255C15.2564 13.2452 15.0318 13.2432 14.8077 13.2432C14.5835 13.2432 14.219 13.3274 13.9108 13.664C13.6026 14.0007 12.7336 14.8145 12.7336 16.4697C12.7336 18.1252 13.9388 19.7245 14.107 19.9489C14.2751 20.1734 16.4786 23.5704 19.8524 25.0272C20.6548 25.3738 21.2813 25.5807 21.7697 25.7357C22.5754 25.9917 23.3086 25.9556 23.8881 25.869C24.5343 25.7724 25.8779 25.0554 26.1582 24.2699C26.4385 23.4841 26.4385 22.8107 26.3543 22.6705C26.2703 22.5302 26.0461 22.446 25.7098 22.2776Z" fill="#FE0202"/>
</svg>
