<svg width="30" height="30" viewBox="0 0 30 30" xmlns="http://www.w3.org/2000/svg">
<g clip-path="url(#clip0)">
<path d="M25.7142 17.6786C25.7142 18.125 25.558 18.5045 25.2455 18.817C24.933 19.1295 24.5535 19.2857 24.1071 19.2857C23.5379 19.2857 23.0915 19.0457 22.7678 18.5658L18.9676 12.8571H18.2142V15.067L22.3493 21.9475C22.4497 22.1149 22.4999 22.2991 22.4999 22.5C22.4999 22.7902 22.3939 23.0413 22.1819 23.2533C21.9698 23.4654 21.7187 23.5714 21.4285 23.5714H18.2142V28.125C18.2142 28.6384 18.0301 29.0792 17.6618 29.4475C17.2935 29.8158 16.8526 30 16.3392 30H13.6606C13.1473 30 12.7064 29.8158 12.3381 29.4475C11.9698 29.0792 11.7856 28.6384 11.7856 28.125V23.5714H8.57136C8.28118 23.5714 8.03006 23.4654 7.81801 23.2533C7.60596 23.0413 7.49993 22.7902 7.49993 22.5C7.49993 22.2991 7.55015 22.1149 7.6506 21.9475L11.7856 15.067V12.8571H11.0323L7.23207 18.5658C6.90841 19.0457 6.46198 19.2857 5.89279 19.2857C5.44636 19.2857 5.06689 19.1295 4.75439 18.817C4.44189 18.5045 4.28564 18.125 4.28564 17.6786C4.28564 17.3549 4.37493 17.0591 4.5535 16.7913L8.83922 10.3627C9.65395 9.16852 10.6361 8.57142 11.7856 8.57142H18.2142C19.3638 8.57142 20.3459 9.16852 21.1606 10.3627L25.4464 16.7913C25.6249 17.0591 25.7142 17.3549 25.7142 17.6786ZM18.7499 4.28571C18.7499 5.32365 18.3844 6.20814 17.6534 6.93917C16.9224 7.67019 16.0379 8.03571 14.9999 8.03571C13.962 8.03571 13.0775 7.67019 12.3465 6.93917C11.6154 6.20814 11.2499 5.32365 11.2499 4.28571C11.2499 3.24776 11.6154 2.36327 12.3465 1.63225C13.0775 0.901219 13.962 0.535706 14.9999 0.535706C16.0379 0.535706 16.9224 0.901219 17.6534 1.63225C18.3844 2.36327 18.7499 3.24776 18.7499 4.28571Z" />
</g>
<defs>
<clipPath id="clip0">
<rect width="30" height="30" fill="white"/>
</clipPath>
</defs>
</svg>
