<svg width="124" height="40" viewBox="0 0 124 40" fill="none" xmlns="http://www.w3.org/2000/svg">
<g clip-path="url(#clip0)">
<path fill-rule="evenodd" clip-rule="evenodd" d="M4.02839 0H119.818L123.591 40C123.591 40 97.8604 29.8952 63.3023 29.8952C28.7443 29.8952 0.894775 40 0.894775 40L4.02839 0ZM75.241 3.72863H66.4801C65.9726 4.30215 65.7078 4.58897 65.1784 5.16238L65.1781 5.16271C65.2222 8.5604 65.2443 11.9581 65.2664 15.3558L65.2808 15.3714C65.8009 15.9347 66.0658 16.2217 66.6125 16.8119C69.6358 16.8781 72.637 17.0105 75.6603 17.209C75.6382 16.5472 75.6217 16.0452 75.6051 15.5433C75.5886 15.0414 75.572 14.5394 75.5499 13.8776C73.4535 13.7672 71.3571 13.679 69.2606 13.6349C69.1944 13.5576 69.1448 13.5025 69.0951 13.4473C69.0455 13.3922 68.9958 13.337 68.9296 13.2598C68.9075 12.0684 68.891 11.1804 68.8744 10.2923C68.8579 9.4043 68.8413 8.51627 68.8193 7.32488C68.9517 7.1925 69.0179 7.12631 69.1503 6.97187L69.1504 6.97187C71.2247 6.99393 73.2991 7.016 75.3513 7.06012C75.3293 6.39823 75.3127 5.8963 75.2962 5.39437C75.2796 4.89244 75.263 4.39051 75.241 3.72863ZM61.2721 3.72863H51.0106C50.9003 8.18456 50.7679 12.6405 50.6355 17.0964L50.6355 17.0987C54.1663 16.9222 57.7192 16.7899 61.25 16.7899C61.8017 16.2163 62.0665 15.9295 62.596 15.3559L62.5962 15.3558C62.5741 11.9581 62.5741 8.5604 62.5741 5.16271L62.5741 5.16268C62.0445 4.58907 61.7797 4.30225 61.2721 3.72863ZM30.3111 3.72863H25.9417C23.9997 9.48704 22.1019 15.2454 20.2482 21.0259L20.2483 21.0259C21.7929 20.717 22.5653 20.5626 24.11 20.2758C24.419 19.3712 24.5735 18.9079 24.8603 18.0033C26.7361 17.7165 27.6629 17.5841 29.5166 17.3194L29.5166 17.3194C29.6049 17.7165 29.6711 18.0088 29.7373 18.3012C29.8035 18.5935 29.8697 18.8858 29.958 19.283C31.5027 19.0403 32.275 18.93 33.8197 18.7093L33.8198 18.7093C32.562 13.7231 31.4145 8.7369 30.3111 3.72863ZM6.19103 24.3574L5.72761 28.9906L9.89841 23.3425L10.4942 15.9294C12.1629 15.6616 13.0624 15.5285 14.6288 15.2966C14.7403 15.2801 14.8552 15.263 14.974 15.2454C14.8857 16.4148 14.7919 17.5842 14.6981 18.7535C14.6044 19.9228 14.5106 21.0921 14.4223 22.2614C14.8585 22.1638 15.2295 22.0796 15.5736 22.0015C16.3959 21.8148 17.0653 21.6629 18.1076 21.4451C18.3195 18.617 18.5365 15.7837 18.7537 12.9478C18.9889 9.87683 19.2243 6.80273 19.4537 3.72863H15.8567C15.7684 4.89796 15.6746 6.06729 15.5809 7.23662C15.4871 8.40595 15.3933 9.57529 15.305 10.7446C13.5996 10.892 12.7177 10.9791 11.0879 11.1401L10.8473 11.1638L11.4432 3.75069H7.84611C7.57027 7.18145 7.29442 10.6177 7.01858 14.054C6.74273 17.4903 6.46688 20.9266 6.19103 24.3574ZM13.4293 26.2548C13.8541 26.1831 14.2789 26.1114 14.8416 26.0121C14.8647 25.7469 14.8757 25.554 14.8872 25.3515C14.8978 25.1666 14.9088 24.9737 14.9299 24.7104C13.366 24.9744 12.5311 25.1262 11.0834 25.3896C10.9581 25.4123 10.8282 25.436 10.6929 25.4606C10.55 27.2962 10.3884 29.1131 10.2253 30.9459C10.212 31.0957 10.1986 31.2455 10.1853 31.3955C10.4722 31.3403 10.6873 31.3017 10.9025 31.2631C11.1177 31.2245 11.3328 31.1859 11.6197 31.1307C11.6638 30.6674 11.6914 30.3199 11.719 29.9724C11.7466 29.6249 11.7742 29.2774 11.8183 28.8141C12.3921 28.7148 12.817 28.6431 13.2418 28.5714C13.6666 28.4997 14.0913 28.428 14.665 28.3287C14.6871 28.075 14.7037 27.8875 14.7202 27.6999C14.7368 27.5124 14.7533 27.3249 14.7754 27.0712C13.8799 27.2089 13.3338 27.3063 12.6022 27.4369C12.3963 27.4736 12.1758 27.5129 11.9286 27.5565C11.9507 27.3469 11.9617 27.187 11.9728 27.027C11.9838 26.8671 11.9948 26.7071 12.0169 26.4975C12.5797 26.3982 13.0045 26.3265 13.4293 26.2548ZM16.7391 30.2924L16.7394 30.2923L16.7394 30.2922C16.8939 28.3286 17.0484 26.3651 17.1808 24.4015C16.8939 24.4457 16.6842 24.4788 16.4746 24.5119C16.2649 24.545 16.0553 24.578 15.7684 24.6222C15.6912 25.604 15.614 26.5913 15.5367 27.5786C15.4595 28.5659 15.3822 29.5532 15.305 30.535C15.8787 30.4247 16.1656 30.3806 16.7391 30.2924ZM20.252 25.1782C21.1442 25.0406 21.6922 24.9561 22.6977 24.8207C22.7198 24.3133 22.7418 24.0485 22.786 23.5632C22.2416 23.6469 21.8264 23.7058 21.4202 23.7634C20.97 23.8273 20.5308 23.8896 19.9392 23.9823C18.6814 24.1809 18.0193 24.8428 17.9311 25.968C17.8428 26.9829 17.7987 27.4903 17.7325 28.5052C17.6442 29.6304 18.24 30.0938 19.5199 29.8952L19.579 29.8883C19.917 29.8486 20.1139 29.8254 20.4689 29.7628C21.7488 29.5643 22.4329 28.9244 22.4991 27.7992C22.5617 27.0895 22.5849 26.6957 22.6246 26.02L22.6315 25.9018C22.157 25.968 21.7984 26.0177 21.4398 26.0673C21.0812 26.1169 20.7226 26.1666 20.2482 26.2328C20.2261 26.4865 20.2151 26.674 20.204 26.8616C20.193 27.0491 20.182 27.2366 20.1599 27.4903C20.3475 27.4683 20.4909 27.4462 20.6344 27.4242C20.7778 27.4021 20.9212 27.38 21.1088 27.358C21.0982 27.4848 21.0927 27.5813 21.0874 27.6741C21.0817 27.7749 21.0762 27.8714 21.0647 27.9978C21.0426 28.2625 20.8661 28.4391 20.5571 28.4832L20.4979 28.4901C20.16 28.5298 19.9631 28.5529 19.6082 28.6156C19.2993 28.6597 19.1448 28.5494 19.1669 28.2625C19.2 27.7551 19.2275 27.3746 19.2551 26.994C19.2827 26.6134 19.3103 26.2328 19.3434 25.7253C19.3655 25.4606 19.542 25.2841 19.851 25.2399C19.993 25.2181 20.1259 25.1976 20.252 25.1782ZM27.3209 28.8141C27.536 28.7865 27.7512 28.759 28.0381 28.7259V28.7258C28.1484 26.7623 28.2588 24.7987 28.347 22.813C28.0602 22.8461 27.845 22.8737 27.6298 22.9013C27.4147 22.9288 27.1995 22.9564 26.9126 22.9895C26.8685 23.9162 26.8464 24.3795 26.7802 25.3061C26.0299 25.3944 25.6548 25.4385 24.8824 25.5488C24.9155 25.0855 24.9376 24.738 24.9596 24.3905C24.9817 24.043 25.0038 23.6955 25.0369 23.2322C24.748 23.2784 24.5318 23.3065 24.3089 23.3354C24.1062 23.3617 23.8979 23.3887 23.6245 23.4308C23.4921 25.4164 23.3597 27.38 23.2273 29.3436C23.8011 29.2554 24.088 29.2113 24.6617 29.1451C24.6948 28.6817 24.7169 28.3343 24.739 27.9868C24.761 27.6393 24.7831 27.2918 24.8162 26.8285C25.2024 26.7843 25.4893 26.7457 25.7762 26.7071C26.063 26.6685 26.3499 26.6299 26.7361 26.5858L26.7361 26.586C26.692 27.5125 26.6699 27.9758 26.6037 28.9024C26.8906 28.8693 27.1057 28.8417 27.3209 28.8141ZM33.1366 23.5567C33.3681 23.5312 33.6029 23.5054 33.9081 23.4749C33.9522 22.9675 33.9522 22.7248 33.9302 22.2394C32.0324 22.4159 31.0834 22.5262 29.1856 22.7468C29.1746 23.0005 29.1635 23.1881 29.1525 23.3756C29.1415 23.5632 29.1304 23.7507 29.1194 24.0044C29.1649 23.9985 29.2089 23.9929 29.2515 23.9874C29.849 23.9102 30.1786 23.8676 30.7966 23.8058C30.7524 24.7325 30.7138 25.4274 30.6752 26.1224C30.6366 26.8174 30.5979 27.5124 30.5538 28.439C30.8407 28.406 31.0559 28.3839 31.271 28.3618C31.4862 28.3398 31.7013 28.3177 31.9882 28.2846C32.0986 26.4313 32.1427 25.5047 32.231 23.6514C32.5997 23.6157 32.8659 23.5865 33.1366 23.5567ZM35.2873 27.9537C35.5025 27.9316 35.7177 27.9095 36.0045 27.8875L36.2694 21.9967C35.9825 22.0188 35.7673 22.0408 35.5522 22.0629C35.337 22.0849 35.1218 22.107 34.835 22.1291L34.5701 28.0199C34.857 27.9978 35.0722 27.9757 35.2873 27.9537ZM40.727 27.5124L42.1614 27.4021L42.3601 21.5113L40.9257 21.6216C40.9036 22.3386 40.8815 22.8736 40.8595 23.4086C40.8374 23.9437 40.8153 24.4787 40.7932 25.1958C40.5018 24.7552 40.2585 24.3856 40.0322 24.0419C39.5561 23.3187 39.1557 22.7105 38.5423 21.7981C37.9686 21.8643 37.6817 21.8864 37.108 21.9305L37.1079 21.9305C37.0418 23.8934 36.9535 25.8563 36.8653 27.8192L36.8652 27.8213C37.4389 27.7551 37.7258 27.733 38.2995 27.6889L38.2996 27.6889C38.3327 26.9719 38.3548 26.4368 38.3768 25.9018C38.3989 25.3668 38.421 24.8318 38.4541 24.1147C38.9065 24.7987 39.2485 25.3061 39.5906 25.8136C39.9326 26.321 40.2747 26.8285 40.727 27.5124ZM46.5309 22.5152C46.9612 22.4931 47.3915 22.471 47.9653 22.4379C47.9653 21.9305 47.9653 21.6878 48.0315 21.1583C47.1914 21.1906 46.6588 21.2229 45.9836 21.2639C45.7364 21.2789 45.4701 21.295 45.1627 21.3127C43.8827 21.401 43.2428 21.9967 43.1986 23.1219C43.1545 24.1147 43.1324 24.6222 43.1104 25.6371C43.0662 26.7623 43.7062 27.2697 44.9861 27.2035C45.2717 27.1718 45.4547 27.1629 45.6744 27.1522C45.7602 27.148 45.8517 27.1435 45.9571 27.1373C47.237 27.0712 47.8991 26.4755 47.9211 25.3502C47.932 24.9699 47.9375 24.6859 47.9429 24.4059C47.9485 24.1175 47.9541 23.8335 47.9653 23.4528C46.9943 23.497 46.5088 23.519 45.5599 23.5852C45.5488 23.8389 45.5433 24.0265 45.5378 24.214C45.5323 24.4015 45.5268 24.5891 45.5157 24.8428C45.7088 24.8321 45.855 24.8266 45.9973 24.8212C46.1478 24.8155 46.2939 24.81 46.4867 24.7987C46.4647 25.0634 46.4647 25.1958 46.4647 25.4385C46.4647 25.7033 46.3102 25.8577 45.9792 25.8798C45.7689 25.8914 45.6142 25.9031 45.4596 25.9148C45.3222 25.9252 45.1847 25.9356 45.0082 25.9459C44.6992 25.968 44.5448 25.8356 44.5448 25.5488C44.5555 25.0634 44.5663 24.6941 44.5771 24.3247C44.5884 23.9385 44.5997 23.5524 44.611 23.0336C44.611 22.7689 44.7875 22.6145 45.0965 22.5924C45.6702 22.5593 46.1005 22.5372 46.5309 22.5152ZM46.4205 13.0392C47.1046 12.3111 47.4577 11.936 48.1418 11.23C48.2301 8.82515 48.2742 7.63376 48.3845 5.20684C48.0619 4.84217 47.8462 4.5845 47.6015 4.29211C47.4613 4.12457 47.3116 3.94563 47.1267 3.72863H36.8652C36.7217 6.1776 36.5838 8.62658 36.4459 11.0756C36.308 13.5245 36.1701 15.9735 36.0266 18.4225C37.5051 18.2239 38.2555 18.1357 39.734 17.9812C39.7782 17.0754 39.8113 16.3909 39.8445 15.706C39.8775 15.023 39.9106 14.3396 39.9547 13.4363C40.5503 13.3922 40.8593 13.3701 41.4768 13.326L41.4773 13.326C42.4263 15.0469 42.9117 15.8853 43.9048 17.562C44.0225 17.5525 44.1359 17.5433 44.2456 17.5344C45.6567 17.4199 46.45 17.3555 47.9653 17.2532C46.9281 15.5985 46.4205 14.7821 45.4275 13.0833C45.6261 13.0723 45.775 13.0667 45.924 13.0612C46.0729 13.0557 46.2219 13.0502 46.4205 13.0392ZM53.747 22.2063C54.1056 22.1953 54.4642 22.1842 54.9387 22.1732V20.9156C54.4642 20.9266 54.1056 20.9377 53.747 20.9487C53.3884 20.9597 53.0298 20.9708 52.5554 20.9818C51.2754 21.0259 50.6355 21.5996 50.6134 22.7248C50.6022 23.2266 50.5967 23.6045 50.5911 23.9865C50.5857 24.3603 50.5802 24.7381 50.5693 25.2399C50.5472 26.3651 51.1871 26.8946 52.4671 26.8505C52.9305 26.8397 53.2834 26.829 53.6363 26.8182C54.006 26.8069 54.3757 26.7956 54.8725 26.7843C54.8945 26.277 54.8945 26.0343 54.8945 25.527V25.5267C54.409 25.5378 54.0504 25.5488 53.6918 25.5598C53.3332 25.5709 52.9746 25.5819 52.4891 25.5929C52.1802 25.615 52.0257 25.4826 52.0257 25.1958C52.0369 24.694 52.0424 24.3162 52.048 23.9342C52.0534 23.5604 52.0589 23.1826 52.0699 22.6806C52.0699 22.3938 52.2464 22.2394 52.5554 22.2394C53.0298 22.2284 53.3884 22.2173 53.747 22.2063ZM59.1315 26.7402C59.7274 26.7181 60.0142 26.7181 60.588 26.7181C60.588 24.7545 60.588 22.791 60.6101 20.8274C60.0363 20.8494 59.7494 20.8494 59.1757 20.8494C59.1536 21.7761 59.1536 22.2394 59.1536 23.166C58.3812 23.166 58.0061 23.166 57.2337 23.1881C57.2337 22.7248 57.2392 22.3773 57.2447 22.0298C57.2503 21.6823 57.2558 21.3348 57.2558 20.8715C56.682 20.8715 56.3951 20.8715 55.8214 20.8935L55.7552 26.7843C56.0559 26.7843 56.2779 26.7787 56.4978 26.7731C56.7137 26.7677 56.9275 26.7623 57.2116 26.7623C57.2116 26.299 57.2172 25.9515 57.2227 25.604C57.2282 25.2565 57.2337 24.909 57.2337 24.4457C57.6199 24.4457 57.9068 24.4402 58.1937 24.4346C58.4805 24.4291 58.7674 24.4236 59.1536 24.4236C59.1315 25.3502 59.1315 25.8136 59.1315 26.7402ZM65.3326 25.4826C65.5312 25.9901 65.6195 26.2328 65.796 26.7402C66.3698 26.7402 66.6566 26.7402 67.2525 26.7623C66.9104 25.7805 66.5684 24.7932 66.2263 23.8058C65.8843 22.8185 65.5422 21.8312 65.2002 20.8494C64.3175 20.8274 63.8762 20.8274 62.9936 20.8274H62.9934C62.6513 21.8093 62.3147 22.7912 61.9782 23.7731C61.6417 24.7547 61.3052 25.7364 60.9632 26.7181H62.4196C62.5079 26.4644 62.5741 26.2769 62.6403 26.0894C62.7065 25.9018 62.7727 25.7143 62.861 25.4606C63.3575 25.4606 63.7271 25.4661 64.0968 25.4716C64.4664 25.4771 64.836 25.4826 65.3326 25.4826ZM73.3763 25.13C73.3873 25.6649 73.3983 26.1999 73.4094 26.9167C73.6856 26.9273 73.8954 26.938 74.1051 26.9486C74.331 26.96 74.5569 26.9715 74.8658 26.9829L74.7334 21.0921C73.939 21.048 73.5197 21.0259 72.7253 21.0039C72.1294 22.3938 71.8205 23.0998 71.2026 24.5119C70.5406 23.0557 70.2095 22.3276 69.5696 20.8935C69.1724 20.8825 68.8689 20.877 68.5655 20.8715C68.2621 20.866 67.9586 20.8605 67.5614 20.8494C67.5614 22.813 67.5835 24.7766 67.6055 26.7402C68.2014 26.7402 68.4883 26.7402 69.062 26.7623C69.051 26.0454 69.0455 25.5105 69.04 24.9756C69.0344 24.4404 69.0289 23.9053 69.0179 23.1881C69.3379 23.9162 69.5751 24.4567 69.8123 24.9972C70.0495 25.5378 70.2868 26.0783 70.6068 26.8064C70.8605 26.8174 71.0481 26.8229 71.2357 26.8285C71.4233 26.834 71.6108 26.8395 71.8646 26.8505C72.2382 25.9791 72.4903 25.3764 72.7733 24.7001C72.9416 24.2977 73.1209 23.8693 73.3432 23.3425C73.3542 24.0598 73.3652 24.5949 73.3763 25.13ZM77.1167 24.9972C77.6905 25.0414 77.9774 25.0634 78.5511 25.0855C79.8311 25.1517 80.471 24.6222 80.4269 23.497C80.4048 23.3205 80.4048 23.2543 80.4048 23.0778C80.3607 21.9746 79.7207 21.3569 78.4408 21.2907C78.1333 21.2729 77.8671 21.2568 77.6199 21.2418C76.9446 21.2008 76.4121 21.1685 75.572 21.1362L75.7044 27.027C76.0134 27.0385 76.2392 27.0499 76.4651 27.0613C76.6749 27.072 76.8846 27.0826 77.1609 27.0932C77.1498 26.674 77.1443 26.3596 77.1388 26.0452C77.1333 25.7308 77.1278 25.4164 77.1167 24.9972ZM81.2213 21.4672L81.4199 27.358C81.9937 27.38 82.2805 27.4021 82.8542 27.4462L82.8544 27.4462L82.6557 21.5554C82.082 21.5334 81.7951 21.5113 81.2213 21.4672ZM85.6349 27.6448L86.8486 27.7551C88.1285 27.8654 88.7464 27.38 88.7023 26.2548C88.6583 25.2659 88.6363 24.7586 88.5925 23.7517L88.592 23.7397C88.5258 22.6145 87.8858 21.9967 86.6059 21.8864C86.3632 21.8643 86.1866 21.8478 86.0101 21.8312C85.8335 21.8147 85.657 21.7981 85.4142 21.7761C84.1343 21.6657 83.5164 22.1732 83.5605 23.2984C83.5826 24.2912 83.6047 24.7987 83.6488 25.8136C83.6929 26.9388 84.355 27.5345 85.6349 27.6448ZM78.8479 16.7112C79.0579 16.9544 79.2678 17.1974 79.5442 17.5179C82.6337 17.7827 85.7452 18.1136 88.8788 18.4887C89.0584 18.2766 89.2077 18.1037 89.3492 17.9399C89.5903 17.6607 89.8087 17.408 90.1146 17.0325C89.9932 15.0907 89.8774 13.1488 89.7615 11.2069C89.6457 9.26574 89.5298 7.32454 89.4085 5.38334C88.8962 4.76876 88.6123 4.4395 88.1326 3.88336L88.0182 3.75069H78.9925C78.876 3.89358 78.7736 4.01996 78.678 4.13776C78.3753 4.51107 78.1425 4.79815 77.7567 5.25096L78.1539 15.9073C78.4292 16.2266 78.6386 16.469 78.8479 16.7112ZM92.1788 26.4988C92.5647 27.072 92.9507 27.6454 93.4689 28.417C93.7431 28.4474 93.9518 28.4686 94.1532 28.4889C94.3895 28.5128 94.6156 28.5357 94.9254 28.5714L94.5944 22.6806C94.3075 22.6475 94.0923 22.6255 93.8772 22.6034C93.662 22.5814 93.4469 22.5593 93.16 22.5262L93.1676 22.6495C93.2508 24.002 93.2943 24.708 93.3586 26.1004C92.7021 25.1016 92.2487 24.4258 91.7356 23.6611C91.4554 23.2435 91.1574 22.7993 90.7987 22.2614C90.5119 22.2394 90.2967 22.2173 90.0815 22.1953C89.8664 22.1732 89.6512 22.1511 89.3643 22.1291L89.6292 28.0199L89.6292 28.0199C90.2029 28.064 90.4898 28.086 91.0636 28.1522C91.0305 27.4352 91.0029 26.9002 90.9753 26.3651C90.9477 25.8301 90.9201 25.2951 90.887 24.578C91.406 25.3508 91.7924 25.9247 92.1788 26.4988ZM95.786 28.6597C96.9336 28.7921 97.5073 28.8582 98.6549 29.0127C99.9348 29.1892 100.531 28.7038 100.486 27.5786C100.464 27.4904 100.464 27.4463 100.464 27.3581V27.358C100.398 26.2328 99.7362 25.5709 98.4562 25.4164C98.2687 25.3944 98.1252 25.3778 97.9818 25.3613C97.8383 25.3447 97.6949 25.3282 97.5073 25.3061C97.1763 25.262 97.0218 25.1076 96.9998 24.8207C96.9777 24.7325 96.9777 24.6884 96.9777 24.6001C96.9556 24.3354 97.1101 24.203 97.4191 24.2471C97.9929 24.3243 98.4177 24.3795 98.8425 24.4347C99.2673 24.4898 99.6921 24.545 100.266 24.6222L100.261 24.5616C100.22 24.0946 100.199 23.8514 100.178 23.3646C99.8329 23.3182 99.5421 23.2778 99.2727 23.2404C98.6449 23.1532 98.1337 23.0821 97.3308 22.9895C96.0509 22.8351 95.455 23.3205 95.5212 24.4457C95.5433 24.5339 95.5433 24.578 95.5433 24.6663C95.6095 25.7915 96.2715 26.4313 97.5515 26.5858C97.739 26.6078 97.8825 26.6244 98.0259 26.6409C98.1694 26.6575 98.3128 26.674 98.5004 26.6961C98.8314 26.7402 98.9859 26.8946 99.0079 27.1815C99.03 27.2697 99.03 27.3138 99.03 27.4021C99.0521 27.6668 98.8976 27.7992 98.5887 27.7551C97.4411 27.6007 96.8674 27.5345 95.7198 27.4021C95.7309 27.6559 95.7419 27.8434 95.753 28.031C95.764 28.2185 95.775 28.406 95.786 28.6597ZM96.9667 14.6498C97.1929 14.6773 97.4191 14.7049 97.728 14.738C98.7652 16.6133 99.7582 18.4887 100.729 20.364L101.117 20.4383C102.482 20.6999 103.291 20.855 104.768 21.1583C103.753 19.1726 102.737 17.209 101.678 15.2454C101.877 15.2675 102.026 15.2896 102.175 15.3116C102.324 15.3337 102.473 15.3558 102.671 15.3778C103.219 14.6683 103.505 14.2755 104.01 13.5832L104.15 13.3922C103.973 10.8329 103.775 8.25152 103.576 5.67016C103.422 5.46325 103.289 5.28326 103.165 5.1162C102.828 4.65979 102.562 4.29983 102.142 3.75069H91.8801C92.0455 6.29853 92.2055 8.85189 92.3655 11.4052C92.5255 13.9594 92.6855 16.5136 92.851 19.0623L93.138 19.1051C94.4331 19.2983 95.1786 19.4095 96.5584 19.636C96.4039 17.6062 96.3377 16.5913 96.2053 14.5615C96.5143 14.5946 96.7405 14.6222 96.9667 14.6498ZM104.701 28.7148C104.729 29.0623 104.757 29.4098 104.79 29.8731C105.065 29.9172 105.275 29.9503 105.485 29.9834C105.694 30.0165 105.904 30.0496 106.18 30.0938C106.103 29.112 106.031 28.1247 105.959 27.1373C105.888 26.15 105.816 25.1627 105.739 24.1809C105.187 24.0927 104.9 24.0485 104.326 23.9603C104.359 24.4236 104.387 24.7711 104.415 25.1186C104.442 25.4661 104.47 25.8136 104.503 26.2769C103.978 26.1843 103.626 26.1349 103.205 26.0758C103.024 26.0504 102.83 26.0232 102.605 25.9901C102.572 25.5268 102.55 25.1793 102.528 24.8318C102.506 24.4843 102.484 24.1368 102.451 23.6735C102.162 23.6273 101.945 23.5992 101.723 23.5703C101.52 23.544 101.312 23.517 101.038 23.4749C101.169 25.4407 101.3 27.3848 101.431 29.3287L101.435 29.3878C102.009 29.4539 102.296 29.4981 102.87 29.5863L102.87 29.5863C102.837 29.123 102.815 28.7755 102.793 28.428C102.77 28.0805 102.748 27.733 102.715 27.2697C103.05 27.3189 103.31 27.3594 103.564 27.3989C103.879 27.4479 104.185 27.4954 104.613 27.5565C104.646 28.0199 104.674 28.3673 104.701 28.7148ZM108.034 24.5339C107.482 24.4457 107.195 24.4015 106.621 24.3133C106.754 26.2769 106.908 28.2625 107.063 30.2261L108.497 30.4468C108.42 29.4671 108.343 28.482 108.266 27.4969C108.188 26.5074 108.111 25.5179 108.034 24.5339ZM110.747 28.7469C111.217 28.8219 111.502 28.8674 112.028 28.9686C113.308 29.1892 113.882 28.7479 113.793 27.6227C113.782 27.5407 113.776 27.4774 113.77 27.4096C113.765 27.3497 113.76 27.2863 113.749 27.2035C113.661 26.0783 112.977 25.3944 111.719 25.1737C111.156 25.0745 110.731 25.0028 110.307 24.9311C109.882 24.8593 109.457 24.7876 108.894 24.6884C108.972 25.6723 109.049 26.6618 109.127 27.6513C109.204 28.6365 109.281 29.6216 109.358 30.6012C109.645 30.6453 109.86 30.6839 110.075 30.7226C110.29 30.7612 110.505 30.7998 110.792 30.8439C110.759 30.4247 110.731 30.1048 110.704 29.7849C110.676 29.465 110.649 29.1451 110.616 28.7259L110.747 28.7469ZM107.46 21.7319C109.998 22.2835 112.535 22.9013 115.073 23.5411L118.538 28.8582L118.141 24.3574C117.964 22.3276 117.876 21.2907 117.721 19.2609C115.426 18.7976 113.109 18.3563 110.814 17.9371C110.77 17.4297 110.742 17.0546 110.715 16.6795C110.687 16.3045 110.66 15.9294 110.616 15.422C113.021 15.775 114.235 15.9735 116.662 16.3707C116.585 15.4002 116.524 14.6668 116.464 13.9334C116.403 13.1996 116.342 12.4658 116.265 11.4948C113.913 11.2359 112.7 11.1247 110.399 10.9136L110.24 10.8991C110.196 10.3916 110.169 10.0165 110.141 9.64148C110.114 9.26641 110.086 8.89134 110.042 8.38389C112.315 8.51627 114.588 8.67071 116.861 8.82514L116.861 8.82515C116.684 6.79537 116.596 5.75841 116.441 3.72863H106.07L107.46 21.7319ZM54.5415 6.99394V6.99409L54.5415 6.99466C54.4973 9.22277 54.4532 11.4509 54.4091 13.6569L54.4754 13.6552L54.4755 13.6552L54.4758 13.6551L54.476 13.6551C56.0865 13.6122 56.9028 13.5904 58.5137 13.5687C58.6002 13.4678 58.6678 13.4046 58.7413 13.336L58.7413 13.3359C58.7803 13.2995 58.8209 13.2616 58.8668 13.2157C58.8778 12.0353 58.8833 11.1528 58.8888 10.2703C58.8944 9.38776 58.8999 8.50525 58.9109 7.32488C58.8447 7.2587 58.795 7.20354 58.7454 7.14838C58.6957 7.09322 58.6461 7.03807 58.5799 6.97188C57.7909 6.97188 57.1924 6.97732 56.5897 6.9828C55.9788 6.98835 55.3636 6.99394 54.5415 6.99394ZM81.7729 7.19251L85.5244 7.30282C85.6412 7.41951 85.7075 7.49841 85.79 7.59663C85.8167 7.6284 85.8452 7.6622 85.8775 7.69995C85.9327 8.79189 85.9934 9.87831 86.054 10.9647V10.9648V10.9648V10.9649V10.965V10.965V10.9651V10.9651V10.9652C86.1147 12.0518 86.1754 13.1384 86.2306 14.2306C86.1644 14.3078 86.1203 14.3629 86.0761 14.4181C86.032 14.4733 85.9879 14.5284 85.9217 14.6056C84.399 14.4733 83.6266 14.4071 82.1039 14.2968C82.0111 14.1729 81.9399 14.0926 81.86 14.0023C81.826 13.9639 81.7904 13.9237 81.7509 13.8776C81.7067 12.8296 81.6571 11.7761 81.6074 10.7226C81.5578 9.66906 81.5081 8.61556 81.464 7.56757C81.5302 7.49034 81.5743 7.43517 81.6185 7.38001L81.6186 7.37986C81.6627 7.32476 81.7068 7.26964 81.7729 7.19251ZM97.772 7.76612C98.3789 7.7937 98.9858 7.82128 99.8023 7.85438C99.9568 8.03088 100.023 8.14119 100.133 8.33976L100.144 8.46159C100.225 9.41811 100.268 9.9256 100.332 10.9211L100.285 10.9864L100.285 10.9867L100.285 10.9868L100.285 10.9872L100.284 10.9874C100.2 11.1044 100.139 11.1906 100.045 11.3403L95.9625 11.0094V11.0093C95.8742 9.68557 95.8301 9.02368 95.7418 7.67787C96.5582 7.71096 97.165 7.73854 97.7718 7.76611L97.772 7.76612ZM64.8913 24.1809C64.5602 23.3425 64.4058 22.9233 64.0968 22.0849C63.7658 22.9233 63.6113 23.3425 63.3024 24.1809H64.8913ZM77.0504 22.46C77.6242 22.5041 77.911 22.5262 78.4848 22.5482C78.8158 22.5703 78.9703 22.7247 78.9482 22.9895C78.9703 23.1659 78.9703 23.2321 78.9703 23.4085V23.4087C78.9923 23.6955 78.8158 23.8279 78.5069 23.8058C77.9331 23.7617 77.6462 23.7396 77.0725 23.7176C77.0725 23.2101 77.0725 22.9674 77.0504 22.46ZM40.1642 8.7588L40.1642 8.75851C40.1863 8.30637 40.2083 7.85418 40.2414 7.25868L40.2415 7.25868C41.8744 7.21456 42.691 7.19249 44.3019 7.17043C44.3681 7.24764 44.4122 7.3028 44.4563 7.35795C44.5005 7.41311 44.5446 7.46827 44.6108 7.5455C44.5888 7.97573 44.5777 8.29564 44.5667 8.61555C44.5557 8.93546 44.5446 9.25537 44.5226 9.6856C44.4059 9.80225 44.3396 9.88114 44.257 9.97931L44.257 9.97934C44.2303 10.0111 44.2019 10.045 44.1695 10.0827C43.7319 10.1005 43.353 10.115 43.0012 10.1286C42.0403 10.1655 41.2824 10.1946 40.0869 10.2592C40.12 9.66419 40.1421 9.21223 40.1641 8.76044L40.1641 8.75997L40.1641 8.7598L40.1642 8.7588ZM26.9019 11.6078L26.9018 11.6082L26.9012 11.6101L26.9001 11.6137C26.6483 12.3951 26.3909 13.1945 26.0522 14.2526C26.6039 14.1865 27.0121 14.1423 27.4204 14.0982C27.8286 14.0541 28.2369 14.0099 28.7886 13.9438C28.3914 11.9361 28.1928 10.8991 27.7955 8.82522L27.7955 8.82517C27.4404 9.93628 27.1744 10.7619 26.9019 11.6078ZM86.0543 23.0888L86.0563 23.089L86.0574 23.0891C86.2329 23.1056 86.4088 23.122 86.6501 23.144C86.9811 23.166 87.1356 23.3205 87.1356 23.6073C87.1796 24.5962 87.2016 25.1035 87.2454 26.1104L87.2459 26.1225C87.2459 26.4093 87.0915 26.5196 86.7825 26.4975C86.3191 26.4534 86.0763 26.4313 85.5909 26.3872C85.2598 26.3652 85.0833 26.2107 85.0833 25.9239C85.0612 24.9311 85.0392 24.4236 84.995 23.4087C84.995 23.144 85.1495 23.0116 85.4585 23.0337C85.6998 23.0556 85.8757 23.0721 86.0512 23.0885L86.0523 23.0886L86.0543 23.0888ZM112.337 26.9388C112.315 26.652 112.138 26.4975 111.829 26.4314C111.303 26.3302 111.018 26.2847 110.549 26.2097L110.549 26.2097L110.417 26.1887C110.439 26.442 110.456 26.6348 110.472 26.8275L110.472 26.8284L110.492 27.0573C110.502 27.1808 110.514 27.3132 110.527 27.4683C110.835 27.5156 111.06 27.5565 111.287 27.5979C111.484 27.6338 111.684 27.67 111.94 27.711C112.249 27.7772 112.403 27.6448 112.381 27.3801C112.376 27.3373 112.372 27.2997 112.367 27.2654C112.365 27.2479 112.362 27.2312 112.36 27.2152C112.347 27.1171 112.337 27.043 112.337 26.9388Z" fill="#0B0B0B"/>
</g>
<defs>
<clipPath id="clip0">
<rect width="122.697" height="40" fill="white" transform="translate(0.894775)"/>
</clipPath>
</defs>
</svg>
