<svg width="111" height="40" viewBox="0 0 111 40" fill="none" xmlns="http://www.w3.org/2000/svg">
<g clip-path="url(#clip0)">
<path fill-rule="evenodd" clip-rule="evenodd" d="M0.820068 40V0H110.475V40H0.820068ZM16.0509 22.5815C16.4465 21.6466 16.852 20.6883 16.9892 20.4776C17.2484 20.0796 17.6073 18.8458 16.9693 18.9453C16.7281 18.9841 16.2409 19.22 15.6571 19.5026C14.745 19.9442 13.5969 20.4999 12.7825 20.597C11.4666 20.7562 10.9682 21.5721 11.9451 21.7512C12.3962 21.8357 12.8119 21.8228 13.1379 21.8127C13.5033 21.8014 13.756 21.7936 13.8192 21.9303C13.9189 22.1891 14.3974 24.4378 12.6429 25.8905C12.4289 26.0677 12.2236 26.2428 12.0253 26.4119C10.5974 27.6293 9.53463 28.5354 8.25668 27.6617C6.80126 26.6667 6.74145 23.6816 6.88101 22.8259C6.94029 22.4624 7.01754 20.5409 7.10362 18.4001C7.22021 15.5006 7.35297 12.1987 7.47913 11.8209C7.69844 11.1642 9.09405 9.07463 10.4298 8.41791C11.7656 7.76119 13.3008 8 13.7394 8.41791C13.9167 8.58675 14.1622 9.01872 14.4104 9.45526C14.7764 10.0992 15.1481 10.7531 15.3145 10.5871C15.6135 10.3085 16.1718 8.51741 15.8927 7.60199C15.6135 6.68657 15.3942 6.08955 14.7363 5.43284C14.6477 5.3444 14.5512 5.24009 14.4467 5.12724C13.7755 4.40205 12.7778 3.32417 11.4666 3.8408C10.0035 4.41727 6.62569 7.23889 6.17962 7.6115C6.16373 7.62478 6.15156 7.63495 6.14333 7.64179C6.09312 7.68356 5.96035 7.77529 5.7819 7.89859C5.11008 8.36278 3.79073 9.27437 3.79073 9.65174V34.5871C3.79073 34.5871 3.65117 35.0249 4.12966 35.204C4.60816 35.3831 5.44552 35.3234 6.36264 34.607C7.25982 33.8905 14.517 28.7363 14.9955 28.6567C15.474 28.5771 16.6503 28.3781 16.7101 28.0995C16.7645 27.9095 16.4573 27.6918 16.111 27.4463C15.9495 27.3318 15.7794 27.2112 15.6335 27.0846C15.1749 26.6866 14.9157 25.0149 15.2148 24.4776C15.3555 24.2248 15.6993 23.4124 16.0509 22.5815ZM28.9883 22.1803C29.4615 21.6803 29.9198 21.1961 29.9086 20.4776C29.8967 19.7171 30.027 14.912 30.1296 11.1256C30.1989 8.571 30.2556 6.48012 30.2475 6.40796C30.2434 6.39976 30.2388 6.39052 30.2338 6.3803C30.1651 6.2417 30.0063 5.92154 29.7092 5.53234C29.6788 5.48979 29.6413 5.43527 29.5975 5.3716C29.2114 4.80996 28.3358 3.53621 27.4762 3.48259C26.5193 3.40299 22.7511 3.34328 22.7511 3.34328C22.7511 3.34328 22.1729 3.50249 21.834 3.9801C21.756 4.10176 21.6565 4.28886 21.5411 4.50592C21.1847 5.17649 20.6762 6.13291 20.1792 6.32836C19.5213 6.58706 19.0627 7.24378 19.0627 7.24378L18.9231 20.7363C18.9231 20.7363 18.8235 23.7413 19.2421 24.1393C19.6608 24.5373 21.0764 25.7512 21.0764 25.7512C21.0764 25.7512 21.7941 26.408 22.5318 25.8905C23.2695 25.393 25.0439 24.7761 25.5224 24.6368C25.6329 24.6059 25.8002 24.5907 25.9981 24.5727C26.6928 24.5094 27.764 24.4119 28.0744 23.4826C28.2482 22.9622 28.6227 22.5665 28.9883 22.1803ZM41.9507 14.9851C41.9707 14.6866 42.0105 14.3284 42.0903 14.2488C42.1079 14.2312 42.1624 14.2117 42.2366 14.1851C42.4988 14.0913 43.0074 13.9092 43.0074 13.4129C43.0473 12.7363 42.6087 12.3781 42.3295 12.199C42.0504 12.0199 42.0105 11.6219 41.9906 11.2836C41.9707 10.9652 41.8909 7.72139 41.9109 7.66169C41.9308 7.60199 42.0105 6.46766 41.5919 6.06965C41.421 5.90727 41.1573 5.77139 40.8873 5.63228C40.4955 5.43042 40.0905 5.22175 39.9371 4.91542C39.9066 4.85461 39.8775 4.79544 39.8492 4.73795C39.6371 4.30637 39.4715 3.96959 39.1196 3.74129C38.8701 3.57941 38.1756 3.6435 37.5686 3.69952C37.2056 3.73302 36.8738 3.76364 36.6873 3.74129C36.1888 3.66169 32.2811 3.40299 32.2811 3.40299C32.2811 3.40299 31.5435 3.56219 31.5634 3.8607C31.5634 3.8607 31.5036 4.21891 31.7428 4.49751C31.9821 4.77612 32.0818 5.33333 32.1615 5.95025C32.2413 6.56716 32.1615 16.2587 32.1615 16.2587C32.1615 16.2587 32.4008 21.5522 31.8824 21.8109C31.364 22.0896 30.3073 22.6866 30.3472 22.9453C30.3871 23.204 30.9653 24.0398 31.7628 23.3632C32.5603 22.6866 33.8761 22.2488 34.4144 22.209C34.7736 22.1824 35.923 22.147 36.7843 22.1204C37.2137 22.1072 37.5715 22.0962 37.724 22.0896C38.1826 22.0697 39.2592 21.791 39.4386 21.5522C39.4674 21.514 39.5151 21.4491 39.5762 21.3661C39.8958 20.9316 40.5799 20.0015 40.8143 19.801C40.9206 19.7161 41.0848 19.6313 41.2558 19.5428C41.5662 19.3824 41.8993 19.2102 41.9507 19.005C42.0026 18.8107 41.9785 17.2851 41.9609 16.1662C41.9514 15.5657 41.9438 15.0824 41.9507 14.9851ZM59.1766 20.4776C59.1766 20.4776 60.612 20.597 60.2133 20C59.8146 19.403 59.5952 18.9851 59.5952 18.806C59.5952 18.6269 59.675 5.43284 59.675 5.43284C59.675 5.43284 59.7149 4.57711 60.0737 4.49751C60.4127 4.39801 60.612 3.56219 59.9541 3.54229C59.2962 3.52239 58.1598 3.54229 58.1598 3.54229C58.1598 3.54229 57.2028 3.9801 57.6214 4.45771C58.0401 4.93532 58.0601 5.37313 58.0601 5.49254C58.0601 5.61194 58.0999 7.00498 58.0999 7.00498C58.0999 7.00498 57.9006 7.801 57.123 8.35821C56.9569 8.47727 56.7124 8.66176 56.4253 8.87847C55.3687 9.67594 53.734 10.9097 53.2951 10.9254C53.1765 10.9296 53.0283 10.9527 52.868 10.9776C52.2733 11.0702 51.5122 11.1887 51.4808 10.4677C51.4409 9.55224 51.4808 5.53234 51.4808 5.53234C51.4808 5.53234 51.3213 4.47761 51.7998 4.41791C52.2783 4.35821 52.7169 4.0597 52.6571 3.8209C52.5773 3.58209 51.8596 3.50249 51.3013 3.54229C50.763 3.58209 48.6297 3.54229 48.6297 3.54229C48.6297 3.54229 48.1911 3.56219 48.0914 3.8408C48.0914 3.8408 47.8322 4.25871 48.0914 4.47761C48.1154 4.49784 48.1391 4.51671 48.1627 4.53538C48.3938 4.71876 48.6009 4.8831 48.7095 6.12935C48.8291 7.50249 48.7095 17.8507 48.7095 17.8507C48.7095 17.8507 48.4902 19.2239 48.2709 19.2836C48.0515 19.3433 47.274 19.9204 47.3139 20.1393C47.3537 20.3582 48.0117 20.3383 48.5699 20.2786C49.1282 20.199 52.0988 20.3184 52.0988 20.3184C52.0988 20.3184 52.6371 19.8607 52.358 19.6219C52.3381 19.606 52.3178 19.5899 52.2973 19.5736C52.01 19.3457 51.6775 19.0819 51.6403 18.7662C51.6332 18.7095 51.6235 18.6358 51.6125 18.5514C51.5616 18.1615 51.4808 17.5425 51.4808 17.3134C51.4808 17.0348 51.4608 14.3682 51.4608 14.3682C51.4608 14.3682 51.6602 13.6517 52.0988 13.6119C52.2414 13.5925 52.4262 13.6278 52.6216 13.6651C53.0271 13.7426 53.4785 13.8288 53.6938 13.4527C53.85 13.1799 53.9297 12.8927 53.9985 12.645C54.0702 12.3868 54.13 12.1714 54.252 12.0597C54.4913 11.8408 56.0663 10.806 56.0663 10.806C56.0663 10.806 56.6445 10.6866 56.6445 11.3433V18.7463C56.6445 18.7463 56.4451 19.7015 56.1062 19.7612C55.7673 19.8408 55.6078 20.4577 55.7872 20.4776C55.9667 20.4975 59.1766 20.4776 59.1766 20.4776ZM72.2805 21.9264C72.4683 22.0603 72.7086 22.2316 73.1327 22.4478C74.0498 22.9453 74.289 22.2886 74.289 22.2886C74.289 22.2886 74.0897 17.2736 74.0897 17.0348C74.0897 16.7761 73.671 16.1791 73.6112 16.1194C73.5514 16.0597 72.3352 14.5473 71.5377 13.3532C70.9225 12.4321 70.7225 11.1319 70.5992 10.3299C70.5627 10.0923 70.5328 9.89849 70.501 9.77114C70.4007 9.37079 70.5989 8.64169 70.748 8.09315C70.8064 7.87824 70.8573 7.69104 70.8798 7.56219C70.9595 7.08458 70.1421 6.88557 69.524 6.80597C68.9482 6.73181 67.9051 5.56937 67.604 5.23385C67.5819 5.20924 67.5639 5.18909 67.5502 5.17413C67.3509 4.95522 66.0549 3.52239 65.9353 3.32338C65.8356 3.12438 64.3204 3.44279 64.3204 3.44279C63.8419 3.8806 64.4001 4.41791 64.5995 4.41791C64.7989 4.41791 65.0581 4.81592 65.3771 6.24876C65.6011 7.26884 65.0878 9.47619 64.707 11.1139C64.5455 11.8085 64.4078 12.4006 64.3603 12.7562C64.2716 13.4199 63.7026 15.1962 63.17 16.8586C62.7444 18.1872 62.3421 19.4431 62.227 20C61.9678 21.2537 63.164 20.4975 63.164 20.4975C63.164 20.4975 65.2973 14.9055 65.5166 14.5274C65.7359 14.1493 66.5733 14.806 66.5733 14.806C66.5733 14.806 68.0885 17.3134 68.7664 18.2687C69.2272 18.9179 69.1168 19.9902 69.0427 20.7104C69.0078 21.0498 68.9809 21.311 69.0256 21.4129C69.1079 21.6008 69.7943 21.5808 70.4579 21.5615C70.9188 21.5481 71.3687 21.5349 71.5975 21.592C71.9031 21.6574 72.0534 21.7645 72.2805 21.9264ZM85.5337 4.73632C85.5337 4.73632 85.434 4.61692 85.5935 4.27861C85.753 3.9403 85.6932 3.64179 85.0153 3.58209C84.3374 3.52239 81.5462 3.46269 81.5462 3.46269C81.5462 3.46269 80.988 3.8209 81.4665 4.27861C81.5566 4.36484 81.6503 4.4433 81.7439 4.52172C82.1473 4.8595 82.5494 5.19633 82.6627 6.14925C82.8023 7.32338 83.0216 15.3433 83.0216 15.3433L83.0615 17.5721C83.0615 17.5721 82.4035 18.01 81.6858 17.1343C80.968 16.2587 80.35 15.5025 80.2104 15.1045C80.0709 14.7065 79.5325 12.8756 79.4927 12.3582C79.4528 11.8408 78.8347 8.0597 78.5157 6.90547C78.2517 5.9502 77.5371 4.87224 77.2646 4.46132C77.2079 4.37574 77.1703 4.31909 77.16 4.29851L77.1002 4.1791C77.1002 4.1791 76.522 3.34328 75.9239 3.72139L76.0435 22.2687C76.0435 22.2687 75.6846 22.9453 76.2628 23.0249C76.841 23.1045 77.9176 23.3433 77.9974 23.4627C78.0771 23.5821 79.3132 24.4179 79.2534 23.6219C79.2105 23.0507 78.8801 22.7664 78.6011 22.5263C78.4914 22.4319 78.3896 22.3443 78.3164 22.2488C78.0373 21.9303 77.9575 20.9552 77.9575 20.6169C77.9575 20.5436 77.9659 20.2995 77.9777 19.9581C78.0203 18.7234 78.1067 16.2166 77.9974 15.9204C77.9405 15.7663 77.92 15.6849 77.8969 15.5927C77.8632 15.4587 77.8238 15.3019 77.6584 14.8657C77.3793 14.1294 76.9606 11.801 77.0205 11.1244C77.1002 10.4478 77.4391 9.59204 77.7781 10.1095C78.117 10.607 78.6752 12.1393 78.7351 12.9353C78.7702 13.2864 78.8829 13.8774 78.9946 14.4626C79.136 15.2044 79.2757 15.9367 79.2534 16.1592C79.2136 16.5572 79.2136 17.9701 79.6123 18.8856C80.0083 19.7947 81.3679 21.4693 82.3044 22.6229L82.3238 22.6468C83.2409 23.801 84.5567 25.2139 84.5567 25.2139C84.5567 25.2139 85.3941 25.99 85.5337 25.2139C85.6732 24.4378 85.5337 4.73632 85.5337 4.73632ZM97.7552 27.3831C98.0344 27.4428 98.3135 27.005 98.2736 26.6269C98.2337 26.2488 98.2736 11.1045 98.2935 10.4279C98.2935 9.75124 98.5129 8.31841 98.5527 8.1592C98.5926 8 98.2935 7.50249 97.7951 7.20398C97.2967 6.90547 95.9609 5.45274 95.7017 4.87562C95.4425 4.29851 95.0438 3.48259 94.7447 3.46269C94.6685 3.46269 94.3878 3.48982 93.9932 3.52796C92.8394 3.63948 90.712 3.8451 89.88 3.74129C89.5454 3.69955 89.1733 3.63815 88.8118 3.57851C87.967 3.43913 87.1805 3.30938 87.0689 3.46269C87.0689 3.46269 86.9891 4.0995 87.2084 4.27861C87.4277 4.45771 87.6869 4.83582 87.6869 5.11443V20.1194V24.8955C87.6869 24.8955 87.667 25.8109 87.3679 25.8507C87.0489 25.8905 86.6701 26.1891 86.8894 26.4876C87.1087 26.7861 87.5274 26.8259 88.1654 26.806C88.8233 26.7861 89.8003 27.204 90.1791 27.4229C90.4372 27.572 91.4543 28.2571 92.1268 28.71C92.4412 28.9217 92.6802 29.0827 92.731 29.1144C92.7501 29.1263 92.7892 29.1542 92.844 29.1933C93.2469 29.4806 94.4982 30.3731 94.8843 29.9701C95.0558 29.7826 95.291 29.4547 95.5335 29.1166C95.8829 28.6295 96.2475 28.1211 96.4593 27.9801C96.8182 27.7413 97.4761 27.3234 97.7552 27.3831ZM105.607 14.4946C105.921 12.0043 106.344 8.63853 108.262 10.1891C108.262 10.1891 109.04 10.5473 108.801 9.17413C108.541 7.8806 107.345 6.50746 106.607 5.73134C105.87 4.93532 105.311 3.9801 105.311 3.9801C105.311 3.9801 104.833 2.92537 104.454 3.18408C104.454 3.18408 102.72 5.33333 102.421 5.91045C102.122 6.50746 101.145 8.85572 101.284 11.1244C101.398 12.9802 102.06 14.7962 102.766 16.7355C102.923 17.1669 103.082 17.6044 103.238 18.0498C104.095 20.4975 104.155 24.1393 104.135 25.194C104.115 26.2687 103.677 30.4478 102.082 31.204C100.487 31.9801 99.4499 29.7711 99.4499 29.7711C99.4499 29.7711 98.9116 29.0945 98.5527 29.5721C98.2988 29.8924 98.457 30.3468 98.5889 30.7254C98.6538 30.9116 98.7122 31.0794 98.7122 31.204C98.7122 31.3104 98.7008 31.4452 98.6887 31.5888C98.6554 31.9821 98.6167 32.4406 98.792 32.5572C98.8656 32.6081 99.1357 32.7217 99.4982 32.8741C100.412 33.2583 101.913 33.8895 102.341 34.3881C102.939 35.0846 104.594 36.7562 105.232 37.3333C105.87 37.9104 106.807 38.0896 107.305 37.393C107.804 36.6965 108.003 36.1791 107.983 33.7512C107.974 32.6354 108.057 31.1285 108.135 29.7312C108.226 28.0882 108.309 26.5966 108.222 26.0697C108.188 25.8573 108.153 25.5714 108.112 25.2363C107.966 24.0325 107.743 22.1945 107.166 20.8557C107.039 20.5621 106.9 20.2644 106.757 19.96C106.068 18.4899 105.306 16.8634 105.571 14.7861C105.583 14.6905 105.595 14.5933 105.607 14.4946ZM39.5184 10.2686C39.4984 10.5274 39.4187 12.2388 39.7776 12.5771C39.8193 12.6141 39.8591 12.6484 39.8975 12.6815C40.1895 12.9332 40.3998 13.1143 40.7345 13.8706C41.0934 14.7264 40.6947 16.4378 40.6149 16.7164C40.5352 16.995 40.0766 17.3731 39.7177 17.6119C39.3589 17.8308 38.8804 18.0497 38.5614 18.1691C38.2424 18.2885 37.724 18.9055 37.4449 19.3632L37.4266 19.3932C37.1654 19.822 37.148 19.8506 36.3683 20.2786C35.5708 20.7164 35.4512 19.9801 35.4512 19.9801V17.1343V5.69153C35.5708 5.41293 36.129 5.39302 36.6075 5.39302C37.086 5.39302 37.8835 5.51243 38.4218 6.06964C38.6966 6.35402 38.7636 6.45698 38.8296 6.55841C38.8929 6.65572 38.9553 6.75162 39.1994 7.00497C39.6978 7.52238 39.5383 10.0298 39.5184 10.2686ZM94.5853 7.92038C94.2863 7.46267 93.3891 6.06964 93.3492 5.97014C93.3093 5.87063 92.153 5.31342 91.5748 5.81093C91.5748 5.81093 90.6976 5.85073 90.7574 7.82088C90.7829 8.65348 90.7321 9.40628 90.6888 10.0483V10.0484V10.0485V10.0486C90.6307 10.9103 90.586 11.5725 90.7574 11.9602C90.8604 12.1932 90.9847 12.3932 91.092 12.5659C91.2962 12.8945 91.4388 13.1239 91.2558 13.2935C91.1745 13.3631 91.0052 13.3651 90.8065 13.3675C90.3233 13.3732 89.6666 13.381 89.6807 14.3681C89.7007 15.7612 89.8402 23.5821 89.8402 23.5821L89.8203 24.4776C89.8203 24.4776 89.7206 24.9353 90.3786 25.2537C90.6385 25.3834 90.9249 25.4867 91.1865 25.5811C91.5671 25.7184 91.8953 25.8367 92.0134 25.99L92.0184 25.9965C92.22 26.2582 92.6547 26.8224 93.0502 26.4079C93.1481 26.3056 93.2493 26.1966 93.3499 26.0883C93.6796 25.7335 94.0033 25.385 94.1866 25.2935C94.4258 25.1741 94.7249 25.0149 94.7448 24.1592C94.7519 23.8556 94.7138 22.833 94.6688 21.6256V21.6253C94.587 19.4298 94.4824 16.6233 94.5853 16.4179L94.5999 16.3889C94.7623 16.0652 95.0451 15.5017 95.0838 14.8259C95.1236 14.1293 95.1236 10.5473 95.0838 10.0895C95.0681 9.99963 95.0509 9.87978 95.0311 9.7416L95.0306 9.73847L95.0305 9.73745L95.0304 9.73694C94.9494 9.17151 94.825 8.30313 94.5853 7.92038ZM69.0255 11.6617C69.0184 11.5123 69.0221 11.3355 69.026 11.1473C69.0442 10.2828 69.0673 9.177 68.0685 9.37311C68.0685 9.37311 66.7926 10.6069 66.5932 11.8607C66.3938 13.1144 66.7527 13.8109 67.3309 14.2487C67.929 14.6865 68.6268 15.2239 68.9258 15.7413C69.205 16.2587 69.843 16.796 70.0423 16.7363C70.2417 16.6766 70.7999 16.3582 70.3015 15.0647C70.1427 14.6587 69.9595 14.2508 69.7824 13.8563C69.4037 13.013 69.0527 12.2311 69.0255 11.6617ZM27.6158 7.36318C27.5958 7.20398 27.4563 6.32836 26.7784 5.91045C26.1005 5.49254 25.1435 5.35323 24.9043 5.41293C24.665 5.47264 23.8476 5.85074 23.4688 6.14925C23.09 6.44776 22.2327 6.54726 22.2327 6.54726C22.2327 6.54726 21.495 6.78607 21.7343 7.18408C21.8188 7.31769 22.0378 7.43391 22.2786 7.56172C22.7193 7.79558 23.233 8.06823 23.1299 8.55721C22.9704 9.31343 22.8906 20.6368 22.8906 20.6368C22.8906 20.6368 22.8109 21.8706 23.0501 22.0895C23.2894 22.3085 24.1865 22.8259 24.984 22.5473C25.7815 22.2886 27.3366 20.7164 27.4164 20.3582C27.4961 20 27.6158 17.3333 27.5958 15.9204C27.5852 15.1661 27.5973 12.8239 27.6078 10.7798V10.7797L27.6078 10.7786C27.617 8.9942 27.6251 7.43738 27.6158 7.36318Z" fill="#0B0B0B"/>
</g>
<defs>
<clipPath id="clip0">
<rect width="109.655" height="40" fill="white" transform="translate(0.820068)"/>
</clipPath>
</defs>
</svg>
