<svg width="118" height="40" viewBox="0 0 118 40" fill="none" xmlns="http://www.w3.org/2000/svg">
<g clip-path="url(#clip0)">
<path fill-rule="evenodd" clip-rule="evenodd" d="M0 40H11.1861L18.2923 0H5.71236L6.37148 4.14092L0 40ZM50.341 40H45.8524C42.1458 40 39.6723 37.0174 40.3243 33.3384L45.0752 6.66159C45.7296 2.98259 49.2638 0 52.9704 0H57.4449L50.341 40ZM57.6621 6.66628L58.8433 0H73.1077C76.8143 0 79.2902 2.98259 78.6311 6.66393L77.4498 13.3349H66.2637L67.3008 7.50337C67.3245 7.4024 67.3247 7.29739 67.3014 7.19633C67.2781 7.09526 67.2319 7.0008 67.1664 6.9201C67.1008 6.83941 67.0175 6.77461 66.9229 6.73063C66.8283 6.68665 66.7249 6.66464 66.6205 6.66628H57.6621ZM62.8593 32.499L63.894 26.6675H75.0778L73.8966 33.3384C73.2422 37.0174 69.708 40 66.0013 40H51.737L52.9182 33.3338H61.8718C62.107 33.3251 62.3324 33.238 62.5116 33.0865C62.6907 32.9351 62.8132 32.7281 62.8593 32.499ZM102.012 32.499L103.049 26.6675H114.233L113.052 33.3384C112.4 37.0174 108.863 40 105.157 40H90.8945L92.0757 33.3338H101.025C101.26 33.3255 101.486 33.2385 101.665 33.087C101.844 32.9355 101.966 32.7283 102.012 32.499ZM97.9983 0L96.8171 6.66628H105.766C105.871 6.66308 105.976 6.68397 106.071 6.72733C106.167 6.7707 106.251 6.83536 106.318 6.91632C106.384 6.99727 106.431 7.09234 106.455 7.19415C106.478 7.29596 106.478 7.40177 106.453 7.50337L105.416 13.3349H116.605L117.786 6.66393C118.443 2.98259 115.967 0 112.26 0H97.9983ZM85.019 40H89.4935L96.5997 0H92.1347C88.4186 0 84.882 2.98259 84.23 6.66159L79.491 33.3384C78.8366 37.0174 81.3124 40 85.019 40ZM33.9551 0C37.6617 0 40.1352 2.98259 39.4831 6.66159L36.634 22.6672C36.2419 24.8784 34.1181 26.6698 31.8926 26.6698H31.4769L33.6031 40.0023H22.4169L20.2907 26.6698H14.9564L16.1376 20.0035H25.0865C25.3216 19.9944 25.5467 19.9072 25.7258 19.7558C25.9049 19.6044 26.0275 19.3977 26.074 19.1688L28.1458 7.50337C28.1702 7.40177 28.1706 7.29596 28.1472 7.19415C28.1237 7.09234 28.0769 6.99727 28.0104 6.91632C27.9439 6.83536 27.8595 6.7707 27.7638 6.72733C27.6681 6.68397 27.5635 6.66308 27.4584 6.66628H18.5095L19.6907 0H33.9551Z" fill="#0B0B0B"/>
</g>
<defs>
<clipPath id="clip0">
<rect width="117.895" height="40" fill="white"/>
</clipPath>
</defs>
</svg>
