<svg width="70" height="40" viewBox="0 0 70 40" fill="none" xmlns="http://www.w3.org/2000/svg">
<g clip-path="url(#clip0)">
<path d="M17.7773 17.525C18.0135 17.6479 18.3832 17.9144 18.4242 18.1604C18.4653 18.4063 18.3832 18.4678 18.5167 18.5293H19.3691C19.3691 18.5293 19.595 18.5088 19.5539 18.3653C19.5128 18.2219 19.3999 17.8837 19.3999 17.8837C19.3999 17.8837 19.7388 17.9759 19.8004 18.1604C19.862 18.3448 19.8517 18.5293 20.0263 18.5293C20.2009 18.5293 20.6014 18.5293 20.6014 18.5293C20.6014 18.5293 20.9608 18.5601 20.8273 18.3448C20.6938 18.1296 20.6014 17.9349 20.6014 17.9349C20.6014 17.9349 21.0122 18.0169 21.0943 18.2116C21.1765 18.4063 21.1662 18.5908 21.4538 18.5908C21.7413 18.5908 21.9878 18.5908 21.9878 18.5908C21.9878 18.5908 22.2753 18.3961 21.9878 17.9554C21.7002 17.5147 21.69 17.4122 20.8068 17.2482C19.9236 17.0843 19.6361 17.0228 19.6566 16.2439C19.6566 16.2439 19.5026 15.301 20.3241 14.9423C21.156 14.5836 21.7721 14.6554 22.0391 14.6451C22.3164 14.6349 23.518 14.8603 24.9968 14.3787C26.4756 13.897 26.9891 13.528 27.9134 12.4109C28.8376 11.3041 29.7722 10.4842 31.0969 10.9556C32.4217 11.4168 34.3319 13.1898 36.5604 13.3948C36.5604 13.3948 38.3473 13.7432 38.224 12.9644C38.1008 12.1752 38.0186 11.0991 38.6245 10.8327C39.2305 10.5765 40.165 10.351 40.3396 9.81806C40.3396 9.81806 40.545 10.4842 39.6002 10.8737C38.6554 11.2631 38.6656 12.1342 38.6656 12.3085C38.6656 12.4827 38.8402 13.6305 38.2343 13.9277C38.2343 13.9277 38.7067 13.856 38.8299 13.6408C38.8299 13.6408 38.7067 14.3787 38.3883 14.6451C38.3883 14.6451 38.7889 14.5221 38.9634 14.2147C38.9634 14.2147 38.7478 15.8032 38.3267 16.3669C37.9057 16.9408 37.8851 17.7197 38.2857 17.8427C38.6862 17.9656 39.1175 18.1194 39.2407 18.3756C39.2407 18.3756 39.2305 18.6011 39.4975 18.6011C39.7645 18.6011 40.4115 18.6011 40.4115 18.6011C40.4115 18.6011 40.5142 18.6625 40.4833 18.3961C40.4525 18.1296 40.3498 17.9964 40.3498 17.9964C40.3498 17.9964 40.5347 17.9247 40.699 18.1501C40.8633 18.3756 40.8222 18.5601 40.8222 18.5601C40.8222 18.5601 40.7606 18.6113 41.0584 18.6215C41.3665 18.6215 41.6746 18.7035 41.6746 18.4986C41.6746 18.2936 41.4487 17.8222 41.4487 17.8222C41.4487 17.8222 41.7157 17.8632 41.8492 18.1091C41.9724 18.3551 41.9211 18.5396 42.1059 18.5601C42.2908 18.5806 42.5578 18.5601 42.5578 18.5601C42.5578 18.5601 42.8864 18.5703 42.7221 18.1501C42.5578 17.7299 42.4038 17.2687 41.5411 17.2073C40.6682 17.1458 40.052 17.2892 40.0828 16.5923C40.1136 15.8954 40.545 15.0756 41.8184 14.2249C43.0918 13.3743 43.9442 12.5852 44.2626 11.0581C44.5501 9.67458 44.3139 9.12116 44.2728 9.01868C44.355 9.17241 45.0122 10.4842 44.4474 11.7755C43.8929 13.0361 43.4615 13.1386 43.3896 13.1488C43.5129 13.1386 45.1457 12.9541 45.1663 11.4373C45.1663 11.4373 46.1932 12.6262 43.9442 13.3641C43.9442 13.3641 45.1047 13.7023 45.7927 13.0361C46.4808 12.3597 46.2241 11.7448 46.3473 11.5501C46.4705 11.3553 46.8402 10.9966 46.9532 11.1606C47.0662 11.3246 47.0251 11.5501 46.6656 11.8575C46.3165 12.1752 45.8749 13.7228 46.1522 14.9321C46.1522 14.9321 46.5116 13.897 47.1586 13.5075C47.7953 13.1181 49.2741 12.6774 49.7157 11.1299C50.1573 9.58235 50.1162 8.18855 50.0135 7.72736C49.9108 7.26618 49.8287 6.62052 50.0033 6.71276C50.1778 6.79475 50.6092 7.95283 51.4205 8.10656C52.2318 8.26029 52.3653 6.79475 52.3653 6.79475C52.3653 6.79475 52.3858 6.46679 51.9648 6.72301C51.5437 6.97922 51.287 7.07146 51.1227 6.84599C50.9583 6.62052 51.1329 6.27207 51.5129 6.26182C51.9031 6.26182 52.2523 6.50779 52.4988 6.29257C52.7452 6.07735 53.423 5.33946 53.0328 5.27797C52.6426 5.21648 52.6426 5.31896 52.6631 5.40095C52.6836 5.48294 52.7863 5.67766 52.468 5.55468C52.1496 5.43169 52.088 5.032 52.2523 4.91927C52.4166 4.80653 52.4474 4.93976 52.5501 4.96026C52.6528 4.98076 53.0123 4.98076 52.7247 4.64256C52.4372 4.30436 51.708 3.6382 51.5437 3.37174C51.3794 3.10528 51.5232 2.41863 50.8967 2.33664C50.2703 2.25465 50.0649 2.31614 49.4282 1.76272C48.7915 1.19905 48.0212 -0.112759 46.7581 0.0102231C46.7581 0.0102231 47.4975 0.666129 47.0353 0.778863C46.5629 0.901845 46.0084 0.10246 45.269 0.10246C44.5296 0.10246 44.1393 0.625135 43.6053 1.25029C43.6053 1.25029 43.5231 1.5475 42.9172 1.47576C42.3011 1.41427 41.1817 1.42452 39.9596 2.99254C39.9596 2.99254 41.0584 2.48012 41.5 3.25901C41.5 3.25901 40.2677 3.07453 39.7439 3.58696C39.2202 4.09939 38.1727 5.52393 36.9711 5.52393C35.7696 5.52393 31.5077 3.39224 26.6605 6.22083C26.6605 6.22083 25.2125 7.23543 23.9288 9.05967C22.6553 10.8839 21.0738 11.2426 20.4063 11.2426C19.7388 11.2426 19.2561 10.7199 19.2047 10.0025C19.1637 9.28514 19.2869 8.79321 20.0263 8.35252C20.7657 7.91184 21.3819 7.23543 21.0122 6.22083C20.6322 5.20623 19.5847 4.54007 19.5847 4.54007C19.5847 4.54007 19.6977 5.63666 19.3074 5.84164C18.9172 6.04661 19.1226 6.96897 19.1226 6.96897C19.1226 6.96897 19.0096 6.75375 18.6604 6.75375C18.6604 6.75375 18.8658 6.99972 18.8864 7.58388C18.9069 8.16805 18.8042 8.45501 18.6707 8.99818C18.5372 9.54135 18.3113 11.2734 20.016 11.9703C21.7208 12.6569 23.5899 10.8839 23.5899 10.8839C23.5899 10.8839 22.5732 13.0259 20.242 13.2103C17.9108 13.3948 18.4756 14.0712 18.4448 14.7579C18.414 15.4445 18.2805 16.4181 17.8594 16.7666C17.4281 17.1048 17.5411 17.402 17.7773 17.525ZM49.8492 2.9413C49.8492 2.9413 50.0443 3.13602 50.2292 3.07453C50.414 3.01304 50.414 2.85931 50.5784 2.85931C50.7427 2.85931 50.9275 2.95155 50.8043 3.22826C50.6811 3.50497 50.4038 3.51522 50.1676 3.42298C49.9314 3.33075 49.7671 3.11553 49.8492 2.9413ZM47.1175 3.45373C47.3332 2.97205 48.1445 2.80807 48.432 3.20776C48.7298 3.60746 49.3871 3.74069 49.3871 3.74069C48.6888 3.84317 48.6271 3.6587 48.2369 3.41273C47.8466 3.17702 47.364 3.42298 47.3434 3.94566C47.3126 4.47858 47.4769 4.54007 48.165 5.44194C48.8531 6.33356 48.5655 6.66152 48.5655 6.66152C48.5347 6.27207 48.0007 5.59567 47.5078 5.06275C47.0148 4.52982 46.9018 3.93541 47.1175 3.45373ZM54.1316 17.0843C55.5283 17.0843 55.7029 17.4942 55.8159 17.9144C55.9288 18.3346 55.7542 18.5601 55.7542 18.5601C55.7542 18.5601 55.5899 18.5601 55.4051 18.5601C55.2202 18.5601 55.2818 18.4473 55.251 18.1911C55.2202 17.9349 54.8197 17.8017 54.8197 17.8017C54.8197 17.8017 54.9019 18.1296 54.9429 18.2936C54.984 18.4576 54.8916 18.5396 54.8916 18.5396C54.8916 18.5396 54.5732 18.5703 54.3781 18.5396C54.183 18.5088 54.2241 18.3858 54.1522 18.1296C54.07 17.8837 53.6387 17.7402 53.6387 17.7402C53.6387 17.7402 53.7517 18.0066 53.8646 18.3141C53.9776 18.6215 53.7517 18.5293 53.7517 18.5293C53.7517 18.5293 53.2895 18.5498 53.0328 18.5293C52.7761 18.5088 52.8685 18.4371 52.7247 18.2833C52.5809 18.1296 52.355 18.1091 51.6567 17.9656C50.9583 17.8222 49.6952 16.5206 49.1714 15.9979C48.6477 15.4753 47.4051 14.6759 47.4051 14.6759C47.7439 14.0405 48.8017 13.6818 49.0277 13.6203C49.2536 13.5588 49.7876 12.9234 49.7876 12.9234C49.7876 12.9234 50.2087 13.7637 50.3011 13.9072C50.3935 14.0405 50.8454 14.5119 51.3691 15.1473C51.8929 15.7827 52.1085 16.3054 52.4782 16.6641C52.8582 17.0023 52.735 17.0843 54.1316 17.0843ZM33.079 15.2088C33.0379 15.8852 33.2946 16.3054 33.9313 16.7563C34.5681 17.2073 35.4615 17.115 36.1496 17.2687C36.8274 17.4225 37.002 17.9144 37.0636 18.2116C37.1252 18.4986 36.8479 18.5191 36.8479 18.5191C36.8479 18.5191 36.6117 18.5191 36.4166 18.5191C36.2215 18.5191 36.242 18.4268 36.2009 18.2116C36.1598 17.9964 35.7799 17.9964 35.7799 17.9964C36.1188 18.1296 35.9647 18.5396 35.9647 18.5396C35.9647 18.5396 35.6361 18.5396 35.441 18.5396C35.2458 18.5396 35.3383 18.5806 35.2767 18.3038C35.215 18.0169 34.7734 17.9861 34.7734 17.9861C34.7734 17.9861 34.9172 18.2321 35.0199 18.3346C35.1226 18.4371 35.0199 18.6011 35.0199 18.6011H34.7734C34.7734 18.6011 33.9416 18.6523 33.8595 18.6011C33.7773 18.5498 33.4692 18.3243 33.3665 18.1911C33.2638 18.0681 32.165 17.3815 31.9185 17.2687C31.672 17.156 31.2407 17.0433 31.3229 16.4181C31.405 15.793 31.405 15.7212 31.1586 15.2088C30.9223 14.6964 28.5706 12.3392 28.5706 12.3392C28.5706 12.3392 29.3922 11.4578 30.2137 11.3963C31.0353 11.3348 32.1958 12.083 32.699 12.3392C33.2022 12.5954 33.4487 12.7081 33.4487 12.7081C33.4487 12.7081 33.4692 12.9951 33.4179 13.5895C33.3768 14.1839 33.12 14.5426 33.079 15.2088ZM2.28044 37.1099L1.91073 38.8624C1.86965 39.0571 1.7875 39.2006 1.67453 39.2928C1.56157 39.3851 1.39725 39.4261 1.20213 39.4261C1.08917 39.4261 0.986469 39.4158 0.894043 39.3851L0.9762 38.9956C1.02755 39.0161 1.08917 39.0264 1.17132 39.0264C1.32537 39.0264 1.41779 38.9546 1.43833 38.8214L1.80804 37.0996H2.28044V37.1099ZM3.74899 37.7351L3.38956 39.4158H2.99931L3.05066 39.1493C2.95823 39.3441 2.79392 39.4466 2.57826 39.4466C2.44475 39.4466 2.34206 39.4158 2.27017 39.3441C2.19828 39.2723 2.1572 39.1698 2.1572 39.0469C2.1572 38.9854 2.16747 38.9239 2.17774 38.8521L2.41394 37.7351H2.87608L2.65014 38.8009C2.63987 38.8316 2.63987 38.8726 2.63987 38.9034C2.63987 39.0161 2.70149 39.0674 2.81446 39.0674C2.93769 39.0674 3.01985 38.9854 3.06093 38.8316L3.29713 37.7351H3.74899ZM5.15593 37.8068C5.22781 37.8785 5.26889 37.981 5.26889 38.104C5.26889 38.1655 5.25862 38.227 5.24835 38.2987L5.00188 39.4158H4.53975L4.76568 38.35C4.77595 38.3192 4.77595 38.2782 4.77595 38.2475C4.77595 38.1347 4.71433 38.0835 4.60137 38.0835C4.47813 38.0835 4.39598 38.1655 4.3549 38.3192L4.1187 39.4158H3.66683L4.02627 37.7351H4.41652L4.36517 38.0015C4.45759 37.8068 4.62191 37.7043 4.83757 37.7043C4.98134 37.7043 5.08404 37.7453 5.15593 37.8068ZM5.64887 37.7351H6.10073L5.74129 39.4158H5.28943L5.64887 37.7351ZM5.70021 37.5096L5.79264 37.0689H6.23423L6.14181 37.5096H5.70021ZM7.40497 37.8375C7.292 37.7453 7.13796 37.7043 6.94284 37.7043C6.56286 37.7043 6.33693 37.8888 6.25477 38.2577L6.14181 38.7702C6.13154 38.8316 6.12127 38.8931 6.12127 38.9444C6.12127 39.1084 6.18289 39.2313 6.29585 39.3236C6.40882 39.4158 6.56286 39.4568 6.75798 39.4568C7.13796 39.4568 7.36389 39.2723 7.44605 38.9034L7.55901 38.391C7.56928 38.3295 7.57955 38.268 7.57955 38.2167C7.57955 38.0528 7.51793 37.9298 7.40497 37.8375ZM7.11742 38.3192L6.99418 38.8931C6.96338 39.0161 6.89149 39.0776 6.76825 39.0776C6.63475 39.0776 6.57313 39.0264 6.57313 38.9136C6.57313 38.8931 6.57313 38.8726 6.5834 38.8521L6.70664 38.2782C6.73744 38.1552 6.80933 38.0938 6.9223 38.0938C6.98391 38.0938 7.03526 38.1142 7.06607 38.145C7.09688 38.1757 7.11742 38.2167 7.11742 38.268C7.12769 38.2782 7.12769 38.2885 7.11742 38.3192ZM8.71948 37.7043C8.79136 37.7043 8.84271 37.7146 8.88379 37.7453L8.79136 38.1655C8.75029 38.1552 8.69894 38.145 8.62705 38.145C8.41139 38.145 8.26762 38.268 8.21627 38.5037L8.02114 39.4158H7.56928L7.92872 37.7351H8.31896L8.26762 38.0528C8.37031 37.817 8.51408 37.7043 8.71948 37.7043ZM10.0648 38.063H10.6502L10.568 38.4627H9.98264L9.77725 39.4158H9.30484L9.79778 37.1099H11.0199L10.9377 37.5096H10.188L10.0648 38.063ZM11.1636 37.5096L11.2561 37.0689H11.6977L11.6052 37.5096H11.1636ZM11.5642 37.7351L11.2047 39.4158H10.7529L11.1123 37.7351H11.5642ZM12.7554 37.7351L12.6733 38.0733C12.663 37.9503 12.6219 37.858 12.5398 37.7965C12.4679 37.7351 12.3652 37.6941 12.2317 37.6941C11.9544 37.6941 11.7798 37.858 11.7079 38.1962L11.6052 38.7087C11.5847 38.7906 11.5847 38.8521 11.5847 38.9034C11.5847 39.0366 11.6258 39.1391 11.6977 39.2108C11.7695 39.2826 11.8722 39.3236 12.0057 39.3236C12.1701 39.3236 12.2933 39.2723 12.396 39.1596L12.3446 39.3851C12.3138 39.5285 12.2317 39.6003 12.1084 39.6003C11.9749 39.6003 11.9031 39.5593 11.9031 39.4773H11.4717C11.4615 39.6413 11.5128 39.7643 11.636 39.836C11.7593 39.918 11.9133 39.959 12.1084 39.959C12.3138 39.959 12.4679 39.918 12.5706 39.8258C12.6733 39.7438 12.7452 39.6003 12.7862 39.4261L13.1457 37.7351H12.7554ZM12.5603 38.3705L12.4884 38.7189C12.4679 38.8009 12.4371 38.8521 12.396 38.8829C12.3549 38.9136 12.3036 38.9341 12.2317 38.9341C12.1187 38.9341 12.0571 38.8829 12.0571 38.7804C12.0571 38.7497 12.0571 38.7087 12.0674 38.6677L12.1393 38.309C12.1495 38.2577 12.1701 38.2065 12.1906 38.1552C12.2214 38.104 12.2728 38.0835 12.3549 38.0835C12.4884 38.0835 12.55 38.1552 12.55 38.2885L12.5603 38.3705ZM14.5731 37.8068C14.645 37.8785 14.6861 37.981 14.6861 38.104C14.6861 38.1655 14.6758 38.227 14.6656 38.2987L14.4294 39.4158H13.9672L14.1932 38.35C14.2034 38.3192 14.2034 38.2782 14.2034 38.2475C14.2034 38.1347 14.1418 38.0835 14.0289 38.0835C13.9159 38.0835 13.8337 38.1552 13.7927 38.2987L13.5565 39.4158H13.1046L13.5975 37.1099H14.0494L13.8851 37.8683C13.9775 37.7555 14.111 37.7043 14.2753 37.7043C14.3986 37.7043 14.5013 37.7453 14.5731 37.8068ZM15.5898 39.0571C15.6206 39.0571 15.6515 39.0571 15.6925 39.0469L15.6104 39.4261C15.559 39.4363 15.5077 39.4466 15.4461 39.4466C15.0969 39.4466 14.9223 39.3133 14.9223 39.0366C14.9223 38.9854 14.9326 38.9341 14.9429 38.8726L15.1072 38.0938H14.871L14.9531 37.7351H15.1996L15.3228 37.3046H15.7336L15.6412 37.7351H15.9595L15.8774 38.0938H15.559L15.3947 38.8521C15.3844 38.8829 15.3844 38.9034 15.3844 38.9239C15.3844 38.9751 15.3947 39.0059 15.4255 39.0264C15.4563 39.0469 15.5282 39.0571 15.5898 39.0571ZM16.6784 37.7351L16.319 39.4158H15.8671L16.2266 37.7351H16.6784ZM16.2779 37.5096L16.3703 37.0689H16.8119L16.7195 37.5096H16.2779ZM18.2086 38.1142C18.2086 38.1757 18.1983 38.2372 18.188 38.309L17.9518 39.4261H17.4897L17.7156 38.3602C17.7259 38.3295 17.7259 38.2885 17.7259 38.2577C17.7259 38.145 17.6643 38.0938 17.5513 38.0938C17.4281 38.0938 17.3459 38.1757 17.3049 38.3295L17.0687 39.4261H16.6168L16.9762 37.7453H17.3665L17.3151 38.0118C17.4076 37.817 17.5719 37.7146 17.7875 37.7146C17.921 37.7146 18.0237 37.7453 18.0956 37.817C18.1675 37.8785 18.2086 37.981 18.2086 38.1142ZM19.3896 38.0835C19.3793 37.9605 19.3382 37.8683 19.2561 37.8068C19.1842 37.7453 19.0815 37.7043 18.948 37.7043C18.6707 37.7043 18.4961 37.8683 18.4242 38.2065L18.3216 38.7189C18.301 38.8009 18.301 38.8624 18.301 38.9136C18.301 39.0469 18.3421 39.1493 18.414 39.2211C18.4859 39.2928 18.5886 39.3338 18.7221 39.3338C18.8864 39.3338 19.0096 39.2826 19.1123 39.1698L19.061 39.3953C19.0302 39.5388 18.948 39.6105 18.8248 39.6105C18.6913 39.6105 18.6194 39.5695 18.6194 39.4875H18.188C18.1778 39.6515 18.2291 39.7745 18.3524 39.8462C18.4756 39.9282 18.6296 39.9692 18.8248 39.9692C19.0302 39.9692 19.1842 39.9282 19.2869 39.836C19.3896 39.754 19.4615 39.6105 19.5026 39.4363L19.862 37.7453H19.4615L19.3896 38.0835ZM19.2766 38.3705L19.2047 38.7189C19.1842 38.8009 19.1534 38.8521 19.1123 38.8829C19.0712 38.9136 19.0199 38.9341 18.948 38.9341C18.835 38.9341 18.7734 38.8829 18.7734 38.7804C18.7734 38.7497 18.7734 38.7087 18.7837 38.6677L18.8556 38.309C18.8658 38.2577 18.8864 38.2065 18.9069 38.1552C18.9377 38.104 18.9891 38.0835 19.0712 38.0835C19.2047 38.0835 19.2664 38.1552 19.2664 38.2885L19.2766 38.3705ZM21.4641 38.5549H21.9056L21.844 38.8624C21.7619 39.2518 21.5154 39.4568 21.1252 39.4568C20.93 39.4568 20.776 39.4056 20.6528 39.3133C20.5295 39.2211 20.4782 39.0776 20.4782 38.9034C20.4782 38.8419 20.4884 38.7804 20.4987 38.7189L20.7246 37.6633C20.8068 37.2739 21.0533 37.0689 21.4435 37.0689C21.6386 37.0689 21.7927 37.1201 21.9159 37.2124C22.0391 37.3046 22.0905 37.4378 22.0905 37.6223C22.0905 37.6838 22.0802 37.7453 22.07 37.8068L22.0494 37.9093H21.6078L21.6489 37.7453C21.6592 37.7146 21.6592 37.6838 21.6592 37.6633C21.6592 37.6018 21.6386 37.5506 21.6078 37.5198C21.5667 37.4891 21.5154 37.4686 21.4538 37.4686C21.31 37.4686 21.2278 37.5506 21.197 37.7043L20.9608 38.7804C20.9506 38.8111 20.9506 38.8419 20.9506 38.8624C20.9506 38.9239 20.9711 38.9751 21.0019 39.0059C21.043 39.0366 21.0841 39.0571 21.156 39.0571C21.2997 39.0571 21.3819 38.9751 21.4127 38.8214L21.4641 38.5549ZM23.4255 37.8068C23.4974 37.8785 23.5385 37.981 23.5385 38.104C23.5385 38.1655 23.5282 38.227 23.518 38.2987L23.2818 39.4158H22.8196L23.0456 38.35C23.0558 38.3192 23.0558 38.2782 23.0558 38.2475C23.0558 38.1347 22.9942 38.0835 22.8813 38.0835C22.7683 38.0835 22.6861 38.1552 22.6451 38.2987L22.4089 39.4158H21.9467L22.4397 37.1099H22.8915L22.7272 37.8683C22.8196 37.7555 22.9531 37.7043 23.1175 37.7043C23.251 37.7043 23.3537 37.7453 23.4255 37.8068ZM24.8838 37.8273C24.7811 37.7453 24.6374 37.7043 24.4525 37.7043C24.052 37.7043 23.8363 37.899 23.7747 38.2885H24.1958C24.2266 38.1347 24.2985 38.063 24.4217 38.063C24.5347 38.063 24.5963 38.1142 24.5963 38.2065C24.5963 38.227 24.5963 38.2577 24.586 38.2782L24.5757 38.2987C24.5655 38.3397 24.5347 38.3705 24.4833 38.391C24.432 38.4012 24.3087 38.432 24.1341 38.4524C23.7439 38.5139 23.5488 38.6984 23.5488 39.0059C23.5488 39.1493 23.5899 39.2518 23.6617 39.3338C23.7439 39.4056 23.8466 39.4466 23.9801 39.4466C24.1958 39.4466 24.3498 39.3543 24.4422 39.1596C24.4217 39.2723 24.4217 39.3543 24.4217 39.4158H24.8427C24.8427 39.2723 24.853 39.1186 24.8941 38.9444L25.0071 38.4115C25.0276 38.3192 25.0379 38.2475 25.0379 38.186C25.0379 38.0323 24.9865 37.9093 24.8838 37.8273ZM24.4628 38.8419C24.4114 39.0059 24.319 39.0879 24.1752 39.0879C24.0623 39.0879 24.0109 39.0366 24.0109 38.9444C24.0109 38.8931 24.0315 38.8419 24.0623 38.8111C24.1033 38.7804 24.165 38.7599 24.2471 38.7394C24.3601 38.7189 24.4422 38.6984 24.4833 38.6779L24.4628 38.8419ZM27.4923 38.309L27.2561 39.4261H26.794L27.0199 38.3602C27.0302 38.3295 27.0302 38.2885 27.0302 38.2577C27.0302 38.145 26.9788 38.0938 26.8659 38.0938C26.7529 38.0938 26.6707 38.1655 26.6297 38.3192L26.3935 39.4261H25.9313L26.1573 38.3602C26.1675 38.3295 26.1675 38.2885 26.1675 38.2577C26.1675 38.145 26.1162 38.0938 26.0032 38.0938C25.8902 38.0938 25.8081 38.1655 25.767 38.3192L25.5308 39.4261H25.0789L25.4384 37.7453H25.8286L25.7773 38.0118C25.8697 37.8068 26.0238 37.7043 26.2394 37.7043C26.4653 37.7043 26.5988 37.8068 26.6399 38.0015C26.7324 37.8068 26.8864 37.7043 27.1021 37.7043C27.2356 37.7043 27.328 37.7351 27.3999 37.8068C27.4718 37.8785 27.5026 37.9708 27.5026 38.104C27.5128 38.1757 27.5026 38.2372 27.4923 38.309ZM28.7041 37.7043C28.4885 37.7043 28.3344 37.7965 28.2317 37.9913L28.2728 37.7351H27.8825L27.4101 39.9282H27.862L28.0161 39.1903C28.0777 39.3646 28.2112 39.4466 28.4268 39.4466C28.7041 39.4466 28.8787 39.2826 28.9506 38.9444L29.0841 38.309C29.0944 38.2372 29.1046 38.1757 29.1046 38.1142C29.1046 37.981 29.0636 37.8785 28.9917 37.8068C28.9403 37.7453 28.8376 37.7043 28.7041 37.7043ZM28.6425 38.35L28.5398 38.8419C28.5193 38.9239 28.4987 38.9854 28.4679 39.0161C28.4371 39.0469 28.3858 39.0674 28.3241 39.0674C28.1906 39.0674 28.129 38.9956 28.129 38.8624C28.129 38.8316 28.129 38.8009 28.1393 38.7702L28.242 38.2987C28.2831 38.1552 28.3652 38.0835 28.4987 38.0835C28.6117 38.0835 28.6733 38.1347 28.6733 38.2372C28.6528 38.2782 28.6528 38.3192 28.6425 38.35ZM29.4949 37.7351H29.9467L29.5873 39.4158H29.1354L29.4949 37.7351ZM29.5462 37.5096L29.6386 37.0689H30.0802L29.9878 37.5096H29.5462ZM31.2407 37.8375C31.1277 37.7453 30.9737 37.7043 30.7786 37.7043C30.3986 37.7043 30.1727 37.8888 30.0905 38.2577L29.9775 38.7702C29.9673 38.8316 29.957 38.8931 29.957 38.9444C29.957 39.1084 30.0186 39.2313 30.1316 39.3236C30.2446 39.4158 30.3986 39.4568 30.5937 39.4568C30.9737 39.4568 31.1996 39.2723 31.2818 38.9034L31.3948 38.391C31.405 38.3295 31.4153 38.268 31.4153 38.2167C31.4153 38.0528 31.3639 37.9298 31.2407 37.8375ZM30.9634 38.3192L30.8402 38.8931C30.8094 39.0161 30.7375 39.0776 30.6143 39.0776C30.4808 39.0776 30.4191 39.0264 30.4191 38.9136C30.4191 38.8931 30.4191 38.8726 30.4294 38.8521L30.5526 38.2782C30.5835 38.1552 30.6553 38.0938 30.7683 38.0938C30.8299 38.0938 30.8813 38.1142 30.9121 38.145C30.9429 38.1757 30.9634 38.2167 30.9634 38.268C30.9737 38.2782 30.9634 38.2885 30.9634 38.3192ZM32.9044 37.8068C32.9763 37.8785 33.0173 37.981 33.0173 38.104C33.0173 38.1655 33.0071 38.227 32.9968 38.2987L32.7606 39.4158H32.2985L32.5244 38.35C32.5347 38.3192 32.5347 38.2782 32.5347 38.2475C32.5347 38.1347 32.4731 38.0835 32.3601 38.0835C32.2369 38.0835 32.1547 38.1655 32.1136 38.3192L31.8774 39.4158H31.4256L31.785 37.7351H32.1752L32.1239 38.0015C32.2163 37.8068 32.3806 37.7043 32.5963 37.7043C32.7298 37.7043 32.8325 37.7453 32.9044 37.8068ZM34.2189 38.5754C34.301 38.6369 34.3421 38.7394 34.3421 38.8829C34.3421 39.0571 34.2805 39.1903 34.1675 39.2928C34.0546 39.3953 33.8903 39.4568 33.6951 39.4568C33.5206 39.4568 33.3768 39.4158 33.2535 39.3338C33.1303 39.2518 33.0687 39.1391 33.0687 38.9854C33.0687 38.9546 33.0687 38.9239 33.079 38.8829H33.5103C33.5 38.9239 33.5 38.9546 33.5 38.9649C33.5 39.0161 33.5206 39.0469 33.5514 39.0776C33.5822 39.1084 33.6335 39.1186 33.6951 39.1186C33.7568 39.1186 33.7978 39.1084 33.8389 39.0776C33.88 39.0469 33.8903 39.0059 33.8903 38.9649C33.8903 38.9034 33.8595 38.8624 33.8081 38.8316C33.7978 38.8214 33.767 38.8111 33.7157 38.7906C33.7054 38.7906 33.6951 38.7804 33.6643 38.7702C33.6335 38.7599 33.6233 38.7497 33.613 38.7497C33.4795 38.6984 33.3871 38.6369 33.3254 38.5754C33.2638 38.5037 33.233 38.4115 33.233 38.2885C33.233 38.1142 33.2844 37.981 33.3973 37.8785C33.5103 37.776 33.6643 37.7248 33.8492 37.7248C34.0135 37.7248 34.1573 37.7658 34.2702 37.8375C34.3832 37.9195 34.4448 38.022 34.4448 38.1655C34.4448 38.2065 34.4448 38.2372 34.4346 38.268H34.0135C34.0135 38.2577 34.0135 38.227 34.0135 38.1962C34.0135 38.1142 33.9622 38.0733 33.8492 38.0733C33.7876 38.0733 33.7465 38.0835 33.7054 38.1142C33.6746 38.145 33.6541 38.1757 33.6541 38.227C33.6541 38.268 33.6643 38.2987 33.6951 38.3295C33.7259 38.3602 33.7568 38.3807 33.7773 38.391L33.9313 38.4524C34.0648 38.4627 34.147 38.5139 34.2189 38.5754ZM35.9236 37.8068C35.9955 37.8785 36.0366 37.981 36.0366 38.104C36.0366 38.1655 36.0263 38.227 36.0161 38.2987L35.7799 39.4158H35.3177L35.5437 38.35C35.5539 38.3192 35.5539 38.2782 35.5539 38.2475C35.5539 38.1347 35.4923 38.0835 35.3794 38.0835C35.2664 38.0835 35.1842 38.1552 35.1432 38.2987L34.907 39.4158H34.4551L34.948 37.1099H35.3999L35.2356 37.8683C35.328 37.7555 35.4615 37.7043 35.6258 37.7043C35.7491 37.7043 35.8518 37.7453 35.9236 37.8068ZM36.4679 37.5096L36.5604 37.0689H37.002L36.9095 37.5096H36.4679ZM36.8684 37.7351L36.509 39.4158H36.0571L36.4166 37.7351H36.8684ZM37.9878 37.7043C37.7722 37.7043 37.6181 37.7965 37.5154 37.9913L37.5565 37.7351H37.1663L36.6939 39.9282H37.1457L37.2998 39.1903C37.3614 39.3646 37.4949 39.4466 37.7106 39.4466C37.9878 39.4466 38.1624 39.2826 38.2343 38.9444L38.3678 38.309C38.3781 38.2372 38.3883 38.1757 38.3883 38.1142C38.3883 37.981 38.3473 37.8785 38.2754 37.8068C38.224 37.7453 38.1213 37.7043 37.9878 37.7043ZM37.9262 38.35L37.8235 38.8419C37.803 38.9239 37.7824 38.9854 37.7516 39.0161C37.7208 39.0469 37.6695 39.0674 37.6079 39.0674C37.4744 39.0674 37.4127 38.9956 37.4127 38.8624C37.4127 38.8316 37.4127 38.8009 37.423 38.7702L37.5257 38.2987C37.5668 38.1552 37.6489 38.0835 37.7824 38.0835C37.8954 38.0835 37.957 38.1347 37.957 38.2372C37.9365 38.2782 37.9365 38.3192 37.9262 38.35ZM4.99161 29.9257H6.50124C8.04168 29.9257 9.13026 29.6695 9.76698 29.1468C10.4242 28.6139 10.8453 27.6505 11.0301 26.2465L11.1431 25.3856C11.1945 25.0166 11.2047 24.6682 11.1842 24.33C11.1123 23.3666 10.7118 22.598 10.0134 22.0241C9.30484 21.4501 8.38058 21.1632 7.24065 21.1632H3.25605L1.34591 35.4496H4.27274L4.99161 29.9257ZM5.84399 23.6638H7.0558C7.81575 23.6638 8.22654 24.002 8.27788 24.6682C8.28815 24.7502 8.27788 24.8834 8.26762 25.0781L8.15465 25.939C8.07249 26.5129 7.92872 26.9024 7.69252 27.1176C7.46659 27.3328 7.08661 27.4455 6.57313 27.4455H5.33051L5.84399 23.6638ZM12.8889 35.4496L13.6489 29.7412H14.6142C15.1482 29.7412 15.518 29.8129 15.7439 29.9462C15.9698 30.0794 16.093 30.3254 16.1136 30.6841C16.1239 30.8378 16.1136 31.094 16.0725 31.4835L15.826 33.3384C15.7336 33.9328 15.7028 34.4248 15.7336 34.804C15.7439 34.9679 15.7952 35.1832 15.8671 35.4599H18.6913C18.6399 35.2959 18.6091 35.1319 18.5886 34.9679C18.5578 34.64 18.5988 34.1891 18.681 33.6049L18.9172 31.9344C18.9788 31.3912 18.9993 30.9505 18.9788 30.6123C18.8864 29.4747 18.3729 28.7676 17.4486 28.5114V28.4704C18.2086 28.2244 18.7529 27.9067 19.0815 27.4968C19.4101 27.0971 19.6361 26.4924 19.749 25.693L19.7901 25.4061C19.8415 25.0371 19.8517 24.6887 19.8312 24.3505C19.7593 23.3871 19.3588 22.6185 18.6604 22.0446C17.9518 21.4706 17.0276 21.1837 15.8877 21.1837H11.8825L9.9621 35.4496H12.8889ZM14.4705 23.6638H15.6823C16.4422 23.6638 16.853 24.002 16.9043 24.6682C16.9146 24.7604 16.9043 24.9039 16.8941 25.0986L16.8017 25.7545C16.6784 26.7589 16.0109 27.2611 14.7991 27.2611H13.9775L14.4705 23.6638ZM20.9403 21.1734H23.8671L21.9467 35.4496H19.0199L20.9403 21.1734ZM31.7645 31.7397L32.6066 25.5393C32.6579 25.1294 32.6682 24.7502 32.6374 24.4017C32.5552 23.3974 32.1752 22.6082 31.4872 22.0343C30.7991 21.4604 29.8749 21.1734 28.7247 21.1734H24.5757L22.6553 35.4496H27.215C28.622 35.4496 29.6797 35.1524 30.4089 34.5683C31.1277 33.9841 31.5796 33.0412 31.7645 31.7397ZM29.7208 25.2523L28.8684 31.5347C28.7965 32.0676 28.6425 32.4366 28.396 32.6415C28.1496 32.8568 27.7593 32.9592 27.2458 32.9592H25.9211L27.1739 23.6536H28.4987C29.2792 23.6536 29.69 23.9918 29.7413 24.6579C29.7516 24.8322 29.7516 25.0371 29.7208 25.2523ZM36.2625 23.6638L35.8107 26.9639H39.672L39.3331 29.4542H35.4718L35.0097 32.9592H39.8774L39.5385 35.4496H31.7542L33.6746 21.1734H41.459L41.1201 23.6638H36.2625ZM48.7298 20.743L46.7991 35.1729C46.5835 36.8024 46.0392 37.9913 45.1663 38.7394C44.2934 39.4875 43.0097 39.8667 41.3255 39.8667C40.4012 39.8667 39.5591 39.754 38.7991 39.5388L39.251 36.3413C39.7029 36.5052 40.2266 36.5872 40.8428 36.5872C42.0957 36.5872 42.794 36.0133 42.9378 34.8757L44.8479 20.743H48.7298ZM52.3858 28.5729H56.2677L55.8261 31.8831H51.9442L50.907 39.7233H47.0251L49.5822 20.7327H58.7119L58.2703 24.043H53.0225L52.3858 28.5729ZM69.2382 26.4924L69.115 27.3328H65.4693L65.6644 25.98C65.6952 25.7135 65.7055 25.4778 65.6952 25.3036C65.6541 24.8014 65.4693 24.4017 65.1406 24.1148C64.812 23.8278 64.3807 23.6843 63.8569 23.6843C62.717 23.6843 62.0598 24.33 61.8852 25.611L60.6836 34.5068C60.6528 34.7425 60.6426 34.9782 60.6528 35.2139C60.6939 35.7161 60.8685 36.1158 61.1971 36.3925C61.5155 36.6692 61.9365 36.8127 62.4706 36.8127C63.6105 36.8127 64.2677 36.167 64.4423 34.886L64.7709 32.5903H68.4167L68.0778 35.1422C67.6259 38.3807 65.7774 40 62.5322 40C60.9198 40 59.5951 39.6105 58.5476 38.8214C57.5103 38.0323 56.925 36.9152 56.812 35.4701C56.7709 34.9782 56.7915 34.4863 56.8531 33.9738L58.0238 25.3241C58.4757 22.0856 60.3242 20.4663 63.5694 20.4663C65.1817 20.4663 66.5065 20.8557 67.5437 21.6346C68.581 22.4135 69.1561 23.5203 69.2793 24.9756C69.3204 25.4983 69.3101 26.0005 69.2382 26.4924Z" fill="#0B0B0B"/>
</g>
<defs>
<clipPath id="clip0">
<rect width="68.4058" height="40" fill="white" transform="translate(0.894043)"/>
</clipPath>
</defs>
</svg>
