<svg width="87" height="40" viewBox="0 0 87 40" fill="none" xmlns="http://www.w3.org/2000/svg">
<g clip-path="url(#clip0)">
<path fill-rule="evenodd" clip-rule="evenodd" d="M2.35476 20.0087C2.36066 24.776 4.25805 29.3461 7.63039 32.7158C11.0039 36.0868 15.5764 37.9828 20.3456 37.9881C24.9087 38.0122 29.3051 36.2742 32.6182 33.1365C32.7356 32.9938 32.8842 32.88 33.0526 32.8039C33.2209 32.7277 33.4045 32.6912 33.5892 32.6971C33.9338 32.7103 34.2617 32.849 34.5111 33.0871L35.0302 33.5694C32.2972 36.5266 28.7358 38.5906 24.8112 39.4916C20.8861 40.3932 16.7805 40.0903 13.0302 38.6226C9.28045 37.1553 6.0606 34.5909 3.79158 31.2645C1.52347 27.9392 0.311999 24.0068 0.315682 19.9817C0.319366 15.9565 1.53803 12.0263 3.81222 8.70517C6.08732 5.38329 9.31163 2.82496 13.0638 1.36452C16.8166 -0.0966575 20.9229 -0.392322 24.8463 0.516134C28.7694 1.42453 32.3272 3.49502 35.055 6.4571L34.5356 6.93904C34.2864 7.17746 33.9584 7.31632 33.6137 7.32936C33.4295 7.33407 33.2466 7.29732 33.0785 7.22183C32.9105 7.14634 32.7615 7.03404 32.6427 6.89323C29.3253 3.74511 24.9189 2.002 20.3456 2.02871C15.5764 2.03422 11.0039 3.93028 7.63039 7.3013C4.25797 10.6711 2.36057 15.2413 2.35476 20.0087ZM21.193 8.68562C21.1528 8.71942 21.1012 8.73637 21.0488 8.73291C20.9963 8.72823 20.9478 8.70299 20.9139 8.66268C20.8799 8.62238 20.8633 8.57028 20.8675 8.51775C20.8769 8.4071 21.1137 8.15227 21.1137 8.15227C21.1859 8.27599 21.2367 8.411 21.264 8.55162C21.2585 8.60379 21.2331 8.65181 21.193 8.68562ZM22.3522 9.2003C22.3263 9.19785 22.3012 9.1903 22.2782 9.17807C22.2327 9.15279 22.1986 9.11094 22.1831 9.0612C22.1676 9.01146 22.1719 8.95766 22.195 8.91098C22.2566 8.81259 22.5637 8.6684 22.5637 8.6684C22.5828 8.81065 22.5763 8.95517 22.5453 9.09517C22.5333 9.11824 22.5169 9.13871 22.4969 9.15539C22.477 9.17206 22.4539 9.18462 22.4291 9.19233C22.4042 9.20004 22.3781 9.20275 22.3522 9.2003ZM19.6474 8.6627C19.6134 8.703 19.5649 8.72823 19.5123 8.73291H19.5127C19.4603 8.73645 19.4086 8.71953 19.3685 8.68571C19.3283 8.65189 19.3029 8.60382 19.2975 8.55162C19.3249 8.41097 19.3758 8.27596 19.4482 8.15227C19.4482 8.15227 19.694 8.40743 19.694 8.51775C19.6982 8.57031 19.6814 8.62241 19.6474 8.6627ZM18.3436 9.12967C18.3269 9.14969 18.3064 9.16615 18.2833 9.17807H18.2836C18.2606 9.19035 18.2355 9.19794 18.2095 9.20042C18.1836 9.20289 18.1574 9.2002 18.1326 9.19248C18.1077 9.18477 18.0846 9.1722 18.0646 9.15549C18.0446 9.13879 18.0282 9.11829 18.0162 9.09517C17.9849 8.95517 17.9788 8.81033 17.9978 8.6684C17.9978 8.6684 18.3143 8.81259 18.3633 8.91098C18.3761 8.93365 18.3841 8.95867 18.387 8.98454C18.3899 9.01041 18.3876 9.0366 18.3801 9.06153C18.3726 9.08647 18.3602 9.10964 18.3436 9.12967ZM33.6105 15.3626C33.5053 15.6212 33.3019 15.8276 33.045 15.9368L33.0421 15.94C33.2801 16.1583 33.3846 16.3212 33.4821 16.4733C33.5532 16.5842 33.6206 16.6892 33.7334 16.8058C33.7334 16.8058 33.1834 17.42 32.3966 16.8058C32.2225 17.1404 32.0044 17.4503 31.7482 17.7271C31.5219 17.4999 31.3146 17.2425 31.1009 16.9772C30.627 16.3888 30.1217 15.7614 29.3084 15.3381C29.5622 14.9193 29.8555 14.7234 30.1051 14.5567C30.4028 14.3579 30.6382 14.2008 30.6698 13.7565C30.5844 13.7825 30.4941 13.7875 30.4064 13.771C30.3188 13.7546 30.2364 13.7171 30.1663 13.6619C30.0963 13.6067 30.0406 13.5354 30.0042 13.454C29.9677 13.3726 29.9514 13.2836 29.9568 13.1945C30.203 13.0586 30.354 13.1752 30.4523 13.2511C30.5049 13.2917 30.5424 13.3207 30.5714 13.2929C30.5978 13.2674 30.5633 13.2479 30.5062 13.2155C30.3844 13.1465 30.1596 13.0192 30.2055 12.651C30.5411 12.651 30.6166 12.8078 30.6602 12.8981C30.6808 12.941 30.6943 12.969 30.7249 12.9581C30.755 12.9475 30.7524 12.9114 30.7487 12.8586C30.7407 12.7437 30.727 12.5497 31.0323 12.3684C31.2045 12.6813 31.1011 12.8502 31.0391 12.9514C31.0092 13.0003 30.989 13.0334 31.014 13.0594C31.0409 13.0875 31.0743 13.0625 31.125 13.0247C31.2185 12.9549 31.3709 12.8411 31.6501 12.9368C31.5642 13.3026 31.3106 13.3464 31.1551 13.3733C31.0654 13.3888 31.0083 13.3987 31.0352 13.4616C31.0544 13.503 31.112 13.4873 31.1854 13.4673C31.3246 13.4294 31.5207 13.3759 31.6191 13.6674C31.5806 13.7381 31.5265 13.799 31.4609 13.8456C31.3953 13.8921 31.3199 13.9231 31.2405 13.9362C31.1611 13.9492 31.0798 13.9439 31.0028 13.9208C30.9257 13.8976 30.855 13.8572 30.7959 13.8026C30.7632 14.3297 30.5064 14.5169 30.1658 14.7652C30.0262 14.867 29.8724 14.979 29.7142 15.129C30.849 14.6578 32.1759 15.0049 33.022 15.2262C33.2619 15.2889 33.4632 15.3416 33.6105 15.3626ZM31.9913 16.7505C32.016 16.5259 31.9832 16.2988 31.8959 16.0903L31.8866 16.0752C32.0601 16.1827 32.2046 16.2773 32.3285 16.3585C32.753 16.6364 32.9351 16.7557 33.2108 16.689C32.9796 16.3629 32.7011 16.0732 32.3843 15.8294C32.6298 15.7983 32.8618 15.6994 33.0543 15.5439C32.9792 15.5238 32.8921 15.4983 32.7953 15.47C32.2393 15.3071 31.3628 15.0503 30.5775 15.1968C30.2762 15.2368 30.1104 15.3594 30.2181 15.4271C30.8745 15.9481 31.4005 16.6147 31.7546 17.3742C31.8851 17.1897 31.9665 16.9751 31.9913 16.7505ZM24.3215 28.6836V29.6787L25.3693 30.1023C24.5127 30.5349 23.6096 30.8688 22.6776 31.0974L22.7973 31.5148C21.152 31.9814 19.4095 31.9814 17.7642 31.5148L17.8871 31.0974C16.9547 30.8698 16.0514 30.5359 15.1951 30.1023L16.2371 29.6816V28.6868C17.1894 29.108 18.2071 29.3625 19.2456 29.439L19.3036 29.7952C19.2734 29.7983 19.2425 29.8023 19.2102 29.8065C19.1179 29.8185 19.0141 29.8319 18.8798 29.8319C19.3445 29.8913 19.8123 29.9232 20.2808 29.9274C20.7493 29.9232 21.2172 29.8914 21.6821 29.8323C21.5929 29.8277 21.5147 29.8186 21.4456 29.8106C21.3743 29.8023 21.3126 29.7952 21.2582 29.7952L21.3163 29.4358C22.3537 29.3589 23.3702 29.1045 24.3215 28.6836ZM16.4552 29.8474L15.7516 30.13H15.7513C16.4588 30.4497 17.197 30.6966 17.9546 30.8668L18.3543 29.5681C17.7076 29.4438 17.0724 29.2661 16.4552 29.0368V29.8474ZM18.0468 31.3552C18.7777 31.5375 19.5276 31.6323 20.2808 31.6378H20.2811L20.2746 31.6284C21.0289 31.6227 21.7798 31.5279 22.5118 31.3461L22.0876 29.9826C21.4894 30.0901 20.8824 30.1405 20.2746 30.1329C19.6669 30.1407 19.0598 30.0903 18.4617 29.9826L18.0468 31.3552ZM22.2011 29.5681L22.6008 30.8668C23.3576 30.6975 24.0948 30.4506 24.8009 30.13L24.1002 29.8474V29.0368C23.483 29.2661 22.8478 29.4438 22.2011 29.5681ZM8.81012 17.721C8.55393 17.4442 8.33586 17.1345 8.16172 16.8V16.8029C7.37524 17.4171 6.822 16.8029 6.822 16.8029C6.93521 16.6873 7.001 16.5835 7.07029 16.4742C7.16665 16.3222 7.26976 16.1596 7.51654 15.9397C7.2604 15.83 7.05653 15.6255 6.94814 15.3687C7.09539 15.3471 7.29591 15.2939 7.53463 15.2305C8.38207 15.0057 9.71089 14.6531 10.8473 15.1323C10.6876 14.9807 10.5328 14.8681 10.3926 14.7661C10.0528 14.519 9.79838 14.334 9.76595 13.8058C9.7066 13.8603 9.63627 13.901 9.55885 13.9239C9.44265 13.959 9.31788 13.953 9.20559 13.9069C9.0933 13.8608 9.00034 13.7773 8.94238 13.6707C9.04097 13.3787 9.23749 13.4326 9.37584 13.4706C9.44846 13.4905 9.50506 13.506 9.52305 13.4648C9.55114 13.4019 9.4945 13.3921 9.40566 13.3766C9.25168 13.3497 9.00095 13.306 8.9269 12.94C9.20889 12.8432 9.364 12.9589 9.45739 13.0285C9.50653 13.0652 9.53858 13.0891 9.56305 13.0626C9.58555 13.0381 9.56598 13.0065 9.537 12.9597C9.47502 12.8595 9.36998 12.6897 9.54143 12.3716C9.83737 12.5449 9.82443 12.7317 9.81634 12.8486C9.81224 12.9077 9.80939 12.9489 9.84854 12.9613C9.88846 12.9738 9.90405 12.9403 9.92684 12.8913C9.97092 12.7966 10.042 12.644 10.3679 12.6542C10.4 12.9993 10.1857 13.1189 10.0601 13.189C9.99234 13.2268 9.95041 13.2502 9.98693 13.2868C10.0267 13.3265 10.0708 13.2922 10.1307 13.2457C10.2287 13.1696 10.3689 13.0607 10.6015 13.1884C10.6066 13.2774 10.5902 13.3663 10.5537 13.4475C10.5171 13.5288 10.4615 13.6001 10.3915 13.6552C10.3215 13.7104 10.2392 13.7479 10.1517 13.7644C10.0641 13.781 9.97384 13.7761 9.88854 13.7503C9.91869 14.1943 10.1538 14.3507 10.4514 14.5488C10.7016 14.7153 10.9959 14.9112 11.2499 15.3319C10.4392 15.7488 9.93333 16.3782 9.45891 16.9684C9.24462 17.2349 9.03676 17.4935 8.81012 17.721ZM8.16494 15.8294C7.84655 16.0724 7.56681 16.3622 7.33524 16.689L7.32621 16.7045C7.5975 16.76 7.77797 16.6442 8.18046 16.3859L8.18052 16.3859C8.31117 16.3021 8.46521 16.2032 8.65334 16.0903C8.56619 16.2987 8.53347 16.5259 8.55824 16.7504C8.58301 16.9749 8.66447 17.1895 8.79496 17.3739C9.14796 16.6139 9.67407 15.9472 10.3311 15.4271C10.4418 15.3594 10.2821 15.2368 9.97467 15.1968C9.19841 15.0493 8.30506 15.3096 7.74595 15.4725C7.65216 15.4998 7.56777 15.5244 7.49493 15.5439C7.68737 15.6995 7.9194 15.7984 8.16494 15.8294ZM19.6414 16.6829V16.2439H19.6417H20.9198V16.6832C20.8631 16.6301 20.7956 16.5897 20.7219 16.5648C20.6482 16.5399 20.5701 16.5311 20.4927 16.539V17.1681C20.495 17.3241 20.5362 17.4772 20.6127 17.6132H19.9643C20.0411 17.4771 20.0833 17.3243 20.0872 17.1681V16.5387C20.0069 16.5284 19.9252 16.536 19.8482 16.5609C19.7711 16.5859 19.7005 16.6275 19.6414 16.6829ZM24.4105 20.4478V20.2452C23.796 20.2297 23.6425 19.4929 23.6425 19.4929C23.6093 19.6081 23.6043 19.7296 23.6278 19.8472C23.6514 19.9647 23.7028 20.0749 23.7778 20.1685C23.8527 20.2621 23.9491 20.3363 24.0587 20.3848C24.1683 20.4334 24.288 20.455 24.4076 20.4478H24.4105ZM23.6208 21.6945L23.5563 21.5042C23.0247 21.6423 22.7482 20.7978 22.7482 20.7978C22.7217 20.8892 22.7135 20.985 22.7242 21.0796C22.7348 21.1742 22.7641 21.2658 22.8104 21.349C22.8566 21.4322 22.9189 21.5055 22.9936 21.5645C23.0683 21.6235 23.154 21.6672 23.2457 21.6929C23.3682 21.7274 23.4973 21.729 23.6208 21.6978V21.6945ZM23.9928 20.9116C23.3537 21.0129 23.0924 20.2758 23.0924 20.2758C23.0731 20.3726 23.0739 20.4723 23.0948 20.5687C23.1157 20.6652 23.1562 20.7563 23.2139 20.8364C23.2715 20.9165 23.3451 20.9838 23.4299 21.0342C23.5147 21.0846 23.6091 21.117 23.707 21.1294C23.6875 21.2084 23.6857 21.2908 23.7016 21.3706C23.7175 21.4504 23.7508 21.5258 23.799 21.5913C23.8473 21.6569 23.9094 21.711 23.9809 21.7499C24.0524 21.7888 24.1315 21.8115 24.2128 21.8165C24.3215 21.8229 24.4299 21.7978 24.5244 21.7436L24.4631 21.5626C24.3775 21.5957 24.2834 21.5995 24.1954 21.5734C24.1075 21.5473 24.0306 21.4929 23.9769 21.4185C23.9232 21.3441 23.8956 21.2541 23.8985 21.1624C23.9013 21.0707 23.9345 20.9825 23.9928 20.9116ZM23.6086 18.7987V18.5961C22.7698 18.4242 22.8405 17.8468 22.8405 17.8468C22.8072 17.9616 22.8021 18.0827 22.8254 18.1999C22.8487 18.3172 22.8999 18.427 22.9746 18.5204C23.0493 18.6137 23.1453 18.6877 23.2546 18.7361C23.3638 18.7846 23.4831 18.806 23.6024 18.7987H23.6086ZM18.2865 27.2587L17.9855 27.8668H18.2129L18.511 27.2587H18.2865ZM18.7381 27.2587L18.4404 27.8668H18.6675L18.9655 27.2587H18.7381ZM20.5575 27.2587L20.2591 27.8668H20.4837L20.7846 27.2587H20.5575ZM21.0153 27.2587L20.714 27.8668H20.9385L21.2395 27.2587H21.0153ZM20.1059 27.2587L19.8046 27.8668H20.0288L20.3301 27.2587H20.1059ZM22.7605 27.8668H22.9879L23.2889 27.2587H23.0618L22.7605 27.8668ZM19.1962 27.2587L18.8949 27.8668H19.1223L19.4233 27.2587H19.1962ZM19.6478 27.2587L19.3465 27.8668H19.5772L19.8752 27.2587H19.6478ZM18.6186 23.9823C18.5963 23.9845 18.5757 23.9954 18.5612 24.0126C18.5468 24.0299 18.5396 24.0521 18.5413 24.0745C18.539 24.0861 18.5393 24.0981 18.5421 24.1096C18.545 24.1211 18.5504 24.1318 18.558 24.1409C18.5655 24.15 18.575 24.1574 18.5857 24.1623C18.5965 24.1673 18.6082 24.1698 18.6201 24.1697C18.6318 24.1696 18.6434 24.167 18.654 24.1619C18.6646 24.1568 18.674 24.1495 18.6815 24.1404C18.689 24.1314 18.6944 24.1208 18.6973 24.1094C18.7002 24.098 18.7006 24.0861 18.6984 24.0745C18.6994 24.0632 18.698 24.0518 18.6945 24.041C18.6909 24.0302 18.6853 24.0202 18.6778 24.0116C18.6704 24.003 18.6613 23.996 18.6511 23.9909C18.641 23.9859 18.6299 23.983 18.6186 23.9823ZM18.6186 23.9823L18.6184 23.9823H18.6188L18.6186 23.9823ZM20.2807 10.2281C21.0292 10.2071 21.7643 10.4313 22.3734 10.8668C22.4683 10.3754 22.6515 9.90518 22.914 9.47905L22.1489 9.56195L21.7556 8.72647L21.0027 9.11969L20.2807 8.39195L19.5494 9.11969L18.7904 8.72647L18.4 9.56195L17.6474 9.47905C17.91 9.90518 18.0932 10.3754 18.1881 10.8668C18.797 10.4308 19.5321 10.2064 20.2807 10.2281ZM18.5262 9.89356L18.8859 9.13518L19.5494 9.48808L20.2807 8.76647L21.0153 9.48808L21.6756 9.13518L22.0292 9.89324L22.4718 9.83518C22.3566 10.0438 22.2638 10.2641 22.195 10.4923C21.6097 10.1661 20.9508 9.99487 20.2807 9.99487C19.6107 9.99487 18.9518 10.1661 18.3665 10.4923C18.2977 10.2641 18.2049 10.0438 18.0897 9.83518L18.5262 9.89324V9.89356ZM20.2808 10.6397C21.4853 10.6397 22.576 11.22 22.576 11.8677V11.8681L22.5515 12.0307L22.0721 14.7945L24.349 16.121C24.505 16.2255 24.6375 16.3614 24.738 16.5201C24.8386 16.6787 24.9049 16.8565 24.9328 17.0423H24.518C24.4887 16.8122 24.3737 16.6017 24.1961 16.4526C24.0185 16.3035 23.7912 16.2268 23.5596 16.2377C23.0247 16.2652 22.7176 16.5845 22.4102 17.0426L22.3302 17.1619L22.2166 17.3432H25.5658C25.2853 17.8272 25.1213 18.3698 25.0867 18.9281V25.8861C25.0867 27.6765 23.7099 28.53 22.2228 28.53C22.1361 28.53 22.055 28.5297 21.9789 28.5294C21.0442 28.526 20.8661 28.5254 20.2808 29.1106C19.6955 28.5254 19.5174 28.526 18.5852 28.5294L18.4503 28.5299L18.342 28.53C16.8517 28.53 15.4748 27.6765 15.4748 25.8861V18.9277C15.4403 18.3697 15.2761 17.8271 14.9955 17.3432H18.3482L18.2343 17.1619L18.1546 17.0423C17.8472 16.591 17.5397 16.2655 17.0023 16.2345C16.7699 16.2224 16.5416 16.2986 16.3631 16.4479C16.1847 16.5972 16.0694 16.8085 16.0403 17.0394H15.6255C15.654 16.8538 15.7206 16.6762 15.8211 16.5176C15.9216 16.3591 16.0538 16.2231 16.2094 16.1181L18.4862 14.7913L18.0069 12.0277L17.9823 11.8681C17.9823 11.2203 19.0762 10.6397 20.2808 10.6397ZM20.1608 12.7616L18.4617 12.1871L18.462 12.1874L18.9072 14.7639L20.1608 15.421V12.7616ZM19.8814 18.4332C19.4794 18.3602 19.1183 18.1417 18.8672 17.8194H15.7149C15.861 18.1713 15.9421 18.5469 15.9542 18.9277V22.9813H22.3644C22.3628 22.821 22.3718 22.661 22.3921 22.5023C22.2486 22.4296 22.136 22.3077 22.075 22.1588C22.0141 22.0099 22.0088 21.8441 22.0602 21.6916L21.415 22.2536C21.3034 22.3711 21.1601 22.4537 21.0024 22.4913C20.8447 22.5288 20.6795 22.5198 20.5269 22.4652L18.0688 21.7007C18.0227 21.8448 17.8814 22.0874 17.6536 22.0294C17.6035 22.0152 17.5574 21.9895 17.5191 21.9543C17.4808 21.919 17.4514 21.8752 17.4332 21.8265C17.4149 21.7777 17.4085 21.7253 17.4142 21.6736C17.42 21.6219 17.438 21.5722 17.4665 21.5287C17.449 21.5127 17.4357 21.4927 17.4275 21.4705C17.4194 21.4482 17.4167 21.4243 17.4198 21.4008C17.4228 21.3773 17.4315 21.3549 17.445 21.3355C17.4585 21.316 17.4765 21.3001 17.4975 21.289C17.4784 21.2783 17.4625 21.2627 17.4515 21.2438C17.4405 21.225 17.4346 21.2035 17.4346 21.1816C17.4346 21.1597 17.4405 21.1383 17.4515 21.1194C17.4625 21.1005 17.4784 21.0849 17.4975 21.0742C17.4682 21.0551 17.4454 21.0276 17.4321 20.9953C17.4189 20.963 17.4158 20.9274 17.4233 20.8932H17.273C16.8888 20.89 17.0088 20.1623 17.411 20.3371L17.7185 20.4877L17.7736 18.6452L18.493 18.031L18.8736 18.8387L18.2588 20.5829C18.7598 20.5126 18.9411 20.7148 18.8733 20.89L20.4592 21.0803C20.5458 21.0898 20.6333 21.0773 20.7138 21.044C20.7943 21.0108 20.8652 20.9578 20.9198 20.89L21.2766 20.4816C21.1613 20.445 21.058 20.378 20.9774 20.2878C20.8968 20.1976 20.842 20.0874 20.8185 19.9687C20.7065 19.9432 20.6007 19.8951 20.5077 19.8275C20.4148 19.7599 20.3364 19.6742 20.2776 19.5754C20.2187 19.4767 20.1804 19.3671 20.1651 19.2531C20.1498 19.1392 20.1578 19.0234 20.1885 18.9126C20.035 18.7919 19.9266 18.6232 19.8814 18.4332ZM21.4426 19.7743C21.4361 19.6289 21.4677 19.4843 21.5344 19.3548L21.5347 19.3545C21.4492 19.165 21.4255 18.9534 21.4669 18.7497C21.3458 18.736 21.2288 18.6975 21.1231 18.6368C21.0174 18.576 20.9252 18.4942 20.8524 18.3965C20.6743 18.4474 20.4905 18.4732 20.3053 18.4732H20.1763C20.215 18.6037 20.2908 18.7202 20.3945 18.8085C20.4981 18.8968 20.6251 18.9531 20.7602 18.9706L20.7295 19.1736C20.6111 19.1532 20.4969 19.1139 20.3914 19.0568C20.3774 19.1997 20.4119 19.3432 20.4894 19.4641C20.5669 19.585 20.6828 19.6763 20.8185 19.7232C20.814 19.6618 20.814 19.6001 20.8185 19.5387C20.8185 19.5387 21.0031 20.23 21.4637 20.2881L21.5715 20.1839C21.4935 20.0609 21.4491 19.9197 21.4426 19.7743ZM22.2193 21.1971L22.2195 21.1968L22.2199 21.1971H22.2193ZM22.2076 21.1971H22.2193C22.1723 21.2615 22.136 21.333 22.1121 21.409L21.8541 21.6455C21.864 21.4557 21.8297 21.2663 21.754 21.092C21.6782 20.9178 21.5631 20.7635 21.4176 20.6413L21.6944 20.371L21.7495 20.4265C21.7288 20.5071 21.7242 20.5911 21.736 20.6736C21.7478 20.7561 21.7758 20.8354 21.8184 20.907C21.8609 20.9786 21.9172 21.0411 21.984 21.0909C22.0508 21.1407 22.1268 21.1768 22.2076 21.1971ZM21.1718 20.8684L20.9598 21.0774C21.0875 21.2321 21.1764 21.4151 21.2191 21.6111C21.2619 21.807 21.2573 22.0104 21.2057 22.2042C21.2586 22.1726 21.3079 22.1355 21.3531 22.0939L21.5837 21.8819C21.6036 21.6922 21.5764 21.5004 21.5046 21.3236C21.4327 21.1468 21.3184 20.9905 21.1718 20.8684ZM20.5084 21.2562L20.5018 21.2555H20.5082L20.5084 21.2562ZM20.4437 22.2381C20.586 21.93 20.609 21.5802 20.5084 21.2562C20.5869 21.2635 20.6661 21.2514 20.7385 21.2216C20.8421 21.3813 20.9047 21.564 20.9208 21.7536C20.9369 21.9432 20.906 22.1339 20.8308 22.3087C20.7267 22.3079 20.6232 22.2924 20.5234 22.2626L20.4437 22.2381ZM19.9708 21.1979L19.9643 21.1971H19.964L19.9705 21.1939L19.9708 21.1979ZM19.7798 22.0539C19.9324 21.7959 19.9992 21.4962 19.9708 21.1979L20.2718 21.2339C20.3243 21.5481 20.275 21.871 20.1301 22.1552L19.7798 22.0539ZM19.7185 21.1603L19.3559 21.1171V21.1174C19.3841 21.3836 19.3224 21.6516 19.1808 21.8787L19.5495 21.9861C19.6882 21.7344 19.7472 21.4464 19.7185 21.1603ZM17.7978 21.0348C17.8274 21.0373 17.8572 21.0319 17.8839 21.019L17.8717 21.0068C17.9187 20.9826 17.9726 20.9755 18.0242 20.9867C18.0758 20.998 18.1219 21.0269 18.1546 21.0684C18.1163 21.1185 18.092 21.1778 18.0842 21.2404C18.0763 21.3029 18.0851 21.3664 18.1098 21.4245C18.1344 21.4825 18.174 21.5329 18.2245 21.5707C18.275 21.6084 18.3346 21.6321 18.3972 21.6394C18.4488 21.4886 18.4859 21.3333 18.5078 21.1755C18.4472 21.1289 18.3984 21.065 18.3533 21.0061L18.3533 21.006C18.3094 20.9486 18.269 20.8958 18.2249 20.8684C18.139 20.8144 18.0402 20.7842 17.9387 20.7809C17.8372 20.7777 17.7367 20.8015 17.6475 20.85C17.644 20.8795 17.6485 20.9094 17.6605 20.9366C17.6725 20.9637 17.6915 20.9872 17.7157 21.0045C17.7399 21.0217 17.7682 21.0322 17.7978 21.0348ZM17.8627 21.7223C17.7846 21.7161 17.7078 21.6984 17.6352 21.67C17.6273 21.6859 17.6229 21.7034 17.6224 21.7212C17.6218 21.739 17.6252 21.7566 17.6322 21.773C17.6392 21.7894 17.6497 21.804 17.6629 21.8159C17.6761 21.8278 17.6918 21.8367 17.7088 21.8419C17.7269 21.845 17.7454 21.8443 17.7631 21.8398C17.7809 21.8353 17.7976 21.8272 17.812 21.8159C17.8265 21.8047 17.8385 21.7905 17.8472 21.7744C17.8559 21.7583 17.8612 21.7405 17.8627 21.7223ZM17.2596 20.6541C17.2678 20.6734 17.2821 20.6894 17.3004 20.6997V20.6965C17.4398 20.7185 17.5819 20.7185 17.7214 20.6965C17.671 20.6747 17.6206 20.645 17.5719 20.6162C17.4896 20.5675 17.4118 20.5216 17.3462 20.5216C17.3252 20.5218 17.3049 20.5289 17.2884 20.5418C17.2719 20.5548 17.2602 20.5728 17.2549 20.5931C17.2497 20.6134 17.2513 20.6348 17.2596 20.6541ZM17.9517 21.4458C17.9517 21.4458 17.7181 21.4706 17.6443 21.3997C17.592 21.5597 17.8565 21.6177 17.9517 21.4887V21.4458ZM17.6814 21.1297C17.6443 21.231 17.7949 21.3168 17.9517 21.2555H17.9514L17.9578 21.1632C17.9578 21.1632 17.7549 21.1971 17.6814 21.1297ZM18.1818 19.4137L18.182 19.4129H18.1823L18.1818 19.4137ZM18.1759 19.4219L18.1818 19.4137L17.8749 20.5094L17.9762 18.7403L18.4433 18.3413L18.6798 18.8632L18.0807 20.58L18.2404 19.4219C18.2559 19.3423 18.1881 19.3332 18.1759 19.4219ZM18.6275 20.7703C18.4855 20.7467 18.3412 20.7394 18.1975 20.7487C18.3127 20.8121 18.4341 20.8637 18.5598 20.9026C18.6491 20.9145 18.6985 20.7977 18.6275 20.7703ZM19.0885 21.0619L18.723 21.0158L18.7169 21.0374C18.7043 21.2678 18.6555 21.4948 18.5724 21.71L18.9256 21.8113C19.0606 21.5861 19.1179 21.3228 19.0885 21.0619ZM24.3494 26.9561C24.5335 26.6305 24.6227 26.2598 24.607 25.8861H24.6074V23.2239H15.9574V25.8861C15.9444 26.2135 16.0111 26.5392 16.1519 26.8351C16.2926 27.1309 16.5032 27.3881 16.7655 27.5845L16.9252 27.2587H17.1375L16.9223 27.6948C16.9809 27.7306 17.0413 27.7635 17.1033 27.7932L17.3678 27.2587H17.592L17.2849 27.8729C17.6209 27.9937 17.9756 28.054 18.3327 28.051C19.5156 28.051 19.8321 28.1003 20.2714 28.5361C20.7111 28.1003 21.0244 28.051 22.2134 28.051C22.5718 28.0543 22.9278 27.993 23.2644 27.87L23.5718 27.2558H23.7993L23.5657 27.7287C23.8939 27.5493 24.1654 27.2817 24.3494 26.9561ZM24.6074 18.9277C24.6196 18.5468 24.7008 18.1713 24.847 17.8194H24.8467H21.694C21.5231 18.0416 21.2961 18.2143 21.0363 18.3197H21.0734C21.2394 18.4769 21.4592 18.5648 21.6879 18.5655C21.6312 18.6951 21.6096 18.8374 21.6252 18.978C21.6407 19.1186 21.693 19.2527 21.7766 19.3668C21.7242 19.441 21.6876 19.5252 21.6691 19.6142C21.6506 19.7032 21.6505 19.795 21.669 19.884C21.6874 19.973 21.724 20.0573 21.7763 20.1315C21.8287 20.2058 21.8958 20.2685 21.9734 20.3158C21.8015 20.7948 22.1366 21.0497 22.5883 21.0497C22.1363 21.3323 22.1641 21.9648 22.7325 21.9461L22.5605 22.0816C22.5055 22.0957 22.4476 22.0943 22.3933 22.0774C22.339 22.0606 22.2905 22.029 22.2531 21.9861C22.2531 22.2226 22.4776 22.3332 22.6896 22.3732C22.6393 22.5738 22.6205 22.7811 22.6341 22.9874H23.0305C22.9167 22.8339 22.8031 22.2719 22.9844 22.0661C23.0366 22.3846 23.1318 22.6945 23.2673 22.9874H23.8822C23.7967 22.8558 23.7397 22.7077 23.7148 22.5527C23.6899 22.3977 23.6977 22.2392 23.7377 22.0874C23.8149 22.4087 23.9492 22.7136 24.1341 22.9874H24.6074V18.9277ZM21.9215 17.0361C22.2534 16.5203 22.656 15.9461 23.126 15.8661L21.8418 15.1294L20.2808 15.9768L18.7136 15.1294L17.4355 15.8723C17.9027 15.9523 18.3049 16.5265 18.6369 17.0426L18.6769 17.1039H19.0395V17.1619C19.0431 17.2238 19.0555 17.2848 19.0762 17.3432C19.1366 17.5301 19.2498 17.6954 19.4021 17.8194C19.6551 18.0112 19.9666 18.1098 20.284 18.0987C21.1195 18.0987 21.4976 17.5552 21.5344 17.1558V17.0974H21.8847L21.9215 17.0361ZM20.4098 15.4148L21.6634 14.7577L21.6637 14.7574L22.1121 12.1871L20.4098 12.7613V15.4148ZM18.4372 11.7329L20.2808 12.4668L22.1244 11.7329C21.9799 11.349 21.2395 11.0419 20.2808 11.0419C19.322 11.0419 18.594 11.3613 18.4372 11.7329ZM31.8552 20.0887L31.8343 20.0855H31.8527L31.8552 20.0887ZM32.3932 21.5317C32.3174 21.08 32.2334 20.5801 31.8552 20.0887C32.4137 20.1744 32.8512 20.1676 33.0634 19.6097C32.0676 19.1355 31.5527 18.4101 31.0231 17.664C30.448 16.8538 29.8556 16.0191 28.611 15.4548C29.9262 14.4784 29.573 13.5661 28.9614 12.6452C28.3162 13.7842 27.2039 13.941 26.5032 13.5661C27.0745 13.3582 27.4355 12.8554 27.7562 12.4088C27.9753 12.1036 28.1756 11.8246 28.4113 11.6839C28.0488 11.2939 27.5816 11.2784 27.0378 11.65C26.7722 10.9677 26.026 11.0705 25.7338 11.1109C25.6881 11.1172 25.6535 11.1219 25.6335 11.1219C25.7718 11.2328 25.8837 11.3729 25.9612 11.5322C26.0388 11.6915 26.08 11.866 26.0819 12.0432C25.9806 12.8355 24.6964 12.7064 24.6964 12.7064C24.9577 12.1719 24.8409 11.8558 24.2632 11.5793C24.1967 11.7402 23.9567 11.9227 23.6796 12.1335C23.2266 12.478 22.6745 12.8979 22.6192 13.4219C22.4855 14.6888 23.9293 15.4739 25.2467 16.1903L25.3848 16.2655C26.8871 17.0761 26.3371 17.9606 25.7935 17.9881C25.4861 18.9093 26.6477 19.0874 27.3052 18.7097C27.3052 18.8355 27.2161 19.5819 26.2113 19.631C26.2416 19.7609 26.3097 19.8789 26.407 19.9702C26.5043 20.0615 26.6265 20.1219 26.7581 20.1439C26.5613 20.2913 25.9871 20.3126 25.6829 20.3126C25.7197 20.7181 26.159 21.0435 26.709 21.0987C26.5929 21.2842 26.4123 21.4197 26.2019 21.4793C26.7981 22.0723 28.3959 21.6826 28.7217 21.3416C28.8723 21.1848 29.0536 21.4061 28.8752 21.6484C28.6972 21.891 27.8891 22.1645 27.2345 21.9555C27.195 22.0614 27.1885 22.1768 27.2159 22.2864C27.2433 22.3961 27.3034 22.4948 27.3881 22.5697C27.1161 22.5923 26.8471 22.6439 26.5861 22.7232C26.6344 22.928 26.8188 23.0689 26.9536 23.1719C26.9988 23.2065 27.0385 23.2369 27.0655 23.2639C26.9258 23.3915 26.8202 23.5519 26.7581 23.7306C27.05 23.8719 27.8458 24.0897 28.273 23.6048C28.4481 23.4113 28.6355 23.5339 28.4604 23.7797C27.8458 24.6455 26.3281 24.6577 25.7964 24.3939C25.7964 24.9961 26.0167 25.1727 26.3002 25.4C26.3362 25.4289 26.3733 25.4585 26.411 25.49C25.8185 26.1728 25.7633 26.8143 25.71 27.4341C25.6657 27.9488 25.6227 28.4487 25.2742 28.9448C26.7213 28.9448 27.6278 28.1555 27.8829 27.4093C27.8924 27.5546 27.9532 27.6918 28.0545 27.7964C28.1558 27.901 28.291 27.9662 28.4359 27.9803C28.4191 27.6878 28.4874 27.3967 28.6326 27.1423C28.9397 27.3787 29.4591 27.4339 30.1691 27.4494C29.8031 26.8164 30.1108 26.1772 30.4437 25.4854C30.815 24.714 31.2178 23.8771 30.753 22.9106C30.6208 22.6342 31.0079 22.459 31.0601 22.7387C31.2659 24.311 32.1908 24.6642 32.9682 24.1758C32.867 24.0653 32.7917 24.0033 32.7267 23.9498L32.7267 23.9497C32.6417 23.8798 32.5742 23.8242 32.4889 23.6935C33.0112 23.8319 33.2818 23.451 33.4108 22.9752C32.587 22.6852 32.4978 22.1544 32.3932 21.5317ZM31.9782 23.2316L31.9727 23.2055L31.9421 23.2206C31.948 23.2222 31.9542 23.224 31.9605 23.2259L31.9782 23.2316ZM32.2798 24.0161C32.1393 23.7718 32.0375 23.5071 31.9782 23.2316C32.0138 23.2435 32.0548 23.26 32.0997 23.2779C32.3543 23.3799 32.7313 23.5308 32.9221 23.1839C32.6813 23.0504 32.4763 22.8606 32.3249 22.6307C32.1734 22.4007 32.0799 22.1375 32.0524 21.8635C31.9966 21.4606 31.8934 21.0661 31.745 20.6871C31.5264 20.301 31.268 19.9388 30.974 19.6064C30.9902 19.6087 31.0289 19.6159 31.0841 19.6261L31.0842 19.6261L31.0842 19.6261L31.0842 19.6261L31.0843 19.6261C31.4069 19.6859 32.2902 19.8494 32.5105 19.7445C31.6632 19.221 31.2583 18.6372 30.8384 18.0318C30.2683 17.21 29.6707 16.3484 27.9013 15.5439C27.9603 15.5 28.0193 15.4569 28.0778 15.414C28.8188 14.8719 29.4837 14.3854 28.9368 13.3268C28.0949 14.3371 26.5 13.99 25.6368 13.5203C26.491 13.3329 27.5878 12.599 27.8707 11.7545C27.5961 11.7128 27.255 11.9573 27.0119 12.1316C26.9691 12.1623 26.9294 12.1908 26.8936 12.2152C26.8745 12.1636 26.8573 12.1105 26.8401 12.0576C26.755 11.7951 26.6707 11.5353 26.359 11.469C26.8597 12.5374 25.8732 13.0964 24.93 13.0964C24.7948 13.0964 24.1803 13.0352 24.1803 13.0352C24.1967 13.0006 24.2221 12.9557 24.2513 12.904C24.3911 12.6569 24.6192 12.2537 24.3828 12.0706C24.2324 12.2111 24.0636 12.3332 23.8953 12.4549L23.8953 12.4549C23.8058 12.5196 23.7165 12.5841 23.6302 12.6513C21.8965 13.9904 24.2324 15.2362 25.4195 15.8693L25.4202 15.8696L25.4203 15.8697L25.421 15.87L25.422 15.8706C25.4859 15.9047 25.5465 15.937 25.6029 15.9674C27.3297 16.901 26.869 18.0126 26.1464 18.2984C26.1497 18.4213 26.2268 18.4764 26.3464 18.5193C26.7821 18.6627 27.1973 18.4135 27.5617 18.1947C27.6188 18.1605 27.6746 18.1269 27.7291 18.0958C27.7271 18.1521 27.7256 18.2081 27.7241 18.2639L27.7241 18.2642C27.7071 18.899 27.6912 19.493 26.9826 19.8458L27.5142 20.0426C27.4412 20.0998 27.3764 20.1527 27.3166 20.2013C27.0017 20.4577 26.8304 20.5971 26.3677 20.6568C26.6395 20.756 26.9268 20.806 27.2161 20.8042C27.1593 21.022 27.0679 21.2294 26.9455 21.4184C27.6761 21.5041 28.1239 21.2633 28.4433 21.0916C28.6156 20.9989 28.7506 20.9264 28.8723 20.9361C29.6127 20.9916 29.5665 22.3916 27.7384 22.3916L27.9287 22.6987C27.7224 22.8149 27.4982 22.8959 27.2652 22.9384C27.3542 23.0111 27.443 23.1027 27.5243 23.1865C27.5526 23.2156 27.58 23.2438 27.6062 23.27L27.2991 23.5216C27.6596 23.5871 27.8959 23.4339 28.0987 23.3025C28.3141 23.1628 28.4916 23.0477 28.7401 23.2455C29.4714 23.8287 27.8458 25.0632 26.2819 24.8819C26.495 25.0809 26.7243 25.2617 26.9674 25.4226C26.1815 26.1643 26.1191 26.879 26.0639 27.5125C26.0297 27.9045 25.9982 28.2654 25.7997 28.5823C26.29 28.5529 26.7582 28.3675 27.1357 28.0532C27.5132 27.7389 27.7804 27.3121 27.8981 26.8352L28.2055 27.3603C28.3288 27.0306 28.4752 26.7103 28.6449 26.4023C28.8907 26.9271 29.2872 26.9271 29.6678 26.9271C29.6323 26.4181 29.8764 25.908 30.1264 25.3857L30.1264 25.3857C30.4796 24.6477 30.8444 23.8853 30.4485 23.0674C30.3785 22.933 30.3647 22.7762 30.4103 22.6316C30.4558 22.487 30.557 22.3665 30.6914 22.2964C31.2269 22.024 31.3556 22.4788 31.5 22.989C31.634 23.4624 31.7815 23.9835 32.2798 24.0161ZM17.7859 26.27L17.3462 26.6387V26.6384L17.1343 26.2361C17.0858 26.1475 17.0703 26.0446 17.0906 25.9457C17.1108 25.8468 17.1655 25.7582 17.2449 25.6958L17.7336 25.3177C17.7689 25.2882 17.8107 25.2675 17.8556 25.2574C17.9005 25.2474 17.9472 25.2481 17.9917 25.2597L18.5662 25.3274C18.584 25.1579 18.6169 24.9904 18.6646 24.8268C18.6149 24.8713 18.5295 24.8603 18.4532 24.8505C18.3928 24.8428 18.3381 24.8358 18.3111 24.8574L18.1698 24.9313C18.0685 24.9832 17.9975 24.9864 17.933 24.9035L17.8104 24.7406C17.7945 24.725 17.7819 24.7063 17.7733 24.6857C17.7647 24.6652 17.7603 24.6431 17.7603 24.6208C17.7603 24.5985 17.7647 24.5764 17.7733 24.5559C17.7819 24.5353 17.7945 24.5166 17.8104 24.501C17.9056 24.4029 18.2375 23.9332 18.2375 23.9332L17.5981 23.2884L18.4495 23.5952C18.5033 23.5719 18.5601 23.5564 18.6182 23.5493L18.8182 23.3158C18.9195 23.3529 18.9566 23.5523 18.9566 23.5523C19.6263 23.6535 19.9982 24.1726 20.1701 24.7868L20.0105 24.839C20.0251 24.8637 20.0457 24.8842 20.0704 24.8987C20.0951 24.9132 20.1231 24.9212 20.1518 24.9219L21.0244 24.9771C21.057 24.9811 21.1174 24.9653 21.1976 24.9443L21.1976 24.9443C21.4271 24.8843 21.8196 24.7816 22.195 24.9771C22.3746 24.8675 22.5856 24.8213 22.7945 24.8458C23.0034 24.8703 23.198 24.9641 23.3473 25.1123C23.4518 25.2252 23.676 25.4794 23.8265 25.6501L23.8267 25.6503L23.8274 25.6511L23.8274 25.6511L23.8276 25.6514L23.8278 25.6516C23.8895 25.7216 23.9387 25.7773 23.9619 25.8032L24.1064 25.9658C24.1648 26.0357 24.2181 26.1097 24.2661 26.1871C23.7654 26.8842 23.3199 26.3897 23.0125 25.9413C22.9538 25.859 22.9026 25.7584 22.8545 25.6641C22.7718 25.5018 22.6986 25.3581 22.6131 25.3581C22.5589 25.3514 22.504 25.3622 22.4563 25.3887C22.4798 25.4674 22.4961 25.5608 22.5133 25.6591L22.5133 25.6592L22.5133 25.6592L22.5133 25.6592L22.5133 25.6592C22.5572 25.91 22.6068 26.1934 22.7944 26.35C22.8957 26.4603 22.9325 26.5281 22.8957 26.7674L22.7299 27.8577H22.1154L22.3241 26.7584C22.2708 26.8124 22.23 26.8773 22.2044 26.9487L21.8418 27.87H21.1782L21.596 26.8716C21.6023 26.8559 21.609 26.8407 21.6154 26.826C21.6404 26.7694 21.6616 26.7212 21.6421 26.6845C21.6142 26.6313 21.573 26.5787 21.5296 26.5232L21.5295 26.5232L21.5295 26.5231C21.4726 26.4504 21.4118 26.3728 21.3718 26.2823C21.0047 26.4907 20.5797 26.5737 20.1611 26.5187L19.7892 26.4787C19.7673 26.4767 19.7473 26.4747 19.7291 26.4729C19.5551 26.4554 19.534 26.4533 19.445 26.5923C19.4104 26.6383 19.3612 26.6714 19.3054 26.6859C19.2496 26.7004 19.1906 26.6956 19.1379 26.6723L18.4127 26.5155C18.3327 26.5003 18.3204 26.5252 18.2927 26.5864L18.2098 26.7645C18.1658 26.8522 18.2169 26.8953 18.2911 26.9579L18.302 26.9671C18.2314 27.1689 18.1109 27.3495 17.9517 27.4923L17.7672 27.87H17.5398L17.8011 27.3232L17.6662 27.1668C17.6024 27.0999 17.5614 27.0146 17.5492 26.923C17.5371 26.8314 17.5543 26.7383 17.5985 26.6571L17.7859 26.27ZM17.7859 26.27L17.8349 26.1655C17.8537 26.1065 17.8911 26.0551 17.9415 26.0192C17.992 25.9832 18.0527 25.9646 18.1146 25.9661H18.8488L18.1546 25.8032C18.1254 25.7916 18.0938 25.7875 18.0627 25.7913C18.0315 25.7951 18.0018 25.8066 17.9762 25.8248L17.7459 25.9968L17.7318 26.0078C17.6918 26.0386 17.674 26.0524 17.7181 26.1377L17.7859 26.27ZM21.6973 27.7071L22.0876 26.749V26.7552C22.1005 26.7281 22.1159 26.7024 22.1338 26.6784C21.9879 26.6242 21.847 26.5574 21.7124 26.4787C21.7302 26.5025 21.7472 26.5238 21.7628 26.5434C21.834 26.6329 21.8775 26.6877 21.8447 26.7858L21.4576 27.7071H21.6973ZM18.3388 24.6734L18.3391 24.6732H18.3388V24.6734ZM18.2282 24.7313L18.3388 24.6734V24.6887C18.3584 24.6742 18.4082 24.6772 18.4703 24.681C18.6319 24.6907 18.8772 24.7055 18.895 24.4306C18.9146 24.5531 18.8726 24.7201 18.8279 24.8978C18.7605 25.1656 18.687 25.4578 18.8091 25.659L19.0856 26.11H18.1849C18.1437 26.1092 18.1034 26.1217 18.0697 26.1455C18.0361 26.1693 18.0109 26.2032 17.9978 26.2423L17.7643 26.7335C17.7312 26.7868 17.7152 26.849 17.7185 26.9116C17.7218 26.9742 17.7442 27.0343 17.7827 27.0839L17.9423 27.2619C18.0211 27.1935 18.0807 27.1055 18.1146 27.0071L18.0469 26.9332C18.0217 26.9117 18.0051 26.882 18.0001 26.8493C17.9951 26.8166 18.0019 26.7832 18.0194 26.7552L18.1636 26.4481C18.1702 26.4237 18.182 26.4011 18.1981 26.3817C18.2143 26.3624 18.2345 26.3467 18.2573 26.3359C18.2801 26.3251 18.3049 26.3194 18.3301 26.3192C18.3554 26.3189 18.3803 26.3242 18.4033 26.3345L19.1317 26.491L19.1439 26.4937C19.1989 26.5066 19.2767 26.5247 19.3253 26.4419C19.3672 26.3763 19.4299 26.3264 19.5033 26.3003C19.5767 26.2742 19.6568 26.2733 19.7308 26.2977C20.1301 26.3561 21.0518 26.4545 21.3841 26.0674C21.585 26.3355 21.8877 26.4634 22.1236 26.5631C22.3387 26.654 22.4983 26.7214 22.4747 26.8503L22.315 27.7316H22.5576L22.7022 26.829C22.7052 26.8085 22.7101 26.7864 22.7152 26.7636L22.7152 26.7636C22.7361 26.6702 22.7598 26.5643 22.6683 26.5003C22.5947 26.4348 22.536 26.3542 22.4963 26.2639C22.4241 26.1324 22.3921 25.9709 22.3589 25.8029C22.3284 25.6489 22.2968 25.4894 22.2321 25.3426C22.2731 25.2814 22.3307 25.2333 22.3982 25.2039C22.4657 25.1745 22.5401 25.1651 22.6128 25.1768C22.7588 25.2102 22.8462 25.3615 22.9568 25.553C23.0489 25.7126 23.1572 25.9 23.3289 26.0703C23.3009 25.8958 23.2506 25.7252 23.1783 25.5639C23.3266 25.6787 23.4413 25.8313 23.5102 26.0058C23.5195 26.0735 23.5443 26.138 23.5827 26.1945C23.6211 26.251 23.672 26.2978 23.7315 26.3313C23.8267 26.3652 23.9312 26.3223 24.039 26.1932C23.8993 25.9953 23.7548 25.8007 23.6057 25.6097C23.4999 25.4267 23.3488 25.274 23.1669 25.1664C22.9849 25.0589 22.7783 25 22.567 24.9955C22.4188 25.0163 22.2771 25.0699 22.1521 25.1523C21.7693 24.9357 21.4489 25.0487 21.2425 25.1216L21.2425 25.1216C21.1706 25.1469 21.1126 25.1674 21.0705 25.1674L20.1027 25.1093C19.963 25.0803 19.8405 24.9977 19.7614 24.879C19.769 24.6094 19.6804 24.3459 19.5116 24.1355C19.3428 23.9251 19.1047 23.7816 18.8398 23.7306C18.8398 23.7306 18.8611 23.5832 18.7998 23.5306L18.594 23.7887L18.0346 23.5829L18.474 23.9423L17.9978 24.4981C17.9803 24.5199 17.9707 24.547 17.9707 24.575C17.9707 24.603 17.9803 24.6301 17.9978 24.6519L18.044 24.7132C18.1114 24.7958 18.1514 24.7777 18.2282 24.7313ZM17.7859 25.4961L17.3585 25.8032L17.3617 25.8216C17.2265 25.9261 17.2326 26.0703 17.3156 26.2332L17.3985 26.3868L17.6075 26.2271L17.5614 26.1226C17.5407 26.0923 17.5321 26.0553 17.5372 26.019C17.5424 25.9827 17.5609 25.9495 17.5891 25.9261L17.8962 25.6958C17.9231 25.671 17.9558 25.6532 17.9912 25.6441C18.0267 25.6349 18.0639 25.6348 18.0994 25.6435L18.7414 25.7787C18.6824 25.6916 18.6388 25.5948 18.6124 25.4929L17.9978 25.4132C17.9117 25.401 17.8627 25.438 17.7859 25.4961L17.7859 25.4961ZM19.8627 14.5858C19.6385 14.4929 19.4227 14.381 19.2175 14.251H19.2056C18.9411 14.0758 18.9411 13.9623 18.9411 13.9623L19.8627 14.3123V14.5858ZM19.863 13.649V13.9193C19.6392 13.8264 19.4234 13.7158 19.2179 13.5877C19.0791 13.4977 18.9498 13.3948 18.8308 13.2806L19.863 13.649ZM19.863 13.0258V13.299L19.8627 13.29C19.6392 13.1971 19.4234 13.0864 19.2175 12.9581C18.9533 12.7771 18.732 12.599 18.732 12.599L19.863 13.0258ZM14.233 25.4089L14.2332 25.4088C14.5334 25.1802 14.7639 25.0046 14.753 24.4C14.2213 24.67 12.7187 24.6581 12.089 23.7858C11.9138 23.54 12.089 23.4174 12.2732 23.6106C12.7035 24.0958 13.5023 23.8777 13.7913 23.7365C13.7383 23.5552 13.6399 23.3904 13.5055 23.2577C13.5326 23.2314 13.5714 23.2019 13.6156 23.1684C13.7518 23.0651 13.9383 22.9235 13.9849 22.7171C13.7238 22.6374 13.455 22.5859 13.1829 22.5635C13.2691 22.4897 13.3301 22.391 13.3576 22.2809C13.3851 22.1709 13.3777 22.055 13.3365 21.9494C12.6848 22.1519 11.88 21.8787 11.6987 21.6423C11.5174 21.4058 11.6987 21.1816 11.8522 21.3352C12.178 21.6761 13.7791 22.0661 14.3717 21.4736C14.1579 21.4178 13.9728 21.2841 13.8526 21.0987C14.4026 21.0435 14.842 20.7181 14.8791 20.3126C14.5717 20.3126 13.9971 20.2913 13.8036 20.1439C13.9274 20.1204 14.0422 20.0629 14.1351 19.9777C14.2279 19.8925 14.2951 19.783 14.3291 19.6616C13.321 19.6003 13.2413 18.8542 13.2352 18.7403C13.8926 19.1181 15.0481 18.9523 14.7497 18.0187C14.2029 17.9913 13.6529 17.0977 15.1556 16.2961L15.2665 16.2363C16.6027 15.5155 18.0677 14.7253 17.9211 13.4526C17.8659 12.9344 17.3179 12.5172 16.8652 12.1725C16.5854 11.9595 16.3421 11.7742 16.274 11.61C15.6994 11.8865 15.5827 12.2029 15.844 12.7371C15.844 12.7371 14.5594 12.8661 14.4581 12.0739C14.4575 11.894 14.4972 11.7162 14.5742 11.5536C14.6513 11.391 14.7637 11.2477 14.9033 11.1342C14.8841 11.1342 14.8504 11.1296 14.8056 11.1236H14.8056C14.5136 11.0841 13.7525 10.9811 13.4994 11.6655C12.9584 11.2939 12.4945 11.309 12.129 11.699C12.3667 11.8391 12.5672 12.1196 12.7865 12.4264C13.1058 12.8732 13.465 13.3758 14.0371 13.5816C13.352 13.9532 12.2426 13.7965 11.579 12.6603C10.9641 13.5816 10.6138 14.5029 11.9261 15.47C10.6905 16.0274 10.106 16.8567 9.53713 17.6637C9.01241 18.4081 8.50102 19.1336 7.50437 19.6094C7.71341 20.1745 8.15891 20.1745 8.73344 20.0855C8.35677 20.5767 8.27308 21.0766 8.19746 21.5283C8.09297 22.1525 8.00387 22.6847 7.17856 22.9752C7.31082 23.451 7.57824 23.8319 8.10052 23.6936C8.01612 23.8226 7.94813 23.8784 7.86415 23.9474C7.79822 24.0015 7.72244 24.0637 7.62115 24.1758C8.39859 24.6639 9.32023 24.311 9.52927 22.7387C9.56604 22.459 9.95347 22.6342 9.82121 22.9106C9.35659 23.8732 9.75183 24.7071 10.1173 25.4781C10.4478 26.1755 10.7539 26.8214 10.3774 27.4645C11.0748 27.4368 11.6064 27.3816 11.9138 27.1574C12.0587 27.411 12.1268 27.7013 12.1106 27.9929C12.2551 27.9787 12.3898 27.9139 12.491 27.8098C12.5922 27.7058 12.6533 27.5693 12.6635 27.4245C12.9184 28.1645 13.8216 28.96 15.2723 28.96C14.915 28.4518 14.8694 27.9423 14.8228 27.422C14.7672 26.801 14.7102 26.1645 14.12 25.4961C14.1585 25.4657 14.1963 25.4369 14.233 25.4089ZM12.691 26.8474L12.3839 27.3723C12.2602 27.0419 12.1134 26.7206 11.9445 26.411C11.6955 26.9239 11.3025 26.9365 10.9245 26.9394C10.9587 26.4314 10.7151 25.9235 10.4655 25.4033C10.1115 24.6654 9.74553 23.9025 10.1438 23.0794C10.1785 23.0127 10.1997 22.9398 10.2062 22.8649C10.2126 22.79 10.2041 22.7145 10.1813 22.6429C10.1584 22.5712 10.1216 22.5048 10.073 22.4475C10.0244 22.3901 9.96491 22.343 9.89799 22.3087C9.35835 22.0286 9.22933 22.4891 9.08556 23.0022C8.95345 23.4736 8.80889 23.9896 8.32181 24.0161C8.46542 23.7634 8.56902 23.4899 8.62892 23.2055C8.58615 23.2167 8.53203 23.2383 8.47083 23.2626C8.21539 23.3644 7.83668 23.5153 7.64567 23.1684C7.88677 23.0358 8.09212 22.8466 8.2441 22.6173C8.39608 22.3879 8.49016 22.125 8.51827 21.8513C8.57247 21.4471 8.67569 21.0513 8.8257 20.6719C9.03239 20.2894 9.27522 19.9275 9.55088 19.5913C9.52502 19.5913 9.43445 19.6073 9.30869 19.6294C8.92612 19.6969 8.21783 19.8219 8.01439 19.7294C8.8747 19.2044 9.28424 18.616 9.70936 18.0052C10.2789 17.1869 10.8765 16.3284 12.6235 15.5284C12.5636 15.4836 12.5035 15.4396 12.4439 15.3958L12.4437 15.3957L12.4434 15.3955L12.4431 15.3953L12.4428 15.395L12.4426 15.3949C11.7056 14.8542 11.0424 14.3678 11.588 13.3145C12.4268 14.3216 14.0249 13.9745 14.8849 13.5048C14.0339 13.3358 12.9371 12.5835 12.6758 11.7484C12.9276 11.708 13.2617 11.9398 13.5061 12.1094L13.5061 12.1094L13.5062 12.1095C13.5601 12.1469 13.6096 12.1813 13.6529 12.209C13.6721 12.1574 13.6893 12.1043 13.7065 12.0513C13.7915 11.7891 13.8756 11.5297 14.1875 11.4658C13.6897 12.5313 14.673 13.0871 15.6133 13.0903C15.7607 13.0903 16.3662 13.029 16.3662 13.029C16.3502 12.9964 16.3263 12.9546 16.2989 12.9066L16.2989 12.9065L16.2989 12.9065C16.1584 12.6602 15.9242 12.2497 16.1633 12.0645C16.3142 12.2053 16.4834 12.3276 16.652 12.4495C16.7412 12.5139 16.8301 12.5782 16.9162 12.6452C18.6521 13.9682 16.4047 15.1972 15.2069 15.8522L15.2069 15.8522L15.2067 15.8523C15.126 15.8964 15.05 15.938 14.9804 15.9768C13.2503 16.8981 13.7142 18.0219 14.4365 18.3074C14.4365 18.4332 14.3565 18.4855 14.2365 18.5287C13.801 18.6721 13.3858 18.4228 13.0211 18.2037C12.9641 18.1695 12.9083 18.136 12.8539 18.1048C12.8559 18.1616 12.8574 18.2182 12.8589 18.2744C12.8761 18.9088 12.8922 19.5026 13.6007 19.8552L13.069 20.0487C13.1495 20.1096 13.2201 20.1655 13.2848 20.2168C13.5883 20.4572 13.7618 20.5946 14.2152 20.6629C13.9436 20.7623 13.6563 20.8121 13.3671 20.81C13.4218 21.0286 13.5132 21.2362 13.6374 21.4242C12.9053 21.5122 12.4593 21.2709 12.1407 21.0986C11.9687 21.0055 11.8338 20.9325 11.7109 20.9423C10.9674 20.9974 11.0164 22.3945 12.8416 22.3977L12.6545 22.7048C12.8606 22.8215 13.085 22.9025 13.3181 22.9442C13.1984 23.0487 13.0845 23.1594 12.9771 23.2761L13.2842 23.5277C12.9217 23.5934 12.6852 23.4397 12.4827 23.3081C12.268 23.1685 12.0914 23.0538 11.8432 23.2513C11.1025 23.8352 12.731 25.0694 14.3013 24.8852C14.0998 25.0855 13.8807 25.2674 13.6468 25.4287C14.4314 26.1693 14.4935 26.8831 14.5486 27.5159C14.5828 27.9089 14.6143 28.2707 14.8146 28.5884C14.3244 28.5582 13.8566 28.3726 13.4792 28.0584C13.1018 27.7442 12.8343 27.3179 12.7158 26.8413L12.691 26.8474ZM10.6848 22.4529C10.949 22.7294 11.2687 22.76 11.8767 22.7203C11.2099 22.6374 10.8351 22.4745 10.6015 22.0323C10.5652 21.7891 10.5426 21.5441 10.5338 21.2984C10.5532 20.4336 10.7935 19.5881 11.2316 18.8419C11.2475 19.2413 11.4029 19.6225 11.6707 19.9192C11.9385 20.2159 12.3018 20.4094 12.6974 20.4661C11.7754 20.0671 11.25 19.1703 11.5419 18.3168C11.7427 17.9956 11.957 17.6831 12.1842 17.38C12.2984 17.231 12.4162 17.0847 12.5374 16.9413C12.4148 17.3832 12.9523 17.8407 13.3116 17.9174C13.1152 17.7271 12.6974 17.1129 13.6623 16.0752C13.3829 16.2109 13.1173 16.3733 12.8693 16.5603C13.8456 15.5078 14.7249 15.0237 15.4266 14.6374C15.986 14.3294 16.4325 14.0836 16.7256 13.6613C15.7668 14.3123 13.2384 14.6655 12.089 14.3555C12.7187 14.7761 14.2397 14.7361 14.6052 14.6626C14.0987 15.1574 13.3407 15.6616 12.5918 16.1597C11.5235 16.8702 10.4739 17.5684 10.1993 18.2094C10.6257 17.6963 11.2048 17.3326 11.8522 17.1713C11.4099 17.7778 11.031 18.4281 10.7215 19.1119C10.3993 19.811 10.029 20.2005 9.71267 20.5333C9.32303 20.9431 9.01517 21.267 8.97957 21.9771C9.19027 21.3367 9.53909 21.0035 9.88381 20.6742C10.0764 20.4903 10.2676 20.3076 10.4328 20.0732C10.3463 20.5398 10.3112 21.0145 10.3283 21.4887C10.3383 22.0145 10.4425 22.5349 10.6354 23.0242C10.5893 23.6597 10.6354 24.7468 11.3761 25.481C10.9698 24.8794 10.7742 24.1603 10.8199 23.4358C11.1822 24.1366 11.9753 25.0095 12.7072 25.8153C13.1235 26.2736 13.5201 26.7102 13.8065 27.081C13.5268 26.6089 13.0985 26.1086 12.6455 25.5793C11.8339 24.6311 10.9429 23.5901 10.6848 22.4529ZM28.7095 17.1681L28.7209 17.171C29.1627 17.776 29.54 18.4255 29.8466 19.109C30.1698 19.8074 30.5411 20.1968 30.8581 20.5293C31.2493 20.9396 31.5579 21.2633 31.5918 21.9739C31.381 21.3445 31.033 21.0086 30.6889 20.6766C30.4958 20.4903 30.3039 20.3051 30.1382 20.07C30.2217 20.537 30.2537 21.0118 30.2337 21.4858C30.2218 22.0116 30.1179 22.531 29.9263 23.0213C29.9753 23.6723 29.9169 24.7594 29.1888 25.4778C29.5944 24.8757 29.7909 24.1572 29.7482 23.4326C29.3827 24.1317 28.5923 25.0021 27.8621 25.8062L27.8621 25.8063L27.8621 25.8063C27.444 26.2667 27.0457 26.7054 26.7581 27.0778C27.0364 26.6072 27.4625 26.1083 27.9136 25.5799L27.9137 25.5799L27.9137 25.5798C28.7228 24.6324 29.6127 23.5903 29.8769 22.4468C29.6066 22.7142 29.2995 22.751 28.6849 22.7142C29.3456 22.6403 29.7266 22.4684 29.9598 22.0261C29.9961 21.783 30.0187 21.538 30.0276 21.2923C30.0082 20.4274 29.7681 19.5818 29.3301 18.8358C29.3144 19.2353 29.1591 19.6165 28.8912 19.9133C28.6234 20.21 28.26 20.4035 27.8643 20.46C28.774 20.0761 29.3272 19.1797 29.0198 18.3107C28.8324 18.0065 28.6172 17.681 28.3775 17.3739C28.2578 17.2203 28.1378 17.0729 28.024 16.9349C28.1472 17.3771 27.6094 17.8345 27.2497 17.9113C27.4465 17.7149 27.8614 17.1007 26.8965 16.069C27.1784 16.2004 27.4453 16.362 27.6923 16.551C26.7152 15.4975 25.8353 15.0135 25.1327 14.6271C24.5737 14.3196 24.127 14.0739 23.8329 13.6523C24.7858 14.3094 27.333 14.6594 28.473 14.3523C27.843 14.7761 26.3249 14.7361 25.9562 14.6594C26.462 15.1511 27.2143 15.6501 27.9584 16.1436C29.0311 16.8551 30.0868 17.5553 30.3624 18.2061C29.9385 17.696 29.3637 17.3336 28.7209 17.171L28.7188 17.1681H28.7095ZM23.0371 17.0423H24.1926C24.15 16.9306 24.0711 16.8365 23.9685 16.7752C23.8659 16.7139 23.7456 16.689 23.6271 16.7045C23.5072 16.7011 23.3886 16.7308 23.2845 16.7904C23.1804 16.85 23.0948 16.9371 23.0371 17.0423ZM21.8419 12.599L20.7112 13.0165V13.29C20.9359 13.197 21.1527 13.0859 21.3596 12.9581C21.524 12.8435 21.6849 12.7237 21.8419 12.599ZM21.6083 13.9623L21.5924 13.9683C21.5961 13.9545 21.5961 13.9471 21.5961 13.9471L21.6083 13.9623ZM21.5924 13.9683C21.581 14.0118 21.5333 14.1186 21.3348 14.2539C21.1279 14.3818 20.911 14.4928 20.6863 14.5858V14.3123L21.5924 13.9683ZM21.7312 13.2807L20.6989 13.649V13.9226C20.9236 13.8295 21.1404 13.7185 21.3473 13.5907C21.4841 13.5003 21.6128 13.3974 21.7312 13.2836V13.2807ZM16.9253 16.7045C16.8069 16.6897 16.687 16.7149 16.5846 16.7761C16.4821 16.8373 16.4031 16.931 16.3601 17.0423H17.5153C17.4581 16.9366 17.3726 16.8491 17.2684 16.7894C17.1641 16.7297 17.0453 16.7003 16.9253 16.7045ZM62.6726 25.8032L61.3329 23.7397L61.348 23.7123L62.6081 21.8697C62.6647 21.7849 62.7415 21.7155 62.8316 21.6678C62.9217 21.6201 63.0223 21.5956 63.1242 21.5964H64.0152L62.5403 23.7181L64.0768 26.089H63.1981C63.0934 26.0903 62.9901 26.0646 62.8981 26.0146C62.8061 25.9646 62.7285 25.8918 62.6726 25.8032ZM82.4334 21.6926C82.5279 21.7465 82.6064 21.8246 82.6609 21.9187L83.2938 23.0181L83.9083 21.9342C83.9632 21.839 84.0426 21.7603 84.1383 21.7063C84.234 21.6523 84.3424 21.6249 84.4522 21.6271H85.3064L83.9545 23.7765L85.3832 26.1103H84.5261C84.4157 26.1129 84.3067 26.0857 84.2105 26.0317C84.1142 25.9777 84.0343 25.8988 83.979 25.8032L83.2693 24.5748L82.5841 25.8032C82.5291 25.8983 82.4496 25.9768 82.354 26.0308C82.2583 26.0848 82.15 26.1123 82.0402 26.1103H81.186L82.6147 23.7119L81.2628 21.6116H82.1231C82.2319 21.6107 82.339 21.6387 82.4334 21.6926ZM70.6986 26.1103V21.6087L72.4377 21.5993C72.6076 21.5849 72.7787 21.6059 72.9401 21.6611C73.1015 21.7163 73.2496 21.8045 73.3751 21.92C73.5005 22.0355 73.6005 22.1759 73.6687 22.3322C73.7369 22.4885 73.7718 22.6572 73.7713 22.8277C73.7752 23.0175 73.7327 23.2053 73.6476 23.375C73.5625 23.5446 73.4373 23.691 73.2829 23.8013C73.4747 23.9076 73.6335 24.0647 73.742 24.2553C73.8504 24.4459 73.9041 24.6627 73.8974 24.8819C73.9003 25.0496 73.8682 25.2161 73.8034 25.3707C73.7385 25.5254 73.6422 25.6648 73.5206 25.7803C73.399 25.8958 73.2547 25.9847 73.0968 26.0415C72.939 26.0983 72.7712 26.1217 72.6038 26.1103H70.6986ZM72.8278 24.935C72.8484 24.8756 72.8558 24.8125 72.8496 24.75C72.857 24.687 72.8503 24.6231 72.8303 24.563C72.8102 24.5028 72.7771 24.4478 72.7334 24.4018C72.6897 24.3558 72.6364 24.32 72.5774 24.2969C72.5183 24.2738 72.4549 24.264 72.3916 24.2681H71.7464V25.2261H72.3916C72.4543 25.2299 72.517 25.22 72.5755 25.1971C72.634 25.1743 72.6869 25.139 72.7305 25.0937C72.774 25.0485 72.8072 24.9943 72.8278 24.935ZM72.6773 23.1464C72.6982 23.0865 72.7056 23.0227 72.699 22.9597H72.6896C72.6959 22.8975 72.6887 22.8346 72.6684 22.7755C72.648 22.7163 72.6152 22.6623 72.572 22.6171C72.5288 22.5719 72.4763 22.5366 72.4181 22.5136C72.36 22.4906 72.2975 22.4804 72.2351 22.4839H71.7403V23.4358H72.2351C72.2983 23.4406 72.3618 23.4315 72.4211 23.4091C72.4804 23.3867 72.5341 23.3515 72.5783 23.3061C72.6227 23.2608 72.6565 23.2062 72.6773 23.1464ZM75.3078 26.1103V21.6087H76.3494V23.0642H76.8439C77.0604 23.0368 77.2801 23.0557 77.4887 23.1197C77.6972 23.1836 77.8898 23.2912 78.0537 23.4352C78.3001 23.6524 78.4704 23.9429 78.5396 24.264C78.6088 24.5851 78.5732 24.9199 78.4382 25.2194C78.3025 25.5187 78.0745 25.7667 77.7876 25.9271C77.5007 26.0874 77.17 26.1516 76.8439 26.1103H75.3078ZM77.1615 24.1409C77.0463 24.0257 76.8901 23.961 76.7272 23.961H76.3462V25.1894H76.7272C76.8901 25.1894 77.0463 25.1246 77.1615 25.0095C77.2767 24.8943 77.3414 24.7381 77.3414 24.5752C77.3414 24.4123 77.2767 24.256 77.1615 24.1409ZM78.8998 21.6087H79.9292V26.1013H78.8998V21.6087ZM50.7777 26.1013V21.6087H51.8071V23.3223H53.4449V21.6087H54.4743V26.1013H53.4449V24.2371H51.8071V26.1013H50.7777ZM58.4294 25.9271C58.1425 26.0874 57.8117 26.1516 57.4857 26.1103H55.885V21.6087H56.9144V23.0642H57.4857C57.702 23.0366 57.9218 23.0554 58.1303 23.1194C58.3389 23.1833 58.5314 23.291 58.6951 23.4352C58.9415 23.6523 59.1119 23.9428 59.1811 24.2639C59.2504 24.585 59.2149 24.9199 59.0799 25.2194C58.9442 25.5187 58.7162 25.7667 58.4294 25.9271ZM57.3721 23.961H56.9144V25.1894H57.3721C57.5351 25.1893 57.6914 25.1246 57.8067 25.0094C57.8922 24.9233 57.9504 24.8139 57.9739 24.6949C57.9974 24.5758 57.9851 24.4525 57.9387 24.3404C57.8922 24.2283 57.8136 24.1325 57.7128 24.065C57.612 23.9974 57.4935 23.9613 57.3721 23.961ZM42.703 22.5206V26.1013H41.6736V22.5206H40.3033V21.6087H44.0366V22.5206H42.703ZM60.3034 21.6087V26.1013H61.3328V21.6087H60.3034ZM46.3563 25.8461L48.1505 23.4081V26.1103H49.1893V21.6087H48.6299C48.5317 21.6079 48.4347 21.6306 48.347 21.675C48.2594 21.7193 48.1836 21.784 48.126 21.8635L46.3315 24.32V21.6087H45.3053V26.1103H45.8647C45.9616 26.1082 46.0567 26.0831 46.1422 26.0372C46.2276 25.9913 46.301 25.9258 46.3563 25.8461ZM42.6659 14.2603V13.8271H42.122V14.2481C40.8929 14.2481 39.9893 14.9448 39.9893 16.1519C39.9893 17.3584 40.8836 18.0403 42.122 18.0558V18.4732H42.6565V18.0681C43.8856 18.0526 44.7892 17.3681 44.7892 16.1642C44.7892 14.9603 43.904 14.2726 42.6659 14.2603ZM42.122 17.5706C41.1539 17.5706 40.561 17.1039 40.561 16.1642C40.561 15.2245 41.1632 14.7668 42.122 14.7484V17.5706ZM42.6565 17.5706V14.7484C43.6246 14.7484 44.2175 15.2184 44.2175 16.1581C44.2175 17.0977 43.6336 17.5613 42.6659 17.5706H42.6565ZM48.0554 18.4855C48.5163 18.4896 48.9681 18.3568 49.3534 18.1039C49.7388 17.851 50.0404 17.4894 50.2199 17.0648C50.3539 16.7474 50.4156 16.4041 50.4006 16.0598C50.3856 15.7156 50.2942 15.379 50.1331 15.0743C49.972 14.7697 49.7452 14.5048 49.4691 14.2986C49.193 14.0924 48.8745 13.9502 48.5367 13.8823C48.0848 13.7913 47.6161 13.8365 47.1899 14.0123C46.7638 14.188 46.3994 14.4863 46.1431 14.8693C45.8866 15.2524 45.7501 15.7032 45.7508 16.1642C45.741 16.4702 45.7938 16.7749 45.906 17.0597C46.0182 17.3446 46.1873 17.6035 46.4031 17.8206C46.6188 18.0379 46.8766 18.209 47.1607 18.3233C47.4448 18.4376 47.7492 18.4928 48.0554 18.4855ZM48.0554 14.3739C49.0693 14.3739 49.7515 15.1293 49.7515 16.1642C49.7515 17.199 49.0693 17.9513 48.0554 17.9513C47.0415 17.9513 46.3624 17.2052 46.3624 16.1642C46.3624 15.1232 47.0382 14.3739 48.0554 14.3739ZM71.4328 18.409V17.9145H69.4511V16.3545H71.1686V15.8571H69.4511V14.4106H71.4328V13.9164H68.9195V18.409H71.4328ZM52.0777 16.2777H54.5543V18.409H55.0859V13.9161H54.5543V15.7829H52.0777V13.9161H51.5429V18.4087H52.0777V16.2777ZM56.7114 18.971V18.409H60.2083V19.2103H60.4876C60.5511 19.2101 60.6118 19.1848 60.6567 19.1399C60.7016 19.0951 60.727 19.0344 60.7273 18.971V17.9145H60.0789V13.9226H57.4121C57.4121 16.6248 56.7637 17.9145 56.7637 17.9145H56.192V19.2103H56.4717C56.5352 19.2102 56.5961 19.185 56.641 19.1401C56.6859 19.0953 56.7112 19.0344 56.7114 18.971ZM57.9405 14.4106H59.5476V17.9145H57.3505C57.7424 16.788 57.9408 15.6033 57.9373 14.4106H57.9405ZM65.9265 18.4858C66.2546 18.4934 66.5804 18.4295 66.8813 18.2984C67.1821 18.1674 67.4509 17.9724 67.6688 17.7271L67.4782 17.5458C67.4249 17.497 67.3553 17.47 67.2831 17.47C67.211 17.47 67.1414 17.497 67.0881 17.5458C66.8314 17.758 66.519 17.892 66.1882 17.9316C65.8574 17.9712 65.5222 17.9148 65.2226 17.7691C64.923 17.6235 64.6716 17.3947 64.4984 17.1102C64.3252 16.8256 64.2375 16.4972 64.2458 16.1642C64.235 15.8276 64.3226 15.4952 64.4978 15.2076C64.673 14.92 64.9282 14.6897 65.2323 14.5448C65.5362 14.3997 65.8757 14.346 66.2096 14.3904C66.5434 14.4347 66.8572 14.5751 67.1127 14.7945C67.1656 14.8441 67.2353 14.8716 67.3078 14.8716C67.3803 14.8716 67.4501 14.8441 67.503 14.7945L67.6933 14.6164C67.37 14.2545 66.9415 14.0028 66.468 13.8965C65.9944 13.7902 65.4995 13.8347 65.0525 14.0237C64.6055 14.2127 64.2287 14.5367 63.9751 14.9504C63.7214 15.3642 63.6034 15.8469 63.6377 16.331C63.6792 16.9143 63.9392 17.4605 64.3657 17.8605C64.7923 18.2605 65.354 18.485 65.9388 18.489L65.9265 18.4858ZM79.9691 15.5532H79.1301V13.9161H78.5985V18.4087H79.9691C80.1585 18.4115 80.3465 18.3767 80.5222 18.3062C80.698 18.2358 80.8579 18.131 80.9928 17.9982C81.1277 17.8653 81.2348 17.7069 81.3079 17.5322C81.3811 17.3576 81.4187 17.1701 81.4187 16.9808C81.4187 16.7915 81.3811 16.604 81.3079 16.4293C81.2348 16.2547 81.1277 16.0963 80.9928 15.9634C80.8579 15.8306 80.698 15.7258 80.5222 15.6554C80.3465 15.5849 80.1585 15.5501 79.9691 15.5529V15.5532ZM79.892 17.9145H79.1301V16.0474H79.892C80.1397 16.0476 80.3771 16.146 80.5522 16.321C80.7274 16.496 80.8259 16.7334 80.8263 16.981C80.8263 17.1036 80.8022 17.2251 80.7552 17.3384C80.7083 17.4517 80.6395 17.5547 80.5527 17.6414C80.4659 17.7281 80.3629 17.7969 80.2496 17.8437C80.1362 17.8906 80.0147 17.9146 79.892 17.9145ZM83.3154 18.2613L85.9148 14.7271V18.4119H86.4464V13.9164H86.0961C86.0394 13.917 85.9835 13.9305 85.9329 13.9561C85.8823 13.9816 85.8382 14.0185 85.8041 14.0639L83.2076 17.6013V13.9161H82.6821V18.4087H83.0357C83.0906 18.4077 83.1445 18.3938 83.193 18.3682C83.2416 18.3426 83.2835 18.306 83.3154 18.2613ZM76.7642 13.9161C76.7045 13.914 76.6452 13.9266 76.5916 13.9529C76.538 13.9792 76.4917 14.0183 76.4568 14.0668L74.9206 16.2164L73.3841 14.0668C73.3492 14.0184 73.3029 13.9793 73.2492 13.9531C73.1956 13.9269 73.1364 13.9143 73.0767 13.9164H72.7296V18.409H73.2641V14.7639L74.7238 16.8245C74.7426 16.8544 74.7683 16.8793 74.7988 16.8969C74.8294 16.9146 74.8638 16.9245 74.899 16.9258C74.9345 16.9238 74.969 16.9136 74.9999 16.896C75.0308 16.8784 75.0572 16.854 75.0771 16.8245L76.5336 14.7639V18.409H77.0684V13.9161H76.7642ZM67.9019 26.0556C67.6205 26.1723 67.3187 26.2325 67.014 26.2326C66.7092 26.2325 66.4075 26.1723 66.126 26.0556C65.8444 25.9388 65.5887 25.7678 65.3733 25.5522C65.1579 25.3366 64.987 25.0807 64.8705 24.7991C64.754 24.5175 64.6941 24.2157 64.6942 23.911C64.6941 23.6062 64.754 23.3044 64.8705 23.0228C64.987 22.7412 65.1579 22.4853 65.3733 22.2698C65.5887 22.0542 65.8444 21.8831 66.126 21.7664C66.4075 21.6497 66.7092 21.5895 67.014 21.5894C67.3187 21.5895 67.6205 21.6497 67.9019 21.7664C68.1834 21.8831 68.4392 22.0542 68.6546 22.2698C68.8699 22.4854 69.0407 22.7413 69.1572 23.0229C69.2737 23.3045 69.3336 23.6063 69.3334 23.911C69.3336 24.2157 69.2737 24.5175 69.1572 24.7991C69.0407 25.0807 68.8699 25.3366 68.6546 25.5522C68.4392 25.7678 68.1834 25.9388 67.9019 26.0556ZM68.315 23.911C68.315 24.6461 67.7324 25.2416 67.014 25.2416C66.2952 25.2416 65.7126 24.6461 65.7126 23.911C65.7126 23.1762 66.2952 22.5803 67.014 22.5803C67.7324 22.5803 68.315 23.1762 68.315 23.911Z" fill="#0B0B0B"/>
</g>
<defs>
<clipPath id="clip0">
<rect width="86.1314" height="40" fill="white" transform="translate(0.315186)"/>
</clipPath>
</defs>
</svg>
