<svg width="188" height="40" viewBox="0 0 188 40" fill="none" xmlns="http://www.w3.org/2000/svg">
<g clip-path="url(#clip0)">
<path d="M167.56 12.0479C163.746 14.4894 162.919 19.5779 162.621 22.8865C162.322 26.1951 161.909 27.7239 161.656 31.4661C161.38 35.1854 165.033 34.0445 167.445 32.9036C169.88 31.7627 176.013 27.8152 176.289 23.1375C176.564 18.4598 173.21 17.1592 171.648 17.1135C170.086 17.0679 168.157 17.9578 167.1 20.308C166.043 22.6583 166.595 29.6863 166.135 29.7319C165.653 29.7775 164.206 23.822 165.745 19.0074C167.284 14.1928 174.382 11.66 178.195 17.8893C182.031 24.1187 177.437 30.5077 173.44 34.0673C169.466 37.6269 161.082 39.8403 158.371 39.247C155.66 38.6309 155.316 37.4672 157.039 34.3868C158.785 31.2835 159.589 23.7307 160.507 18.1631C161.426 12.5956 164.183 8.62521 170.913 8.78494C177.644 8.94467 179.734 14.2384 179.55 14.3982C179.367 14.5579 173.279 8.39703 167.56 12.0479ZM168.341 0C168.341 0 166.089 6.4575 173.831 8.16885C173.831 8.16885 171.373 5.0656 170.638 2.92071C170.638 2.92071 172.889 4.8146 174.704 7.78095C174.681 7.78095 176.886 0.501997 168.341 0ZM175.99 9.17285C175.99 9.17285 176.84 10.0627 177.345 9.65203C177.851 9.2413 181.549 5.77296 181.549 5.77296C181.549 5.77296 181.733 5.52196 182.261 5.52196C182.789 5.52196 186.235 5.52196 186.235 5.52196C186.235 5.52196 186.947 5.47633 187.338 4.99715C187.82 4.38106 188.073 3.85625 187.338 3.85625C186.603 3.85625 180.929 3.85625 180.929 3.85625C180.929 3.85625 180.469 3.85625 180.079 4.22133C179.482 4.79179 175.117 8.64803 175.117 8.64803L175.622 8.96748C175.622 8.96748 180.492 4.86024 180.607 4.76897C180.883 4.56361 181.044 4.4267 182.215 4.4267C183.593 4.4267 186.832 4.35824 186.832 4.4267C186.832 4.49515 186.35 4.8146 184.903 4.8146C183.456 4.8146 181.664 4.90588 181.664 4.90588C181.664 4.90588 181.181 4.97433 180.515 5.52196C179.642 6.22932 175.99 9.17285 175.99 9.17285ZM10.0694 16.8169H0.743164V32.9264H4.94688V26.6286H9.63299V23.069H4.94688V20.3537H10.0465V16.8169H10.0694ZM22.2212 26.332C23.3238 26.1266 24.1967 25.5562 24.8629 24.6663C25.4601 23.8448 25.7587 22.9093 25.7587 21.8597C25.7587 20.2396 25.2534 18.9846 24.2656 18.1175C23.2778 17.2504 21.8766 16.8169 20.0389 16.8169H13.8137V32.9264H18.0175V26.7199C18.8214 27.8608 20.1538 29.9373 22.0144 32.9264H27.3208L22.2212 26.332ZM18.7066 24.0502H18.0175V20.0114H18.7296C20.4754 20.0114 21.3483 20.6731 21.3483 21.9738C21.3712 23.3428 20.4754 24.0502 18.7066 24.0502ZM39.082 29.3896H34.0513V26.6286H38.8063V23.069H34.0513V20.3537H39.082V16.8169H29.8476V32.9264H39.082V29.3896ZM50.3838 23.1831C49.0055 22.7724 48.1096 22.4301 47.6732 22.1563C47.3057 21.9053 47.1219 21.5859 47.1219 21.1523C47.1219 20.7872 47.3057 20.4906 47.6732 20.2624C48.0407 20.0114 48.4772 19.8973 49.0055 19.8973C49.5109 19.8973 50.0622 20.0114 50.6135 20.2624C51.0959 20.4678 51.4634 20.7188 51.7161 20.9698L53.393 17.7068C51.808 16.8169 50.1311 16.3833 48.3853 16.3833C46.6854 16.3833 45.3072 16.8853 44.2735 17.8665C43.2168 18.8477 42.7114 20.1711 42.7114 21.7912C42.7114 23.0006 43.01 23.9361 43.6303 24.6435C44.2735 25.3736 45.2842 25.8985 46.6854 26.2179C48.6839 26.6743 49.6717 27.3588 49.6717 28.2487C49.6717 28.6823 49.4649 29.0473 49.0744 29.3668C48.6839 29.6634 48.2015 29.8232 47.6502 29.8232C46.226 29.8232 44.9856 29.2755 43.9059 28.1574L42.0453 31.5345C42.7114 32.0137 43.5154 32.4472 44.4802 32.7667C45.5828 33.1546 46.6395 33.36 47.6502 33.36C49.6946 33.36 51.2567 32.858 52.3823 31.854C53.5079 30.85 54.0592 29.4124 54.0592 27.5414C54.0592 25.3508 52.8417 23.8905 50.3838 23.1831ZM71.9996 16.8169H67.7959V23.0234H61.7086V16.8169H57.4819V32.9264H61.6856V26.3092H67.7729V32.9264H71.9767V16.8169H71.9996ZM4.05101 36.0981C3.63753 35.6874 3.13216 35.482 2.51194 35.482C2.07549 35.482 1.66201 35.5733 1.2715 35.7787V36.8511C1.57012 36.5773 1.93766 36.4404 2.32817 36.4404C2.60383 36.4404 2.85651 36.5088 3.06325 36.6686C3.26999 36.8283 3.40782 37.0337 3.43079 37.2847H2.05252V38.1289H3.4997C3.47673 38.4027 3.38484 38.6081 3.20108 38.7906C2.99434 38.9732 2.74165 39.0873 2.42006 39.0873C1.98361 39.0873 1.61607 38.9504 1.29447 38.6537V39.7262C1.63904 39.9315 2.05252 40.0228 2.51194 40.0228C3.10919 40.0228 3.59158 39.8175 4.00506 39.4296C4.44152 38.996 4.67123 38.4027 4.67123 37.6726C4.67123 37.0337 4.46449 36.5088 4.05101 36.0981ZM11.5396 37.6269L13.2165 35.5961H11.8153L10.437 37.49V35.5961H9.3114V39.9087H10.437V37.8551L11.9071 39.9087H13.3773L11.5396 37.6269ZM20.2227 37.6041C20.4524 37.5357 20.6132 37.3987 20.751 37.2162C20.8888 37.0337 20.9348 36.8283 20.9348 36.6229C20.9348 36.2578 20.774 35.9612 20.4754 35.733C20.1538 35.5048 19.7633 35.3908 19.2809 35.3908C18.7525 35.3908 18.2701 35.5277 17.8107 35.8015L18.1553 36.6229C18.4999 36.4404 18.8214 36.3491 19.0971 36.3491C19.2809 36.3491 19.4417 36.3948 19.5565 36.4632C19.6714 36.5317 19.7173 36.6457 19.7173 36.7827C19.7173 37.0793 19.5106 37.239 19.0741 37.239H18.6147V38.0605H19.0741C19.5336 38.0605 19.7633 38.2202 19.7633 38.5396C19.7633 38.6537 19.7173 38.7678 19.6484 38.8591C19.5336 38.9732 19.3728 39.0416 19.143 39.0416C18.7525 39.0416 18.4309 38.9047 18.1323 38.6537L17.6269 39.4524C18.1093 39.8175 18.6606 40 19.2809 40C19.7862 40 20.1997 39.8859 20.5213 39.6349C20.8659 39.3839 21.0267 39.0645 21.0267 38.6537C21.0267 38.1517 20.751 37.8095 20.2227 37.6041ZM29.6868 36.1209C29.2274 35.6874 28.6531 35.482 27.964 35.482C27.2748 35.482 26.7005 35.6874 26.2411 36.1209C25.7817 36.5545 25.552 37.1021 25.552 37.741C25.552 38.3799 25.7817 38.9276 26.2411 39.3611C26.7005 39.7946 27.2748 40 27.964 40C28.6531 40 29.2274 39.7946 29.6868 39.3611C30.1462 38.9276 30.3759 38.3799 30.3759 37.741C30.3759 37.1021 30.1462 36.5545 29.6868 36.1209ZM28.8369 38.5853C28.6072 38.8135 28.3085 38.9276 27.964 38.9276C27.6194 38.9276 27.3437 38.8135 27.0911 38.5853C26.8613 38.3571 26.7465 38.0833 26.7465 37.741C26.7465 37.3987 26.8613 37.1249 27.0911 36.8967C27.3208 36.6686 27.6194 36.5545 27.964 36.5545C28.3085 36.5545 28.6072 36.6686 28.8369 36.8967C29.0666 37.1249 29.1814 37.3987 29.1814 37.741C29.1814 38.0833 29.0666 38.3571 28.8369 38.5853ZM37.497 35.5961H34.5107V36.5545H35.4525V39.9087H36.5781V36.5545H37.52V35.5961H37.497ZM46.226 35.5733H45.1464L43.1938 38.3571V35.5733H42.0682V39.9087H43.1479L45.1004 37.1249V39.9087H46.226V35.5733ZM54.4497 35.5961H53.3241V37.239C53.1633 37.2847 52.9566 37.3075 52.7039 37.3075C52.4742 37.3075 52.3134 37.2618 52.2215 37.1477C52.1526 37.0565 52.1066 36.8967 52.1066 36.6686V35.5961H50.981V36.8511C50.981 37.3759 51.0959 37.741 51.3026 37.9464C51.5323 38.1746 51.9228 38.2886 52.4742 38.2886C52.8417 38.2886 53.1403 38.2658 53.3241 38.2202V39.9087H54.4497V35.5961ZM61.8004 38.9504H60.4681V38.2202H61.7315V37.2618H60.4681V36.5317H61.8004V35.5961H59.3196V39.9087H61.7775V38.9504H61.8004ZM69.7485 38.4712C69.4728 38.7678 69.1512 38.9276 68.7607 38.9276C68.4161 38.9276 68.1405 38.8135 67.9337 38.6081C67.727 38.4027 67.6121 38.1061 67.6121 37.7638C67.6121 37.4216 67.727 37.1477 67.9337 36.9196C68.1634 36.6914 68.4391 36.5773 68.7607 36.5773C69.1742 36.5773 69.4958 36.737 69.7485 37.0565V35.7102C69.4268 35.5733 69.0823 35.482 68.7377 35.482C68.0945 35.482 67.5432 35.7102 67.0838 36.1438C66.6244 36.5773 66.3947 37.1249 66.3947 37.741C66.3947 38.3799 66.6244 38.9276 67.0608 39.3611C67.4973 39.7946 68.0486 40.0228 68.7147 40.0228C68.9904 40.0228 69.335 39.9544 69.7255 39.8175V38.4712H69.7485ZM76.8006 37.6269L78.4775 35.5961H77.0762L75.698 37.49V35.5961H74.5724V39.9087H75.698V37.8551L77.1681 39.9087H78.6153L76.8006 37.6269ZM87.2295 35.5733H86.1498L84.1973 38.3571V35.5733H83.0717V39.9087H84.1514L86.1039 37.1249V39.9087H87.2295V35.5733ZM94.5802 38.9504H93.2479V38.2202H94.5113V37.2618H93.2479V36.5317H94.5802V35.5961H92.1223V39.9087H94.5802V38.9504ZM109.879 36.235C109.534 36.0068 109.098 35.8928 108.524 35.8928H108.478V35.3908H107.352V35.8928H107.329C106.778 35.8928 106.318 36.0068 105.974 36.235C105.537 36.5317 105.308 36.9652 105.308 37.5813C105.308 38.1974 105.537 38.6537 105.974 38.9276C106.318 39.1557 106.755 39.2698 107.329 39.2698H107.375V39.8859H108.501V39.2698H108.547C109.098 39.2698 109.557 39.1557 109.902 38.9276C110.338 38.6309 110.568 38.1974 110.568 37.5813C110.568 36.9652 110.315 36.5317 109.879 36.235ZM107.329 38.4484C107.1 38.4484 106.916 38.4027 106.755 38.2886C106.548 38.1289 106.456 37.9007 106.456 37.5813C106.456 37.2618 106.548 37.0337 106.755 36.8739C106.916 36.7598 107.1 36.7142 107.329 36.7142H107.421V38.4484H107.329ZM109.098 38.2886C108.937 38.4027 108.753 38.4484 108.524 38.4484H108.455V36.7142H108.524C108.753 36.7142 108.937 36.7598 109.098 36.8739C109.305 37.0337 109.397 37.2618 109.397 37.5813C109.397 37.9007 109.305 38.1517 109.098 38.2886ZM118.103 35.9612C117.827 35.7102 117.437 35.5961 116.931 35.5961H115.208V39.9087H116.334V38.4712H116.977C117.988 38.4712 118.493 37.992 118.493 37.0108C118.516 36.5545 118.378 36.2122 118.103 35.9612ZM117.184 37.4444C117.092 37.5357 116.908 37.5585 116.678 37.5585H116.334V36.486H116.678C116.908 36.486 117.092 36.5317 117.184 36.6001C117.299 36.6914 117.345 36.8283 117.345 37.0108C117.345 37.2162 117.276 37.3531 117.184 37.4444ZM125.706 35.5961L124.971 37.49L124.098 35.5961H122.72L124.351 38.7222L123.754 39.9087H124.994L126.947 35.5961H125.706ZM133.631 37.6269L135.308 35.5961H133.907L132.529 37.49V35.5961H131.403V39.9087H132.529V37.8551L133.999 39.9087H135.446L133.631 37.6269ZM142.567 35.5961H139.581V36.5545H140.523V39.9087H141.648V36.5545H142.59V35.5961H142.567ZM149.619 37.3987C149.343 37.2618 149.022 37.2162 148.677 37.2162H148.241V35.5961H147.115V39.9087H148.677C149.045 39.9087 149.366 39.8403 149.619 39.7262C150.101 39.5208 150.331 39.1101 150.331 38.5625C150.331 37.992 150.101 37.6041 149.619 37.3987ZM148.539 39.0416H148.218V38.0376H148.539C148.976 38.0376 149.206 38.1974 149.206 38.5396C149.206 38.8819 148.999 39.0416 148.539 39.0416ZM151.732 35.5961H150.607V39.9087H151.732V35.5961ZM98.8069 16.8169H94.6032L91.1346 25.4421L87.8267 16.8169H83.6919L80.9124 32.9264H85.1161L86.4485 23.5938L90.2157 32.9264H91.8926L95.8207 23.5938L97.0382 32.9264H101.242L98.8069 16.8169ZM113.508 16.8169H108.593L102.459 32.9264H106.985L108.041 29.846H114.06L115.116 32.9264H119.642L113.508 16.8169ZM109.121 26.6515L111.051 21.061L112.957 26.6515H109.121ZM137.261 16.7484H133.31V26.6286L125.706 16.7484H121.755V32.9264H125.706V23.0462L133.31 32.9264H137.261V16.7484ZM148.792 23.9361V27.2219H152.215C152.215 28.0662 151.87 28.7279 151.204 29.2527C150.561 29.7547 149.757 30.0057 148.769 30.0057C147.552 30.0057 146.541 29.5265 145.737 28.5454C144.933 27.587 144.542 26.3548 144.542 24.8488C144.542 23.4569 144.933 22.2704 145.737 21.312C146.541 20.3537 147.506 19.8745 148.677 19.8745C150.331 19.8745 151.526 20.7188 152.261 22.4301L156.258 20.7644C155.66 19.3953 154.696 18.3229 153.386 17.5242C152.077 16.7484 150.561 16.3605 148.838 16.3605C146.288 16.3605 144.198 17.1592 142.567 18.7336C140.982 20.3537 140.178 22.3845 140.178 24.8716C140.178 27.4044 140.959 29.4581 142.521 31.0097C144.083 32.5613 146.15 33.3371 148.723 33.3371C151.296 33.3371 153.294 32.607 154.742 31.1466C156.35 29.5265 157.131 27.1306 157.131 23.9133H148.792V23.9361Z" fill="black"/>
</g>
<defs>
<clipPath id="clip0">
<rect width="187.077" height="40" fill="white" transform="translate(0.743164)"/>
</clipPath>
</defs>
</svg>
