<svg width="50" height="40" viewBox="0 0 50 40" fill="none" xmlns="http://www.w3.org/2000/svg">
<g clip-path="url(#clip0)">
<path d="M33.9087 10.1379H31.6263L31.7785 6.84736L34.175 6.90442L33.9087 10.1379ZM26.4527 6.90442H24.1322L24.2083 14.2083H26.3576L26.4527 6.90442ZM43.3048 14.6077L48.3262 13.6757C48.1551 17.4037 45.2069 19.4579 45.2069 19.4579C45.0737 22.5012 41.9924 24.0989 41.9924 24.0989C41.4408 28.4926 35.8678 30.0143 35.8678 30.0143C34.7266 35.2068 24.8931 38.3833 24.8931 38.3833C14.7742 34.5602 14.2226 29.6719 14.2226 29.6719C8.76371 28.835 8.30722 24.0418 8.30722 24.0418C5.34003 22.8245 5.01669 19.4389 5.01669 19.4389C2.46795 17.5559 1.91635 13.6757 1.91635 13.6757L6.89971 14.9501L3.64721 4.20352C3.64721 4.20352 16.448 1.6738 24.5507 1.6738C32.6534 1.6738 46.5764 4.20352 46.5764 4.20352L43.3048 14.6077ZM36.7618 8.08369H38.0552L38.2644 6.84736H39.1584L38.0552 12.5915L37.4656 12.7627L37.2944 14.3034L39.9002 13.7328L40.2045 12.2492L39.8241 12.3062L40.9653 6.75226H41.7642L41.5359 8.10271L42.9244 8.04565L43.6092 5.32573L37.1612 5.04042L36.7618 8.08369ZM29.3058 15.9201L31.7024 15.4636V13.4665L31.2839 13.5996L31.322 12.1731L34.0038 11.9448C34.0038 11.9448 35.3353 11.9068 35.4114 11.2221C35.4874 10.5183 36.0771 5.42083 36.0771 5.42083C36.0771 5.42083 36.2292 4.85021 34.9929 4.79315C33.7756 4.73609 29.496 4.58393 29.496 4.58393V6.90442H29.9144L29.7052 13.8088L29.3058 13.98V15.9201ZM13.671 4.96434L14.0894 6.9805H14.603L15.573 13.029H15.1736L15.497 14.7599L17.5321 15.1022L16.467 6.90442L18.8065 6.86638L19.5293 15.4826L21.5455 15.825V13.961L21.089 13.7518L20.7086 6.84736L21.165 6.82834L21.146 4.54589L13.671 4.96434ZM8.45939 12.3443C8.80176 13.5235 9.65768 13.7328 9.65768 13.7328L14.584 14.5887L14.0134 12.078L12.3966 12.0209L12.4537 12.5535L10.3234 12.2682L8.9349 6.99952L11.1603 6.90442L11.6929 8.12173H13.4618L12.8341 5.1165C12.8341 5.1165 8.26918 5.26866 7.31816 5.32573C6.36714 5.38279 6.74755 6.23871 6.74755 6.23871C6.74755 6.23871 8.11702 11.184 8.45939 12.3443ZM9.82886 23.5663C11.5597 24.1179 14.7742 25.8678 14.7742 25.8678C14.7742 25.8678 13.709 23.8516 12.4537 22.5583C11.1793 21.2458 6.234 19.8003 6.234 19.8003C6.40518 22.2729 8.098 23.0147 9.82886 23.5663ZM16.8474 30.0333C16.8474 30.0333 15.7823 27.7889 15.0785 26.8569C14.3557 25.9249 9.16314 24.3652 9.16314 24.3652C9.35335 25.4684 10.4185 27.6557 12.3966 28.2073C14.4128 28.7779 16.8474 30.0333 16.8474 30.0333ZM18.2359 31.8973C18.2359 31.8973 15.1926 21.2078 13.4998 19.4769C11.807 17.7461 2.92444 14.7789 2.92444 14.7789C3.26681 18.8302 9.31531 19.7242 11.7499 20.9035C14.2226 22.0827 18.2359 31.8973 18.2359 31.8973ZM19.7195 23.9467L21.9829 24.7836L22.04 25.9439L24.5507 27.009L24.4556 22.5583L15.5921 19.4769L16.5621 23.0718L17.1327 23.1289L18.5783 28.5877L17.9506 28.4356L18.7875 30.8892L21.7927 32.2777L21.5455 30.1094L20.7466 29.5007L20.5564 28.2834L22.4965 29.4817L22.3633 26.971L20.1189 26.1341L19.7195 23.9467ZM25.3686 16.3766H26.6239C26.6239 16.3766 28.3167 16.5097 28.2977 15.0832C28.2597 13.6567 28.4499 5.51593 28.4499 5.51593C28.4499 5.51593 28.6971 4.46981 26.9663 4.45078C25.2164 4.43176 23.1622 4.45078 23.1622 4.45078C23.1622 4.45078 22.059 4.48883 22.097 5.51593L22.4204 14.6077C22.4204 14.6077 22.3443 16.1864 23.6757 16.2815C25.0072 16.3766 25.3686 16.3766 25.3686 16.3766ZM31.36 30.8702L32.1208 28.4356L31.4931 28.7589L33.1289 22.9767L33.8327 22.7104L34.9549 19.0395L31.2269 20.3329L29.0585 26.4384L28.2216 21.36L24.9311 22.6153V25.8678L25.4827 25.5064V30.7561L24.9311 31.0033V33.3048L27.2516 32.2777L27.5749 28.2454L28.4689 30.8702L29.9905 27.3134L29.1536 31.8212L31.36 30.8702ZM41.1365 24.3652C41.1365 24.3652 35.9439 25.9249 35.2212 26.8569C34.4984 27.7889 33.4523 30.0333 33.4523 30.0333C33.4523 30.0333 35.8869 28.7779 37.903 28.2073C39.8621 27.6557 40.9273 25.4684 41.1365 24.3652ZM44.0466 19.8003C44.0466 19.8003 39.1013 21.2458 37.827 22.5583C36.5526 23.8707 35.5065 25.8678 35.5065 25.8678C35.5065 25.8678 38.7209 24.1179 40.4518 23.5663C42.1826 23.0147 43.8755 22.2729 44.0466 19.8003ZM36.7808 19.4579C35.088 21.1888 32.0447 31.8783 32.0447 31.8783C32.0447 31.8783 36.0581 22.0637 38.5117 20.8845C40.9653 19.7052 47.0138 18.8112 47.3372 14.7599C47.3372 14.7789 38.4737 17.7271 36.7808 19.4579ZM46.6905 19.9334C45.9487 23.2049 43.7233 24.6695 43.419 24.8407C41.9544 29.9001 37.7128 30.737 37.1612 30.8321C34.8217 36.8046 25.0072 39.962 24.9121 40C24.9121 40 24.8931 40 24.874 40C24.855 40 24.855 40 24.836 40C15.3828 36.6334 13.2525 31.4408 13.0243 30.8702C7.58445 29.6909 6.84265 25.3543 6.78559 24.8217C4.40803 23.4712 3.51407 20.3519 3.39995 19.9524C0.204514 18.2026 0.299617 12.116 0.299617 11.8497C0.299617 11.8307 0.318637 11.7927 0.337657 11.7737C0.356678 11.7546 0.394719 11.7546 0.413739 11.7546L4.52216 12.4204L1.82125 2.87209C1.82125 2.85307 1.82125 2.81503 1.84027 2.79601C1.85929 2.77699 1.87831 2.75796 1.89733 2.75796C2.08754 2.73894 19.6054 0 25.2925 0C30.9796 0 48.1741 2.73894 48.3453 2.75796C48.3643 2.75796 48.4023 2.77699 48.4023 2.79601C48.4213 2.81503 48.4213 2.85307 48.4213 2.87209L45.6063 12.5535L49.7908 11.4883C49.8289 11.4883 49.8479 11.4883 49.8669 11.5074C49.8859 11.5264 49.9049 11.5454 49.9049 11.5835C50.0951 17.67 47.0709 19.7052 46.6905 19.9334ZM49.7338 11.6976L45.5112 12.7817C45.4732 12.7817 45.4351 12.7817 45.4161 12.7627C45.3971 12.7437 45.3781 12.7057 45.3971 12.6676L48.2121 2.94817C46.7475 2.7009 30.7323 0.190204 25.2925 0.190204C19.8526 0.190204 3.51407 2.7009 2.03048 2.92915L4.73138 12.5345C4.73138 12.5725 4.73138 12.5915 4.71236 12.6296C4.69334 12.6486 4.6553 12.6676 4.61726 12.6676L0.489821 11.9639C0.489821 12.8008 0.622964 18.2596 3.55211 19.7813C3.57113 19.8003 3.59015 19.8193 3.60917 19.8383C3.60917 19.8764 4.46509 23.262 6.95677 24.6505C6.97579 24.6695 6.99481 24.6885 7.01383 24.7266C7.01383 24.7646 7.48934 29.4627 13.1765 30.661C13.2145 30.661 13.2335 30.699 13.2525 30.718C13.2716 30.7751 15.0785 36.253 24.9311 39.7718C25.5397 39.5816 34.8407 36.4242 37.0471 30.68C37.0661 30.6419 37.0852 30.6229 37.1232 30.6229C37.1612 30.6229 41.7642 30.0333 43.2858 24.7266C43.2858 24.7076 43.3048 24.6885 43.3239 24.6695C43.3429 24.6505 45.7775 23.243 46.5383 19.8193C46.5383 19.8003 46.5573 19.7622 46.5954 19.7622C46.5954 19.7813 49.8669 17.9553 49.7338 11.6976Z" fill="black"/>
</g>
<defs>
<clipPath id="clip0">
<rect width="49.6243" height="40" fill="white" transform="translate(0.299805)"/>
</clipPath>
</defs>
</svg>
