<svg width="275" height="40" viewBox="0 0 275 40" fill="none" xmlns="http://www.w3.org/2000/svg">
<path fill-rule="evenodd" clip-rule="evenodd" d="M116.935 0.152161V19.9516H110.347V0.152161H53.3097L41.769 18.6822V0.152161H29.3804L20.9819 11.1951L12.4721 0.152161H0.0769043V39.319H12.4734V18.4391L20.9832 29.4279L29.3818 18.5804V39.319H42.0776L47.2333 31.0328H60.3239V39.319H72.7217V11.281H79.3094V39.319H91.7072V11.281H97.9492V31.0804H116.935V39.319H129.332V0.153482H116.935V0.152161ZM60.3239 10.0129V19.9119H54.1601L60.3239 10.0129Z" fill="#0B0B0B"/>
<path fill-rule="evenodd" clip-rule="evenodd" d="M134.394 0.152161V24.1099L146.791 16.677V0.152161H134.394Z" fill="#0B0B0B"/>
<path fill-rule="evenodd" clip-rule="evenodd" d="M147.7 32.0909C147.366 28.7331 144.636 26.0147 141.259 25.6844C136.698 25.234 132.895 29.0171 133.347 33.5572C133.682 36.915 136.412 39.6321 139.787 39.9637C144.349 40.4128 148.151 36.6297 147.7 32.0909Z" fill="#0B0B0B"/>
<path fill-rule="evenodd" clip-rule="evenodd" d="M274.743 0H164.743V39.9999H274.743V0ZM215.708 25.9101C217.348 24.1328 218.169 21.5898 218.169 18.2812C218.169 14.9635 217.353 12.4206 215.721 10.6523C214.099 8.8841 211.752 7.99999 208.68 7.99999C205.609 7.99999 203.248 8.87954 201.598 10.6387C199.958 12.3887 199.137 14.9271 199.137 18.2539C199.137 21.5807 199.958 24.1328 201.598 25.9101C203.239 27.6875 205.591 28.5761 208.653 28.5761C211.716 28.5761 214.067 27.6875 215.708 25.9101ZM204.852 23.3261C204.005 22.1959 203.581 20.5143 203.581 18.2812C203.581 16.0482 204.009 14.3665 204.866 13.2363C205.723 12.097 206.994 11.5273 208.68 11.5273C212.044 11.5273 213.725 13.7786 213.725 18.2812C213.725 22.7747 212.035 25.0214 208.653 25.0214C206.967 25.0214 205.7 24.4563 204.852 23.3261ZM186.65 15.9844H184.982V11.8144H193.376V8.31444H180.743V28.3027H186.568C192.073 28.3027 194.825 26.22 194.825 22.0547C194.825 20.1224 194.114 18.6276 192.693 17.5703C191.271 16.513 189.256 15.9844 186.65 15.9844ZM186.404 24.83H184.982V19.457H186.062C187.702 19.457 188.86 19.6621 189.534 20.0722C190.209 20.4733 190.546 21.1341 190.546 22.0547C190.546 22.9843 190.213 23.6816 189.548 24.1464C188.883 24.6022 187.835 24.83 186.404 24.83ZM235.223 28.3027H223.711V8.31444H235.223V11.7871H227.95V16.1758H234.717V19.6484H227.95V24.8027H235.223V28.3027ZM259.605 24.9394H256.625V8.31444H252.4V24.7754H245.045V8.31444H240.807V28.3027H255.517V34.1269H259.605V24.9394Z" fill="black"/>
</svg>
