<svg width="202" height="40" viewBox="0 0 202 40" fill="none" xmlns="http://www.w3.org/2000/svg">
<g clip-path="url(#clip0)">
<path fill-rule="evenodd" clip-rule="evenodd" d="M82.7533 8.78729C83.3317 8.99584 83.9482 9.0773 84.561 9.02613C85.1627 9.06629 85.7663 8.98034 86.3329 8.77381C86.8995 8.56727 87.4167 8.24469 87.8514 7.82673C88.2862 7.40876 88.6288 6.90461 88.8575 6.34656C89.0861 5.78852 89.1958 5.18888 89.1793 4.58603C89.2173 3.9679 89.1223 3.34881 88.9007 2.77051C88.6792 2.19221 88.3361 1.66815 87.8948 1.23367C87.4535 0.799195 86.9241 0.464408 86.3424 0.25188C85.7607 0.0393525 85.1403 -0.0459738 84.5228 0.00166488C81.6514 0.0442495 79.9654 1.84323 79.9332 4.49043C79.8944 5.1041 79.9882 5.71894 80.2083 6.29308C80.4284 6.86723 80.7698 7.3872 81.2089 7.81761C81.6481 8.24801 82.1748 8.57875 82.7533 8.78729ZM107.317 0.83255H115.051V1.46263C115.051 13.7983 115.056 26.1336 115.064 38.4687C115.064 39.0857 114.891 39.2508 114.282 39.2421C112.19 39.2065 110.097 39.2152 108.004 39.2421C107.5 39.2474 107.299 39.1353 107.3 38.579C107.315 26.1635 107.319 13.7476 107.311 1.3314L107.317 0.83255ZM94.1609 0.852494V39.2282L94.8031 39.2273C95.3852 39.2273 95.9671 39.2259 96.5489 39.2244C98.0824 39.2206 99.6151 39.2168 101.147 39.2395C101.725 39.2482 101.899 39.09 101.899 38.499C101.891 26.1547 101.887 13.8121 101.887 1.47128V0.852494H94.1609ZM0.435601 12.6763C0.591089 12.753 0.738541 12.8249 0.880168 12.8941C1.20242 13.0514 1.49451 13.194 1.7825 13.3437C2.28074 13.6019 2.77959 13.8597 3.27859 14.1176C4.78149 14.8942 6.28578 15.6716 7.77923 16.4637C8.2859 16.7322 8.53702 16.601 8.82208 16.1274C9.43873 15.0107 10.3057 14.0522 11.355 13.3269C12.4044 12.6016 13.6075 12.1293 14.87 11.9471C16.4476 11.6958 18.0636 11.8686 19.5525 12.4477C21.0413 13.0268 22.3494 13.9914 23.3426 15.2426C23.6597 15.6461 23.9464 16.0725 24.2004 16.5184C24.4968 16.9912 24.7696 17.006 25.0364 16.508C25.6814 15.3931 26.548 14.422 27.5827 13.6548C28.6457 12.8248 29.9015 12.2771 31.233 12.0627C33.0588 11.7139 34.9449 11.864 36.6925 12.4972C37.9741 12.9535 39.1414 13.6822 40.1143 14.6331C41.0871 15.584 41.8422 16.7346 42.3275 18.0054C42.937 19.5585 43.2272 21.2184 43.1808 22.8862C43.1639 26.7062 43.1669 30.5262 43.1699 34.3458C43.171 35.821 43.1721 37.2961 43.1721 38.7711V39.1813H35.5548V38.5017V24.4279C35.6231 23.0337 35.2399 21.6546 34.4623 20.4953C34.0196 19.864 33.4319 19.3481 32.7484 18.9912C32.0648 18.6343 31.3054 18.4468 30.5343 18.4444C29.7632 18.442 29.0028 18.6249 28.317 18.9775C27.6313 19.3302 27.0403 19.8424 26.5938 20.471C25.8945 21.4873 25.526 22.6946 25.538 23.9282C25.527 28.7805 25.5291 33.6325 25.5448 38.4843C25.5448 39.0483 25.4144 39.2543 24.8113 39.2439C22.6977 39.2082 20.5832 39.2143 18.467 39.2439C17.9377 39.2508 17.7788 39.0935 17.7814 38.5608C17.7997 33.5879 17.8136 28.6151 17.7814 23.6422C17.8196 22.8223 17.662 22.0051 17.3219 21.2581C16.9817 20.5111 16.4687 19.8558 15.8252 19.3464C15.1801 18.8444 14.4104 18.5277 13.5988 18.4305C12.7872 18.3332 11.9644 18.4591 11.219 18.7945C10.2733 19.1551 9.46736 19.8081 8.91841 20.6584C8.36946 21.5087 8.1062 22.512 8.16688 23.5223C8.0983 27.7581 8.12036 31.9952 8.14243 36.2319C8.14636 36.9882 8.1503 37.7445 8.15372 38.5008C8.15372 39.097 7.96957 39.2465 7.39859 39.2387C5.26501 39.2082 3.13062 39.2178 0.996171 39.2343C0.561634 39.2343 0.392933 39.1161 0.393802 38.6555C0.404231 30.1386 0.407136 21.6216 0.402501 13.1047C0.401383 13.0427 0.407488 12.9795 0.417076 12.8804C0.422393 12.8254 0.42878 12.7594 0.435601 12.6763ZM148.097 28.1362H127.413C127.515 29.4211 127.988 30.6488 128.775 31.6696C129.562 32.6904 130.629 33.4602 131.846 33.8851C133.465 34.4828 135.243 34.4877 136.866 33.8991C138.489 33.3105 139.851 32.1664 140.71 30.6695C142.758 31.1846 144.809 31.6997 146.865 32.2148C147.137 32.2826 147.257 32.3712 147.09 32.6632C146.66 33.5899 146.15 34.4774 145.566 35.3156C143.602 37.5817 140.915 39.1 137.961 39.6141C136.099 39.9942 134.19 40.0973 132.297 39.92C129.174 39.7199 126.207 38.482 123.867 36.4028C121.588 34.354 120.089 31.5786 119.626 28.549C119.12 25.8823 119.337 23.1287 120.256 20.5744C121.3 17.6091 123.434 15.1525 126.224 13.7035C128.332 12.6029 130.659 11.9862 133.035 11.8984C135.988 11.6828 138.941 12.3083 141.552 13.7026C143.561 14.774 145.22 16.3995 146.332 18.3861C148.249 21.8137 148.284 24.4053 148.097 28.1362ZM127.299 23.3502H140.276C140.159 21.9043 139.544 20.5439 138.536 19.5004C137.528 18.4568 136.19 17.7947 134.749 17.6265C130.96 17.165 128.088 19.2995 127.299 23.3476V23.3502ZM56.8442 31.9646C55.9053 30.8872 55.3342 29.5385 55.214 28.1144L55.9188 28.1083C62.3819 28.1049 68.8445 28.1066 75.307 28.1136C75.7015 28.1136 76.0275 28.1075 76.0379 27.5921C76.1816 25.3838 75.9446 23.1673 75.3374 21.0393C74.7369 19.0676 73.6637 17.2726 72.2111 15.8103C70.7586 14.3481 68.9707 13.2629 67.003 12.6493C64.5656 11.8563 61.9774 11.6397 59.442 12.0166C57.4011 12.2563 55.4299 12.9067 53.6471 13.9285C51.1056 15.3797 49.1562 17.6792 48.1407 20.424C47.0479 23.3259 46.8791 26.4947 47.6574 29.4963C48.1317 31.7274 49.1878 33.7932 50.7188 35.484C52.2498 37.1748 54.2011 38.4303 56.3743 39.123C58.4676 39.8408 60.687 40.1169 62.8923 39.9338C64.2112 39.8404 65.5206 39.6428 66.8084 39.3429C68.7166 38.8925 70.4912 37.997 71.9872 36.7296C73.3653 35.575 74.4177 34.0804 75.0402 32.3937C75.0182 32.3695 75.0015 32.3474 74.9875 32.3288C74.9642 32.298 74.9482 32.277 74.9281 32.2721C72.9264 31.768 70.924 31.2663 68.9211 30.7668C68.8598 30.739 68.7934 30.7244 68.7261 30.7239C68.6588 30.7234 68.5922 30.737 68.5305 30.7638C68.4688 30.7907 68.4134 30.8302 68.368 30.8799C68.3225 30.9295 68.288 30.9881 68.2666 31.0519C68.0656 31.4389 67.8056 31.7922 67.4958 32.0991C66.6057 33.0341 65.4813 33.7134 64.2395 34.0663C62.9978 34.4192 61.6842 34.4329 60.4354 34.1058C59.0412 33.7921 57.7832 33.042 56.8442 31.9646ZM67.379 20.9259C67.7953 21.6834 68.0571 22.516 68.1493 23.3754H55.1984C54.9637 20.8933 58.1602 17.7577 60.8812 17.5839C61.7395 17.4819 62.6096 17.5512 63.4409 17.7878C64.2722 18.0245 65.0484 18.4236 65.7244 18.9623C66.4003 19.501 66.9628 20.1684 67.379 20.9259ZM170.38 35.3147C170.131 35.4772 169.892 35.6557 169.666 35.8492C169.37 36.1473 169.08 36.4517 168.791 36.756L168.791 36.7562L168.79 36.7566L168.79 36.7568L168.79 36.7569L168.79 36.7571L168.79 36.7572L168.79 36.7574C168.292 37.2803 167.794 37.8031 167.267 38.2939C166.303 39.1247 165.116 39.6531 163.854 39.8131C161.83 40.176 159.743 39.8961 157.886 39.0127C156.685 38.4445 155.618 37.6293 154.753 36.6204C153.889 35.6115 153.247 34.4316 152.87 33.1577C152.451 31.9175 152.241 30.616 152.25 29.3068C152.266 25.4381 152.263 21.5695 152.261 17.7008C152.26 16.2759 152.259 14.8511 152.259 13.4263V12.6797H159.877V13.4106C159.877 14.7381 159.876 16.0656 159.875 17.393C159.873 20.9567 159.87 24.5204 159.887 28.0841C159.856 29.4237 160.315 30.7286 161.177 31.7542C161.619 32.2667 162.17 32.6734 162.791 32.9442C163.411 33.215 164.084 33.3429 164.76 33.3185C165.534 33.3467 166.306 33.2058 167.02 32.9056C167.735 32.6055 168.375 32.1532 168.897 31.5803C169.842 30.5994 170.371 29.2918 170.375 27.9302C170.394 23.0796 170.392 18.2288 170.37 13.3776C170.37 12.7884 170.543 12.6267 171.12 12.6354C173.233 12.6667 175.348 12.6589 177.465 12.6354C177.942 12.631 178.137 12.7371 178.137 13.2698C178.121 21.7236 178.121 30.1774 178.137 38.6311C178.137 39.0613 178.03 39.2395 177.563 39.2395C175.369 39.2204 173.176 39.2204 170.981 39.2395C170.542 39.2395 170.373 39.1135 170.383 38.6563C170.393 37.9899 170.389 37.3228 170.385 36.6048C170.382 36.1945 170.38 35.7676 170.38 35.3147ZM184.324 12.9757C184.124 12.8899 183.92 12.8026 183.711 12.711C183.705 12.7961 183.698 12.8704 183.692 12.938C183.681 13.0567 183.672 13.1544 183.671 13.2525C183.679 21.7045 183.674 30.1562 183.658 38.6077C183.656 39.15 183.864 39.2369 184.334 39.2369C186.447 39.2178 188.56 39.2091 190.672 39.2412C191.254 39.2499 191.42 39.0813 191.42 38.4964C191.397 34.1905 191.397 29.8842 191.42 25.5777C191.42 24.8246 191.503 24.0739 191.667 23.3389C191.821 22.4482 192.188 21.6078 192.737 20.8899C193.286 20.172 194.001 19.5979 194.82 19.2169C196.168 18.6847 197.654 18.615 199.045 19.0188C199.553 19.1299 200.052 19.2783 200.574 19.4333L200.574 19.4334C200.815 19.5051 201.061 19.5782 201.315 19.6497V14.0355C201.315 12.6684 201.119 12.4494 199.739 12.2834C199.677 12.2757 199.614 12.2736 199.552 12.2716C199.474 12.2691 199.397 12.2665 199.321 12.253C197.826 11.9995 196.29 12.2661 194.969 13.0083C193.563 13.7171 192.443 14.8876 191.798 16.3238C191.479 16.2872 191.165 16.2158 190.862 16.1108C189.861 15.6323 188.865 15.1431 187.868 14.6539C187.108 14.2805 186.347 13.9071 185.585 13.5384C185.177 13.3409 184.759 13.1621 184.324 12.9758L184.324 12.9757ZM80.7823 12.6702H88.3241V39.1813H80.7823V12.6702Z" fill="#0B0B0B"/>
</g>
<defs>
<clipPath id="clip0">
<rect width="200.924" height="40" fill="white" transform="translate(0.391357)"/>
</clipPath>
</defs>
</svg>
