<svg width="110" height="40" viewBox="0 0 110 40" fill="none" xmlns="http://www.w3.org/2000/svg">
<path fill-rule="evenodd" clip-rule="evenodd" d="M0.603516 40H109.077V0H0.603516V40ZM82.2711 7.49744V19.9883H78.1307V7.49744H42.2823L35.0289 19.1874V7.49744H27.2426L21.9641 14.4641L16.6156 7.49744H8.82513V32.2066H16.6164V19.0341L21.9649 25.9666L27.2434 19.1233V32.2066H35.2229L38.4633 26.9791H46.6908V32.2066H54.4829V14.5183H58.6233V32.2066H66.4155V14.5183H70.3386V27.0091H82.2711V32.2066H90.0632V7.49827H82.2711V7.49744ZM46.6908 13.7183V19.9633H42.8168L46.6908 13.7183ZM93.2447 7.49744V22.6116L101.036 17.9224V7.49744H93.2447ZM101.607 27.6466C101.397 25.5283 99.6813 23.8133 97.5591 23.605C94.6925 23.3208 92.3022 25.7075 92.5861 28.5716C92.7968 30.69 94.5127 32.4042 96.6341 32.6133C99.5015 32.8967 101.891 30.51 101.607 27.6466Z" fill="#0B0B0B"/>
</svg>
