<svg width="84" height="40" viewBox="0 0 84 40" fill="none" xmlns="http://www.w3.org/2000/svg">
<g clip-path="url(#clip0)">
<path d="M7.84273 8.42829L13.8349 16.4244H9.65019L3.83487 8.72299V16.4244H0.475342V0.196464H3.83487V8.0943L9.66984 0.196464H13.8152L7.84273 8.42829ZM17.8624 16.4244H14.5028V0.196464H19.2966C22.106 0.196464 24.385 2.47544 24.385 5.28487C24.385 8.0943 22.106 10.3733 19.2966 10.3733H17.8624V16.4244ZM17.8624 7.01375H19.2966C20.2592 7.01375 21.0254 6.20825 21.0254 5.26523C21.0254 4.3222 20.2396 3.5167 19.2966 3.5167H17.8624V7.01375ZM33.2651 16.5815C28.6875 16.5815 24.994 12.888 24.994 8.31041C24.994 3.73281 28.6875 0 33.2651 0C37.8427 0 41.5755 3.71316 41.5755 8.31041C41.5755 12.9077 37.8427 16.5815 33.2651 16.5815ZM38.1964 8.31041C38.1964 5.59921 35.9763 3.37917 33.2651 3.37917C30.5539 3.37917 28.3339 5.59921 28.3339 8.31041C28.3339 11.0216 30.5539 13.2416 33.2651 13.2416C35.9763 13.2416 38.1964 11.0216 38.1964 8.31041ZM50.8683 16.5815C51.2023 16.5815 51.5362 16.5619 51.8702 16.5226V13.1238C51.5362 13.2024 51.2219 13.2416 50.8683 13.2416C48.1571 13.2416 45.937 11.0216 45.937 8.31041C45.937 5.59921 48.1571 3.37917 50.8683 3.37917C51.2023 3.37917 51.5559 3.41847 51.8702 3.45776V0.0589391C51.5362 0.0196464 51.2023 0 50.8683 0C46.2907 0 42.5971 3.71316 42.5971 8.31041C42.5971 12.9077 46.271 16.5815 50.8683 16.5815ZM60.4557 16.5815C60.7897 16.5815 61.1237 16.5619 61.4577 16.5226V13.1238C61.1237 13.2024 60.8093 13.2416 60.4557 13.2416C57.7445 13.2416 55.5245 11.0216 55.5245 8.31041C55.5245 5.59921 57.7445 3.37917 60.4557 3.37917C60.7897 3.37917 61.1433 3.41847 61.4577 3.45776V0.0589391C61.1237 0.0196464 60.7897 0 60.4557 0C55.8781 0 52.1846 3.71316 52.1846 8.31041C52.1846 12.9077 55.8584 16.5815 60.4557 16.5815ZM10.2003 27.3281H3.83487V20.9234H0.475342V37.1513H3.83487V30.6876H10.2003V37.1513H13.5402V20.9234H10.2003V27.3281ZM46.3103 20.9234H42.9508V33.7917H37.3319V20.9234H33.9724V37.1513H42.9508H45.4655V40H48.825V37.1513V36.6208V33.7917H46.2907V20.9234H46.3103ZM27.6463 20.9234H30.9861V37.1513H27.6266V35.8939H18.7858L18.0392 37.1513H14.6797L24.2671 20.9234H27.607H27.6463ZM27.607 32.5344V24.2829H25.6423L20.77 32.5344H27.607ZM53.0097 31.336V20.9234H49.6502V37.1513H53.5598L59.5323 26.7583V37.1513H62.8918V20.9234H59.0215L53.0097 31.336ZM69.827 31.336V20.9234H66.4675V37.1513H70.3771L76.3496 26.7583V37.1513H79.7091V20.9234H75.8584L69.827 31.336ZM61.3594 6.87623V9.88212H69.827L67.5873 13.3988H70.5932L73.7759 8.36935L70.5932 3.33988H67.5873L69.8467 6.87623H61.3594ZM72.6561 13.3988H75.662L78.8447 8.36935L75.662 3.33988H72.6561L75.8388 8.36935L72.6561 13.3988ZM80.7111 3.35953H77.7052L80.8879 8.389L77.7052 13.4185H80.7111L83.8938 8.389L80.7111 3.35953Z" fill="#0B0B0B"/>
</g>
<defs>
<clipPath id="clip0">
<rect width="83.4185" height="40" fill="white" transform="translate(0.475342)"/>
</clipPath>
</defs>
</svg>
