<svg width="62" height="40" viewBox="0 0 62 40" fill="none" xmlns="http://www.w3.org/2000/svg">
<g clip-path="url(#clip0)">
<path fill-rule="evenodd" clip-rule="evenodd" d="M59.9959 16.3721V16.3004L59.6067 16.0089L59.3989 15.8441C59.3571 15.8123 59.3165 15.784 59.2762 15.756L59.276 15.7558L59.2759 15.7558C59.2588 15.7438 59.2417 15.7319 59.2246 15.7198L54.5702 12.1859V12.1333H54.5081L52.5164 10.6256V8.56833L49.5672 6.00693L51.363 5.02728L49.2543 4.01896C47.9887 3.41444 46.594 3.04648 44.7337 2.82426C44.2251 2.76453 43.6232 2.72152 42.9379 2.69763C41.8193 1.73874 40.5767 0.93505 39.2435 0.308232L38.5939 0L38.0232 0.434869C37.4853 0.849767 37.0653 1.39842 36.8053 2.0262C35.5634 1.62308 34.2828 1.35081 32.9843 1.21381L32.0721 1.13735L31.7617 1.99992C31.4809 2.76625 31.2628 3.55416 31.1097 4.35586C31.081 4.5948 31.062 4.80507 31.05 5.01772L30.0685 5.46932C29.844 5.36512 29.5996 5.31052 29.3521 5.30923H29.2088L26.73 1.00833L25.4905 6.21242L22.1592 2.70718V8.69975C21.8822 8.88257 21.7013 9.01128 21.6323 9.06044L21.6051 9.07967L21.2517 9.33775L21.149 9.76308C21.1323 9.83708 21.118 9.916 21.1037 10.002C18.9329 11.1967 16.7286 12.5013 14.7752 13.825L11.7304 15.8894L14.6845 16.8619C12.6116 18.2119 9.87965 20.1354 7.68739 22.2811H1.91779L1.02703 25.8652L4.31303 29.1195L2.38107 36.7249H10.1161L10.6223 34.8326L12.5328 36.7249H23.1598L25.309 34.5004L24.712 36.7249H33.5718L35.8405 35.277L37.3187 36.7249H41.474L43.7451 35.2674L45.2329 36.7226H52.932L55.8168 25.8963L53.0442 23.1771C53.1592 23.1771 53.2775 23.1815 53.4002 23.1861C53.5323 23.1911 53.6696 23.1963 53.8132 23.1963C55.258 23.1963 56.7123 23.0409 56.772 23.0338L57.2281 22.9859L59.6162 20.3242L60.5714 19.3398L60.6431 19.2155C60.727 19.0658 60.7889 18.9049 60.827 18.7376L60.8748 18.3362C60.8724 17.7579 60.6646 17.0674 59.9959 16.3721ZM59.5947 18.6062L58.735 19.5046L56.6454 21.8343C56.6454 21.8343 54.0185 22.1162 52.409 21.9155L51.6592 22.6682C50.2437 22.2891 48.7996 22.0262 47.3415 21.8821C45.7907 21.8103 44.2369 21.8375 42.6895 21.9633C42.4206 22.4471 42.1938 22.9532 42.0113 23.4758H51.6592L54.4723 26.2618L51.9982 35.5303H45.7057L43.8788 33.7477L41.1014 35.5303H37.782L35.9743 33.7598L33.1993 35.5303H26.2548L27.6398 30.3214L22.6487 35.5303H13.0223L10.0014 32.5363L9.19902 35.5303H3.91661L5.63841 28.7444L2.35002 25.4877L2.85152 23.4758H8.18173C11.1601 20.439 15.4955 17.744 17.4061 16.5564L17.4642 16.5203L14.4122 15.5143L15.4438 14.8142C17.5406 13.3806 19.9216 11.9995 22.2332 10.7523C22.2356 10.5114 22.2612 10.2714 22.3096 10.0354C22.3096 10.0354 22.6893 9.75825 23.3532 9.3425V5.70348L25.6052 8.09287C25.7363 8.02465 25.8724 7.95932 26.0116 7.89252L26.0117 7.8925C26.126 7.83764 26.2424 7.78178 26.3598 7.72252L27.1957 4.23161L28.6524 6.75481C28.8745 6.67357 29.1014 6.59472 29.3306 6.51587C29.4475 6.51087 29.5622 6.54897 29.6528 6.62298C29.7435 6.69697 29.8039 6.8017 29.8225 6.91729C30.8924 6.41313 31.733 6.03083 32.2441 5.80144C32.2279 5.37448 32.2471 4.94692 32.3014 4.52312C32.4441 3.8025 32.6422 3.09395 32.8936 2.40373C34.5219 2.58194 36.1178 2.98396 37.6363 3.59843C37.6558 3.17252 37.7644 2.75545 37.9553 2.37428C38.1462 1.99311 38.415 1.65635 38.7444 1.38585C38.7444 1.38585 41.0656 2.45391 42.4411 3.88037C43.203 3.8971 43.9528 3.93772 44.5905 4.01179C46.4364 4.23161 47.6639 4.58524 48.7338 5.09658L47.4824 5.77994L51.3177 9.12508V11.2302L58.4819 16.6636L58.6706 16.7998L58.8067 16.9098L58.8496 16.9432C59.9983 17.8989 59.5947 18.6062 59.5947 18.6062ZM24.4478 14.0856L24.4478 14.0857L24.4684 14.2143C24.5485 14.6687 24.6522 15.1184 24.7788 15.562C24.8154 15.7187 24.8641 15.8719 24.9132 16.0261L24.9388 16.1068L25.6552 14.3697L27.6086 15.1917C27.6086 15.1702 27.6086 15.1463 27.5896 15.1248C27.5305 14.9354 27.4854 14.7448 27.4404 14.5549L27.4403 14.5545C27.4234 14.4832 27.4065 14.412 27.3889 14.341C27.3245 14.0806 27.2815 13.8225 27.2481 13.5668C27.1804 13.0755 27.1381 12.5811 27.1215 12.0854V11.2468L26.3215 13.1583L24.2176 12.2742C24.2296 12.3737 24.2406 12.4778 24.252 12.5855L24.252 12.5855L24.2521 12.5865C24.2656 12.7137 24.2796 12.8458 24.2964 12.9814C24.3265 13.328 24.3857 13.6978 24.4478 14.0856ZM57.0586 17.524H56.1368C56.0972 18.0593 55.9905 18.5876 55.8192 19.0962C56.3305 19.0707 56.833 18.9524 57.3022 18.7474L55.9529 20.2503C55.9529 20.2503 53.3332 20.5752 52.0556 20.193C51.4684 20.016 50.9065 19.7638 50.3839 19.4427C50.0841 19.252 49.7966 19.0359 49.5105 18.8208C48.5634 18.1087 47.6318 17.4083 46.3242 17.6817C45.1659 17.9254 44.4185 18.757 43.7499 19.6721C44.1128 19.4737 44.5116 19.2635 44.9271 19.0867C44.9082 19.4892 44.9903 19.8901 45.1659 20.2527C43.6997 20.2075 42.2321 20.2666 40.7742 20.4295C40.0051 20.5084 39.2406 20.6281 38.4841 20.7879L38.7946 19.1871L36.0507 22.5967C36.0507 22.5967 37.6029 22.4032 39.6328 22.2097C39.3055 22.5969 39.0256 23.0221 38.7993 23.476H12.9818C16.3944 19.2802 21.4093 16.174 21.4093 16.174L18.0063 15.0176C19.2815 14.2099 20.6379 13.4214 21.9729 12.6664C21.9872 12.8456 22.004 13.032 22.0302 13.2279C22.078 13.6819 22.1615 14.1597 22.2691 14.6616C22.3879 15.1879 22.5362 15.7072 22.7132 16.217C22.8016 16.4847 22.8995 16.7547 23.0236 17.0175C23.0637 17.1023 23.1026 17.1879 23.1415 17.2737C23.2233 17.4539 23.3055 17.6352 23.4009 17.8132L23.6112 18.2074C23.6489 18.2704 23.6878 18.3318 23.7264 18.3928L23.7264 18.3928L23.7264 18.3928L23.7265 18.3928L23.7265 18.3928L23.7265 18.3929L23.7265 18.3929L23.7265 18.3929L23.7265 18.3929L23.7265 18.3929L23.7265 18.3929L23.7266 18.393L23.7266 18.393L23.7266 18.393L23.7266 18.393L23.7266 18.393L23.7266 18.393L23.7266 18.3931L23.7266 18.3931C23.7685 18.4592 23.8102 18.525 23.8499 18.5921C24.0028 18.8502 24.1818 19.0987 24.3586 19.3423C24.4762 19.5045 24.6022 19.6572 24.7297 19.8116L24.7298 19.8117C24.7938 19.8893 24.8583 19.9673 24.9222 20.0472L25.2303 20.377C25.3293 20.488 25.4345 20.5933 25.5455 20.6923C25.7556 20.8951 25.9764 21.0866 26.207 21.2658L26.5509 21.5191C26.6234 21.5763 26.701 21.6264 26.7777 21.676L26.7777 21.676L26.7778 21.6761L26.7778 21.6761L26.7778 21.6761L26.7778 21.6761L26.7778 21.6761L26.7778 21.6761L26.7779 21.6761L26.7779 21.6761L26.7779 21.6761L26.7779 21.6762L26.7779 21.6762L26.7779 21.6762L26.778 21.6762L26.778 21.6762L26.778 21.6762L26.778 21.6762L26.778 21.6762L26.778 21.6762L26.7781 21.6763L26.7781 21.6763L26.7781 21.6763L26.7781 21.6763L26.7781 21.6763L26.7781 21.6763L26.7782 21.6763L26.7782 21.6763L26.7782 21.6763L26.7782 21.6764L26.7782 21.6764L26.7783 21.6764L26.7783 21.6764C26.82 21.7034 26.8616 21.7303 26.9019 21.758L27.2506 21.9827L27.604 22.1833L27.9479 22.3721C28.0177 22.4078 28.0922 22.4398 28.1662 22.4715C28.211 22.4908 28.2556 22.51 28.2989 22.5298C28.7278 22.7217 29.168 22.8868 29.6172 23.0244L30.2165 23.1773L30.5055 23.2442L30.773 23.2753C31.0669 23.3308 31.3634 23.3715 31.6613 23.3972C32.1581 23.4473 32.4375 23.4473 32.4375 23.4473C32.4375 23.4473 32.1724 23.3278 31.721 23.1439C31.5963 23.0967 31.4743 23.0424 31.3557 22.9814L30.9282 22.7807L30.6894 22.6684L30.4506 22.537L29.9395 22.2598C29.8 22.1622 29.6542 22.0714 29.5059 21.979L29.5058 21.979L29.5058 21.979L29.5058 21.979L29.5057 21.979L29.5057 21.9789L29.5057 21.9789L29.5057 21.9789L29.5056 21.9789L29.5056 21.9789L29.5056 21.9789L29.5055 21.9788L29.5055 21.9788L29.5055 21.9788L29.5055 21.9788L29.5054 21.9788L29.5054 21.9788L29.5054 21.9787L29.5053 21.9787L29.5053 21.9787L29.5053 21.9787L29.5053 21.9787L29.5052 21.9787C29.2906 21.845 29.0709 21.7082 28.8578 21.543C28.8254 21.5189 28.793 21.4954 28.7607 21.4719L28.7606 21.4718L28.7604 21.4717L28.7604 21.4717L28.7603 21.4717L28.7603 21.4716L28.7603 21.4716L28.7602 21.4716L28.7602 21.4715L28.7601 21.4715L28.7601 21.4715L28.76 21.4714L28.76 21.4714L28.7599 21.4714L28.7599 21.4713L28.7598 21.4713L28.7598 21.4713L28.7598 21.4712L28.7597 21.4712L28.7597 21.4712L28.7596 21.4711L28.7596 21.4711L28.7595 21.4711L28.7595 21.471L28.7594 21.471C28.6993 21.4273 28.6395 21.3839 28.5808 21.3375L28.3061 21.1152L28.0315 20.8907L27.7664 20.6398C27.7352 20.6095 27.7032 20.5795 27.6709 20.5494C27.6142 20.4963 27.557 20.4429 27.5037 20.3865L27.2506 20.1142C27.1503 20.0081 27.0563 19.8922 26.9609 19.7748C26.8995 19.6991 26.8375 19.6227 26.7729 19.5478C26.6082 19.3567 26.4578 19.1512 26.3216 18.9386C26.284 18.8798 26.2458 18.8212 26.2075 18.7625L26.2075 18.7624C26.1075 18.6089 26.0072 18.4549 25.9156 18.2958C25.8266 18.161 25.7571 18.024 25.6865 17.8847L25.6769 17.8657L27.3915 18.5825L28.1939 16.671C28.2815 16.8499 28.3771 17.0287 28.4727 17.2075C28.5048 17.2676 28.5369 17.3277 28.5688 17.3878L28.7885 17.7391C28.8177 17.7803 28.8459 17.8215 28.8741 17.8625C28.9241 17.9356 28.9738 18.008 29.0273 18.0783C29.181 18.2985 29.3468 18.5098 29.524 18.7116L29.7819 19.0102C29.8442 19.0776 29.9113 19.1414 29.9772 19.2042L29.9772 19.2042L29.9772 19.2042L29.9772 19.2042L29.9772 19.2043L29.9772 19.2043L29.9772 19.2043L29.9773 19.2043L29.9773 19.2043L29.9773 19.2043L29.9773 19.2043L29.9773 19.2043L29.9773 19.2043L29.9773 19.2044L29.9773 19.2044L29.9774 19.2044L29.9774 19.2044L29.9774 19.2044L29.9774 19.2044L29.9774 19.2044L29.9774 19.2044L29.9774 19.2045L29.9774 19.2045L29.9774 19.2045L29.9775 19.2045L29.9775 19.2045L29.9775 19.2045L29.9775 19.2045L29.9775 19.2045L29.9775 19.2045L29.9775 19.2046L29.9775 19.2046L29.9775 19.2046L30.01 19.2356C30.0265 19.2513 30.0428 19.267 30.059 19.2827L30.3312 19.5478L30.6154 19.7867L30.8924 20.0257C30.9579 20.0749 31.0245 20.1206 31.0907 20.1661L31.0908 20.1662C31.1211 20.187 31.1513 20.2078 31.1813 20.2288C31.5331 20.4789 31.9009 20.7056 32.2822 20.9074L32.7957 21.1463L32.8286 21.1619C32.8983 21.1948 32.9664 21.227 33.0345 21.2538L33.2733 21.3422C33.3523 21.3705 33.4282 21.3986 33.5012 21.4256C33.7061 21.5014 33.888 21.5687 34.0518 21.6075C34.5032 21.7293 34.742 21.7891 34.742 21.7891C34.742 21.7891 34.5294 21.6314 34.1569 21.3924C34.0613 21.3303 33.9586 21.2634 33.8536 21.1798L33.505 20.9242L33.3163 20.7832L33.1229 20.6231L32.7097 20.2814C32.6291 20.2036 32.5455 20.1262 32.4605 20.0475L32.4605 20.0475L32.4604 20.0474L32.4604 20.0474C32.2609 19.8627 32.0538 19.671 31.8595 19.4499C31.8099 19.3919 31.7578 19.335 31.7083 19.2809C31.6865 19.257 31.6651 19.2336 31.6447 19.2109C31.5778 19.1368 31.5085 19.0557 31.4393 18.972L31.2291 18.7187C31.1855 18.659 31.1419 18.5971 31.0984 18.5352L31.0983 18.5351L31.0357 18.4463C31.0158 18.4184 30.9955 18.3907 30.9752 18.3629L30.9752 18.3628C30.9294 18.3004 30.8835 18.2377 30.8423 18.1716L30.6607 17.8824C30.5803 17.7639 30.5114 17.6348 30.4425 17.5055L30.4424 17.5054L30.4424 17.5054L30.4424 17.5054L30.4424 17.5054L30.4424 17.5054L30.4424 17.5054L30.4424 17.5053L30.4424 17.5053L30.4424 17.5053L30.4423 17.5053L30.4423 17.5053L30.4423 17.5053L30.4423 17.5052L30.4423 17.5052L30.4423 17.5052L30.4423 17.5052L30.4423 17.5052L30.4422 17.5051L30.4422 17.5051L30.4422 17.5051L30.4422 17.5051L30.4422 17.5051L30.4422 17.5051L30.4422 17.505L30.4422 17.505L30.4422 17.505L30.4421 17.505L30.4421 17.505L30.4421 17.505L30.4421 17.5049L30.4421 17.5049L30.4421 17.5049L30.442 17.5048L30.442 17.5048L30.442 17.5047L30.4419 17.5046L30.4419 17.5046L30.4418 17.5045L30.4418 17.5044L30.4418 17.5044L30.4417 17.5042C30.4024 17.4305 30.3631 17.3569 30.3216 17.2851C30.207 17.0867 30.0948 16.8765 30.0207 16.6591C29.9855 16.5555 29.9464 16.4531 29.9072 16.3501C29.8641 16.2369 29.8207 16.1232 29.7819 16.0067C29.6322 15.5678 29.5125 15.1192 29.4237 14.6639C29.3736 14.4417 29.3353 14.2195 29.3114 13.9925C29.3038 13.9201 29.2943 13.8486 29.2848 13.7777C29.2646 13.6263 29.2446 13.4772 29.2446 13.3258C29.2088 12.9039 29.1953 12.4804 29.204 12.0571C29.2183 11.6533 29.2327 11.2662 29.2661 10.9173C29.2995 10.5685 29.3378 10.2459 29.3807 9.96158C29.4237 9.67725 29.4643 9.43116 29.5049 9.23042L29.5179 9.16631C29.5522 8.99604 29.5794 8.86113 29.6028 8.77166V8.75258C30.8494 8.15523 31.8763 7.68213 32.5498 7.37867C32.7023 7.87802 32.9596 8.33908 33.3043 8.73108C32.8611 9.23458 32.4495 9.76533 32.0721 10.32C30.7897 12.4728 30.7897 14.1741 30.7897 14.1741L33.2709 13.4883C33.2709 13.4883 32.8673 15.2661 33.7104 16.2409C34.176 14.1884 35.7235 12.5158 35.7235 12.5158C35.7235 12.5158 35.0142 11.8397 33.0202 11.9305C33.0202 11.9305 33.4763 10.5207 35.4608 8.84816L34.9617 8.2747C33.427 6.61427 33.9642 4.24557 34.0209 3.99525C34.0239 3.98226 34.0255 3.97497 34.0255 3.97379C37.5121 4.8961 39.5635 6.32973 39.5635 6.32973L39.8572 5.76345C41.5654 5.61132 43.2827 5.59056 44.994 5.70132L49.7701 9.83016V12.0189L52.397 14.0068C52.3963 14.0742 52.3899 14.1413 52.378 14.2076C52.3645 14.2884 52.3453 14.3682 52.3207 14.4465C52.2914 14.5278 52.2579 14.6076 52.2204 14.6854C52.1762 14.7682 52.1268 14.848 52.0723 14.9244C52.0172 15.0035 51.9566 15.0786 51.8908 15.149C51.8284 15.2233 51.7597 15.2921 51.6854 15.3545C51.6645 15.3726 51.644 15.3909 51.6237 15.4091C51.5744 15.4532 51.526 15.4964 51.4753 15.5337L51.2675 15.677C51.163 15.7491 51.0546 15.8153 50.9428 15.8753L50.8137 15.9494L50.9571 15.9183C50.9887 15.91 51.026 15.9026 51.0675 15.8942L51.0677 15.8942L51.0678 15.8942C51.1451 15.8787 51.2374 15.8602 51.3368 15.8276L51.5899 15.7463C51.6433 15.729 51.6976 15.7056 51.7538 15.6813C51.7906 15.6654 51.8282 15.6491 51.8669 15.634C51.9665 15.5905 52.063 15.5402 52.1558 15.4835C52.2572 15.4277 52.3538 15.3637 52.4448 15.2923C52.54 15.2187 52.6301 15.1389 52.7147 15.0534C52.7952 14.9682 52.8701 14.8781 52.9392 14.7834C52.9975 14.7077 53.0501 14.6278 53.0967 14.5445L53.5218 14.867C53.5167 14.8946 53.5094 14.9217 53.5004 14.9482L53.4792 15.0115L53.4791 15.0117C53.4566 15.0787 53.4331 15.1489 53.4096 15.2231C53.3908 15.2825 53.364 15.342 53.3362 15.4037L53.3362 15.4037C53.3183 15.4436 53.2999 15.4843 53.2831 15.5265C53.2375 15.6365 53.1865 15.7442 53.1302 15.8491L52.9463 16.1764L52.8555 16.3412C52.8369 16.3719 52.8169 16.401 52.7969 16.4299C52.7811 16.4529 52.7653 16.4757 52.7505 16.499L52.5404 16.8048C52.5166 16.8384 52.4937 16.8723 52.4711 16.9057C52.4277 16.9699 52.3853 17.0326 52.3397 17.0892L52.1415 17.3281L51.7284 17.8299L52.2562 17.4452L52.5141 17.2564C52.5609 17.217 52.6065 17.1762 52.6528 17.1349L52.6529 17.1348C52.6962 17.096 52.7402 17.0568 52.7863 17.0175L53.0752 16.7642C53.0906 16.7504 53.1064 16.7367 53.1223 16.7227L53.1224 16.7227L53.1224 16.7227L53.1224 16.7227L53.1224 16.7226L53.1225 16.7226C53.1563 16.6931 53.1909 16.6628 53.2233 16.6304L53.3618 16.487L53.6317 16.1955C53.7212 16.0986 53.8049 15.9965 53.8825 15.8897L53.9144 15.8526L53.9145 15.8526C53.9909 15.7641 54.0625 15.6813 54.1213 15.591L54.243 15.4022L57.0586 17.524ZM34.9856 5.16132C34.9856 5.16132 34.8279 7.04416 36.1796 8.26753C36.9702 7.69229 37.8074 7.18398 38.6823 6.74787C38.3122 6.54 36.0268 5.28318 34.9856 5.16132ZM50.009 14.0188C50.0944 14.0388 50.1816 14.0501 50.2693 14.0522L50.3457 14.0547L50.2812 13.9877C50.223 13.931 50.1687 13.8703 50.1189 13.8062C50.0817 13.7647 50.0474 13.7207 50.0162 13.6747C50.006 13.6595 49.9956 13.6442 49.985 13.6287L49.9837 13.6268L49.9834 13.6263C49.9598 13.5917 49.9354 13.556 49.9111 13.517C49.8843 13.4742 49.8576 13.4287 49.8298 13.3815L49.8012 13.333C49.763 13.2685 49.7248 13.1992 49.6889 13.1227C49.6444 13.0378 49.5988 12.9466 49.5508 12.8502L49.5507 12.8501C49.4338 12.6159 49.3018 12.3514 49.1326 12.0738C49.0157 11.8645 48.8849 11.6633 48.7409 11.4717C48.6664 11.3689 48.5867 11.27 48.5021 11.1754L48.3707 11.0297L48.249 10.903L48.1868 10.8409L48.1702 10.8266L48.1582 10.8146H48.1463C48.1448 10.777 48.1408 10.7394 48.1344 10.7023C48.1089 10.5112 48.0706 10.322 48.0197 10.136L47.9433 9.88275C47.9147 9.79433 47.886 9.71792 47.8549 9.64383C47.8019 9.51066 47.7413 9.38058 47.6735 9.25433C47.6235 9.15625 47.5677 9.06133 47.5063 8.97C47.4767 8.92121 47.4462 8.88065 47.4211 8.84719L47.421 8.84714L47.421 8.84703C47.4055 8.82649 47.3921 8.80862 47.3821 8.79317L47.3343 8.73583C47.3343 8.73583 47.332 8.85533 47.3343 9.02258C47.3352 9.08628 47.3386 9.16245 47.3423 9.24872V9.24882V9.24894C47.3485 9.38915 47.3558 9.55603 47.3558 9.73942V10.2172V10.3177L47.1528 10.2436C47.1113 10.2339 47.0703 10.2234 47.0295 10.2129L47.0295 10.2129L47.0294 10.2129C46.939 10.1896 46.8501 10.1667 46.7612 10.1552C46.0034 10.0504 45.2324 10.2054 44.5737 10.5948C44.4729 10.6528 44.377 10.7192 44.2872 10.7931L44.6262 10.8313L44.9988 10.8767C45.1397 10.8935 45.2973 10.915 45.4621 10.9437C45.5456 10.9556 45.6292 10.9723 45.7176 10.9914H45.7678C45.7224 11.5599 45.9016 12.1235 46.2669 12.5612C46.4642 12.7828 46.7092 12.9568 46.9833 13.0702C46.9663 13.2202 46.9576 13.3709 46.957 13.5218C46.9568 13.7007 46.9743 13.8792 47.0096 14.0547C47.0391 14.2039 47.0864 14.3491 47.1504 14.4871C47.1985 14.5932 47.2585 14.6935 47.3296 14.7857C47.3744 14.8424 47.4231 14.8959 47.4752 14.9459L47.5301 14.9984C47.5301 14.9984 47.5373 14.9697 47.5301 14.922C47.528 14.9076 47.5243 14.8913 47.5203 14.8732L47.5202 14.8732L47.5202 14.8731C47.5108 14.831 47.4991 14.779 47.4991 14.7189C47.4926 14.6171 47.4926 14.5149 47.4991 14.4131C47.4945 14.3526 47.4945 14.2919 47.4991 14.2314C47.5037 14.1657 47.5116 14.1004 47.523 14.0355C47.5465 13.8881 47.5784 13.7421 47.6185 13.5982L47.6411 13.5185L47.6412 13.5182L47.6413 13.5176C47.6644 13.436 47.6898 13.3462 47.7164 13.259C47.9 13.2843 48.0852 13.2972 48.2705 13.2972C48.44 13.2972 48.6215 13.2852 48.8054 13.2685L48.8401 13.3005L48.8401 13.3005C48.9495 13.4016 49.0558 13.4999 49.166 13.5863C49.3062 13.6978 49.4574 13.7947 49.6173 13.8754C49.6838 13.9111 49.7533 13.9407 49.8251 13.9638C49.8845 13.9881 49.946 14.0064 50.009 14.0188ZM47.961 12.4251H47.9878L47.9659 12.4007L47.961 12.4251ZM45.8479 18.7785C46.5858 18.6136 47.3262 18.6709 47.9709 19.2158C48.2179 19.4248 48.4421 19.6517 48.6659 19.8781C48.9332 20.1486 49.1999 20.4185 49.504 20.6565C48.4222 20.4893 47.3285 20.3674 46.2276 20.3029L46.1631 20.2264L48.1214 19.9875L45.8121 18.9243C45.8167 18.9028 45.8232 18.8821 45.8294 18.8624L45.8294 18.8623C45.839 18.8315 45.8479 18.8032 45.8479 18.7785ZM46.9829 11.4403C46.9281 11.4067 46.8707 11.377 46.8097 11.3454L46.8095 11.3453L46.7845 11.3324L46.7441 11.3113L46.6319 11.2635C46.6421 11.5261 46.7386 11.7781 46.9065 11.9803C46.9721 12.0514 47.0477 12.1125 47.131 12.1619C47.1384 12.1261 47.146 12.0903 47.1536 12.0546C47.1729 11.9641 47.192 11.8742 47.2074 11.7867L47.236 11.6481L47.174 11.5932C47.1133 11.5386 47.0495 11.4875 46.9829 11.4403ZM24.72 10.2863L24.5361 9.51686L24.3546 8.7547L24.006 7.30431L24.7105 8.55636L25.0902 9.23253L25.5057 9.97086L25.8592 10.6017L25.9857 10.8239L25.68 11.5526L24.9517 11.2468L24.9134 11.0915L24.72 10.2863ZM58.646 17.3755L58.6054 17.4663C58.6054 17.4902 58.572 17.5452 58.5648 17.5523C58.5619 17.5552 58.558 17.5618 58.553 17.5706L58.5488 17.5779L58.5488 17.578C58.542 17.5902 58.5336 17.605 58.5242 17.6192C58.5083 17.6431 58.4809 17.6702 58.4515 17.6992L58.4335 17.7172C58.3976 17.753 58.3547 17.7841 58.3045 17.8152C58.2534 17.8493 58.1999 17.8796 58.1444 17.9059C58.0849 17.9361 58.0235 17.9624 57.9606 17.9848C57.8255 18.0356 57.6865 18.0755 57.5451 18.1043C57.4233 18.1305 57.3062 18.1497 57.2084 18.1616C57.0888 18.1783 56.9684 18.1886 56.8477 18.1927C56.965 18.2249 57.0837 18.2512 57.2035 18.2715C57.3039 18.2883 57.4185 18.305 57.5451 18.3169H57.5833H57.8006C57.8801 18.322 57.9599 18.322 58.0394 18.3169C58.1195 18.3138 58.1992 18.3058 58.2782 18.293C58.3589 18.2818 58.4387 18.265 58.517 18.2428C58.5917 18.2209 58.6651 18.1946 58.7367 18.164C58.7857 18.142 58.831 18.1153 58.8745 18.0897L58.8745 18.0897C58.8926 18.0791 58.9103 18.0687 58.9278 18.0588C58.9572 18.0394 58.9852 18.0178 59.0114 17.9943L59.0973 17.9179C59.13 17.8868 59.1611 17.8542 59.1905 17.8199L59.2573 17.7434L58.9588 17.5523L58.646 17.3755ZM26.0069 16.698L26.3127 15.9686L27.0416 16.2746L26.7358 17.004L26.0069 16.698ZM10.4137 24.9597H3.97298L5.80941 26.7757H7.67689L5.71627 34.0466H6.23688L8.76347 27.0528L7.4548 34.0466H8.0351L10.0148 26.7757H12.2476L10.4137 24.9597ZM11.6382 24.9597H18.3439L20.1636 26.7613L18.6711 32.2569L17.9045 32.773L18.9696 27.0696L16.6173 33.583L15.8603 34.0609H13.5964L13.0328 33.5042L14.2388 27.0528L12.2065 32.6774L11.7624 32.2378L13.2884 26.5964L11.6382 24.9597ZM14.0859 32.2282H16.3689L17.8472 26.7757H15.5785L14.0859 32.2282ZM19.4832 24.9597L21.174 26.6322L19.1895 34.0394H19.71L22.2366 27.0457L20.928 34.0466H21.5107L22.4803 30.4099H25.5656L27.1299 28.7923L27.7579 26.4412L26.2391 24.9597H19.4832ZM25.2695 28.594H22.9841L23.488 26.7757H25.7543L25.2695 28.594ZM28.5265 24.9597H35.2346L37.083 26.7685C36.1835 30.1137 35.686 31.9455 35.5905 32.2641C35.5172 32.3039 35.2545 32.4687 34.8024 32.7587L35.8651 27.0504L33.5033 33.5902L33.1379 33.8292C33.0258 33.9232 32.8981 33.9967 32.7606 34.0466H29.8949L31.2036 27.0528L28.677 34.0466H28.1851L30.1815 26.5964C29.0893 25.5323 28.5377 24.9868 28.5265 24.9597ZM30.9814 32.2282H33.274L34.7499 26.7757H32.4835C32.2898 27.3292 32.1302 27.8942 32.006 28.4673C31.9821 28.5103 31.6406 29.764 30.9814 32.2282ZM38.0655 26.5961C38.0655 26.5961 37.5162 28.682 36.5563 32.2279C36.6231 32.302 36.7784 32.4668 37.01 32.6914L39.0471 27.0525L37.8411 33.5038L38.3903 34.0414H40.6375C40.7761 33.9925 40.9048 33.9188 41.0172 33.824L41.4113 33.5708L43.7659 27.0477L42.7032 32.7344C43.1378 32.4573 43.3909 32.2972 43.4626 32.2566C43.5581 31.938 44.0557 30.1061 44.9552 26.761L43.1211 24.9618H36.413L38.0655 26.5961ZM42.6339 26.7753L41.1605 32.2279H38.8751L40.37 26.7753H42.6339ZM44.4736 32.2278L45.9851 26.596C45.9851 26.596 44.3422 24.9855 44.3302 24.9568H51.0503C52.1138 25.9971 52.7251 26.6032 52.8844 26.7752H48.2992L46.8067 32.2278H49.0897L49.5673 30.4095H48.4162C48.4162 30.4095 48.8939 28.6365 48.8939 28.5935H52.3709L50.9142 34.0461H50.0664L50.9166 29.5063L49.2759 34.0461H46.3124L46.2773 34.0119L46.2766 34.0112C46.0989 33.8379 45.9317 33.6749 45.775 33.5181L46.9834 27.0523L44.9511 32.7057L44.4736 32.2278ZM0.89209 39.6328H1.31478V39.014H1.90225V38.7535H1.31478V38.161H2.28912V38.3665H2.68315V37.8695H0.89209V39.6328ZM3.82099 38.161H3.41024V37.8695H4.65682V38.161H4.24368V39.3413H4.65682V39.6328H3.41024V39.3413H3.82099V38.161ZM5.36877 38.7512L5.82011 39.6328H7.47983V38.7248H6.73236V38.8969H7.0858V39.3413H6.12341L5.82728 38.7512L6.12341 38.161H7.0858V38.2781H7.47983V37.8695H5.82011L5.36877 38.7512ZM8.93913 38.6938H10.0162V37.8695H10.4389V39.6328H10.0162V38.9853H8.93913V39.6328H8.51646V37.8695H8.93913V38.6938ZM11.2787 38.161H12.0143V39.6328H12.437V38.161H13.1725V37.8695H11.2787V38.161ZM14.31 38.161H13.8993V37.8695H15.1458V38.161H14.7327V39.3413H15.1458V39.6328H13.8993V39.3413H14.31V38.161ZM17.5918 38.5743L16.6103 37.8695H16.0921V39.6328H16.5147V38.3975L17.5918 39.1812V39.6328H18.0145V37.8695H17.5918V38.5743ZM19.3007 39.6328L18.8494 38.7512L19.3007 37.8695H20.958V38.2781H20.5663V38.161H19.6039L19.3079 38.7512L19.6039 39.3413H20.5663V38.8969H20.2129V38.7248H20.958V39.6328H19.3007ZM22.9958 38.7512L23.4495 39.6328H25.1069V39.1072H24.7128V39.3413H23.7504L23.4543 38.7512L23.7504 38.161H24.7128V38.3951H25.1069V37.8695H23.4495L22.9958 38.7512ZM26.5346 38.6938H27.614V37.8695H28.0367V39.6328H27.614V38.9853H26.5346V39.6328H26.1142V37.8695H26.5346V38.6938ZM28.8993 39.6328H29.3625L29.4963 39.3079H30.5804L30.7118 39.6328H31.1775L30.3966 37.8695H29.6778L28.8993 39.6328ZM29.5751 39.0785L30.036 38.1442L30.5016 39.0785H29.5751ZM32.5762 37.8695L33.1876 38.5839L33.8013 37.8695H34.3339V39.6328H33.9112V38.3927L33.1876 39.0904L32.4664 38.3927V39.6328H32.0437V37.8695H32.5762ZM37.1133 38.0606C37.047 38.0007 36.97 37.9537 36.8864 37.9221C36.7901 37.8864 36.6882 37.8686 36.5855 37.8695H35.3915V39.6328H35.8141V39.1024H36.5807C36.6835 39.1042 36.7856 39.0864 36.8816 39.0498C36.9653 39.0195 37.0423 38.9732 37.1085 38.9137C37.1696 38.8592 37.2184 38.7924 37.2518 38.7177C37.2863 38.6429 37.3034 38.5612 37.3019 38.4787C37.3029 38.3964 37.2858 38.3148 37.2518 38.2398C37.2174 38.1719 37.1703 38.1111 37.1133 38.0606ZM36.7503 38.7392C36.7194 38.7716 36.6824 38.7973 36.6414 38.815C36.6003 38.8326 36.5562 38.8418 36.5115 38.842H35.8285V38.1252H36.5115C36.6012 38.1257 36.6871 38.1617 36.7503 38.2255C36.7832 38.2589 36.8093 38.2984 36.8269 38.3419C36.8445 38.3853 36.8534 38.4319 36.853 38.4787C36.8546 38.5269 36.8463 38.5749 36.8287 38.6197C36.811 38.6645 36.7844 38.7052 36.7503 38.7392ZM38.4545 38.161H38.0413V37.8695H39.2879V38.161H38.8771V39.3413H39.2879V39.6328H38.0413V39.3413H38.4545V38.161ZM41.9916 38.0871C41.885 37.9929 41.7631 37.9177 41.631 37.8649C41.4199 37.7803 41.1894 37.7562 40.9654 37.7955C40.7414 37.8347 40.5328 37.9357 40.3629 38.0871C40.2632 38.1743 40.1819 38.2808 40.1241 38.4001C40.0698 38.5093 40.0412 38.6294 40.0405 38.7514C40.0415 38.874 40.0701 38.9949 40.1241 39.105C40.1826 39.2232 40.2637 39.3287 40.3629 39.4156C40.468 39.5105 40.5894 39.5859 40.7212 39.6378C41.0149 39.7452 41.3372 39.7452 41.631 39.6378C41.7635 39.5858 41.8856 39.5105 41.9916 39.4156C42.0894 39.3274 42.1703 39.2221 42.2304 39.105C42.2838 38.9947 42.3115 38.8739 42.3116 38.7514C42.3118 38.6296 42.284 38.5095 42.2304 38.4001C42.1718 38.2813 42.0907 38.175 41.9916 38.0871ZM41.803 39.019C41.7677 39.098 41.7183 39.1701 41.6573 39.2316C41.5618 39.3283 41.4394 39.3939 41.306 39.4199C41.1727 39.4459 41.0347 39.431 40.9098 39.3774C40.8297 39.3427 40.7568 39.2932 40.6949 39.2316C40.6336 39.1709 40.5849 39.0986 40.5516 39.019C40.5154 38.9348 40.4967 38.8441 40.4967 38.7525C40.4967 38.661 40.5154 38.5703 40.5516 38.4861C40.6193 38.3236 40.7479 38.1941 40.9098 38.1253C41.0807 38.0569 41.2714 38.0569 41.4423 38.1253C41.6043 38.1949 41.7334 38.324 41.803 38.4861C41.8729 38.6569 41.8729 38.8482 41.803 39.019ZM43.6982 37.8695L44.6797 38.5743V37.8695H45.1024V39.6328H44.6797V39.1812L43.6027 38.3975V39.6328H43.18V37.8695H43.6982ZM46.1097 38.6484L47.5068 38.9877V39.3724H46.5014V39.2242H46.1097V39.6328H47.9294V38.8396L46.5325 38.5002V38.1323H47.5354V38.2781H47.9294V37.8695H46.1097V38.6484ZM49.358 38.6938H50.4351V37.8695H50.8577V39.6328H50.4351V38.9853H49.358V39.6328H48.9353V37.8695H49.358V38.6938ZM51.8001 38.161H52.2132V39.3413H51.8001V39.6328H53.0467V39.3413H52.6359V38.161H53.0467V37.8695H51.8001V38.161ZM55.7119 38.0606C55.7715 38.1155 55.8201 38.1812 55.8552 38.2542C55.8856 38.3252 55.901 38.4016 55.9006 38.4787C55.902 38.5612 55.8849 38.6429 55.8504 38.7177C55.8162 38.792 55.7675 38.8586 55.7071 38.9137C55.6374 38.9746 55.5562 39.0209 55.4683 39.0498C55.3723 39.0864 55.2702 39.1042 55.1674 39.1024H54.4008V39.6328H53.9781V37.8695H55.1722C55.2748 37.8686 55.3768 37.8864 55.4731 37.9221C55.5609 37.9523 55.6421 37.9994 55.7119 38.0606ZM55.2399 38.8076C55.2809 38.79 55.318 38.7642 55.3489 38.7321L55.3423 38.7386C55.377 38.7038 55.404 38.6622 55.4216 38.6164C55.4393 38.5702 55.4471 38.5209 55.4444 38.4716C55.4448 38.4247 55.436 38.3782 55.4184 38.3347C55.4007 38.2912 55.3747 38.2517 55.3417 38.2183C55.2785 38.1546 55.1926 38.1185 55.1029 38.118H54.4271V38.8348H55.1101C55.1547 38.8345 55.1989 38.8252 55.2399 38.8076Z" fill="#0B0B0B"/>
</g>
<defs>
<clipPath id="clip0">
<rect width="60.8" height="40" fill="white" transform="translate(0.591309)"/>
</clipPath>
</defs>
</svg>
