<svg width="41" height="40" viewBox="0 0 41 40" fill="none" xmlns="http://www.w3.org/2000/svg">
<g clip-path="url(#clip0)">
<path d="M0.591309 0V40H40.5913V0H0.591309ZM13.9513 12.2H18.8113L20.1513 15.64H13.4713L13.9513 12.2ZM3.91131 12.2H12.7513L12.8913 15.64H3.13131L3.91131 12.2ZM3.85131 29.5H3.11131V25.68H3.79131V28.36H3.83131V29.5H3.85131ZM5.05131 27.9H3.99131V27.32H5.05131V27.9ZM5.29131 26.26H3.99131V25.68H5.27131V26.26H5.29131ZM6.81131 29.5H6.07131V25.68H6.81131V29.5ZM8.99131 26.22C8.81131 26.22 8.69131 26.3 8.59131 26.42C8.49131 26.56 8.43131 26.76 8.43131 27.02V28.18C8.43131 28.46 8.49131 28.66 8.59131 28.78C8.69131 28.9 8.83131 28.96 8.99131 28.98V29.56C8.61131 29.54 8.29131 29.44 8.05131 29.2C7.81131 28.96 7.67131 28.62 7.67131 28.18V27.02C7.67131 26.58 7.79131 26.24 8.03131 26C8.27131 25.76 8.59131 25.64 8.97131 25.64V26.22H8.99131ZM10.3113 29C10.2113 29.16 10.0513 29.28 9.85131 29.4C9.67131 29.5 9.45131 29.54 9.19131 29.56V28.98C9.27131 28.98 9.33131 28.96 9.39131 28.94C9.47131 28.9 9.53131 28.86 9.57131 28.8V28.04H9.19131V27.52H10.3113V29ZM9.19131 26.22V25.64C9.51131 25.66 9.77131 25.76 9.95131 25.92C10.1713 26.12 10.2713 26.4 10.2513 26.76V26.78H9.55131C9.55131 26.58 9.51131 26.44 9.41131 26.34C9.37131 26.28 9.29131 26.24 9.19131 26.22ZM12.4913 27.9H11.9113V29.48H11.1713V25.66H11.9113V27.3H12.4913V27.9ZM13.8713 29.5H13.1313V27.92H12.6913V27.34H13.1313V25.7H13.8713V29.5ZM16.9913 26.26H16.0913V29.5H15.3513V26.26H14.4713V25.68H16.9913V26.26ZM20.1313 29.5H19.3913V26.54L20.1313 27.82V29.5ZM22.0913 29.5H21.3513L20.1513 27.06H20.1313V27.42L19.3913 26.14V25.68H20.1313L21.3313 28.12H21.3513V27.66L22.0913 28.94V29.5ZM22.0913 28.54L21.3513 27.26V25.68H22.0913V28.54ZM19.5313 23.58L17.5113 19.02L16.7513 23.58H9.87131V22.14H6.71131L6.19131 23.58H2.65131L5.53131 16.54H9.01131L7.87131 19.34H9.79131L9.57131 16.54H13.0513L13.5113 22.34L14.3713 16.54H26.9313L25.6713 23.58H22.2913L23.0713 18.98L19.5313 23.58ZM26.1513 25.64C26.4713 25.66 26.7313 25.76 26.9113 25.92C27.1313 26.12 27.2313 26.4 27.2113 26.76V26.78H26.5113C26.5113 26.58 26.4713 26.44 26.3713 26.34C26.3113 26.28 26.2313 26.24 26.1313 26.22V25.64H26.1513ZM23.7713 29.5H23.0313V25.68H23.7713V29.5ZM25.9513 26.22C25.7713 26.22 25.6513 26.3 25.5513 26.42C25.4513 26.56 25.3913 26.76 25.3913 27.02V28.18C25.3913 28.46 25.4513 28.66 25.5513 28.78C25.6513 28.9 25.7913 28.96 25.9513 28.98V29.56C25.5713 29.54 25.2513 29.44 25.0113 29.2C24.7713 28.96 24.6313 28.62 24.6313 28.18V27.02C24.6313 26.58 24.7513 26.24 24.9913 26C25.2313 25.76 25.5513 25.64 25.9313 25.64V26.22H25.9513ZM27.2913 29C27.1913 29.16 27.0313 29.28 26.8313 29.4C26.6513 29.5 26.4313 29.54 26.1713 29.56V28.98C26.2513 28.98 26.3113 28.96 26.3713 28.94C26.4513 28.9 26.5113 28.86 26.5513 28.8V28.04H26.1713V27.52H27.2913V29ZM29.5513 27.9H28.8913V29.48H28.1513V25.66H28.8913V27.3H29.5513V27.9ZM30.8313 29.5H30.0913V27.92H29.7313V27.34H30.0913V25.7H30.8313V29.5ZM33.0713 29.5H32.3313V26.66H33.0713V29.5ZM33.9713 26.26H33.0713V26.46H32.3313V26.26H31.4513V25.68H33.9513V26.26H33.9713ZM35.7113 29.54C35.3913 29.52 35.1113 29.42 34.8913 29.24C34.6313 29.04 34.5113 28.74 34.5113 28.32V28.3H35.2313C35.2313 28.54 35.2713 28.72 35.3713 28.82C35.4513 28.9 35.5513 28.96 35.6913 28.96V29.54H35.7113ZM36.6913 29.28C36.4913 29.44 36.2313 29.54 35.9113 29.56V29C36.0113 28.98 36.1113 28.94 36.1713 28.88C36.2513 28.8 36.2913 28.68 36.2913 28.54C36.2913 28.38 36.2513 28.26 36.1713 28.18C36.0913 28.1 35.9513 28 35.7513 27.92C35.3513 27.78 35.0713 27.62 34.8713 27.46C34.6713 27.28 34.5713 27.04 34.5713 26.72C34.5713 26.4 34.6913 26.16 34.9113 25.96C35.1313 25.78 35.3913 25.68 35.7113 25.68V26.26C35.5913 26.28 35.4913 26.32 35.4313 26.4C35.3513 26.5 35.3113 26.6 35.3113 26.74C35.3113 26.86 35.3513 26.98 35.4513 27.06C35.5313 27.14 35.6913 27.24 35.9113 27.34C36.2713 27.46 36.5513 27.62 36.7513 27.8C36.9513 27.98 37.0313 28.24 37.0313 28.56C37.0313 28.82 36.9113 29.08 36.6913 29.28ZM35.9113 26.22V25.64C36.2113 25.66 36.4713 25.76 36.6713 25.94C36.8913 26.14 37.0113 26.44 36.9913 26.78V26.8H36.2713C36.2713 26.6 36.2313 26.46 36.1313 26.36C36.0913 26.28 36.0113 26.24 35.9113 26.22ZM36.4313 23.58C36.4313 23.58 30.0713 23.58 28.0313 23.58C25.9913 23.58 26.5113 21.18 26.5113 21.18L27.3713 16.54H30.6313C30.6313 16.54 30.1713 19.16 30.0313 19.7C29.8913 20.24 30.2513 20.14 30.2513 20.14H37.0713L36.4313 23.58ZM38.0513 15.64H21.7113L24.3113 12.2H38.4913L38.0513 15.64Z" fill="black"/>
</g>
<defs>
<clipPath id="clip0">
<rect width="40" height="40" fill="white" transform="translate(0.591309)"/>
</clipPath>
</defs>
</svg>
