<svg width="113" height="40" viewBox="0 0 113 40" fill="none" xmlns="http://www.w3.org/2000/svg">
<g clip-path="url(#clip0)">
<path fill-rule="evenodd" clip-rule="evenodd" d="M-5 40H6.18611L13.2923 0H0.712357L1.37148 4.14092L-5 40ZM45.341 40H40.8524C37.1458 40 34.6723 37.0174 35.3243 33.3384L40.0752 6.66159C40.7296 2.98259 44.2638 0 47.9704 0H52.4449L45.341 40ZM52.6621 6.66628L53.8433 0H68.1077C71.8143 0 74.2902 2.98259 73.6311 6.66393L72.4498 13.3349H61.2637L62.3008 7.50337C62.3245 7.4024 62.3247 7.29739 62.3014 7.19633C62.2781 7.09526 62.2319 7.0008 62.1664 6.9201C62.1008 6.83941 62.0175 6.77461 61.9229 6.73063C61.8283 6.68665 61.7249 6.66464 61.6205 6.66628H52.6621ZM57.8593 32.499L58.894 26.6675H70.0778L68.8966 33.3384C68.2422 37.0174 64.708 40 61.0013 40H46.737L47.9182 33.3338H56.8718C57.107 33.3251 57.3324 33.238 57.5116 33.0865C57.6907 32.9351 57.8132 32.7281 57.8593 32.499ZM97.0121 32.499L98.0492 26.6675H109.233L108.052 33.3384C107.4 37.0174 103.863 40 100.157 40H85.8945L87.0757 33.3338H96.0246C96.2599 33.3255 96.4855 33.2385 96.6648 33.087C96.8441 32.9355 96.9665 32.7283 97.0121 32.499ZM92.9983 0L91.8171 6.66628H100.766C100.871 6.66308 100.976 6.68397 101.071 6.72733C101.167 6.7707 101.251 6.83536 101.318 6.91632C101.384 6.99727 101.431 7.09234 101.455 7.19415C101.478 7.29596 101.478 7.40177 101.453 7.50337L100.416 13.3349H111.605L112.786 6.66393C113.443 2.98259 110.967 0 107.26 0H92.9983ZM80.019 40H84.4935L91.5997 0H87.1347C83.4186 0 79.882 2.98259 79.23 6.66159L74.491 33.3384C73.8366 37.0174 76.3124 40 80.019 40ZM28.9551 0C32.6617 0 35.1352 2.98259 34.4831 6.66159L31.634 22.6672C31.2419 24.8784 29.1181 26.6698 26.8926 26.6698H26.4769L28.6031 40.0023H17.4169L15.2907 26.6698H9.95638L11.1376 20.0035H20.0865C20.3216 19.9944 20.5467 19.9072 20.7258 19.7558C20.9049 19.6044 21.0275 19.3977 21.074 19.1688L23.1458 7.50337C23.1702 7.40177 23.1706 7.29596 23.1472 7.19415C23.1237 7.09234 23.0769 6.99727 23.0104 6.91632C22.9439 6.83536 22.8595 6.7707 22.7638 6.72733C22.6681 6.68397 22.5635 6.66308 22.4584 6.66628H13.5095L14.6907 0H28.9551Z" fill="#0B0B0B"/>
</g>
<defs>
<clipPath id="clip0">
<rect width="117.895" height="40" fill="white" transform="translate(-5)"/>
</clipPath>
</defs>
</svg>
