<svg width="173" height="40" viewBox="0 0 173 40" fill="none" xmlns="http://www.w3.org/2000/svg">
<g clip-path="url(#clip0)">
<path d="M8.54635 0V13.6C8.54635 13.6 10.5498 0 19.7086 0C30.0695 0 31.1858 12.0571 31.1858 12.0571C31.1858 12.0571 32.5882 0.171429 41.6898 0.171429C52.5658 0.171429 52.9379 16.6857 53.2528 25.6286C53.5676 34.5714 56.6587 40 56.6587 40H47.0992C48.6161 39.0857 48.1868 34.8 48.1868 34.8C48.1868 34.8 47.5857 22.0571 47.414 19.0857C47.2423 16.1143 47.0992 0.142857 39.1997 1.8C31.3002 3.45714 30.8137 19.4571 30.8137 19.4571C30.8137 19.4571 30.8137 32.6857 30.8137 35.3714C30.8137 38.0571 32.6454 40 32.6454 40H23.2863C25.0322 39.0857 25.1181 34.8286 25.1181 34.8286V14.2286C25.1181 14.2286 25.2612 1.8 17.562 1.77143C9.37636 1.77143 8.77532 22 8.77532 22C8.77532 22 8.77532 34.6286 8.77532 36.6857C8.77532 38.7429 10.4067 40 10.4067 40H0.446533C2.22105 39.4571 2.50726 36.3714 2.50726 36.3714C2.50726 36.3714 2.70761 6.8 2.50726 4.77143C2.30691 2.74286 0.618261 2.22857 0.618261 2.22857L8.54635 0ZM74.919 40C62.3829 39.6571 59.578 30.7429 59.578 25.6857C59.578 19.9714 63.814 11.0286 75.1194 11.0286C88.3138 11.0286 88.1134 20.5143 88.1134 20.5143H83.6199C93.8663 26.8857 87.9703 40.3429 74.919 40ZM65.1592 19.5714H83.4768C83.4768 19.5714 81.874 12.2286 75.0621 12.2286C67.6492 12.2286 65.1592 19.5714 65.1592 19.5714ZM87.3407 28.8857C88.2565 23.9429 82.2747 20.5429 82.2747 20.5429H64.8157C62.8122 26.4571 66.0178 37.8571 75.0335 37.8571C84.0492 37.8571 86.3962 33.9143 87.3407 28.8857ZM158.693 40C146.157 39.6571 143.352 30.7429 143.352 25.6857C143.352 19.9714 147.588 11.0286 158.894 11.0286C172.088 11.0286 171.888 20.5143 171.888 20.5143H167.394C177.641 26.8857 171.716 40.3429 158.693 40ZM148.934 19.5714H167.251C167.251 19.5714 165.648 12.2286 158.837 12.2286C151.395 12.2286 148.934 19.5714 148.934 19.5714ZM171.086 28.8857C172.002 23.9429 166.021 20.5429 166.021 20.5429H148.562C146.558 26.4571 149.764 37.8571 158.779 37.8571C167.795 37.8571 170.142 33.9143 171.086 28.8857ZM93.7232 17.3714C93.7232 17.3714 93.7232 26.4857 93.7232 31.8286C93.7232 37.1714 92.2921 40.0286 92.2921 40.0286H99.8195C98.3312 38.4571 98.3312 34.9714 98.3312 34.9714C98.3312 34.9714 98.3312 32.8571 98.3312 28.6C98.3312 24.3429 101.136 12.6571 105.086 12.6857C109.036 12.7429 109.894 20.5429 109.894 20.5429L114.245 14.7714C114.245 14.7714 112.298 10.7714 106.889 10.7714C100.077 10.7714 98.2167 21.6286 98.2167 21.6286V11.0286L92.0059 12.7714C93.8377 12.7714 93.7232 17.3714 93.7232 17.3714ZM116.42 17.9714C116.42 17.9714 119.797 15.1143 121.257 13.6571C122.717 12.2 126.151 12.2286 126.151 12.2286H133.65L114.903 40H139.202L140.347 31.8571C140.347 31.8571 137.228 35.2857 135.138 37.0571C133.049 38.8286 129.156 38.5714 129.156 38.5714H121.772L140.347 10.7429H118.538L116.42 17.9714Z" fill="#0B0B0B"/>
</g>
<defs>
<clipPath id="clip0">
<rect width="172.157" height="40" fill="white" transform="translate(0.446533)"/>
</clipPath>
</defs>
</svg>
